;TYPE=PLATED
;Layer: PTH_Through_Via
;EasyEDA Pro Client v1.9.30.011b94, 2023-06-19 19:01:05
;Gerber Generator version 0.3
M48
METRIC,LZ,000.000
;Hole size 1 = 0.305 METRIC
T01C0.305
%
G05
G90
T01
X106816Y085056
X105967Y085056
X105139Y085056
X106813Y084183
X105962Y084183
X105129Y084183
X114772Y085056
X115672Y085056
X116514Y085056
X116514Y084200
X115687Y084200
X114772Y084200
X081989Y094289
X105888Y090073
X094303Y092100
X118737Y087747
X129551Y085984
X076931Y095244
X083233Y071095
X080468Y073229
X094924Y071071
X116522Y075799
X128052Y081286
M30