G04 Layer: DrillDrawingLayer*
G04 EasyEDA Pro v1.9.30.011b94, 2023-06-19 19:01:04*
G04 Gerber Generator version 0.3*
G04 Scale: 100 percent, Rotated: No, Reflected: No*
G04 Dimensions in millimeters*
G04 Leading zeros omitted, absolute positions, 3 integers and 3 decimals*
%FSLAX33Y33*%
%MOMM*%
%ADD10C,0.254*%
G75*


G04 Image Start*
G36*
G01X76933Y85819D02*
G01X76933Y85783D01*
G01X76970D01*
G01X77296D01*
G01Y85457D01*
G01X76970D01*
G01Y85783D01*
G01X76933D01*
G01Y85420D01*
G01X77332D01*
G01Y85819D01*
G37*
G36*
G01X79313Y86707D02*
G01X79313Y86671D01*
G01X79349D01*
G01X79675D01*
G01Y86345D01*
G01X79349D01*
G01Y86671D01*
G01X79313D01*
G01Y86309D01*
G01X79711D01*
G01Y86707D01*
G37*
G36*
G01X77822Y83440D02*
G01X77822Y83403D01*
G01X77858D01*
G01X78184D01*
G01Y83077D01*
G01X77858D01*
G01Y83403D01*
G01X77822D01*
G01Y83041D01*
G01X78220D01*
G01Y83440D01*
G37*
G36*
G01X80201Y84328D02*
G01X80201Y84292D01*
G01X80238D01*
G01X80564D01*
G01Y83966D01*
G01X80238D01*
G01Y84292D01*
G01X80201D01*
G01Y83929D01*
G01X80600D01*
G01Y84328D01*
G37*
G36*
G01X78710Y81060D02*
G01X78710Y81024D01*
G01X78746D01*
G01X79073D01*
G01Y80698D01*
G01X78746D01*
G01Y81024D01*
G01X78710D01*
G01Y80661D01*
G01X79109D01*
G01Y81060D01*
G37*
G36*
G01X81090Y81949D02*
G01X81090Y81912D01*
G01X81126D01*
G01X81452D01*
G01Y81586D01*
G01X81126D01*
G01Y81912D01*
G01X81090D01*
G01Y81550D01*
G01X81488D01*
G01Y81949D01*
G37*
G36*
G01X79599Y78681D02*
G01X79599Y78644D01*
G01X79635D01*
G01X79961D01*
G01Y78318D01*
G01X79635D01*
G01Y78644D01*
G01X79599D01*
G01Y78282D01*
G01X79997D01*
G01Y78681D01*
G37*
G36*
G01X81978Y79569D02*
G01X81978Y79532D01*
G01X82014D01*
G01X82341D01*
G01Y79206D01*
G01X82014D01*
G01Y79532D01*
G01X81978D01*
G01Y79170D01*
G01X82377D01*
G01Y79569D01*
G37*
G36*
G01X92335Y86144D02*
G01X92314Y86143D01*
G01X92294Y86140D01*
G01X92275Y86135D01*
G01X92257Y86128D01*
G01X92240Y86120D01*
G01X92223Y86110D01*
G01X92208Y86098D01*
G01X92193Y86086D01*
G01X92181Y86071D01*
G01X92169Y86056D01*
G01X92159Y86040D01*
G01X92151Y86022D01*
G01X92144Y86004D01*
G01X92139Y85985D01*
G01X92136Y85965D01*
G01X92135Y85944D01*
G01X92168D01*
G01X92169Y85962D01*
G01X92172Y85978D01*
G01X92176Y85994D01*
G01X92181Y86009D01*
G01X92188Y86024D01*
G01X92197Y86037D01*
G01X92206Y86050D01*
G01X92217Y86062D01*
G01X92229Y86073D01*
G01X92242Y86083D01*
G01X92255Y86091D01*
G01X92270Y86098D01*
G01X92285Y86103D01*
G01X92301Y86108D01*
G01X92317Y86110D01*
G01X92335Y86111D01*
G01X92351Y86110D01*
G01X92368Y86108D01*
G01X92384Y86103D01*
G01X92399Y86098D01*
G01X92413Y86091D01*
G01X92427Y86083D01*
G01X92440Y86073D01*
G01X92452Y86062D01*
G01X92463Y86050D01*
G01X92472Y86037D01*
G01X92480Y86024D01*
G01X92487Y86009D01*
G01X92493Y85994D01*
G01X92497Y85978D01*
G01X92500Y85962D01*
G01X92501Y85944D01*
G01X92500Y85928D01*
G01X92497Y85911D01*
G01X92493Y85895D01*
G01X92487Y85880D01*
G01X92480Y85866D01*
G01X92472Y85852D01*
G01X92463Y85839D01*
G01X92452Y85827D01*
G01X92440Y85816D01*
G01X92427Y85807D01*
G01X92413Y85799D01*
G01X92399Y85792D01*
G01X92384Y85786D01*
G01X92368Y85782D01*
G01X92351Y85779D01*
G01X92335Y85778D01*
G01X92317Y85779D01*
G01X92301Y85782D01*
G01X92285Y85786D01*
G01X92270Y85792D01*
G01X92255Y85799D01*
G01X92242Y85807D01*
G01X92229Y85816D01*
G01X92217Y85827D01*
G01X92206Y85839D01*
G01X92197Y85852D01*
G01X92188Y85866D01*
G01X92181Y85880D01*
G01X92176Y85895D01*
G01X92172Y85911D01*
G01X92169Y85928D01*
G01X92168Y85944D01*
G01X92135D01*
G01X92136Y85924D01*
G01X92139Y85904D01*
G01X92144Y85886D01*
G01X92151Y85867D01*
G01X92159Y85849D01*
G01X92169Y85833D01*
G01X92181Y85818D01*
G01X92193Y85804D01*
G01X92208Y85791D01*
G01X92223Y85779D01*
G01X92240Y85769D01*
G01X92257Y85761D01*
G01X92275Y85754D01*
G01X92294Y85749D01*
G01X92314Y85746D01*
G01X92335Y85745D01*
G01X92355Y85746D01*
G01X92375Y85749D01*
G01X92394Y85754D01*
G01X92412Y85761D01*
G01X92430Y85769D01*
G01X92446Y85779D01*
G01X92461Y85791D01*
G01X92475Y85804D01*
G01X92489Y85818D01*
G01X92500Y85833D01*
G01X92510Y85849D01*
G01X92518Y85867D01*
G01X92525Y85886D01*
G01X92530Y85904D01*
G01X92533Y85924D01*
G01X92534Y85944D01*
G01X92533Y85965D01*
G01X92530Y85985D01*
G01X92525Y86004D01*
G01X92518Y86022D01*
G01X92510Y86040D01*
G01X92500Y86056D01*
G01X92489Y86071D01*
G01X92475Y86086D01*
G01X92461Y86098D01*
G01X92446Y86110D01*
G01X92430Y86120D01*
G01X92412Y86128D01*
G01X92394Y86135D01*
G01X92375Y86140D01*
G01X92355Y86143D01*
G37*
G36*
G01X90303Y86127D02*
G01X90282Y86126D01*
G01X90262Y86123D01*
G01X90243Y86118D01*
G01X90225Y86112D01*
G01X90208Y86103D01*
G01X90191Y86093D01*
G01X90176Y86082D01*
G01X90161Y86069D01*
G01X90149Y86055D01*
G01X90137Y86039D01*
G01X90127Y86023D01*
G01X90119Y86005D01*
G01X90112Y85987D01*
G01X90107Y85968D01*
G01X90104Y85948D01*
G01X90103Y85928D01*
G01X90136D01*
G01X90137Y85945D01*
G01X90140Y85961D01*
G01X90144Y85977D01*
G01X90149Y85993D01*
G01X90156Y86007D01*
G01X90165Y86021D01*
G01X90175Y86033D01*
G01X90185Y86046D01*
G01X90197Y86056D01*
G01X90210Y86066D01*
G01X90223Y86074D01*
G01X90238Y86081D01*
G01X90253Y86087D01*
G01X90269Y86091D01*
G01X90285Y86093D01*
G01X90303Y86094D01*
G01X90319Y86093D01*
G01X90336Y86091D01*
G01X90352Y86087D01*
G01X90367Y86081D01*
G01X90382Y86074D01*
G01X90396Y86066D01*
G01X90408Y86056D01*
G01X90420Y86046D01*
G01X90431Y86033D01*
G01X90440Y86021D01*
G01X90448Y86007D01*
G01X90455Y85993D01*
G01X90461Y85977D01*
G01X90465Y85961D01*
G01X90468Y85945D01*
G01X90469Y85928D01*
G01X90468Y85911D01*
G01X90465Y85895D01*
G01X90461Y85878D01*
G01X90455Y85863D01*
G01X90448Y85849D01*
G01X90440Y85835D01*
G01X90431Y85822D01*
G01X90420Y85810D01*
G01X90408Y85800D01*
G01X90396Y85790D01*
G01X90382Y85782D01*
G01X90367Y85775D01*
G01X90352Y85769D01*
G01X90336Y85765D01*
G01X90319Y85763D01*
G01X90303Y85762D01*
G01X90285Y85763D01*
G01X90269Y85765D01*
G01X90253Y85769D01*
G01X90238Y85775D01*
G01X90223Y85782D01*
G01X90210Y85790D01*
G01X90197Y85800D01*
G01X90185Y85810D01*
G01X90175Y85822D01*
G01X90165Y85835D01*
G01X90156Y85849D01*
G01X90149Y85863D01*
G01X90144Y85878D01*
G01X90140Y85895D01*
G01X90137Y85911D01*
G01X90136Y85928D01*
G01X90103D01*
G01X90104Y85907D01*
G01X90107Y85888D01*
G01X90112Y85869D01*
G01X90119Y85850D01*
G01X90127Y85833D01*
G01X90137Y85816D01*
G01X90149Y85801D01*
G01X90161Y85787D01*
G01X90176Y85774D01*
G01X90191Y85763D01*
G01X90208Y85752D01*
G01X90225Y85744D01*
G01X90243Y85738D01*
G01X90262Y85733D01*
G01X90282Y85730D01*
G01X90303Y85729D01*
G01X90323Y85730D01*
G01X90343Y85733D01*
G01X90362Y85738D01*
G01X90380Y85744D01*
G01X90398Y85752D01*
G01X90414Y85763D01*
G01X90430Y85774D01*
G01X90443Y85787D01*
G01X90457Y85801D01*
G01X90468Y85816D01*
G01X90478Y85833D01*
G01X90486Y85850D01*
G01X90493Y85869D01*
G01X90498Y85888D01*
G01X90501Y85907D01*
G01X90502Y85928D01*
G01X90501Y85948D01*
G01X90498Y85968D01*
G01X90493Y85987D01*
G01X90486Y86005D01*
G01X90478Y86023D01*
G01X90468Y86039D01*
G01X90457Y86055D01*
G01X90443Y86069D01*
G01X90430Y86082D01*
G01X90414Y86093D01*
G01X90398Y86103D01*
G01X90380Y86112D01*
G01X90362Y86118D01*
G01X90343Y86123D01*
G01X90323Y86126D01*
G37*
G36*
G01X88303Y86111D02*
G01X88282Y86110D01*
G01X88262Y86107D01*
G01X88243Y86102D01*
G01X88225Y86095D01*
G01X88208Y86087D01*
G01X88191Y86077D01*
G01X88176Y86065D01*
G01X88161Y86052D01*
G01X88149Y86038D01*
G01X88137Y86023D01*
G01X88127Y86006D01*
G01X88119Y85989D01*
G01X88112Y85971D01*
G01X88107Y85952D01*
G01X88104Y85932D01*
G01X88103Y85911D01*
G01X88136D01*
G01X88137Y85928D01*
G01X88140Y85945D01*
G01X88144Y85961D01*
G01X88150Y85976D01*
G01X88156Y85991D01*
G01X88165Y86004D01*
G01X88175Y86017D01*
G01X88185Y86029D01*
G01X88197Y86039D01*
G01X88210Y86049D01*
G01X88223Y86057D01*
G01X88238Y86064D01*
G01X88253Y86070D01*
G01X88269Y86074D01*
G01X88286Y86077D01*
G01X88303Y86078D01*
G01X88319Y86077D01*
G01X88336Y86074D01*
G01X88352Y86070D01*
G01X88367Y86064D01*
G01X88382Y86057D01*
G01X88396Y86049D01*
G01X88408Y86039D01*
G01X88420Y86029D01*
G01X88431Y86017D01*
G01X88440Y86004D01*
G01X88449Y85991D01*
G01X88456Y85976D01*
G01X88461Y85961D01*
G01X88465Y85945D01*
G01X88468Y85928D01*
G01X88469Y85911D01*
G01X88468Y85894D01*
G01X88465Y85878D01*
G01X88461Y85862D01*
G01X88456Y85847D01*
G01X88449Y85832D01*
G01X88440Y85818D01*
G01X88431Y85806D01*
G01X88420Y85794D01*
G01X88408Y85783D01*
G01X88396Y85774D01*
G01X88382Y85765D01*
G01X88367Y85758D01*
G01X88352Y85752D01*
G01X88336Y85748D01*
G01X88319Y85746D01*
G01X88303Y85745D01*
G01X88286Y85746D01*
G01X88269Y85748D01*
G01X88253Y85752D01*
G01X88238Y85758D01*
G01X88223Y85765D01*
G01X88210Y85774D01*
G01X88197Y85783D01*
G01X88185Y85794D01*
G01X88175Y85806D01*
G01X88165Y85818D01*
G01X88156Y85832D01*
G01X88150Y85847D01*
G01X88144Y85862D01*
G01X88140Y85878D01*
G01X88137Y85894D01*
G01X88136Y85911D01*
G01X88103D01*
G01X88104Y85891D01*
G01X88107Y85871D01*
G01X88112Y85852D01*
G01X88119Y85834D01*
G01X88127Y85816D01*
G01X88137Y85800D01*
G01X88149Y85784D01*
G01X88161Y85770D01*
G01X88176Y85758D01*
G01X88191Y85746D01*
G01X88208Y85736D01*
G01X88225Y85728D01*
G01X88243Y85721D01*
G01X88262Y85716D01*
G01X88282Y85713D01*
G01X88303Y85712D01*
G01X88323Y85713D01*
G01X88343Y85716D01*
G01X88362Y85721D01*
G01X88380Y85728D01*
G01X88398Y85736D01*
G01X88414Y85746D01*
G01X88430Y85758D01*
G01X88444Y85770D01*
G01X88457Y85784D01*
G01X88468Y85800D01*
G01X88478Y85816D01*
G01X88486Y85834D01*
G01X88493Y85852D01*
G01X88498Y85871D01*
G01X88501Y85891D01*
G01X88502Y85911D01*
G01X88501Y85932D01*
G01X88498Y85952D01*
G01X88493Y85971D01*
G01X88486Y85989D01*
G01X88478Y86006D01*
G01X88468Y86023D01*
G01X88457Y86038D01*
G01X88444Y86052D01*
G01X88430Y86065D01*
G01X88414Y86077D01*
G01X88398Y86087D01*
G01X88380Y86095D01*
G01X88362Y86102D01*
G01X88343Y86107D01*
G01X88323Y86110D01*
G37*
G36*
G01X106794Y77201D02*
G01X106774Y77200D01*
G01X106754Y77197D01*
G01X106735Y77192D01*
G01X106717Y77186D01*
G01X106699Y77177D01*
G01X106683Y77167D01*
G01X106667Y77156D01*
G01X106653Y77143D01*
G01X106640Y77129D01*
G01X106629Y77113D01*
G01X106619Y77097D01*
G01X106610Y77079D01*
G01X106604Y77061D01*
G01X106599Y77042D01*
G01X106596Y77022D01*
G01X106595Y77002D01*
G01X106628D01*
G01X106629Y77018D01*
G01X106631Y77035D01*
G01X106635Y77051D01*
G01X106641Y77066D01*
G01X106648Y77081D01*
G01X106657Y77095D01*
G01X106666Y77107D01*
G01X106677Y77119D01*
G01X106689Y77130D01*
G01X106701Y77139D01*
G01X106715Y77148D01*
G01X106730Y77155D01*
G01X106745Y77160D01*
G01X106761Y77164D01*
G01X106777Y77167D01*
G01X106794Y77168D01*
G01X106811Y77167D01*
G01X106828Y77164D01*
G01X106844Y77160D01*
G01X106859Y77155D01*
G01X106873Y77148D01*
G01X106887Y77139D01*
G01X106900Y77130D01*
G01X106912Y77119D01*
G01X106922Y77107D01*
G01X106932Y77095D01*
G01X106940Y77081D01*
G01X106947Y77066D01*
G01X106953Y77051D01*
G01X106957Y77035D01*
G01X106959Y77018D01*
G01X106960Y77002D01*
G01X106959Y76985D01*
G01X106957Y76968D01*
G01X106953Y76952D01*
G01X106947Y76937D01*
G01X106940Y76922D01*
G01X106932Y76909D01*
G01X106922Y76896D01*
G01X106912Y76884D01*
G01X106900Y76874D01*
G01X106887Y76864D01*
G01X106873Y76855D01*
G01X106859Y76849D01*
G01X106844Y76843D01*
G01X106828Y76839D01*
G01X106811Y76837D01*
G01X106794Y76836D01*
G01X106777Y76837D01*
G01X106761Y76839D01*
G01X106745Y76843D01*
G01X106730Y76849D01*
G01X106715Y76855D01*
G01X106701Y76864D01*
G01X106689Y76874D01*
G01X106677Y76884D01*
G01X106666Y76896D01*
G01X106657Y76909D01*
G01X106648Y76922D01*
G01X106641Y76937D01*
G01X106635Y76952D01*
G01X106631Y76968D01*
G01X106629Y76985D01*
G01X106628Y77002D01*
G01X106595D01*
G01X106596Y76981D01*
G01X106599Y76961D01*
G01X106604Y76942D01*
G01X106610Y76924D01*
G01X106619Y76907D01*
G01X106629Y76890D01*
G01X106640Y76875D01*
G01X106653Y76860D01*
G01X106667Y76848D01*
G01X106683Y76837D01*
G01X106699Y76826D01*
G01X106717Y76818D01*
G01X106735Y76811D01*
G01X106754Y76806D01*
G01X106774Y76804D01*
G01X106794Y76802D01*
G01X106815Y76804D01*
G01X106834Y76806D01*
G01X106853Y76811D01*
G01X106872Y76818D01*
G01X106889Y76826D01*
G01X106906Y76837D01*
G01X106921Y76848D01*
G01X106935Y76860D01*
G01X106948Y76875D01*
G01X106959Y76890D01*
G01X106970Y76907D01*
G01X106978Y76924D01*
G01X106985Y76942D01*
G01X106989Y76961D01*
G01X106992Y76981D01*
G01X106993Y77002D01*
G01X106992Y77022D01*
G01X106989Y77042D01*
G01X106985Y77061D01*
G01X106978Y77079D01*
G01X106970Y77097D01*
G01X106959Y77113D01*
G01X106948Y77129D01*
G01X106935Y77143D01*
G01X106921Y77156D01*
G01X106906Y77167D01*
G01X106889Y77177D01*
G01X106872Y77186D01*
G01X106853Y77192D01*
G01X106834Y77197D01*
G01X106815Y77200D01*
G37*
G36*
G01X108826Y77182D02*
G01X108805Y77181D01*
G01X108786Y77178D01*
G01X108767Y77173D01*
G01X108749Y77167D01*
G01X108731Y77158D01*
G01X108715Y77148D01*
G01X108699Y77137D01*
G01X108685Y77124D01*
G01X108672Y77110D01*
G01X108661Y77095D01*
G01X108651Y77078D01*
G01X108642Y77061D01*
G01X108636Y77042D01*
G01X108631Y77023D01*
G01X108628Y77003D01*
G01X108627Y76983D01*
G01X108660D01*
G01X108661Y77000D01*
G01X108663Y77016D01*
G01X108667Y77032D01*
G01X108673Y77047D01*
G01X108680Y77062D01*
G01X108688Y77076D01*
G01X108698Y77088D01*
G01X108708Y77100D01*
G01X108721Y77111D01*
G01X108733Y77120D01*
G01X108747Y77129D01*
G01X108761Y77136D01*
G01X108777Y77142D01*
G01X108793Y77146D01*
G01X108809Y77148D01*
G01X108826Y77149D01*
G01X108843Y77148D01*
G01X108859Y77146D01*
G01X108876Y77142D01*
G01X108891Y77136D01*
G01X108905Y77129D01*
G01X108919Y77120D01*
G01X108931Y77111D01*
G01X108944Y77100D01*
G01X108954Y77088D01*
G01X108964Y77076D01*
G01X108972Y77062D01*
G01X108979Y77047D01*
G01X108985Y77032D01*
G01X108989Y77016D01*
G01X108991Y77000D01*
G01X108992Y76983D01*
G01X108991Y76966D01*
G01X108989Y76949D01*
G01X108985Y76934D01*
G01X108979Y76918D01*
G01X108972Y76904D01*
G01X108964Y76890D01*
G01X108954Y76877D01*
G01X108944Y76865D01*
G01X108931Y76855D01*
G01X108919Y76845D01*
G01X108905Y76837D01*
G01X108891Y76830D01*
G01X108876Y76824D01*
G01X108859Y76820D01*
G01X108843Y76818D01*
G01X108826Y76817D01*
G01X108809Y76818D01*
G01X108793Y76820D01*
G01X108777Y76824D01*
G01X108761Y76830D01*
G01X108747Y76837D01*
G01X108733Y76845D01*
G01X108721Y76855D01*
G01X108708Y76865D01*
G01X108698Y76877D01*
G01X108688Y76890D01*
G01X108680Y76904D01*
G01X108673Y76918D01*
G01X108667Y76934D01*
G01X108663Y76949D01*
G01X108661Y76966D01*
G01X108660Y76983D01*
G01X108627D01*
G01X108628Y76963D01*
G01X108631Y76943D01*
G01X108636Y76924D01*
G01X108642Y76905D01*
G01X108651Y76888D01*
G01X108661Y76872D01*
G01X108672Y76856D01*
G01X108685Y76842D01*
G01X108699Y76829D01*
G01X108715Y76818D01*
G01X108731Y76808D01*
G01X108749Y76799D01*
G01X108767Y76792D01*
G01X108786Y76788D01*
G01X108805Y76785D01*
G01X108826Y76784D01*
G01X108847Y76785D01*
G01X108866Y76788D01*
G01X108885Y76792D01*
G01X108904Y76799D01*
G01X108921Y76808D01*
G01X108938Y76818D01*
G01X108953Y76829D01*
G01X108967Y76842D01*
G01X108980Y76856D01*
G01X108991Y76872D01*
G01X109002Y76888D01*
G01X109010Y76905D01*
G01X109016Y76924D01*
G01X109021Y76943D01*
G01X109024Y76963D01*
G01X109025Y76983D01*
G01X109024Y77003D01*
G01X109021Y77023D01*
G01X109016Y77042D01*
G01X109010Y77061D01*
G01X109002Y77078D01*
G01X108991Y77095D01*
G01X108980Y77110D01*
G01X108967Y77124D01*
G01X108953Y77137D01*
G01X108938Y77148D01*
G01X108921Y77158D01*
G01X108904Y77167D01*
G01X108885Y77173D01*
G01X108866Y77178D01*
G01X108847Y77181D01*
G37*
G36*
G01X110826Y77164D02*
G01X110805Y77163D01*
G01X110786Y77160D01*
G01X110767Y77155D01*
G01X110749Y77148D01*
G01X110731Y77140D01*
G01X110715Y77130D01*
G01X110699Y77118D01*
G01X110685Y77106D01*
G01X110672Y77092D01*
G01X110661Y77076D01*
G01X110651Y77060D01*
G01X110642Y77042D01*
G01X110636Y77024D01*
G01X110631Y77005D01*
G01X110628Y76985D01*
G01X110627Y76965D01*
G01X110660D01*
G01X110661Y76981D01*
G01X110663Y76998D01*
G01X110667Y77014D01*
G01X110673Y77029D01*
G01X110680Y77044D01*
G01X110688Y77058D01*
G01X110698Y77070D01*
G01X110708Y77082D01*
G01X110720Y77093D01*
G01X110733Y77102D01*
G01X110747Y77111D01*
G01X110761Y77117D01*
G01X110777Y77123D01*
G01X110793Y77127D01*
G01X110809Y77130D01*
G01X110826Y77131D01*
G01X110843Y77130D01*
G01X110859Y77127D01*
G01X110876Y77123D01*
G01X110891Y77117D01*
G01X110905Y77111D01*
G01X110919Y77102D01*
G01X110931Y77093D01*
G01X110944Y77082D01*
G01X110954Y77070D01*
G01X110964Y77058D01*
G01X110972Y77044D01*
G01X110979Y77029D01*
G01X110985Y77014D01*
G01X110989Y76998D01*
G01X110991Y76981D01*
G01X110992Y76965D01*
G01X110991Y76948D01*
G01X110989Y76931D01*
G01X110985Y76915D01*
G01X110979Y76900D01*
G01X110972Y76885D01*
G01X110964Y76872D01*
G01X110954Y76859D01*
G01X110944Y76847D01*
G01X110931Y76837D01*
G01X110919Y76827D01*
G01X110905Y76819D01*
G01X110891Y76812D01*
G01X110876Y76806D01*
G01X110859Y76802D01*
G01X110843Y76799D01*
G01X110826Y76798D01*
G01X110809Y76799D01*
G01X110793Y76802D01*
G01X110777Y76806D01*
G01X110761Y76812D01*
G01X110747Y76819D01*
G01X110733Y76827D01*
G01X110720Y76837D01*
G01X110708Y76847D01*
G01X110698Y76859D01*
G01X110688Y76872D01*
G01X110680Y76885D01*
G01X110673Y76900D01*
G01X110667Y76915D01*
G01X110663Y76931D01*
G01X110661Y76948D01*
G01X110660Y76965D01*
G01X110627D01*
G01X110628Y76944D01*
G01X110631Y76924D01*
G01X110636Y76905D01*
G01X110642Y76887D01*
G01X110651Y76870D01*
G01X110661Y76853D01*
G01X110672Y76838D01*
G01X110685Y76824D01*
G01X110699Y76811D01*
G01X110715Y76799D01*
G01X110731Y76789D01*
G01X110749Y76781D01*
G01X110767Y76774D01*
G01X110786Y76769D01*
G01X110805Y76766D01*
G01X110826Y76765D01*
G01X110846Y76766D01*
G01X110866Y76769D01*
G01X110885Y76774D01*
G01X110904Y76781D01*
G01X110921Y76789D01*
G01X110938Y76799D01*
G01X110953Y76811D01*
G01X110967Y76824D01*
G01X110980Y76838D01*
G01X110991Y76853D01*
G01X111001Y76870D01*
G01X111010Y76887D01*
G01X111016Y76905D01*
G01X111021Y76924D01*
G01X111024Y76944D01*
G01X111025Y76965D01*
G01X111024Y76985D01*
G01X111021Y77005D01*
G01X111016Y77024D01*
G01X111010Y77042D01*
G01X111001Y77060D01*
G01X110991Y77076D01*
G01X110980Y77092D01*
G01X110967Y77106D01*
G01X110953Y77118D01*
G01X110938Y77130D01*
G01X110921Y77140D01*
G01X110904Y77148D01*
G01X110885Y77155D01*
G01X110866Y77160D01*
G01X110846Y77163D01*
G37*
G36*
G01X96017Y77380D02*
G01X95996Y77379D01*
G01X95977Y77376D01*
G01X95958Y77371D01*
G01X95939Y77364D01*
G01X95922Y77356D01*
G01X95905Y77346D01*
G01X95890Y77335D01*
G01X95876Y77322D01*
G01X95863Y77307D01*
G01X95851Y77292D01*
G01X95841Y77276D01*
G01X95833Y77258D01*
G01X95827Y77240D01*
G01X95822Y77221D01*
G01X95818Y77201D01*
G01X95817Y77181D01*
G01X95851D01*
G01Y77198D01*
G01X95854Y77214D01*
G01X95858Y77230D01*
G01X95864Y77245D01*
G01X95871Y77260D01*
G01X95879Y77273D01*
G01X95889Y77287D01*
G01X95899Y77298D01*
G01X95911Y77309D01*
G01X95924Y77319D01*
G01X95938Y77327D01*
G01X95952Y77334D01*
G01X95967Y77339D01*
G01X95984Y77344D01*
G01X96000Y77346D01*
G01X96017Y77347D01*
G01X96034Y77346D01*
G01X96050Y77344D01*
G01X96066Y77339D01*
G01X96082Y77334D01*
G01X96096Y77327D01*
G01X96110Y77319D01*
G01X96123Y77309D01*
G01X96134Y77298D01*
G01X96145Y77287D01*
G01X96155Y77273D01*
G01X96163Y77260D01*
G01X96170Y77245D01*
G01X96176Y77230D01*
G01X96180Y77214D01*
G01X96182Y77198D01*
G01X96183Y77181D01*
G01X96182Y77164D01*
G01X96180Y77147D01*
G01X96176Y77131D01*
G01X96170Y77116D01*
G01X96163Y77102D01*
G01X96155Y77088D01*
G01X96145Y77075D01*
G01X96134Y77063D01*
G01X96123Y77052D01*
G01X96110Y77043D01*
G01X96096Y77035D01*
G01X96082Y77028D01*
G01X96066Y77022D01*
G01X96050Y77018D01*
G01X96034Y77015D01*
G01X96017D01*
G01X96000D01*
G01X95984Y77018D01*
G01X95967Y77022D01*
G01X95952Y77028D01*
G01X95938Y77035D01*
G01X95924Y77043D01*
G01X95911Y77052D01*
G01X95899Y77063D01*
G01X95889Y77075D01*
G01X95879Y77088D01*
G01X95871Y77102D01*
G01X95864Y77116D01*
G01X95858Y77131D01*
G01X95854Y77147D01*
G01X95851Y77164D01*
G01Y77181D01*
G01X95817D01*
G01X95818Y77161D01*
G01X95822Y77141D01*
G01X95827Y77122D01*
G01X95833Y77103D01*
G01X95841Y77086D01*
G01X95851Y77069D01*
G01X95863Y77054D01*
G01X95876Y77040D01*
G01X95890Y77027D01*
G01X95905Y77015D01*
G01X95922Y77006D01*
G01X95939Y76997D01*
G01X95958Y76990D01*
G01X95977Y76985D01*
G01X95996Y76982D01*
G01X96017Y76981D01*
G01X96037Y76982D01*
G01X96057Y76985D01*
G01X96076Y76990D01*
G01X96094Y76997D01*
G01X96112Y77006D01*
G01X96128Y77015D01*
G01X96144Y77027D01*
G01X96158Y77040D01*
G01X96170Y77054D01*
G01X96182Y77069D01*
G01X96192Y77086D01*
G01X96200Y77103D01*
G01X96207Y77122D01*
G01X96212Y77141D01*
G01X96215Y77161D01*
G01X96216Y77181D01*
G01X96215Y77201D01*
G01X96212Y77221D01*
G01X96207Y77240D01*
G01X96200Y77258D01*
G01X96192Y77276D01*
G01X96182Y77292D01*
G01X96170Y77307D01*
G01X96158Y77322D01*
G01X96144Y77335D01*
G01X96128Y77346D01*
G01X96112Y77356D01*
G01X96094Y77364D01*
G01X96076Y77371D01*
G01X96057Y77376D01*
G01X96037Y77379D01*
G37*
G36*
G01X98049Y77361D02*
G01X98028Y77360D01*
G01X98008Y77357D01*
G01X97990Y77353D01*
G01X97971Y77346D01*
G01X97954Y77337D01*
G01X97937Y77327D01*
G01X97922Y77316D01*
G01X97908Y77303D01*
G01X97895Y77289D01*
G01X97883Y77273D01*
G01X97873Y77257D01*
G01X97865Y77240D01*
G01X97859Y77222D01*
G01X97854Y77202D01*
G01X97850Y77182D01*
G01X97849Y77162D01*
G01X97882D01*
G01X97883Y77179D01*
G01X97886Y77196D01*
G01X97890Y77211D01*
G01X97896Y77227D01*
G01X97903Y77241D01*
G01X97911Y77255D01*
G01X97921Y77268D01*
G01X97931Y77280D01*
G01X97943Y77290D01*
G01X97956Y77300D01*
G01X97970Y77308D01*
G01X97984Y77315D01*
G01X97999Y77321D01*
G01X98016Y77325D01*
G01X98032Y77327D01*
G01X98049Y77328D01*
G01X98066Y77327D01*
G01X98082Y77325D01*
G01X98098Y77321D01*
G01X98114Y77315D01*
G01X98128Y77308D01*
G01X98142Y77300D01*
G01X98154Y77290D01*
G01X98166Y77280D01*
G01X98177Y77268D01*
G01X98187Y77255D01*
G01X98195Y77241D01*
G01X98202Y77227D01*
G01X98208Y77211D01*
G01X98212Y77196D01*
G01X98214Y77179D01*
G01X98215Y77162D01*
G01X98214Y77145D01*
G01X98212Y77129D01*
G01X98208Y77113D01*
G01X98202Y77098D01*
G01X98195Y77083D01*
G01X98187Y77069D01*
G01X98177Y77056D01*
G01X98166Y77045D01*
G01X98154Y77034D01*
G01X98142Y77024D01*
G01X98128Y77016D01*
G01X98114Y77009D01*
G01X98098Y77004D01*
G01X98082Y76999D01*
G01X98066Y76997D01*
G01X98049Y76996D01*
G01X98032Y76997D01*
G01X98016Y76999D01*
G01X97999Y77004D01*
G01X97984Y77009D01*
G01X97970Y77016D01*
G01X97956Y77024D01*
G01X97943Y77034D01*
G01X97931Y77045D01*
G01X97921Y77056D01*
G01X97911Y77069D01*
G01X97903Y77083D01*
G01X97896Y77098D01*
G01X97890Y77113D01*
G01X97886Y77129D01*
G01X97883Y77145D01*
G01X97882Y77162D01*
G01X97849D01*
G01X97850Y77142D01*
G01X97854Y77122D01*
G01X97859Y77103D01*
G01X97865Y77084D01*
G01X97873Y77067D01*
G01X97883Y77050D01*
G01X97895Y77035D01*
G01X97908Y77021D01*
G01X97922Y77008D01*
G01X97937Y76997D01*
G01X97954Y76987D01*
G01X97971Y76978D01*
G01X97990Y76972D01*
G01X98008Y76967D01*
G01X98028Y76964D01*
G01X98049Y76963D01*
G01X98069Y76964D01*
G01X98089Y76967D01*
G01X98108Y76972D01*
G01X98126Y76978D01*
G01X98144Y76987D01*
G01X98160Y76997D01*
G01X98176Y77008D01*
G01X98190Y77021D01*
G01X98202Y77035D01*
G01X98214Y77050D01*
G01X98224Y77067D01*
G01X98232Y77084D01*
G01X98239Y77103D01*
G01X98244Y77122D01*
G01X98247Y77142D01*
G01X98248Y77162D01*
G01X98247Y77182D01*
G01X98244Y77202D01*
G01X98239Y77222D01*
G01X98232Y77240D01*
G01X98224Y77257D01*
G01X98214Y77273D01*
G01X98202Y77289D01*
G01X98190Y77303D01*
G01X98176Y77316D01*
G01X98160Y77327D01*
G01X98144Y77337D01*
G01X98126Y77346D01*
G01X98108Y77353D01*
G01X98089Y77357D01*
G01X98069Y77360D01*
G37*
G36*
G01X100049Y77343D02*
G01X100028Y77342D01*
G01X100008Y77339D01*
G01X99990Y77334D01*
G01X99971Y77327D01*
G01X99954Y77319D01*
G01X99937Y77309D01*
G01X99922Y77298D01*
G01X99908Y77285D01*
G01X99895Y77270D01*
G01X99883Y77255D01*
G01X99873Y77239D01*
G01X99865Y77221D01*
G01X99858Y77203D01*
G01X99853Y77184D01*
G01X99850Y77164D01*
G01X99849Y77144D01*
G01X99882D01*
G01X99883Y77161D01*
G01X99886Y77177D01*
G01X99890Y77193D01*
G01X99896Y77208D01*
G01X99903Y77223D01*
G01X99911Y77236D01*
G01X99921Y77250D01*
G01X99931Y77261D01*
G01X99943Y77272D01*
G01X99956Y77282D01*
G01X99969Y77290D01*
G01X99984Y77297D01*
G01X99999Y77302D01*
G01X100015Y77306D01*
G01X100032Y77309D01*
G01X100049Y77310D01*
G01X100066Y77309D01*
G01X100082Y77306D01*
G01X100098Y77302D01*
G01X100113Y77297D01*
G01X100128Y77290D01*
G01X100142Y77282D01*
G01X100154Y77272D01*
G01X100166Y77261D01*
G01X100177Y77250D01*
G01X100186Y77236D01*
G01X100195Y77223D01*
G01X100202Y77208D01*
G01X100208Y77193D01*
G01X100212Y77177D01*
G01X100214Y77161D01*
G01X100215Y77144D01*
G01X100214Y77127D01*
G01X100212Y77110D01*
G01X100208Y77095D01*
G01X100202Y77079D01*
G01X100195Y77065D01*
G01X100186Y77051D01*
G01X100177Y77038D01*
G01X100166Y77027D01*
G01X100154Y77015D01*
G01X100142Y77006D01*
G01X100128Y76998D01*
G01X100113Y76990D01*
G01X100098Y76985D01*
G01X100082Y76981D01*
G01X100066Y76978D01*
G01X100049D01*
G01X100032D01*
G01X100015Y76981D01*
G01X99999Y76985D01*
G01X99984Y76990D01*
G01X99969Y76998D01*
G01X99956Y77006D01*
G01X99943Y77015D01*
G01X99931Y77027D01*
G01X99921Y77038D01*
G01X99911Y77051D01*
G01X99903Y77065D01*
G01X99896Y77079D01*
G01X99890Y77095D01*
G01X99886Y77110D01*
G01X99883Y77127D01*
G01X99882Y77144D01*
G01X99849D01*
G01X99850Y77124D01*
G01X99853Y77104D01*
G01X99858Y77084D01*
G01X99865Y77066D01*
G01X99873Y77049D01*
G01X99883Y77032D01*
G01X99895Y77017D01*
G01X99908Y77003D01*
G01X99922Y76990D01*
G01X99937Y76978D01*
G01X99954Y76969D01*
G01X99971Y76960D01*
G01X99990Y76953D01*
G01X100008Y76948D01*
G01X100028Y76945D01*
G01X100049Y76944D01*
G01X100069Y76945D01*
G01X100089Y76948D01*
G01X100108Y76953D01*
G01X100126Y76960D01*
G01X100144Y76969D01*
G01X100160Y76978D01*
G01X100176Y76990D01*
G01X100190Y77003D01*
G01X100202Y77017D01*
G01X100214Y77032D01*
G01X100224Y77049D01*
G01X100232Y77066D01*
G01X100239Y77084D01*
G01X100244Y77104D01*
G01X100247Y77124D01*
G01X100248Y77144D01*
G01X100247Y77164D01*
G01X100244Y77184D01*
G01X100239Y77203D01*
G01X100232Y77221D01*
G01X100224Y77239D01*
G01X100214Y77255D01*
G01X100202Y77270D01*
G01X100190Y77285D01*
G01X100176Y77298D01*
G01X100160Y77309D01*
G01X100144Y77319D01*
G01X100126Y77327D01*
G01X100108Y77334D01*
G01X100089Y77339D01*
G01X100069Y77342D01*
G37*
G36*
G01X106617Y85229D02*
G01X106635Y85196D01*
G01X106674D01*
G01X106958D01*
G01X106816Y84950D01*
G01X106745Y85073D01*
G01X106674Y85196D01*
G01X106635D01*
G01X106816Y84883D01*
G01X106916Y85056D01*
G01X107015Y85229D01*
G37*
G36*
G01X105767Y85229D02*
G01X105786Y85196D01*
G01X105825D01*
G01X106109D01*
G01X106037Y85073D01*
G01X105967Y84950D01*
G01X105825Y85196D01*
G01X105786D01*
G01X105867Y85056D01*
G01X105967Y84883D01*
G01X106166Y85229D01*
G37*
G36*
G01X104940Y85229D02*
G01X104958Y85196D01*
G01X104998D01*
G01X105281D01*
G01X105210Y85073D01*
G01X105139Y84950D01*
G01X105068Y85073D01*
G01X104998Y85196D01*
G01X104958D01*
G01X105039Y85056D01*
G01X105139Y84883D01*
G01X105338Y85229D01*
G37*
G36*
G01X106614Y84355D02*
G01X106633Y84322D01*
G01X106671D01*
G01X106955D01*
G01X106884Y84199D01*
G01X106814Y84077D01*
G01X106671Y84322D01*
G01X106633D01*
G01X106714Y84183D01*
G01X106814Y84010D01*
G01X107013Y84355D01*
G37*
G36*
G01X105763Y84355D02*
G01X105781Y84322D01*
G01X105820D01*
G01X106103D01*
G01X106033Y84199D01*
G01X105962Y84077D01*
G01X105891Y84199D01*
G01X105820Y84322D01*
G01X105781D01*
G01X105962Y84010D01*
G01X106061Y84183D01*
G01X106161Y84355D01*
G37*
G36*
G01X104930Y84355D02*
G01X104949Y84322D01*
G01X104988D01*
G01X105271D01*
G01X105200Y84199D01*
G01X105130Y84077D01*
G01X105058Y84199D01*
G01X104988Y84322D01*
G01X104949D01*
G01X105030Y84183D01*
G01X105130Y84010D01*
G01X105329Y84355D01*
G37*
G36*
G01X114573Y85229D02*
G01X114592Y85196D01*
G01X114630D01*
G01X114914D01*
G01X114843Y85073D01*
G01X114772Y84950D01*
G01X114701Y85073D01*
G01X114630Y85196D01*
G01X114592D01*
G01X114772Y84883D01*
G01X114872Y85056D01*
G01X114972Y85229D01*
G37*
G36*
G01X115472Y85229D02*
G01X115492Y85196D01*
G01X115530D01*
G01X115814D01*
G01X115743Y85073D01*
G01X115672Y84950D01*
G01X115601Y85073D01*
G01X115530Y85196D01*
G01X115492D01*
G01X115573Y85056D01*
G01X115672Y84883D01*
G01X115871Y85229D01*
G37*
G36*
G01X116315Y85229D02*
G01X116334Y85196D01*
G01X116372D01*
G01X116656D01*
G01X116585Y85073D01*
G01X116514Y84950D01*
G01X116443Y85073D01*
G01X116372Y85196D01*
G01X116334D01*
G01X116514Y84883D01*
G01X116613Y85056D01*
G01X116714Y85229D01*
G37*
G36*
G01X116315Y84372D02*
G01X116334Y84339D01*
G01X116372D01*
G01X116656D01*
G01X116585Y84216D01*
G01X116514Y84093D01*
G01X116443Y84216D01*
G01X116372Y84339D01*
G01X116334D01*
G01X116514Y84027D01*
G01X116613Y84199D01*
G01X116714Y84372D01*
G37*
G36*
G01X115487Y84372D02*
G01X115506Y84339D01*
G01X115545D01*
G01X115829D01*
G01X115686Y84093D01*
G01X115616Y84216D01*
G01X115545Y84339D01*
G01X115506D01*
G01X115686Y84027D01*
G01X115786Y84199D01*
G01X115886Y84372D01*
G37*
G36*
G01X114573Y84372D02*
G01X114592Y84339D01*
G01X114630D01*
G01X114914D01*
G01X114843Y84216D01*
G01X114772Y84093D01*
G01X114701Y84216D01*
G01X114630Y84339D01*
G01X114592D01*
G01X114772Y84027D01*
G01X114872Y84199D01*
G01X114972Y84372D01*
G37*
G36*
G01X81790Y94462D02*
G01X81809Y94429D01*
G01X81847D01*
G01X82131D01*
G01X82060Y94306D01*
G01X81989Y94183D01*
G01X81919Y94306D01*
G01X81847Y94429D01*
G01X81809D01*
G01X81989Y94116D01*
G01X82089Y94289D01*
G01X82189Y94462D01*
G37*
G36*
G01X105689Y90246D02*
G01X105708Y90213D01*
G01X105747D01*
G01X106030D01*
G01X105959Y90090D01*
G01X105889Y89967D01*
G01X105817Y90090D01*
G01X105747Y90213D01*
G01X105708D01*
G01X105789Y90073D01*
G01X105889Y89901D01*
G01X106088Y90246D01*
G37*
G36*
G01X94104Y92273D02*
G01X94123Y92240D01*
G01X94161D01*
G01X94445D01*
G01X94374Y92117D01*
G01X94303Y91994D01*
G01X94232Y92117D01*
G01X94161Y92240D01*
G01X94123D01*
G01X94303Y91928D01*
G01X94403Y92100D01*
G01X94503Y92273D01*
G37*
G36*
G01X118538Y87920D02*
G01X118558Y87886D01*
G01X118596D01*
G01X118879D01*
G01X118809Y87763D01*
G01X118737Y87641D01*
G01X118666Y87763D01*
G01X118596Y87886D01*
G01X118558D01*
G01X118737Y87574D01*
G01X118837Y87747D01*
G01X118937Y87920D01*
G37*
G36*
G01X129351Y86157D02*
G01X129370Y86124D01*
G01X129409D01*
G01X129692D01*
G01X129621Y86001D01*
G01X129551Y85878D01*
G01X129480Y86001D01*
G01X129409Y86124D01*
G01X129370D01*
G01X129451Y85984D01*
G01X129551Y85812D01*
G01X129650Y85984D01*
G01X129750Y86157D01*
G37*
G36*
G01X76731Y95417D02*
G01X76751Y95384D01*
G01X76789D01*
G01X77072D01*
G01X77002Y95261D01*
G01X76931Y95138D01*
G01X76860Y95261D01*
G01X76789Y95384D01*
G01X76751D01*
G01X76931Y95072D01*
G01X77030Y95244D01*
G01X77130Y95417D01*
G37*
G36*
G01X83034Y71268D02*
G01X83053Y71235D01*
G01X83092D01*
G01X83375D01*
G01X83304Y71112D01*
G01X83233Y70989D01*
G01X83162Y71112D01*
G01X83092Y71235D01*
G01X83053D01*
G01X83134Y71096D01*
G01X83233Y70923D01*
G01X83432Y71268D01*
G37*
G36*
G01X80268Y73402D02*
G01X80287Y73369D01*
G01X80326D01*
G01X80609D01*
G01X80539Y73246D01*
G01X80468Y73123D01*
G01X80397Y73246D01*
G01X80326Y73369D01*
G01X80287D01*
G01X80368Y73229D01*
G01X80468Y73057D01*
G01X80567Y73229D01*
G01X80667Y73402D01*
G37*
G36*
G01X94724Y71243D02*
G01X94744Y71210D01*
G01X94782D01*
G01X95066D01*
G01X94994Y71087D01*
G01X94924Y70965D01*
G01X94853Y71087D01*
G01X94782Y71210D01*
G01X94744D01*
G01X94824Y71071D01*
G01X94924Y70899D01*
G01X95023Y71071D01*
G01X95123Y71243D01*
G37*
G36*
G01X116323Y75971D02*
G01X116342Y75938D01*
G01X116380D01*
G01X116664D01*
G01X116522Y75693D01*
G01X116451Y75815D01*
G01X116380Y75938D01*
G01X116342D01*
G01X116422Y75799D01*
G01X116522Y75626D01*
G01X116622Y75799D01*
G01X116722Y75971D01*
G37*
G36*
G01X127853Y81459D02*
G01X127872Y81426D01*
G01X127910D01*
G01X128194D01*
G01X128123Y81303D01*
G01X128052Y81180D01*
G01X127981Y81303D01*
G01X127910Y81426D01*
G01X127872D01*
G01X127953Y81286D01*
G01X128052Y81114D01*
G01X128152Y81286D01*
G01X128252Y81459D01*
G37*
G04 Image End*
G54D10*

M02*
