G04 Layer: TopSilkscreenLayer*
G04 EasyEDA Pro v1.9.30.011b94, 2023-06-19 19:01:04*
G04 Gerber Generator version 0.3*
G04 Scale: 100 percent, Rotated: No, Reflected: No*
G04 Dimensions in millimeters*
G04 Leading zeros omitted, absolute positions, 3 integers and 3 decimals*
%FSLAX33Y33*%
%MOMM*%
%ADD10C,0.1*%
%ADD11C,0.254*%
%ADD12C,0.1524*%
%ADD13C,0.151994*%
%ADD14C,0.0254*%
G75*


G04 Text Start*
G04 //text: LED*
G36*
G01X86416Y92334D02*
G01X86405Y91128D01*
G01X86512D01*
G01X86516Y91559D01*
G01X86521Y91990D01*
G01X86635Y91989D01*
G01X86628Y91224D01*
G01X86974Y91220D01*
G01X86973Y91123D01*
G01X86512Y91128D01*
G01X86405D01*
G01Y91122D01*
G01X87101D01*
G01X87109Y91985D01*
G01X87556Y91981D01*
G01X87555Y91883D01*
G01X87223Y91887D01*
G01X87220Y91606D01*
G01X87528Y91603D01*
G01X87527Y91506D01*
G01X87219Y91509D01*
G01X87216Y91218D01*
G01X87570Y91215D01*
G01X87569Y91118D01*
G01X87101Y91122D01*
G01X86405D01*
G01Y91116D01*
G01X87728D01*
G01X87732Y91548D01*
G01X87736Y91978D01*
G01X87880Y91977D01*
G01X88018Y91975D01*
G01X88028Y91974D01*
G01X88029D01*
G01X88030D01*
G01X88035Y91973D01*
G01X88047Y91972D01*
G01X88053Y91971D01*
G01X88065Y91970D01*
G01X88092Y91966D01*
G01X88102Y91964D01*
G01X88112Y91961D01*
G01X88135Y91954D01*
G01X88150Y91952D01*
G01X88154Y91950D01*
G01X88158Y91949D01*
G01X88169Y91943D01*
G01X88179Y91940D01*
G01X88191Y91935D01*
G01X88200Y91931D01*
G01X88220Y91922D01*
G01X88223Y91921D01*
G01X88231Y91915D01*
G01X88244Y91908D01*
G01X88263Y91896D01*
G01X88271Y91891D01*
G01X88277Y91886D01*
G01X88279Y91884D01*
G01X88287Y91881D01*
G01X88289Y91879D01*
G01X88291Y91877D01*
G01X88293Y91875D01*
G01X88294Y91872D01*
G01X88297Y91870D01*
G01X88300Y91868D01*
G01X88306Y91864D01*
G01X88309Y91862D01*
G01X88311Y91860D01*
G01X88319Y91850D01*
G01X88326Y91845D01*
G01X88333Y91837D01*
G01X88337Y91833D01*
G01X88341Y91830D01*
G01X88348Y91823D01*
G01X88354Y91815D01*
G01X88364Y91802D01*
G01X88372Y91791D01*
G01X88378Y91783D01*
G01X88380Y91779D01*
G01X88383Y91772D01*
G01X88387Y91767D01*
G01X88389Y91764D01*
G01X88391Y91762D01*
G01X88394Y91756D01*
G01X88399Y91745D01*
G01X88403Y91737D01*
G01X88407Y91730D01*
G01X88410Y91720D01*
G01X88418Y91697D01*
G01X88422Y91683D01*
G01X88428Y91666D01*
G01X88429Y91659D01*
G01X88432Y91643D01*
G01X88434Y91634D01*
G01X88435Y91629D01*
G01X88436Y91624D01*
G01Y91611D01*
G01X88437Y91603D01*
G01X88438Y91600D01*
G01Y91598D01*
G01X88439Y91590D01*
G01Y91555D01*
G01X88438Y91519D01*
G01X88437Y91512D01*
G01X88436Y91509D01*
G01X88435Y91504D01*
G01Y91489D01*
G01X88434Y91482D01*
G01X88433Y91478D01*
G01X88431Y91471D01*
G01X88428Y91450D01*
G01X88426Y91440D01*
G01X88424Y91430D01*
G01X88416Y91406D01*
G01X88413Y91395D01*
G01X88409Y91385D01*
G01X88396Y91351D01*
G01X88394Y91347D01*
G01X88390Y91340D01*
G01X88386Y91334D01*
G01X88376Y91317D01*
G01X88367Y91303D01*
G01X88360Y91292D01*
G01X88355Y91286D01*
G01X88351Y91282D01*
G01X88350Y91280D01*
G01X88349Y91277D01*
G01X88347Y91273D01*
G01X88345Y91270D01*
G01X88343Y91268D01*
G01X88341Y91266D01*
G01X88336Y91263D01*
G01X88330Y91256D01*
G01X88326Y91251D01*
G01X88319Y91245D01*
G01X88313Y91238D01*
G01X88308Y91234D01*
G01X88301Y91228D01*
G01X88295Y91221D01*
G01X88291Y91217D01*
G01X88286Y91213D01*
G01X88271Y91202D01*
G01X88260Y91195D01*
G01X88245Y91183D01*
G01X88240Y91180D01*
G01X88228Y91174D01*
G01X88217Y91167D01*
G01X88210Y91164D01*
G01X88192Y91156D01*
G01X88181Y91150D01*
G01X88161Y91143D01*
G01X88144Y91137D01*
G01X88121Y91130D01*
G01X88104Y91125D01*
G01X88097Y91124D01*
G01X88079Y91121D01*
G01X88069Y91119D01*
G01X88060Y91117D01*
G01X88048D01*
G01X88041Y91116D01*
G01X88037Y91115D01*
G01X87880D01*
G01X87728Y91116D01*
G01X86405D01*
G01X86402Y90827D01*
G01X88491Y90808D01*
G01X88505Y92315D01*
G37*
G36*
G01X87849Y91880D02*
G01X87846Y91548D01*
G01X87845Y91215D01*
G01Y91214D01*
G01X87846Y91213D01*
G01X87853D01*
G01X87921Y91211D01*
G01X88000Y91212D01*
G01X88012D01*
G01X88039Y91215D01*
G01X88060Y91219D01*
G01X88068Y91221D01*
G01X88080Y91224D01*
G01X88094Y91227D01*
G01X88099Y91228D01*
G01X88103Y91229D01*
G01X88111Y91232D01*
G01X88118Y91235D01*
G01X88126Y91236D01*
G01X88130Y91238D01*
G01X88133Y91239D01*
G01X88137Y91241D01*
G01X88144Y91245D01*
G01X88155Y91250D01*
G01X88161Y91253D01*
G01X88167Y91256D01*
G01X88176Y91261D01*
G01X88187Y91269D01*
G01X88192Y91272D01*
G01X88200Y91276D01*
G01X88204Y91278D01*
G01X88206Y91281D01*
G01X88209Y91285D01*
G01X88211Y91287D01*
G01X88216Y91291D01*
G01X88224Y91296D01*
G01X88228Y91300D01*
G01X88232Y91303D01*
G01X88236Y91307D01*
G01X88253Y91329D01*
G01X88262Y91341D01*
G01X88268Y91348D01*
G01X88273Y91355D01*
G01X88278Y91367D01*
G01X88282Y91374D01*
G01X88286Y91381D01*
G01X88288Y91387D01*
G01X88295Y91404D01*
G01X88298Y91411D01*
G01X88303Y91424D01*
G01X88308Y91442D01*
G01X88310Y91449D01*
G01X88312Y91467D01*
G01X88314Y91477D01*
G01X88316Y91483D01*
G01X88317Y91490D01*
G01Y91511D01*
G01X88318Y91515D01*
G01X88319Y91518D01*
G01Y91520D01*
G01X88320Y91528D01*
G01X88321Y91544D01*
G01X88320Y91561D01*
G01Y91568D01*
G01X88319Y91573D01*
G01X88318Y91580D01*
G01X88317Y91601D01*
G01X88316Y91609D01*
G01X88315Y91616D01*
G01X88312Y91636D01*
G01X88310Y91647D01*
G01X88308Y91656D01*
G01X88302Y91679D01*
G01X88297Y91691D01*
G01X88293Y91700D01*
G01X88284Y91720D01*
G01X88281Y91726D01*
G01X88267Y91749D01*
G01X88260Y91758D01*
G01X88257Y91762D01*
G01X88250Y91771D01*
G01X88246Y91776D01*
G01X88239Y91782D01*
G01X88235Y91786D01*
G01X88231Y91791D01*
G01X88229Y91793D01*
G01X88227Y91795D01*
G01X88222Y91797D01*
G01X88218Y91800D01*
G01X88215Y91804D01*
G01X88213Y91807D01*
G01X88208Y91811D01*
G01X88196Y91818D01*
G01X88191Y91823D01*
G01X88188Y91825D01*
G01X88184Y91827D01*
G01X88172Y91833D01*
G01X88164Y91837D01*
G01X88158Y91841D01*
G01X88152Y91843D01*
G01X88133Y91851D01*
G01X88116Y91858D01*
G01X88094Y91865D01*
G01X88080Y91867D01*
G01X88072Y91869D01*
G01X88069Y91870D01*
G01X88064Y91871D01*
G01X88054Y91872D01*
G01X88048Y91873D01*
G01X88042Y91874D01*
G01X88034Y91875D01*
G01X87999Y91876D01*
G01X87991Y91877D01*
G01X87989Y91878D01*
G01X87981D01*
G01X87917Y91880D01*
G37*
G04 //text: 24V*
G36*
G01X78251Y78068D02*
G01X78245Y78067D01*
G01X78236Y78065D01*
G01X78189Y78050D01*
G01X78141Y78032D01*
G01X78030Y77991D01*
G01X78034Y77981D01*
G01X78035Y77980D01*
G01X78036Y77979D01*
G01X78039Y77976D01*
G01X78041D01*
G01X78043D01*
G01X78057Y77978D01*
G01X78066Y77979D01*
G01X78081Y77980D01*
G01X78090D01*
G01X78094Y77979D01*
G01X78098Y77978D01*
G01X78101Y77976D01*
G01X78105Y77974D01*
G01X78111Y77971D01*
G01X78114D01*
G01X78117Y77969D01*
G01X78120Y77967D01*
G01X78122Y77963D01*
G01X78125Y77959D01*
G01X78130Y77949D01*
G01X78135Y77936D01*
G01X78138Y77929D01*
G01X78139Y77888D01*
G01Y77870D01*
G01X78138Y77830D01*
G01Y77817D01*
G01X78136Y77807D01*
G01Y77795D01*
G01X78137Y77784D01*
G01X78136Y77770D01*
G01Y77749D01*
G01X78135Y77742D01*
G01X78134Y77737D01*
G01Y77731D01*
G01Y77720D01*
G01Y77706D01*
G01Y77683D01*
G01X78133Y77669D01*
G01Y77649D01*
G01X78132Y77641D01*
G01X78131Y77636D01*
G01Y77630D01*
G01Y77619D01*
G01Y77605D01*
G01Y77582D01*
G01X78129Y77563D01*
G01Y77557D01*
G01X78127Y77482D01*
G01Y77469D01*
G01X78126Y77459D01*
G01Y77436D01*
G01X78125Y77422D01*
G01Y77404D01*
G01Y77402D01*
G01X78124Y77401D01*
G01X78123Y77400D01*
G01Y77399D01*
G01X78121Y77398D01*
G01X78117D01*
G01X78115Y77400D01*
G01X78112Y77402D01*
G01X78109Y77405D01*
G01X78096Y77419D01*
G01X78087Y77428D01*
G01X78077Y77438D01*
G01X78072Y77443D01*
G01X78063Y77453D01*
G01X78053Y77462D01*
G01X78048Y77467D01*
G01X78035Y77481D01*
G01X78026Y77491D01*
G01X78016Y77500D01*
G01X78012Y77506D01*
G01X78002Y77515D01*
G01X77992Y77525D01*
G01X77988Y77530D01*
G01X77975Y77544D01*
G01X77966Y77553D01*
G01X77956Y77563D01*
G01X77952Y77568D01*
G01X77942Y77578D01*
G01X77932Y77587D01*
G01X77928Y77592D01*
G01X77915Y77606D01*
G01X77906Y77616D01*
G01X77896Y77625D01*
G01X77891Y77631D01*
G01X77882Y77640D01*
G01X77872Y77650D01*
G01X77867Y77655D01*
G01X77855Y77669D01*
G01X77845Y77678D01*
G01X77831Y77693D01*
G01X77822Y77703D01*
G01X77807Y77717D01*
G01X77794Y77731D01*
G01X77785Y77741D01*
G01X77778Y77748D01*
G01X77770Y77758D01*
G01X77756Y77774D01*
G01X77751Y77781D01*
G01X77743Y77794D01*
G01X77738Y77804D01*
G01X77734Y77814D01*
G01X77733Y77818D01*
G01X77732Y77822D01*
G01X77733Y77825D01*
G01X77736Y77839D01*
G01X77737Y77842D01*
G01X77738Y77844D01*
G01X77740Y77847D01*
G01X77746Y77851D01*
G01X77757Y77861D01*
G01X77760Y77864D01*
G01X77763Y77865D01*
G01X77769Y77868D01*
G01X77774Y77871D01*
G01X77781Y77876D01*
G01X77788Y77878D01*
G01X77790Y77880D01*
G01X77792Y77882D01*
G01X77793Y77886D01*
G01Y77890D01*
G01X77792Y77894D01*
G01X77791Y77895D01*
G01X77790Y77896D01*
G01X77789Y77897D01*
G01X77787Y77898D01*
G01X77785D01*
G01X77784D01*
G01X77774Y77895D01*
G01X77639Y77845D01*
G01X77498Y77793D01*
G01X77501Y77782D01*
G01X77503Y77781D01*
G01X77507Y77778D01*
G01X77509D01*
G01X77511Y77777D01*
G01X77513Y77778D01*
G01X77539Y77783D01*
G01X77544D01*
G01X77551Y77784D01*
G01X77569Y77782D01*
G01X77577Y77780D01*
G01X77587Y77778D01*
G01X77591Y77776D01*
G01X77598Y77773D01*
G01X77602Y77770D01*
G01X77608Y77764D01*
G01X77616Y77758D01*
G01X77630Y77745D01*
G01X77635Y77740D01*
G01X77639Y77737D01*
G01X77643Y77732D01*
G01X77650Y77724D01*
G01X77657Y77717D01*
G01X77660Y77715D01*
G01X77671Y77702D01*
G01X77677Y77697D01*
G01X77681Y77694D01*
G01X77685Y77688D01*
G01X77691Y77680D01*
G01X77699Y77674D01*
G01X77702Y77672D01*
G01X77713Y77658D01*
G01X77719Y77653D01*
G01X77723Y77650D01*
G01X77728Y77645D01*
G01X77734Y77637D01*
G01X77741Y77631D01*
G01X77746Y77626D01*
G01X77752Y77618D01*
G01X77760Y77612D01*
G01X77763Y77609D01*
G01X77774Y77596D01*
G01X77779Y77590D01*
G01X77783Y77587D01*
G01X77788Y77583D01*
G01X77794Y77575D01*
G01X77802Y77568D01*
G01X77804Y77566D01*
G01X77816Y77552D01*
G01X77822Y77547D01*
G01X77825Y77544D01*
G01X77830Y77539D01*
G01X77836Y77531D01*
G01X77843Y77525D01*
G01X77848Y77520D01*
G01X77855Y77512D01*
G01X77862Y77506D01*
G01X77865Y77503D01*
G01X77876Y77490D01*
G01X77882Y77485D01*
G01X77886Y77482D01*
G01X77890Y77477D01*
G01X77897Y77468D01*
G01X77904Y77462D01*
G01X77908Y77458D01*
G01X77915Y77450D01*
G01X77922Y77443D01*
G01X77925Y77441D01*
G01X77936Y77427D01*
G01X77942Y77422D01*
G01X77946Y77419D01*
G01X77951Y77414D01*
G01X77957Y77406D01*
G01X77964Y77400D01*
G01X77967Y77397D01*
G01X77979Y77384D01*
G01X77984Y77379D01*
G01X77988Y77376D01*
G01X77993Y77371D01*
G01X77999Y77363D01*
G01X78006Y77357D01*
G01X78011Y77352D01*
G01X78017Y77344D01*
G01X78025Y77337D01*
G01X78027Y77334D01*
G01X78039Y77322D01*
G01X78045Y77316D01*
G01X78048Y77313D01*
G01X78053Y77308D01*
G01X78059Y77300D01*
G01X78067Y77294D01*
G01X78069Y77291D01*
G01X78081Y77278D01*
G01X78087Y77272D01*
G01X78090Y77270D01*
G01X78095Y77265D01*
G01X78101Y77257D01*
G01X78109Y77251D01*
G01X78113Y77246D01*
G01X78120Y77238D01*
G01X78127Y77231D01*
G01X78130Y77229D01*
G01X78136Y77221D01*
G01X78138Y77220D01*
G01X78142Y77217D01*
G01X78144Y77216D01*
G01X78147Y77215D01*
G01X78149D01*
G01X78152Y77216D01*
G01X78155Y77217D01*
G01X78157Y77218D01*
G01X78161Y77221D01*
G01X78164Y77224D01*
G01X78165Y77226D01*
G01X78166Y77228D01*
G01Y77231D01*
G01X78167Y77243D01*
G01Y77254D01*
G01Y77276D01*
G01X78169Y77295D01*
G01Y77302D01*
G01X78171Y77358D01*
G01Y77371D01*
G01X78172Y77381D01*
G01Y77393D01*
G01Y77403D01*
G01X78173Y77418D01*
G01Y77439D01*
G01X78174Y77446D01*
G01Y77451D01*
G01X78175Y77457D01*
G01X78174Y77468D01*
G01X78175Y77482D01*
G01Y77502D01*
G01X78176Y77510D01*
G01X78177Y77515D01*
G01Y77521D01*
G01X78176Y77532D01*
G01X78177Y77546D01*
G01Y77566D01*
G01X78178Y77574D01*
G01X78179Y77578D01*
G01Y77585D01*
G01X78178Y77595D01*
G01X78179Y77609D01*
G01Y77632D01*
G01X78180Y77651D01*
G01X78181Y77657D01*
G01X78182Y77713D01*
G01X78183Y77727D01*
G01Y77737D01*
G01Y77759D01*
G01X78185Y77778D01*
G01Y77784D01*
G01X78186Y77841D01*
G01X78187Y77854D01*
G01X78188Y77864D01*
G01X78187Y77876D01*
G01Y77887D01*
G01X78188Y77901D01*
G01Y77921D01*
G01X78190Y77937D01*
G01X78191Y77951D01*
G01X78192Y77955D01*
G01X78193Y77959D01*
G01X78196Y77972D01*
G01X78199Y77987D01*
G01X78201Y77992D01*
G01X78203Y77996D01*
G01X78205Y77999D01*
G01X78208Y78005D01*
G01X78210Y78011D01*
G01X78213Y78017D01*
G01X78220Y78025D01*
G01X78226Y78033D01*
G01X78229Y78035D01*
G01X78232Y78038D01*
G01X78242Y78045D01*
G01X78247Y78048D01*
G01X78249Y78050D01*
G01X78252Y78054D01*
G01X78253Y78056D01*
G01X78254Y78059D01*
G01Y78061D01*
G01Y78064D01*
G01X78253Y78067D01*
G37*
G36*
G01X77354Y77753D02*
G01X77323Y77742D01*
G01X77310Y77737D01*
G01X77297Y77730D01*
G01X77294Y77728D01*
G01X77293Y77726D01*
G01X77292Y77725D01*
G01X77291Y77724D01*
G01Y77723D01*
G01X77290Y77717D01*
G01X77289Y77711D01*
G01X77270Y77641D01*
G01X77267Y77624D01*
G01X77265Y77618D01*
G01X77263Y77614D01*
G01X77262Y77611D01*
G01X77259Y77594D01*
G01X77255Y77582D01*
G01X77252Y77571D01*
G01X77248Y77554D01*
G01X77244Y77541D01*
G01X77241Y77530D01*
G01X77238Y77514D01*
G01X77236Y77507D01*
G01X77234Y77504D01*
G01X77233Y77500D01*
G01X77230Y77484D01*
G01X77226Y77471D01*
G01X77223Y77461D01*
G01X77219Y77443D01*
G01X77215Y77430D01*
G01X77212Y77420D01*
G01X77208Y77402D01*
G01X77205Y77389D01*
G01X77202Y77379D01*
G01X77198Y77362D01*
G01X77196Y77356D01*
G01X77195Y77352D01*
G01X77194Y77349D01*
G01X77190Y77332D01*
G01X77187Y77320D01*
G01X77183Y77309D01*
G01X77179Y77292D01*
G01X77176Y77278D01*
G01X77173Y77268D01*
G01X77169Y77251D01*
G01X77165Y77238D01*
G01X77162Y77227D01*
G01X77159Y77210D01*
G01X77157Y77204D01*
G01X77155Y77200D01*
G01X77154Y77197D01*
G01X77150Y77181D01*
G01X77148Y77173D01*
G01X77191D01*
G01X77192Y77181D01*
G01X77193Y77188D01*
G01X77195Y77194D01*
G01X77197Y77198D01*
G01X77198Y77201D01*
G01X77201Y77217D01*
G01X77203Y77223D01*
G01X77204Y77227D01*
G01X77205Y77230D01*
G01X77209Y77245D01*
G01X77211Y77252D01*
G01X77212Y77256D01*
G01X77213Y77259D01*
G01X77217Y77275D01*
G01X77221Y77288D01*
G01X77224Y77298D01*
G01X77227Y77315D01*
G01X77229Y77322D01*
G01X77231Y77325D01*
G01X77232Y77328D01*
G01X77235Y77344D01*
G01X77237Y77350D01*
G01X77238Y77354D01*
G01X77239Y77357D01*
G01X77242Y77372D01*
G01X77244Y77379D01*
G01X77246Y77383D01*
G01X77247Y77386D01*
G01X77251Y77402D01*
G01X77254Y77415D01*
G01X77257Y77425D01*
G01X77261Y77442D01*
G01X77263Y77449D01*
G01X77264Y77453D01*
G01X77265Y77456D01*
G01X77269Y77471D01*
G01X77271Y77478D01*
G01X77272Y77481D01*
G01X77273Y77485D01*
G01X77276Y77500D01*
G01X77281Y77514D01*
G01X77284Y77524D01*
G01X77287Y77541D01*
G01X77289Y77547D01*
G01X77291Y77551D01*
G01X77292Y77554D01*
G01X77295Y77570D01*
G01X77297Y77576D01*
G01X77298Y77580D01*
G01X77299Y77583D01*
G01X77302Y77596D01*
G01X77303Y77599D01*
G01X77305Y77601D01*
G01X77306D01*
G01X77307D01*
G01X77309Y77599D01*
G01X77318Y77577D01*
G01X77374Y77430D01*
G01X77438Y77260D01*
G01X77316Y77214D01*
G01X77198Y77172D01*
G01X77193Y77170D01*
G01X77192D01*
G01X77191Y77173D01*
G01X77148D01*
G01X77147Y77168D01*
G01X77144Y77158D01*
G01X77141Y77145D01*
G01Y77141D01*
G01X77142Y77137D01*
G01X77144Y77127D01*
G01X77148Y77114D01*
G01X77151Y77107D01*
G01X77163Y77076D01*
G01X77464Y77189D01*
G01X77534Y77004D01*
G01X77621Y77036D01*
G01X77552Y77221D01*
G01X77646Y77257D01*
G01X77620Y77328D01*
G01X77525Y77293D01*
G37*
G36*
G01X76737Y77511D02*
G01X76726Y77511D01*
G01X76717Y77509D01*
G01X76701Y77506D01*
G01X76694Y77505D01*
G01X76692D01*
G01X76686Y77504D01*
G01X76663Y77496D01*
G01X76656Y77493D01*
G01X76629Y77483D01*
G01X76621Y77479D01*
G01X76617Y77476D01*
G01X76610Y77471D01*
G01X76601Y77466D01*
G01X76594Y77461D01*
G01X76584Y77451D01*
G01X76574Y77442D01*
G01X76569Y77436D01*
G01X76555Y77416D01*
G01X76551Y77411D01*
G01X76546Y77402D01*
G01X76543Y77397D01*
G01X76540Y77392D01*
G01X76538Y77383D01*
G01X76535Y77376D01*
G01X76533Y77367D01*
G01X76527Y77345D01*
G01X76525Y77335D01*
G01X76523Y77327D01*
G01Y77320D01*
G01Y77316D01*
G01X76522Y77297D01*
G01Y77280D01*
G01X76523Y77268D01*
G01X76524Y77260D01*
G01X76527Y77243D01*
G01X76528Y77234D01*
G01X76529Y77232D01*
G01X76530Y77230D01*
G01X76531Y77228D01*
G01X76533Y77227D01*
G01X76535D01*
G01X76538Y77228D01*
G01X76542Y77229D01*
G01X76544Y77230D01*
G01X76547Y77232D01*
G01X76549Y77235D01*
G01X76551Y77241D01*
G01Y77260D01*
G01X76552Y77269D01*
G01Y77273D01*
G01X76556Y77286D01*
G01X76559Y77300D01*
G01X76561Y77306D01*
G01X76562Y77309D01*
G01X76565Y77313D01*
G01X76567Y77319D01*
G01X76570Y77327D01*
G01X76573Y77333D01*
G01X76584Y77349D01*
G01X76590Y77356D01*
G01X76598Y77363D01*
G01X76603Y77369D01*
G01X76606Y77372D01*
G01X76608Y77375D01*
G01X76611Y77378D01*
G01X76622Y77384D01*
G01X76632Y77392D01*
G01X76638Y77396D01*
G01X76643Y77398D01*
G01X76653Y77403D01*
G01X76665Y77408D01*
G01X76680Y77413D01*
G01X76688Y77415D01*
G01X76690D01*
G01X76707Y77416D01*
G01X76717D01*
G01X76733Y77415D01*
G01X76751Y77411D01*
G01X76757Y77409D01*
G01X76765Y77403D01*
G01X76770Y77401D01*
G01X76780Y77398D01*
G01X76785Y77395D01*
G01X76801Y77384D01*
G01X76804Y77382D01*
G01X76808Y77379D01*
G01X76815Y77370D01*
G01X76821Y77365D01*
G01X76825Y77362D01*
G01X76827Y77359D01*
G01X76830Y77355D01*
G01X76838Y77341D01*
G01X76844Y77333D01*
G01X76847Y77328D01*
G01X76851Y77319D01*
G01X76856Y77312D01*
G01X76859Y77305D01*
G01X76862Y77297D01*
G01X76863Y77291D01*
G01X76864Y77285D01*
G01X76866Y77277D01*
G01X76871Y77264D01*
G01Y77259D01*
G01X76873Y77239D01*
G01X76874Y77216D01*
G01Y77198D01*
G01Y77182D01*
G01X76872Y77168D01*
G01Y77157D01*
G01X76871Y77151D01*
G01X76870Y77149D01*
G01X76869Y77145D01*
G01X76868Y77139D01*
G01X76866Y77128D01*
G01X76861Y77106D01*
G01X76859Y77094D01*
G01X76853Y77073D01*
G01X76850Y77062D01*
G01X76834Y77014D01*
G01X76831Y77004D01*
G01X76828Y76997D01*
G01X76825Y76989D01*
G01X76824Y76983D01*
G01X76819Y76975D01*
G01X76816Y76970D01*
G01X76812Y76955D01*
G01X76809Y76945D01*
G01X76807Y76941D01*
G01X76805Y76936D01*
G01X76801Y76932D01*
G01X76799Y76926D01*
G01X76796Y76917D01*
G01X76791Y76910D01*
G01X76789Y76904D01*
G01X76786Y76895D01*
G01X76781Y76887D01*
G01X76779Y76882D01*
G01X76776Y76873D01*
G01X76771Y76865D01*
G01X76768Y76859D01*
G01X76766Y76851D01*
G01X76761Y76843D01*
G01X76758Y76837D01*
G01X76756Y76828D01*
G01X76751Y76820D01*
G01X76748Y76815D01*
G01X76746Y76806D01*
G01X76741Y76798D01*
G01X76738Y76792D01*
G01X76735Y76784D01*
G01X76728Y76771D01*
G01X76723Y76762D01*
G01X76719Y76757D01*
G01X76717Y76751D01*
G01X76714Y76743D01*
G01X76709Y76734D01*
G01X76706Y76729D01*
G01X76703Y76720D01*
G01X76700Y76715D01*
G01X76699Y76712D01*
G01X76698Y76709D01*
G01X76699Y76705D01*
G01X76700Y76701D01*
G01X76703Y76693D01*
G01X76914Y76772D01*
G01X77094Y76843D01*
G01X77113Y76851D01*
G01X77121Y76855D01*
G01X77123Y76856D01*
G01X77124Y76857D01*
G01Y76858D01*
G01Y76865D01*
G01Y76877D01*
G01Y76885D01*
G01X77123Y76893D01*
G01Y76899D01*
G01Y76903D01*
G01X77124Y76907D01*
G01Y76915D01*
G01X77123Y76923D01*
G01Y76932D01*
G01X77124Y76942D01*
G01X77123Y76954D01*
G01Y76976D01*
G01Y76986D01*
G01X77124Y77002D01*
G01X77112Y76998D01*
G01X77105Y76995D01*
G01X77102Y76991D01*
G01X77101Y76989D01*
G01Y76988D01*
G01X77100Y76982D01*
G01X77098Y76976D01*
G01X77097Y76972D01*
G01X77094Y76964D01*
G01X77093Y76960D01*
G01X77092Y76958D01*
G01X77090Y76956D01*
G01X77086Y76952D01*
G01X77084Y76950D01*
G01X77083Y76948D01*
G01X77080Y76944D01*
G01X77076Y76938D01*
G01X77073Y76935D01*
G01X77060Y76924D01*
G01X77053Y76919D01*
G01X77049Y76916D01*
G01X77044Y76913D01*
G01X77037Y76910D01*
G01X77032Y76907D01*
G01X77029Y76905D01*
G01X76938Y76870D01*
G01X76911Y76860D01*
G01X76819Y76827D01*
G01X76804Y76823D01*
G01X76797Y76821D01*
G01X76794D01*
G01Y76824D01*
G01Y76827D01*
G01X76795Y76829D01*
G01X76799Y76835D01*
G01X76801Y76841D01*
G01X76804Y76849D01*
G01X76809Y76857D01*
G01X76812Y76862D01*
G01X76814Y76872D01*
G01X76819Y76879D01*
G01X76822Y76885D01*
G01X76826Y76900D01*
G01X76829Y76910D01*
G01X76831Y76914D01*
G01X76833Y76919D01*
G01X76837Y76923D01*
G01X76839Y76928D01*
G01X76842Y76937D01*
G01X76847Y76945D01*
G01X76849Y76950D01*
G01X76851Y76959D01*
G01X76854Y76967D01*
G01X76857Y76975D01*
G01X76859Y76980D01*
G01X76863Y76988D01*
G01X76866Y76994D01*
G01X76869Y77003D01*
G01X76874Y77011D01*
G01X76876Y77016D01*
G01X76880Y77031D01*
G01X76884Y77041D01*
G01X76885Y77045D01*
G01X76888Y77050D01*
G01X76891Y77054D01*
G01X76893Y77060D01*
G01X76896Y77068D01*
G01X76899Y77075D01*
G01X76901Y77083D01*
G01X76903Y77090D01*
G01X76908Y77097D01*
G01X76909Y77100D01*
G01X76910Y77103D01*
G01Y77108D01*
G01Y77111D01*
G01X76915Y77118D01*
G01X76916Y77121D01*
G01Y77124D01*
G01X76917Y77129D01*
G01Y77132D01*
G01Y77134D01*
G01X76919Y77139D01*
G01X76922Y77147D01*
G01X76929Y77175D01*
G01X76933Y77188D01*
G01X76940Y77227D01*
G01X76941Y77239D01*
G01X76942Y77245D01*
G01Y77247D01*
G01X76944Y77252D01*
G01Y77255D01*
G01X76945Y77259D01*
G01Y77272D01*
G01Y77280D01*
G01X76946Y77285D01*
G01Y77291D01*
G01Y77302D01*
G01Y77312D01*
G01Y77319D01*
G01X76945Y77324D01*
G01X76941Y77342D01*
G01X76940Y77353D01*
G01X76939Y77358D01*
G01X76936Y77368D01*
G01X76935Y77373D01*
G01Y77377D01*
G01X76934Y77381D01*
G01X76931Y77390D01*
G01X76927Y77398D01*
G01X76925Y77403D01*
G01X76921Y77409D01*
G01X76918Y77414D01*
G01X76915Y77423D01*
G01X76911Y77427D01*
G01X76901Y77441D01*
G01X76896Y77446D01*
G01X76890Y77452D01*
G01X76884Y77457D01*
G01X76875Y77466D01*
G01X76871Y77470D01*
G01X76868Y77472D01*
G01X76860Y77476D01*
G01X76847Y77484D01*
G01X76839Y77490D01*
G01X76834Y77492D01*
G01X76829Y77494D01*
G01X76822Y77496D01*
G01X76815Y77498D01*
G01X76806Y77501D01*
G01X76783Y77507D01*
G01X76774Y77509D01*
G01X76759Y77511D01*
G37*
G04 //text: 5V*
G36*
G01X76707Y79431D02*
G01X76709Y79429D01*
G01X76711Y79428D01*
G01X76713Y79427D01*
G01X76715Y79426D01*
G01X76717D01*
G01X76720D01*
G01X76722D01*
G01X76725Y79427D01*
G01X76728Y79428D01*
G01X76730Y79429D01*
G01X76732Y79431D01*
G01X76734Y79433D01*
G01X76735Y79434D01*
G01X76736Y79436D01*
G01X76737Y79438D01*
G01Y79441D01*
G01Y79454D01*
G01X76738Y79464D01*
G01Y79476D01*
G01Y79486D01*
G01X76739Y79505D01*
G01X76740Y79512D01*
G01X76741Y79568D01*
G01X76742Y79581D01*
G01Y79591D01*
G01Y79604D01*
G01Y79614D01*
G01X76743Y79628D01*
G01Y79641D01*
G01Y79648D01*
G01X76744Y79656D01*
G01X76745Y79661D01*
G01Y79668D01*
G01Y79678D01*
G01Y79692D01*
G01Y79704D01*
G01Y79712D01*
G01X76746Y79720D01*
G01X76747Y79725D01*
G01Y79731D01*
G01Y79742D01*
G01X76748Y79756D01*
G01Y79768D01*
G01Y79776D01*
G01Y79784D01*
G01X76749Y79788D01*
G01Y79795D01*
G01Y79806D01*
G01X76750Y79819D01*
G01Y79832D01*
G01Y79842D01*
G01X76751Y79861D01*
G01Y79867D01*
G01X76752Y79923D01*
G01X76753Y79936D01*
G01X76754Y79947D01*
G01Y79959D01*
G01Y79969D01*
G01X76755Y79988D01*
G01Y79995D01*
G01X76757Y80051D01*
G01Y80064D01*
G01X76758Y80074D01*
G01Y80086D01*
G01Y80096D01*
G01X76759Y80111D01*
G01Y80124D01*
G01Y80131D01*
G01X76760Y80139D01*
G01X76761Y80148D01*
G01X76762Y80161D01*
G01Y80165D01*
G01X76763Y80169D01*
G01X76767Y80182D01*
G01X76770Y80197D01*
G01X76772Y80202D01*
G01X76773Y80206D01*
G01X76776Y80209D01*
G01X76778Y80215D01*
G01X76780Y80221D01*
G01X76782Y80224D01*
G01X76784Y80227D01*
G01X76791Y80235D01*
G01X76797Y80243D01*
G01X76799Y80245D01*
G01X76802Y80248D01*
G01X76813Y80255D01*
G01X76818Y80258D01*
G01X76820Y80260D01*
G01X76821Y80262D01*
G01X76823Y80264D01*
G01X76824Y80266D01*
G01X76825Y80269D01*
G01Y80271D01*
G01Y80274D01*
G01X76824Y80277D01*
G01X76821Y80278D01*
G01X76816Y80277D01*
G01X76807Y80275D01*
G01X76759Y80260D01*
G01X76711Y80242D01*
G01X76601Y80201D01*
G01X76604Y80191D01*
G01X76606Y80190D01*
G01X76607Y80188D01*
G01X76608Y80187D01*
G01X76610D01*
G01X76611Y80186D01*
G01X76613D01*
G01X76628Y80188D01*
G01X76637Y80189D01*
G01X76651Y80190D01*
G01X76661D01*
G01X76665Y80189D01*
G01X76669Y80188D01*
G01X76672Y80187D01*
G01X76676Y80184D01*
G01X76681Y80182D01*
G01X76684Y80181D01*
G01X76687Y80179D01*
G01X76690Y80177D01*
G01X76693Y80173D01*
G01X76696Y80168D01*
G01X76701Y80158D01*
G01X76706Y80146D01*
G01X76708Y80139D01*
G01X76710Y80098D01*
G01Y80080D01*
G01X76709Y80040D01*
G01X76708Y80027D01*
G01X76707Y80017D01*
G01Y80004D01*
G01Y79994D01*
G01X76706Y79980D01*
G01Y79967D01*
G01X76707Y79960D01*
G01X76706Y79952D01*
G01X76705Y79947D01*
G01Y79940D01*
G01Y79930D01*
G01X76704Y79916D01*
G01Y79904D01*
G01Y79893D01*
G01X76703Y79879D01*
G01Y79866D01*
G01X76704Y79859D01*
G01X76703Y79851D01*
G01X76702Y79846D01*
G01Y79840D01*
G01Y79829D01*
G01X76701Y79815D01*
G01Y79803D01*
G01Y79792D01*
G01X76700Y79774D01*
G01Y79767D01*
G01X76698Y79692D01*
G01Y79679D01*
G01X76697Y79669D01*
G01Y79657D01*
G01Y79647D01*
G01X76696Y79632D01*
G01Y79617D01*
G01Y79615D01*
G01X76695Y79613D01*
G01Y79611D01*
G01X76694Y79610D01*
G01X76693Y79609D01*
G01X76692Y79608D01*
G01X76691D01*
G01X76688Y79609D01*
G01X76685Y79610D01*
G01X76682Y79612D01*
G01X76679Y79615D01*
G01X76666Y79629D01*
G01X76657Y79638D01*
G01X76647Y79648D01*
G01X76643Y79653D01*
G01X76634Y79663D01*
G01X76623Y79673D01*
G01X76619Y79677D01*
G01X76606Y79691D01*
G01X76597Y79701D01*
G01X76587Y79711D01*
G01X76582Y79716D01*
G01X76573Y79725D01*
G01X76563Y79735D01*
G01X76558Y79740D01*
G01X76546Y79754D01*
G01X76537Y79763D01*
G01X76527Y79773D01*
G01X76522Y79778D01*
G01X76513Y79788D01*
G01X76503Y79798D01*
G01X76498Y79803D01*
G01X76486Y79816D01*
G01X76476Y79826D01*
G01X76466Y79836D01*
G01X76462Y79841D01*
G01X76453Y79850D01*
G01X76442Y79860D01*
G01X76438Y79865D01*
G01X76425Y79879D01*
G01X76416Y79888D01*
G01X76406Y79898D01*
G01X76401Y79903D01*
G01X76392Y79913D01*
G01X76382Y79923D01*
G01X76377Y79928D01*
G01X76365Y79941D01*
G01X76356Y79951D01*
G01X76349Y79958D01*
G01X76340Y79967D01*
G01X76327Y79984D01*
G01X76322Y79991D01*
G01X76317Y79998D01*
G01X76314Y80004D01*
G01X76309Y80014D01*
G01X76304Y80025D01*
G01X76303Y80028D01*
G01Y80032D01*
G01Y80035D01*
G01X76306Y80049D01*
G01X76307Y80052D01*
G01X76309Y80054D01*
G01X76311Y80057D01*
G01X76316Y80061D01*
G01X76322Y80066D01*
G01X76327Y80071D01*
G01X76330Y80074D01*
G01X76333Y80075D01*
G01X76340Y80078D01*
G01X76345Y80081D01*
G01X76352Y80086D01*
G01X76358Y80089D01*
G01X76361Y80090D01*
G01X76363Y80093D01*
G01Y80096D01*
G01Y80100D01*
G01X76362Y80103D01*
G01X76361Y80105D01*
G01Y80106D01*
G01X76360Y80107D01*
G01X76359Y80108D01*
G01X76358D01*
G01X76356D01*
G01X76355D01*
G01X76345Y80105D01*
G01X76210Y80055D01*
G01X76068Y80003D01*
G01X76072Y79993D01*
G01X76073Y79991D01*
G01X76075Y79990D01*
G01X76076Y79989D01*
G01X76077Y79988D01*
G01X76079D01*
G01X76081D01*
G01X76083D01*
G01X76110Y79993D01*
G01X76115Y79994D01*
G01X76122D01*
G01X76139Y79992D01*
G01X76147Y79990D01*
G01X76157Y79988D01*
G01X76162Y79986D01*
G01X76168Y79983D01*
G01X76172Y79980D01*
G01X76179Y79974D01*
G01X76187Y79968D01*
G01X76190Y79966D01*
G01X76200Y79955D01*
G01X76206Y79950D01*
G01X76209Y79947D01*
G01X76214Y79942D01*
G01X76220Y79934D01*
G01X76228Y79928D01*
G01X76231Y79925D01*
G01X76242Y79912D01*
G01X76248Y79906D01*
G01X76251Y79903D01*
G01X76256Y79899D01*
G01X76262Y79891D01*
G01X76270Y79884D01*
G01X76273Y79881D01*
G01X76284Y79868D01*
G01X76290Y79863D01*
G01X76293Y79860D01*
G01X76298Y79855D01*
G01X76304Y79847D01*
G01X76312Y79841D01*
G01X76316Y79836D01*
G01X76323Y79828D01*
G01X76330Y79822D01*
G01X76333Y79819D01*
G01X76344Y79806D01*
G01X76350Y79800D01*
G01X76354Y79798D01*
G01X76358Y79793D01*
G01X76365Y79785D01*
G01X76372Y79778D01*
G01X76375Y79776D01*
G01X76386Y79763D01*
G01X76392Y79757D01*
G01X76396Y79754D01*
G01X76400Y79749D01*
G01X76407Y79741D01*
G01X76414Y79735D01*
G01X76419Y79730D01*
G01X76425Y79722D01*
G01X76432Y79716D01*
G01X76435Y79713D01*
G01X76447Y79700D01*
G01X76452Y79695D01*
G01X76456Y79692D01*
G01X76461Y79687D01*
G01X76467Y79679D01*
G01X76474Y79672D01*
G01X76479Y79668D01*
G01X76485Y79660D01*
G01X76493Y79653D01*
G01X76496Y79650D01*
G01X76507Y79637D01*
G01X76513Y79632D01*
G01X76517Y79629D01*
G01X76521Y79624D01*
G01X76527Y79616D01*
G01X76535Y79610D01*
G01X76538Y79607D01*
G01X76549Y79594D01*
G01X76555Y79589D01*
G01X76559Y79586D01*
G01X76563Y79581D01*
G01X76570Y79573D01*
G01X76577Y79567D01*
G01X76581Y79562D01*
G01X76588Y79554D01*
G01X76595Y79547D01*
G01X76598Y79545D01*
G01X76609Y79532D01*
G01X76615Y79526D01*
G01X76619Y79523D01*
G01X76623Y79518D01*
G01X76630Y79510D01*
G01X76637Y79504D01*
G01X76640Y79501D01*
G01X76652Y79488D01*
G01X76657Y79483D01*
G01X76661Y79480D01*
G01X76666Y79475D01*
G01X76672Y79467D01*
G01X76679Y79461D01*
G01X76684Y79456D01*
G01X76690Y79448D01*
G01X76698Y79441D01*
G01X76700Y79439D01*
G01X76707Y79431D01*
G37*
G36*
G01X75912Y79131D02*
G01X75920Y79132D01*
G01X75931Y79135D01*
G01X75960Y79145D01*
G01X75965Y79147D01*
G01X76000Y79161D01*
G01X76008Y79164D01*
G01X76009Y79165D01*
G01X76012Y79167D01*
G01X76020Y79172D01*
G01X76034Y79180D01*
G01X76039Y79184D01*
G01X76052Y79194D01*
G01X76060Y79201D01*
G01X76073Y79214D01*
G01X76083Y79223D01*
G01X76088Y79229D01*
G01X76093Y79235D01*
G01X76102Y79245D01*
G01X76105Y79250D01*
G01X76116Y79266D01*
G01X76123Y79276D01*
G01X76128Y79285D01*
G01X76130Y79289D01*
G01X76132Y79295D01*
G01X76133Y79299D01*
G01X76136Y79305D01*
G01X76141Y79313D01*
G01X76144Y79322D01*
G01X76146Y79327D01*
G01X76149Y79332D01*
G01X76150Y79335D01*
G01X76151Y79338D01*
G01Y79343D01*
G01X76152Y79345D01*
G01Y79348D01*
G01X76155Y79356D01*
G01X76157Y79365D01*
G01X76161Y79387D01*
G01X76162Y79403D01*
G01X76163Y79410D01*
G01X76164Y79414D01*
G01Y79421D01*
G01Y79432D01*
G01Y79441D01*
G01Y79449D01*
G01X76163Y79454D01*
G01X76159Y79472D01*
G01X76158Y79480D01*
G01Y79482D01*
G01X76156Y79488D01*
G01X76145Y79521D01*
G01X76133Y79551D01*
G01X76129Y79559D01*
G01X76124Y79566D01*
G01X76118Y79576D01*
G01X76112Y79583D01*
G01X76104Y79591D01*
G01X76098Y79599D01*
G01X76093Y79605D01*
G01X76090Y79608D01*
G01X76082Y79615D01*
G01X76077Y79619D01*
G01X76061Y79632D01*
G01X76055Y79636D01*
G01X76050Y79640D01*
G01X76041Y79644D01*
G01X76036Y79648D01*
G01X76031Y79650D01*
G01X76022Y79653D01*
G01X76014Y79658D01*
G01X76009Y79660D01*
G01X76000Y79663D01*
G01X75994Y79666D01*
G01X75992Y79668D01*
G01X75989Y79669D01*
G01X75985Y79670D01*
G01X75975Y79672D01*
G01X75971Y79673D01*
G01X75962Y79676D01*
G01X75947Y79680D01*
G01X75931Y79683D01*
G01X75923Y79684D01*
G01X75916Y79685D01*
G01X75905Y79686D01*
G01X75898D01*
G01X75889Y79688D01*
G01X75881D01*
G01X75862Y79689D01*
G01X75844D01*
G01X75834Y79688D01*
G01X75826Y79687D01*
G01X75811Y79685D01*
G01X75798Y79684D01*
G01X75790Y79683D01*
G01X75773Y79680D01*
G01X75769Y79679D01*
G01X75767D01*
G01X75766Y79680D01*
G01X75764D01*
G01X75763Y79681D01*
G01X75762Y79682D01*
G01X75761Y79683D01*
G01X75759Y79685D01*
G01Y79687D01*
G01X75758Y79690D01*
G01X75760Y79696D01*
G01Y79700D01*
G01X75761Y79715D01*
G01X75762Y79722D01*
G01X75763Y79731D01*
G01X75764Y79746D01*
G01X75765Y79753D01*
G01X75767Y79761D01*
G01Y79774D01*
G01X75768Y79781D01*
G01X75770Y79784D01*
G01Y79786D01*
G01X75773Y79788D01*
G01X75778Y79791D01*
G01X75799Y79801D01*
G01X75879Y79832D01*
G01X75953Y79861D01*
G01X75969Y79869D01*
G01X75976Y79872D01*
G01X75980Y79875D01*
G01X75982Y79876D01*
G01X75983Y79877D01*
G01Y79878D01*
G01X75984D01*
G01X75983Y79886D01*
G01X75984Y79904D01*
G01X75985Y79917D01*
G01X75986Y79924D01*
G01X75987Y79929D01*
G01Y79935D01*
G01Y79946D01*
G01Y79952D01*
G01X75989Y79959D01*
G01X75990Y79966D01*
G01X75991Y79974D01*
G01X75734Y79878D01*
G01Y79868D01*
G01Y79862D01*
G01X75733Y79855D01*
G01X75731Y79846D01*
G01X75730Y79831D01*
G01X75729Y79824D01*
G01X75728Y79815D01*
G01X75727Y79800D01*
G01X75726Y79793D01*
G01X75725Y79785D01*
G01X75724Y79770D01*
G01X75723Y79762D01*
G01X75721Y79754D01*
G01Y79739D01*
G01X75720Y79731D01*
G01X75719Y79727D01*
G01X75718Y79723D01*
G01Y79705D01*
G01X75717Y79697D01*
G01X75716Y79689D01*
G01X75715Y79674D01*
G01X75714Y79667D01*
G01X75713Y79658D01*
G01X75712Y79643D01*
G01X75711Y79636D01*
G01X75709Y79627D01*
G01Y79612D01*
G01X75708Y79605D01*
G01X75706Y79597D01*
G01X75705Y79581D01*
G01X75704Y79574D01*
G01X75703Y79567D01*
G01Y79561D01*
G01Y79559D01*
G01X75705Y79558D01*
G01X75708D01*
G01X75715Y79560D01*
G01X75722Y79562D01*
G01X75725D01*
G01X75728D01*
G01X75732Y79563D01*
G01X75745Y79567D01*
G01X75754Y79571D01*
G01X75761Y79573D01*
G01X75768D01*
G01X75774Y79575D01*
G01X75783Y79578D01*
G01X75792Y79579D01*
G01X75801Y79580D01*
G01X75817Y79583D01*
G01X75824Y79584D01*
G01X75842Y79585D01*
G01X75850Y79586D01*
G01X75858D01*
G01X75868Y79585D01*
G01X75881D01*
G01X75886D01*
G01X75891D01*
G01X75895Y79584D01*
G01X75906Y79581D01*
G01X75912Y79580D01*
G01X75922Y79579D01*
G01X75928Y79577D01*
G01X75952Y79571D01*
G01X75959Y79568D01*
G01X75967Y79566D01*
G01X75973Y79564D01*
G01X75981Y79559D01*
G01X75987Y79556D01*
G01X75992Y79554D01*
G01X75995Y79553D01*
G01X75997Y79552D01*
G01X76001Y79548D01*
G01X76003Y79546D01*
G01X76006Y79545D01*
G01X76011Y79543D01*
G01X76014Y79542D01*
G01X76016Y79540D01*
G01X76020Y79536D01*
G01X76025Y79532D01*
G01X76032Y79527D01*
G01X76036Y79524D01*
G01X76039Y79521D01*
G01X76047Y79513D01*
G01X76052Y79508D01*
G01X76056Y79505D01*
G01X76059Y79503D01*
G01X76061Y79500D01*
G01X76068Y79489D01*
G01X76075Y79479D01*
G01X76080Y79473D01*
G01X76089Y79458D01*
G01X76091Y79453D01*
G01X76096Y79443D01*
G01X76101Y79431D01*
G01X76106Y79416D01*
G01X76108Y79408D01*
G01X76109Y79399D01*
G01X76110Y79387D01*
G01X76111Y79379D01*
G01X76110Y79365D01*
G01X76109Y79354D01*
G01X76108Y79348D01*
G01Y79345D01*
G01X76105Y79338D01*
G01X76102Y79325D01*
G01X76100Y79319D01*
G01X76099Y79316D01*
G01X76096Y79312D01*
G01X76094Y79307D01*
G01X76092Y79301D01*
G01X76090Y79297D01*
G01X76088Y79294D01*
G01X76081Y79284D01*
G01X76077Y79278D01*
G01X76075Y79275D01*
G01X76071Y79270D01*
G01X76063Y79262D01*
G01X76058Y79257D01*
G01X76055Y79253D01*
G01X76052Y79250D01*
G01X76048Y79246D01*
G01X76043Y79243D01*
G01X76036Y79237D01*
G01X76028Y79232D01*
G01X76023Y79229D01*
G01X76014Y79225D01*
G01X76005Y79221D01*
G01X75999Y79219D01*
G01X75990Y79216D01*
G01X75984Y79214D01*
G01X75980D01*
G01X75964Y79213D01*
G01X75946D01*
G01X75939D01*
G01X75934Y79214D01*
G01X75931Y79215D01*
G01X75927Y79216D01*
G01X75921Y79217D01*
G01X75911Y79219D01*
G01X75907Y79220D01*
G01X75903Y79222D01*
G01X75897Y79223D01*
G01X75886Y79225D01*
G01X75880Y79226D01*
G01X75876D01*
G01X75872D01*
G01X75867D01*
G01X75862Y79225D01*
G01X75850Y79222D01*
G01X75838Y79218D01*
G01X75833Y79215D01*
G01X75830Y79213D01*
G01X75827Y79209D01*
G01X75823Y79204D01*
G01X75821Y79200D01*
G01X75820Y79196D01*
G01X75818Y79190D01*
G01X75817Y79186D01*
G01Y79181D01*
G01Y79177D01*
G01X75818Y79171D01*
G01X75820Y79167D01*
G01X75821Y79163D01*
G01X75825Y79157D01*
G01X75827Y79153D01*
G01X75830Y79150D01*
G01X75834Y79148D01*
G01X75848Y79138D01*
G01X75850Y79137D01*
G01X75853Y79135D01*
G01X75857Y79134D01*
G01X75868Y79133D01*
G01X75877Y79131D01*
G01X75881Y79130D01*
G01X75890D01*
G01X75900D01*
G01X75912Y79131D01*
G37*
G04 //text: PCF*
G36*
G01X76492Y82878D02*
G01X75960Y82679D01*
G01X75966Y82663D01*
G01X75984Y82669D01*
G01X75997Y82674D01*
G01X76005Y82676D01*
G01X76014Y82677D01*
G01X76026Y82679D01*
G01X76035D01*
G01X76040Y82678D01*
G01X76056Y82674D01*
G01X76059Y82673D01*
G01X76063Y82672D01*
G01X76066Y82669D01*
G01X76072Y82665D01*
G01X76076Y82661D01*
G01X76078Y82658D01*
G01X76082Y82653D01*
G01X76085Y82647D01*
G01X76093Y82631D01*
G01X76097Y82620D01*
G01X76100Y82615D01*
G01X76101Y82614D01*
G01X76148Y82494D01*
G01X76196Y82363D01*
G01X76288Y82113D01*
G01X76289Y82110D01*
G01Y82109D01*
G01X76290Y82106D01*
G01X76291Y82102D01*
G01X76297Y82084D01*
G01X76298Y82079D01*
G01X76299Y82075D01*
G01Y82060D01*
G01X76298Y82052D01*
G01X76294Y82046D01*
G01X76290Y82039D01*
G01X76287Y82034D01*
G01X76283Y82029D01*
G01X76280Y82026D01*
G01X76275Y82021D01*
G01X76269Y82017D01*
G01X76266Y82015D01*
G01X76247Y82004D01*
G01X76237Y81999D01*
G01X76224Y81994D01*
G01X76221Y81992D01*
G01X76219Y81989D01*
G01Y81985D01*
G01X76220Y81983D01*
G01X76223Y81975D01*
G01X76531Y82090D01*
G01X76525Y82107D01*
G01X76507Y82100D01*
G01X76494Y82095D01*
G01X76487Y82093D01*
G01X76478Y82092D01*
G01X76466Y82091D01*
G01X76456D01*
G01X76451Y82092D01*
G01X76435Y82095D01*
G01X76430Y82097D01*
G01X76424Y82100D01*
G01X76419Y82104D01*
G01X76412Y82111D01*
G01X76409Y82114D01*
G01X76406Y82120D01*
G01X76400Y82133D01*
G01X76398Y82139D01*
G01X76396Y82141D01*
G01X76394Y82144D01*
G01X76346Y82271D01*
G01X76299Y82396D01*
G01X76378Y82425D01*
G01X76456Y82453D01*
G01X76463Y82454D01*
G01Y82455D01*
G01X76478D01*
G01X76483Y82454D01*
G01X76488D01*
G01X76503Y82449D01*
G01X76512Y82444D01*
G01X76521Y82438D01*
G01X76524Y82435D01*
G01X76535Y82422D01*
G01X76537Y82418D01*
G01X76540Y82413D01*
G01X76543Y82406D01*
G01X76548Y82399D01*
G01X76551Y82393D01*
G01X76553Y82390D01*
G01X76554Y82387D01*
G01X76557Y82386D01*
G01X76560D01*
G01X76565Y82387D01*
G01X76574Y82391D01*
G01X76487Y82625D01*
G01X76468Y82617D01*
G01X76471Y82604D01*
G01X76473Y82592D01*
G01X76474Y82585D01*
G01X76475Y82568D01*
G01Y82558D01*
G01X76474Y82546D01*
G01X76472Y82540D01*
G01Y82537D01*
G01X76469Y82532D01*
G01X76465Y82526D01*
G01X76460Y82519D01*
G01X76457Y82515D01*
G01X76453Y82512D01*
G01X76448Y82507D01*
G01X76442Y82504D01*
G01X76439Y82501D01*
G01X76430Y82496D01*
G01X76417Y82490D01*
G01X76407Y82485D01*
G01X76343Y82460D01*
G01X76283Y82438D01*
G01X76178Y82720D01*
G01X76264Y82752D01*
G01X76348Y82782D01*
G01X76354Y82784D01*
G01X76355D01*
G01X76358Y82785D01*
G01X76363Y82786D01*
G01X76375Y82790D01*
G01X76385Y82793D01*
G01X76392Y82795D01*
G01X76402Y82796D01*
G01X76414Y82797D01*
G01X76419Y82798D01*
G01X76423Y82797D01*
G01X76431Y82796D01*
G01X76445Y82794D01*
G01X76449Y82792D01*
G01X76458Y82789D01*
G01X76464Y82788D01*
G01X76469Y82785D01*
G01X76472Y82781D01*
G01X76476Y82778D01*
G01X76483Y82774D01*
G01X76491Y82768D01*
G01X76495Y82765D01*
G01X76498Y82761D01*
G01X76502Y82757D01*
G01X76512Y82746D01*
G01X76521Y82737D01*
G01X76526Y82730D01*
G01X76530Y82725D01*
G01X76531Y82724D01*
G01X76533Y82723D01*
G01X76535Y82722D01*
G01X76539D01*
G01X76542Y82723D01*
G01X76544Y82724D01*
G01X76556Y82728D01*
G01X76550Y82737D01*
G01X76546Y82744D01*
G01X76535Y82774D01*
G01X76525Y82799D01*
G01X76521Y82807D01*
G01X76519Y82810D01*
G01X76516Y82816D01*
G01X76507Y82838D01*
G37*
G36*
G01X75864Y82661D02*
G01X75860Y82660D01*
G01X75858Y82659D01*
G01X75856Y82658D01*
G01X75854Y82657D01*
G01X75853Y82655D01*
G01X75852Y82653D01*
G01X75851Y82651D01*
G01X75850Y82649D01*
G01Y82638D01*
G01Y82630D01*
G01X75847Y82617D01*
G01X75846Y82614D01*
G01X75844Y82610D01*
G01X75841Y82607D01*
G01X75838Y82604D01*
G01X75827Y82594D01*
G01X75825Y82593D01*
G01X75823Y82592D01*
G01X75817Y82591D01*
G01X75803D01*
G01X75796D01*
G01X75789Y82592D01*
G01X75780Y82594D01*
G01X75772D01*
G01X75753Y82595D01*
G01X75736D01*
G01X75733Y82594D01*
G01X75709Y82593D01*
G01X75700Y82592D01*
G01X75691Y82591D01*
G01X75664Y82586D01*
G01X75662Y82585D01*
G01X75653Y82583D01*
G01X75615Y82569D01*
G01X75580Y82555D01*
G01X75571Y82551D01*
G01X75568Y82548D01*
G01X75559Y82543D01*
G01X75543Y82535D01*
G01X75537Y82530D01*
G01X75507Y82506D01*
G01X75493Y82495D01*
G01X75482Y82484D01*
G01X75480Y82481D01*
G01X75473Y82473D01*
G01X75468Y82468D01*
G01X75459Y82457D01*
G01X75452Y82449D01*
G01X75449Y82445D01*
G01X75441Y82434D01*
G01X75432Y82422D01*
G01X75429Y82417D01*
G01X75428Y82413D01*
G01X75427Y82409D01*
G01X75424Y82404D01*
G01X75420Y82401D01*
G01X75417Y82396D01*
G01X75416Y82390D01*
G01X75413Y82384D01*
G01X75408Y82376D01*
G01X75405Y82368D01*
G01X75403Y82362D01*
G01X75399Y82357D01*
G01X75398Y82354D01*
G01X75397Y82350D01*
G01X75395Y82340D01*
G01X75394Y82336D01*
G01X75391Y82327D01*
G01X75386Y82310D01*
G01X75384Y82301D01*
G01X75382Y82291D01*
G01X75381Y82284D01*
G01X75380Y82277D01*
G01Y82266D01*
G01X75379Y82258D01*
G01X75377Y82250D01*
G01X75376Y82228D01*
G01Y82218D01*
G01Y82206D01*
G01Y82184D01*
G01X75377Y82176D01*
G01X75378Y82168D01*
G01X75380Y82153D01*
G01X75381Y82144D01*
G01X75383Y82133D01*
G01X75385Y82126D01*
G01X75389Y82107D01*
G01X75391Y82099D01*
G01X75393Y82091D01*
G01X75407Y82051D01*
G01X75421Y82015D01*
G01X75425Y82006D01*
G01X75426Y82005D01*
G01X75428Y82002D01*
G01X75431Y81997D01*
G01X75435Y81988D01*
G01X75440Y81981D01*
G01X75445Y81973D01*
G01X75450Y81963D01*
G01X75453Y81959D01*
G01X75457Y81954D01*
G01X75464Y81946D01*
G01X75472Y81936D01*
G01X75477Y81929D01*
G01X75485Y81921D01*
G01X75491Y81912D01*
G01X75496Y81908D01*
G01X75504Y81901D01*
G01X75514Y81891D01*
G01X75520Y81886D01*
G01X75534Y81875D01*
G01X75544Y81868D01*
G01X75561Y81856D01*
G01X75572Y81849D01*
G01X75581Y81844D01*
G01X75590Y81839D01*
G01X75594Y81838D01*
G01X75600Y81836D01*
G01X75608Y81831D01*
G01X75617Y81828D01*
G01X75622Y81826D01*
G01X75631Y81821D01*
G01X75636Y81819D01*
G01X75648Y81815D01*
G01X75663Y81811D01*
G01X75693Y81805D01*
G01X75701Y81804D01*
G01X75708Y81803D01*
G01X75726Y81802D01*
G01X75736Y81801D01*
G01X75748D01*
G01X75772Y81803D01*
G01X75781Y81804D01*
G01X75790Y81805D01*
G01X75806Y81808D01*
G01X75813Y81809D01*
G01X75825Y81810D01*
G01X75827D01*
G01X75835Y81812D01*
G01X75882Y81829D01*
G01X75930Y81848D01*
G01X75937Y81851D01*
G01X75941Y81854D01*
G01X75949Y81859D01*
G01X75965Y81868D01*
G01X75971Y81872D01*
G01X75984Y81882D01*
G01X75998Y81894D01*
G01X76014Y81908D01*
G01X76018Y81912D01*
G01X76023Y81918D01*
G01X76028Y81924D01*
G01X76037Y81934D01*
G01X76040Y81939D01*
G01X76051Y81955D01*
G01X76058Y81965D01*
G01X76063Y81974D01*
G01X76067Y81984D01*
G01X76068Y81988D01*
G01X76071Y81994D01*
G01X76076Y82002D01*
G01X76079Y82011D01*
G01X76081Y82016D01*
G01X76086Y82024D01*
G01X76088Y82030D01*
G01X76091Y82041D01*
G01X76096Y82057D01*
G01X76099Y82073D01*
G01X76101Y82080D01*
G01X76103Y82084D01*
G01X76104Y82090D01*
G01X76106Y82101D01*
G01X76108Y82110D01*
G01Y82113D01*
G01Y82115D01*
G01Y82117D01*
G01X76106Y82118D01*
G01X76104Y82119D01*
G01X76101Y82120D01*
G01X76097D01*
G01X76094D01*
G01X76093D01*
G01X76091Y82119D01*
G01X76089Y82118D01*
G01X76088Y82117D01*
G01X76086Y82113D01*
G01X76085Y82106D01*
G01X76083Y82100D01*
G01X76081Y82097D01*
G01X76079Y82093D01*
G01X76077Y82088D01*
G01Y82082D01*
G01X76076Y82080D01*
G01X76071Y82072D01*
G01X76070Y82069D01*
G01Y82066D01*
G01X76069Y82061D01*
G01Y82058D01*
G01X76068Y82056D01*
G01X76064Y82051D01*
G01X76062Y82045D01*
G01X76059Y82036D01*
G01X76054Y82028D01*
G01X76052Y82023D01*
G01X76049Y82014D01*
G01X76044Y82006D01*
G01X76042Y82000D01*
G01X76040Y81995D01*
G01X76039Y81992D01*
G01X76037Y81990D01*
G01X76033Y81986D01*
G01X76031Y81985D01*
G01X76030Y81983D01*
G01X76028Y81978D01*
G01X76024Y81973D01*
G01X76017Y81965D01*
G01X76011Y81957D01*
G01X76002Y81948D01*
G01X75989Y81936D01*
G01X75987Y81935D01*
G01X75968Y81921D01*
G01X75960Y81915D01*
G01X75951Y81909D01*
G01X75944Y81906D01*
G01X75916Y81892D01*
G01X75909Y81889D01*
G01X75901Y81886D01*
G01X75894Y81883D01*
G01X75870Y81876D01*
G01X75859Y81873D01*
G01X75853Y81872D01*
G01X75850D01*
G01X75842Y81871D01*
G01X75828Y81868D01*
G01X75805Y81867D01*
G01X75797D01*
G01X75790Y81868D01*
G01X75785Y81869D01*
G01X75778D01*
G01X75771Y81868D01*
G01X75768Y81869D01*
G01X75766D01*
G01X75761Y81871D01*
G01X75754Y81872D01*
G01X75745Y81873D01*
G01X75739Y81875D01*
G01X75717Y81881D01*
G01X75712Y81884D01*
G01X75704Y81888D01*
G01X75696Y81891D01*
G01X75690Y81894D01*
G01X75682Y81898D01*
G01X75676Y81900D01*
G01X75673Y81901D01*
G01X75671Y81902D01*
G01X75669Y81904D01*
G01X75663Y81909D01*
G01X75661Y81911D01*
G01X75656Y81913D01*
G01X75651Y81917D01*
G01X75643Y81924D01*
G01X75635Y81930D01*
G01X75633Y81933D01*
G01X75617Y81949D01*
G01X75610Y81956D01*
G01X75602Y81965D01*
G01X75588Y81982D01*
G01X75583Y81989D01*
G01X75578Y81996D01*
G01X75570Y82011D01*
G01X75564Y82019D01*
G01X75559Y82028D01*
G01X75543Y82059D01*
G01X75540Y82064D01*
G01X75531Y82086D01*
G01X75520Y82114D01*
G01X75507Y82154D01*
G01X75504Y82162D01*
G01Y82163D01*
G01Y82166D01*
G01X75503Y82170D01*
G01X75497Y82188D01*
G01X75495Y82194D01*
G01Y82200D01*
G01X75493Y82211D01*
G01X75488Y82230D01*
G01X75487Y82238D01*
G01X75486Y82256D01*
G01X75484Y82281D01*
G01X75483Y82290D01*
G01Y82298D01*
G01X75484Y82308D01*
G01Y82328D01*
G01X75485Y82336D01*
G01X75488Y82353D01*
G01X75492Y82373D01*
G01X75494Y82381D01*
G01X75497Y82394D01*
G01X75499Y82399D01*
G01X75504Y82408D01*
G01X75506Y82412D01*
G01X75509Y82417D01*
G01X75512Y82426D01*
G01X75515Y82432D01*
G01X75519Y82439D01*
G01X75522Y82443D01*
G01X75523Y82446D01*
G01X75529Y82453D01*
G01X75543Y82472D01*
G01X75558Y82487D01*
G01X75564Y82493D01*
G01X75571Y82498D01*
G01X75581Y82504D01*
G01X75591Y82512D01*
G01X75598Y82516D01*
G01X75613Y82526D01*
G01X75622Y82530D01*
G01X75653Y82542D01*
G01X75679Y82552D01*
G01X75689Y82554D01*
G01X75694Y82555D01*
G01X75702Y82556D01*
G01X75711Y82558D01*
G01X75716D01*
G01X75720D01*
G01X75732D01*
G01X75743D01*
G01X75747D01*
G01X75751D01*
G01X75764Y82556D01*
G01X75771Y82555D01*
G01X75780D01*
G01X75785Y82554D01*
G01X75788Y82553D01*
G01X75797Y82550D01*
G01X75805Y82547D01*
G01X75813Y82544D01*
G01X75821Y82542D01*
G01X75827Y82540D01*
G01X75832Y82537D01*
G01X75842Y82530D01*
G01X75863Y82517D01*
G01X75871Y82512D01*
G01X75878Y82506D01*
G01X75885Y82502D01*
G01X75890Y82497D01*
G01X75897Y82489D01*
G01X75903Y82483D01*
G01X75909Y82478D01*
G01X75925Y82463D01*
G01X75933Y82454D01*
G01X75939Y82446D01*
G01X75944Y82440D01*
G01X75955Y82430D01*
G01X75957Y82429D01*
G01X75960D01*
G01X75963D01*
G01X75966Y82430D01*
G01X75968Y82431D01*
G01X75969Y82432D01*
G01X75971Y82433D01*
G01X75972Y82436D01*
G01Y82438D01*
G01X75971Y82440D01*
G01X75969Y82447D01*
G01X75965Y82454D01*
G01X75963Y82458D01*
G01X75959Y82465D01*
G01X75955Y82475D01*
G01X75949Y82492D01*
G01X75945Y82499D01*
G01X75943Y82501D01*
G01X75941Y82504D01*
G01X75939Y82509D01*
G01X75927Y82539D01*
G01X75924Y82546D01*
G01X75922Y82548D01*
G01X75920Y82552D01*
G01X75918Y82557D01*
G01X75906Y82587D01*
G01X75902Y82594D01*
G01X75901Y82596D01*
G01X75899Y82599D01*
G01X75896Y82604D01*
G01X75885Y82634D01*
G01X75880Y82641D01*
G01X75879Y82643D01*
G01X75876Y82649D01*
G01X75873Y82656D01*
G01X75872Y82658D01*
G01X75871Y82659D01*
G01X75869Y82660D01*
G01X75868Y82661D01*
G01X75866D01*
G37*
G36*
G01X75072Y82325D02*
G01X75050Y82324D01*
G01X75044D01*
G01X75038Y82323D01*
G01X75028Y82321D01*
G01X75011Y82317D01*
G01X75000Y82316D01*
G01X74994Y82314D01*
G01X74982Y82311D01*
G01X74977Y82310D01*
G01X74975D01*
G01X74964Y82306D01*
G01X74812Y82250D01*
G01X74722Y82217D01*
G01X74878D01*
G01Y82219D01*
G01Y82220D01*
G01X74881Y82221D01*
G01X74887Y82224D01*
G01X74891Y82227D01*
G01X74904Y82235D01*
G01X74925Y82247D01*
G01X74936Y82252D01*
G01X74946Y82256D01*
G01X74955Y82259D01*
G01X74960Y82260D01*
G01X74965D01*
G01X74973Y82261D01*
G01X74984Y82264D01*
G01X74991Y82265D01*
G01X74995D01*
G01X75003Y82263D01*
G01X75012D01*
G01X75015D01*
G01X75019D01*
G01X75040Y82258D01*
G01X75045Y82256D01*
G01X75053Y82251D01*
G01X75059Y82249D01*
G01X75065Y82247D01*
G01X75069Y82245D01*
G01X75076Y82240D01*
G01X75094Y82225D01*
G01X75100Y82219D01*
G01X75113Y82206D01*
G01X75116Y82202D01*
G01X75119Y82198D01*
G01X75122Y82193D01*
G01X75130Y82179D01*
G01X75134Y82173D01*
G01X75135Y82172D01*
G01X75138Y82166D01*
G01X75146Y82145D01*
G01X75149Y82138D01*
G01X75158Y82112D01*
G01X75161Y82103D01*
G01Y82101D01*
G01X75162Y82085D01*
G01Y82061D01*
G01X75161Y82055D01*
G01X75160Y82052D01*
G01X75158Y82046D01*
G01X75155Y82032D01*
G01X75153Y82026D01*
G01X75151Y82023D01*
G01X75148Y82019D01*
G01X75146Y82014D01*
G01X75144Y82007D01*
G01X75142Y82005D01*
G01X75141Y82002D01*
G01X75134Y81994D01*
G01X75131Y81990D01*
G01X75126Y81983D01*
G01X75123Y81979D01*
G01X75119Y81975D01*
G01X75115Y81972D01*
G01X75097Y81957D01*
G01X75091Y81954D01*
G01X75084Y81950D01*
G01X75076Y81946D01*
G01X75067Y81942D01*
G01X75048Y81936D01*
G01X75043D01*
G01X75040D01*
G01X75036Y81935D01*
G01X75021Y81930D01*
G01X75015Y81928D01*
G01X75008Y81927D01*
G01X75000Y81926D01*
G01X74982Y81922D01*
G01X74927Y82070D01*
G01X74886Y82186D01*
G01X74880Y82205D01*
G01X74878Y82214D01*
G01Y82217D01*
G01X74722D01*
G01X74653Y82191D01*
G01X74659Y82175D01*
G01X74677Y82181D01*
G01X74690Y82186D01*
G01X74697Y82188D01*
G01X74703D01*
G01X74711Y82189D01*
G01X74721Y82191D01*
G01X74725D01*
G01X74730D01*
G01X74749Y82186D01*
G01X74752Y82185D01*
G01X74754Y82184D01*
G01X74756Y82182D01*
G01X74765Y82171D01*
G01X74771Y82165D01*
G01X74774Y82161D01*
G01X74777Y82155D01*
G01X74781Y82144D01*
G01X74784Y82140D01*
G01X74786Y82137D01*
G01X74875Y81903D01*
G01X74886Y81871D01*
G01X74984Y81607D01*
G01X74985Y81601D01*
G01X74986Y81594D01*
G01X74988Y81588D01*
G01X74989Y81584D01*
G01Y81577D01*
G01X74988Y81570D01*
G01X74986Y81560D01*
G01X74983Y81555D01*
G01X74981Y81552D01*
G01X74974Y81542D01*
G01X74970Y81537D01*
G01X74964Y81531D01*
G01X74960Y81528D01*
G01X74955Y81524D01*
G01X74952Y81523D01*
G01X74944Y81519D01*
G01X74937Y81514D01*
G01X74933Y81512D01*
G01X74922Y81508D01*
G01X74909Y81503D01*
G01X74915Y81487D01*
G01X75221Y81601D01*
G01X75214Y81617D01*
G01X75197Y81610D01*
G01X75183Y81606D01*
G01X75176Y81604D01*
G01X75170Y81603D01*
G01X75162Y81602D01*
G01X75153Y81601D01*
G01X75146Y81600D01*
G01X75142Y81601D01*
G01X75129Y81604D01*
G01X75126Y81605D01*
G01X75122Y81606D01*
G01X75118Y81608D01*
G01X75115Y81611D01*
G01X75111Y81614D01*
G01X75105Y81621D01*
G01X75102Y81625D01*
G01X75093Y81640D01*
G01X75091Y81644D01*
G01X75088Y81648D01*
G01X75084Y81659D01*
G01X75081Y81667D01*
G01X75078Y81672D01*
G01X75076Y81675D01*
G01X75075Y81677D01*
G01X75051Y81739D01*
G01X75033Y81786D01*
G01X74993Y81893D01*
G01X75007Y81896D01*
G01X75018Y81899D01*
G01X75029Y81900D01*
G01X75039Y81902D01*
G01X75073Y81910D01*
G01X75079Y81911D01*
G01X75099Y81918D01*
G01X75125Y81927D01*
G01X75159Y81940D01*
G01X75166Y81944D01*
G01X75170Y81947D01*
G01X75178Y81952D01*
G01X75190Y81958D01*
G01X75195Y81961D01*
G01X75200Y81966D01*
G01X75207Y81972D01*
G01X75216Y81979D01*
G01X75222Y81984D01*
G01X75224Y81987D01*
G01X75231Y81995D01*
G01X75236Y82000D01*
G01X75249Y82016D01*
G01X75251Y82020D01*
G01X75254Y82025D01*
G01X75256Y82028D01*
G01X75257Y82033D01*
G01X75260Y82038D01*
G01X75264Y82047D01*
G01X75267Y82055D01*
G01X75270Y82061D01*
G01X75273Y82066D01*
G01X75274Y82068D01*
G01Y82071D01*
G01X75275Y82077D01*
G01Y82083D01*
G01X75277Y82092D01*
G01X75278Y82108D01*
G01X75279Y82115D01*
G01X75280Y82119D01*
G01Y82127D01*
G01X75278Y82139D01*
G01X75277Y82152D01*
G01X75276Y82159D01*
G01X75275Y82165D01*
G01X75272Y82175D01*
G01X75270Y82181D01*
G01Y82187D01*
G01X75269Y82190D01*
G01X75268Y82193D01*
G01X75265Y82204D01*
G01X75262Y82211D01*
G01X75256Y82221D01*
G01X75253Y82227D01*
G01X75249Y82236D01*
G01X75246Y82241D01*
G01X75235Y82253D01*
G01X75224Y82267D01*
G01X75216Y82275D01*
G01X75212Y82278D01*
G01X75201Y82285D01*
G01X75190Y82294D01*
G01X75185Y82298D01*
G01X75181Y82299D01*
G01X75177Y82300D01*
G01X75171Y82303D01*
G01X75163Y82307D01*
G01X75155Y82310D01*
G01X75149Y82313D01*
G01X75144Y82316D01*
G01X75141Y82317D01*
G01X75138Y82318D01*
G01X75133D01*
G01X75126Y82319D01*
G01X75117Y82321D01*
G01X75113Y82322D01*
G01X75109D01*
G01X75098Y82323D01*
G01X75091Y82324D01*
G01X75085Y82325D01*
G01X75081D01*
G37*
G04 //text: X*
G36*
G01X74337Y83707D02*
G01X74340Y83699D01*
G01X74579Y83788D01*
G01X74576Y83796D01*
G01X74575Y83798D01*
G01X74574Y83799D01*
G01X74573Y83800D01*
G01X74571Y83801D01*
G01X74569Y83802D01*
G01X74567D01*
G01X74565D01*
G01X74562Y83801D01*
G01X74539Y83796D01*
G01X74534D01*
G01X74529Y83795D01*
G01X74523Y83796D01*
G01X74518Y83797D01*
G01X74514Y83799D01*
G01X74509Y83801D01*
G01X74506Y83804D01*
G01X74502Y83807D01*
G01X74500Y83811D01*
G01X74496Y83817D01*
G01X74492Y83824D01*
G01X74490Y83832D01*
G01Y83836D01*
G01Y83839D01*
G01X74493Y83856D01*
G01X74494Y83863D01*
G01X74498Y83875D01*
G01X74504Y83895D01*
G01X74508Y83908D01*
G01X74511Y83916D01*
G01X74513Y83923D01*
G01X74516Y83931D01*
G01X74519Y83942D01*
G01X74533Y83986D01*
G01X74537Y83999D01*
G01X74539Y84007D01*
G01X74542Y84014D01*
G01X74544Y84022D01*
G01X74548Y84033D01*
G01X74562Y84077D01*
G01X74566Y84090D01*
G01X74568Y84098D01*
G01X74574Y84111D01*
G01X74575Y84113D01*
G01X74577Y84114D01*
G01X74579Y84115D01*
G01X74581Y84114D01*
G01X74584Y84113D01*
G01X74587Y84112D01*
G01X74589Y84111D01*
G01X74592Y84107D01*
G01X74597Y84103D01*
G01X74608Y84096D01*
G01X74624Y84083D01*
G01X74636Y84075D01*
G01X74653Y84062D01*
G01X74665Y84054D01*
G01X74681Y84042D01*
G01X74694Y84033D01*
G01X74710Y84021D01*
G01X74722Y84013D01*
G01X74739Y84000D01*
G01X74751Y83992D01*
G01X74768Y83980D01*
G01X74778Y83973D01*
G01X74782Y83969D01*
G01X74785Y83967D01*
G01X74798Y83954D01*
G01X74800Y83951D01*
G01X74802Y83949D01*
G01X74805Y83943D01*
G01X74806Y83940D01*
G01X74807Y83938D01*
G01X74809Y83935D01*
G01X74810Y83933D01*
G01Y83931D01*
G01Y83927D01*
G01X74809Y83920D01*
G01X74808Y83914D01*
G01X74807Y83911D01*
G01X74806Y83908D01*
G01X74804Y83905D01*
G01X74799Y83899D01*
G01X74796Y83896D01*
G01X74792Y83892D01*
G01X74785Y83888D01*
G01X74766Y83877D01*
G01X74764Y83876D01*
G01X74762Y83875D01*
G01X74761Y83873D01*
G01X74760Y83872D01*
G01Y83870D01*
G01X74759Y83868D01*
G01X74760Y83867D01*
G01Y83865D01*
G01X74763Y83857D01*
G01X75051Y83965D01*
G01X75048Y83974D01*
G01X75047Y83976D01*
G01X75045Y83977D01*
G01X75044Y83978D01*
G01X75043D01*
G01X75041Y83979D01*
G01X75039D01*
G01X75037D01*
G01X75012Y83974D01*
G01X75007Y83973D01*
G01X75001D01*
G01X74985Y83975D01*
G01X74979Y83976D01*
G01X74973Y83977D01*
G01X74953Y83982D01*
G01X74948Y83985D01*
G01X74936Y83993D01*
G01X74932Y83995D01*
G01X74922Y84001D01*
G01X74916Y84004D01*
G01X74909Y84008D01*
G01X74903Y84012D01*
G01X74894Y84017D01*
G01X74856Y84042D01*
G01X74849Y84047D01*
G01X74833Y84059D01*
G01X74821Y84068D01*
G01X74804Y84080D01*
G01X74792Y84088D01*
G01X74779Y84098D01*
G01X74768Y84105D01*
G01X74760Y84111D01*
G01X74752Y84117D01*
G01X74743Y84123D01*
G01X74730Y84132D01*
G01X74714Y84144D01*
G01X74702Y84153D01*
G01X74685Y84165D01*
G01X74673Y84173D01*
G01X74657Y84186D01*
G01X74644Y84194D01*
G01X74628Y84206D01*
G01X74619Y84212D01*
G01X74615Y84216D01*
G01X74613Y84219D01*
G01X74612Y84220D01*
G01X74610Y84223D01*
G01Y84225D01*
G01Y84228D01*
G01X74613Y84233D01*
G01X74614Y84236D01*
G01X74615Y84239D01*
G01X74617Y84249D01*
G01X74618Y84253D01*
G01X74621Y84261D01*
G01X74623Y84269D01*
G01X74626Y84276D01*
G01X74628Y84284D01*
G01X74631Y84295D01*
G01X74646Y84339D01*
G01X74650Y84352D01*
G01X74652Y84360D01*
G01X74655Y84367D01*
G01X74657Y84375D01*
G01X74659Y84382D01*
G01X74663Y84392D01*
G01X74667Y84406D01*
G01X74675Y84430D01*
G01X74679Y84443D01*
G01X74681Y84451D01*
G01X74684Y84458D01*
G01X74686Y84466D01*
G01X74688Y84471D01*
G01X74691Y84476D01*
G01X74692Y84479D01*
G01X74693Y84481D01*
G01X74694Y84484D01*
G01Y84489D01*
G01X74695Y84491D01*
G01X74696Y84494D01*
G01X74699Y84499D01*
G01X74701Y84504D01*
G01X74704Y84512D01*
G01X74709Y84520D01*
G01X74711Y84525D01*
G01X74713Y84531D01*
G01X74714Y84534D01*
G01X74716Y84537D01*
G01X74726Y84550D01*
G01X74732Y84559D01*
G01X74734Y84562D01*
G01X74737Y84565D01*
G01X74745Y84572D01*
G01X74749Y84578D01*
G01X74752Y84581D01*
G01X74755Y84584D01*
G01X74759Y84587D01*
G01X74763Y84591D01*
G01X74768Y84594D01*
G01X74773Y84597D01*
G01X74777Y84599D01*
G01X74784Y84602D01*
G01X74786Y84603D01*
G01X74788Y84605D01*
G01X74789Y84606D01*
G01X74790Y84607D01*
G01Y84609D01*
G01Y84611D01*
G01Y84613D01*
G01X74789Y84617D01*
G01X74788Y84618D01*
G01Y84619D01*
G01X74787Y84620D01*
G01X74786Y84621D01*
G01X74785D01*
G01X74783D01*
G01X74780Y84620D01*
G01X74663Y84578D01*
G01X74548Y84535D01*
G01X74552Y84526D01*
G01X74553Y84524D01*
G01X74554Y84523D01*
G01X74555Y84522D01*
G01X74556D01*
G01X74557Y84521D01*
G01X74559Y84522D01*
G01X74563Y84523D01*
G01X74569Y84524D01*
G01X74574Y84525D01*
G01X74578Y84526D01*
G01X74593Y84530D01*
G01X74600Y84532D01*
G01X74604D01*
G01X74612Y84531D01*
G01X74618Y84530D01*
G01X74621Y84529D01*
G01X74624Y84527D01*
G01X74627Y84525D01*
G01X74630Y84522D01*
G01X74636Y84516D01*
G01X74640Y84510D01*
G01X74642Y84507D01*
G01X74643Y84504D01*
G01X74644Y84502D01*
G01Y84499D01*
G01Y84485D01*
G01Y84481D01*
G01X74643Y84476D01*
G01X74642Y84471D01*
G01X74637Y84454D01*
G01X74633Y84440D01*
G01X74612Y84375D01*
G01X74608Y84363D01*
G01X74605Y84354D01*
G01X74603Y84347D01*
G01X74600Y84340D01*
G01X74598Y84332D01*
G01X74595Y84322D01*
G01X74592Y84314D01*
G01X74590Y84308D01*
G01X74587Y84300D01*
G01X74585Y84292D01*
G01X74581Y84283D01*
G01X74579Y84274D01*
G01X74577Y84268D01*
G01X74574Y84260D01*
G01X74573Y84257D01*
G01X74572Y84255D01*
G01X74571Y84253D01*
G01X74569Y84251D01*
G01X74567Y84250D01*
G01X74565D01*
G01X74563D01*
G01X74560Y84254D01*
G01X74555Y84258D01*
G01X74544Y84265D01*
G01X74532Y84274D01*
G01X74527Y84278D01*
G01X74523Y84280D01*
G01X74520Y84281D01*
G01X74505Y84293D01*
G01X74492Y84301D01*
G01X74476Y84314D01*
G01X74464Y84322D01*
G01X74447Y84335D01*
G01X74435Y84343D01*
G01X74419Y84355D01*
G01X74406Y84364D01*
G01X74399Y84369D01*
G01X74394Y84374D01*
G01X74389Y84378D01*
G01X74377Y84391D01*
G01X74372Y84396D01*
G01X74370Y84399D01*
G01X74368Y84402D01*
G01X74366Y84406D01*
G01X74365Y84410D01*
G01Y84414D01*
G01Y84419D01*
G01X74367Y84423D01*
G01X74368Y84428D01*
G01X74371Y84432D01*
G01X74373Y84436D01*
G01X74376Y84439D01*
G01X74392Y84452D01*
G01X74398Y84456D01*
G01X74403Y84459D01*
G01X74411Y84463D01*
G01X74414Y84464D01*
G01X74416Y84466D01*
G01X74418Y84468D01*
G01X74419Y84471D01*
G01Y84474D01*
G01Y84476D01*
G01X74418Y84478D01*
G01X74417Y84481D01*
G01X74414D01*
G01X74406Y84479D01*
G01X74354Y84461D01*
G01X74259Y84427D01*
G01X74104Y84369D01*
G01X74107Y84361D01*
G01X74108Y84360D01*
G01X74109Y84358D01*
G01X74110Y84357D01*
G01X74112Y84356D01*
G01X74114D01*
G01X74116D01*
G01X74118D01*
G01X74121D01*
G01X74144Y84361D01*
G01X74149Y84362D01*
G01X74154Y84363D01*
G01X74160D01*
G01X74169Y84362D01*
G01X74179Y84363D01*
G01X74186D01*
G01X74195Y84361D01*
G01X74205Y84360D01*
G01X74209Y84359D01*
G01X74219Y84356D01*
G01X74223Y84354D01*
G01X74227Y84353D01*
G01X74232Y84350D01*
G01X74236Y84348D01*
G01X74241Y84345D01*
G01X74250Y84343D01*
G01X74257Y84338D01*
G01X74262Y84336D01*
G01X74268Y84334D01*
G01X74271Y84333D01*
G01X74273Y84331D01*
G01X74279Y84326D01*
G01X74282Y84324D01*
G01X74284Y84323D01*
G01X74287Y84322D01*
G01X74290Y84321D01*
G01X74292Y84320D01*
G01X74294Y84319D01*
G01X74298Y84315D01*
G01X74300Y84313D01*
G01X74302Y84312D01*
G01X74306Y84310D01*
G01X74313Y84306D01*
G01X74355Y84277D01*
G01X74371Y84265D01*
G01X74383Y84256D01*
G01X74396Y84247D01*
G01X74401Y84244D01*
G01X74405Y84242D01*
G01X74407Y84240D01*
G01X74423Y84228D01*
G01X74435Y84220D01*
G01X74449Y84210D01*
G01X74459Y84203D01*
G01X74468Y84198D01*
G01X74476Y84192D01*
G01X74485Y84185D01*
G01X74497Y84177D01*
G01X74510Y84167D01*
G01X74521Y84160D01*
G01X74527Y84156D01*
G01X74534Y84151D01*
G01X74536Y84148D01*
G01X74537Y84147D01*
G01X74538Y84146D01*
G01X74539Y84145D01*
G01Y84143D01*
G01Y84142D01*
G01Y84141D01*
G01X74538Y84138D01*
G01X74535Y84130D01*
G01X74533Y84122D01*
G01X74530Y84113D01*
G01X74527Y84105D01*
G01X74525Y84098D01*
G01X74522Y84090D01*
G01X74520Y84083D01*
G01X74516Y84073D01*
G01X74514Y84065D01*
G01X74512Y84058D01*
G01X74509Y84051D01*
G01X74507Y84043D01*
G01X74503Y84033D01*
G01X74500Y84020D01*
G01X74459Y83896D01*
G01X74455Y83883D01*
G01X74453Y83877D01*
G01X74451Y83872D01*
G01X74448Y83867D01*
G01X74447Y83864D01*
G01X74446Y83862D01*
G01Y83857D01*
G01X74445Y83854D01*
G01X74444Y83852D01*
G01X74441Y83847D01*
G01X74439Y83842D01*
G01X74436Y83833D01*
G01X74432Y83826D01*
G01X74429Y83821D01*
G01X74427Y83815D01*
G01X74426Y83812D01*
G01X74424Y83808D01*
G01X74417Y83799D01*
G01X74414Y83794D01*
G01X74410Y83786D01*
G01X74401Y83774D01*
G01X74392Y83762D01*
G01X74387Y83757D01*
G01X74382Y83752D01*
G01X74379Y83749D01*
G01X74367Y83738D01*
G01X74357Y83730D01*
G01X74343Y83721D01*
G01X74338Y83718D01*
G01X74337Y83716D01*
G01X74336Y83713D01*
G01Y83710D01*
G01X74337Y83707D01*
G37*
G04 //text: GND*
G36*
G01X85688Y80786D02*
G01X85679Y80784D01*
G01X85671D01*
G01X85661Y80785D01*
G01X85656Y80784D01*
G01X85637Y80781D01*
G01X85627Y80780D01*
G01X85618Y80778D01*
G01X85613Y80777D01*
G01X85582Y80771D01*
G01X85568Y80767D01*
G01X85552Y80763D01*
G01X85538Y80758D01*
G01X85532D01*
G01X85531D01*
G01X85530Y80757D01*
G01X85511Y80751D01*
G01X85344Y80690D01*
G01X85227Y80646D01*
G01X85386D01*
G01X85398Y80653D01*
G01X85409Y80658D01*
G01X85418Y80664D01*
G01X85430Y80672D01*
G01X85451Y80684D01*
G01X85458Y80687D01*
G01X85493Y80701D01*
G01X85526Y80713D01*
G01X85534Y80715D01*
G01X85536D01*
G01X85539D01*
G01X85548Y80717D01*
G01X85564Y80720D01*
G01X85571Y80721D01*
G01X85587D01*
G01X85615D01*
G01X85622Y80720D01*
G01X85634Y80718D01*
G01X85641D01*
G01X85650Y80717D01*
G01X85656Y80716D01*
G01X85659D01*
G01X85668Y80713D01*
G01X85682Y80709D01*
G01X85692Y80705D01*
G01X85696Y80703D01*
G01X85701Y80700D01*
G01X85705Y80698D01*
G01X85711Y80695D01*
G01X85719Y80693D01*
G01X85728Y80688D01*
G01X85733Y80685D01*
G01X85739Y80684D01*
G01X85744Y80681D01*
G01X85747Y80676D01*
G01X85751Y80673D01*
G01X85759Y80669D01*
G01X85766Y80664D01*
G01X85784Y80650D01*
G01X85795Y80639D01*
G01X85800Y80634D01*
G01X85804Y80631D01*
G01X85808Y80626D01*
G01X85815Y80618D01*
G01X85823Y80609D01*
G01X85826Y80606D01*
G01X85829Y80602D01*
G01X85836Y80590D01*
G01X85842Y80582D01*
G01X85846Y80574D01*
G01X85855Y80560D01*
G01X85860Y80552D01*
G01X85864Y80546D01*
G01X85868Y80535D01*
G01X85871Y80531D01*
G01X85872Y80528D01*
G01X85876Y80522D01*
G01X85890Y80485D01*
G01X85903Y80449D01*
G01X85905Y80441D01*
G01Y80439D01*
G01X85906Y80436D01*
G01X85907Y80429D01*
G01X85911Y80418D01*
G01X85912Y80413D01*
G01Y80408D01*
G01X85913Y80400D01*
G01X85916Y80388D01*
G01X85917Y80383D01*
G01Y80377D01*
G01X85916Y80371D01*
G01X85917Y80362D01*
G01X85919Y80351D01*
G01Y80342D01*
G01X85918Y80334D01*
G01Y80323D01*
G01Y80317D01*
G01X85916Y80307D01*
G01X85914Y80292D01*
G01X85909Y80270D01*
G01X85908Y80263D01*
G01X85906Y80257D01*
G01X85903Y80248D01*
G01X85901Y80242D01*
G01X85898Y80237D01*
G01X85894Y80229D01*
G01X85891Y80220D01*
G01X85888Y80214D01*
G01X85883Y80207D01*
G01X85881Y80201D01*
G01X85879Y80195D01*
G01X85878Y80193D01*
G01X85874Y80189D01*
G01X85872Y80187D01*
G01X85871Y80185D01*
G01X85869Y80179D01*
G01X85868Y80176D01*
G01X85866Y80174D01*
G01X85862Y80171D01*
G01X85859Y80166D01*
G01X85846Y80151D01*
G01X85843Y80147D01*
G01X85840Y80143D01*
G01X85836Y80140D01*
G01X85824Y80129D01*
G01X85815Y80121D01*
G01X85809Y80116D01*
G01X85789Y80101D01*
G01X85782Y80097D01*
G01X85764Y80086D01*
G01X85756Y80083D01*
G01X85734Y80074D01*
G01X85718Y80068D01*
G01X85691Y80058D01*
G01X85684Y80056D01*
G01X85681D01*
G01X85678D01*
G01X85674Y80055D01*
G01X85661Y80050D01*
G01X85655Y80049D01*
G01X85649Y80048D01*
G01X85639Y80047D01*
G01X85626Y80044D01*
G01X85621D01*
G01X85619D01*
G01X85617D01*
G01X85616Y80045D01*
G01X85614Y80046D01*
G01X85613Y80047D01*
G01X85609Y80057D01*
G01X85497Y80348D01*
G01X85386Y80646D01*
G01X85227D01*
G01X85162Y80622D01*
G01X85168Y80605D01*
G01X85187Y80612D01*
G01X85200Y80617D01*
G01X85207Y80619D01*
G01X85212D01*
G01X85221Y80620D01*
G01X85230Y80622D01*
G01X85235D01*
G01X85240D01*
G01X85259Y80617D01*
G01X85261Y80616D01*
G01X85264Y80615D01*
G01X85266Y80612D01*
G01X85275Y80601D01*
G01X85281Y80596D01*
G01X85283Y80593D01*
G01X85285Y80589D01*
G01X85289Y80581D01*
G01X85292Y80575D01*
G01X85293Y80573D01*
G01X85294Y80571D01*
G01X85396Y80302D01*
G01X85495Y80034D01*
G01X85496Y80031D01*
G01Y80028D01*
G01X85497Y80020D01*
G01X85498Y80010D01*
G01Y80004D01*
G01Y79999D01*
G01X85495Y79989D01*
G01X85490Y79980D01*
G01X85482Y79968D01*
G01X85480Y79966D01*
G01X85477Y79963D01*
G01X85473Y79960D01*
G01X85446Y79944D01*
G01X85441Y79942D01*
G01X85430Y79938D01*
G01X85419Y79934D01*
G01X85425Y79918D01*
G01X85617Y79989D01*
G01X85808Y80062D01*
G01X85812Y80064D01*
G01X85815Y80066D01*
G01X85821Y80069D01*
G01X85832Y80074D01*
G01X85836Y80076D01*
G01X85840Y80079D01*
G01X85848Y80084D01*
G01X85864Y80092D01*
G01X85870Y80097D01*
G01X85885Y80108D01*
G01X85899Y80117D01*
G01X85906Y80122D01*
G01X85910Y80126D01*
G01X85912Y80128D01*
G01X85916Y80132D01*
G01X85921Y80136D01*
G01X85929Y80143D01*
G01X85941Y80156D01*
G01X85950Y80163D01*
G01X85953Y80167D01*
G01X85956Y80170D01*
G01X85962Y80179D01*
G01X85965Y80184D01*
G01X85971Y80190D01*
G01X85973Y80193D01*
G01X85979Y80202D01*
G01X85987Y80214D01*
G01X85990Y80219D01*
G01X85993Y80225D01*
G01X85994Y80230D01*
G01X85996Y80234D01*
G01X85998Y80237D01*
G01X86002Y80243D01*
G01X86004Y80246D01*
G01X86006Y80250D01*
G01X86008Y80260D01*
G01X86010Y80266D01*
G01X86012Y80269D01*
G01X86015Y80273D01*
G01X86016Y80276D01*
G01X86017Y80280D01*
G01X86020Y80292D01*
G01X86022Y80298D01*
G01X86023Y80302D01*
G01X86024Y80305D01*
G01X86026Y80314D01*
G01X86030Y80337D01*
G01X86031Y80352D01*
G01X86032Y80359D01*
G01X86034Y80368D01*
G01Y80376D01*
G01X86035Y80395D01*
G01X86034Y80412D01*
G01Y80423D01*
G01X86033Y80431D01*
G01X86030Y80445D01*
G01Y80455D01*
G01X86028Y80464D01*
G01X86027Y80469D01*
G01X86022Y80494D01*
G01X86020Y80499D01*
G01X86014Y80520D01*
G01X86003Y80547D01*
G01X85989Y80584D01*
G01X85985Y80592D01*
G01Y80594D01*
G01X85983Y80596D01*
G01X85980Y80602D01*
G01X85976Y80610D01*
G01X85972Y80616D01*
G01X85971Y80618D01*
G01X85966Y80625D01*
G01X85959Y80637D01*
G01X85931Y80672D01*
G01X85926Y80678D01*
G01X85921Y80683D01*
G01X85917Y80686D01*
G01X85912Y80691D01*
G01X85908Y80697D01*
G01X85904Y80701D01*
G01X85889Y80712D01*
G01X85881Y80718D01*
G01X85876Y80722D01*
G01X85865Y80729D01*
G01X85854Y80738D01*
G01X85848Y80741D01*
G01X85845Y80743D01*
G01X85841Y80744D01*
G01X85838Y80745D01*
G01X85836Y80747D01*
G01X85832Y80751D01*
G01X85830Y80752D01*
G01X85828Y80753D01*
G01X85822Y80755D01*
G01X85816Y80758D01*
G01X85808Y80762D01*
G01X85802Y80764D01*
G01X85791Y80768D01*
G01X85767Y80775D01*
G01X85758Y80778D01*
G01X85748Y80780D01*
G01X85729Y80783D01*
G01X85724Y80784D01*
G01X85719D01*
G01X85715Y80785D01*
G01X85705Y80784D01*
G01X85699Y80785D01*
G01X85696D01*
G01X85692Y80786D01*
G37*
G36*
G01X85130Y80609D02*
G01X84880Y80516D01*
G01X84886Y80500D01*
G01X84904Y80507D01*
G01X84917Y80511D01*
G01X84925Y80513D01*
G01X84930Y80514D01*
G01X84938Y80515D01*
G01X84948Y80516D01*
G01X84954Y80517D01*
G01X84958Y80516D01*
G01X84972Y80513D01*
G01X84975Y80512D01*
G01X84978Y80511D01*
G01X84982Y80509D01*
G01X84987Y80504D01*
G01X84991Y80500D01*
G01X84993Y80498D01*
G01X84997Y80493D01*
G01X85000Y80487D01*
G01X85006Y80477D01*
G01X85011Y80469D01*
G01X85028Y80426D01*
G01X85095Y80249D01*
G01X85169Y80044D01*
G01X85172Y80034D01*
G01Y80032D01*
G01X85168Y80033D01*
G01X85158Y80039D01*
G01X85151Y80043D01*
G01X85137Y80052D01*
G01X85128Y80057D01*
G01X85123Y80060D01*
G01X85117Y80063D01*
G01X85111Y80065D01*
G01X85108Y80066D01*
G01X85106Y80067D01*
G01X85102Y80071D01*
G01X85100Y80073D01*
G01X85098Y80074D01*
G01X85092Y80076D01*
G01X85089Y80077D01*
G01X85087Y80079D01*
G01X85083Y80083D01*
G01X85078Y80086D01*
G01X85073Y80088D01*
G01X85070Y80089D01*
G01X85067Y80091D01*
G01X85061Y80096D01*
G01X85055Y80099D01*
G01X85052Y80100D01*
G01X85049Y80101D01*
G01X85047Y80102D01*
G01X85044Y80103D01*
G01X85041Y80108D01*
G01X85039Y80109D01*
G01X85036Y80111D01*
G01X85030Y80112D01*
G01X85027Y80114D01*
G01X85024Y80116D01*
G01X85018Y80120D01*
G01X85016Y80122D01*
G01X85013Y80124D01*
G01X85007Y80126D01*
G01X85004Y80127D01*
G01X85002Y80128D01*
G01X84998Y80132D01*
G01X84996Y80134D01*
G01X84993Y80135D01*
G01X84987Y80137D01*
G01X84985Y80139D01*
G01X84982Y80141D01*
G01X84976Y80145D01*
G01X84973Y80147D01*
G01X84970Y80149D01*
G01X84967Y80150D01*
G01X84964D01*
G01X84961Y80152D01*
G01X84959Y80153D01*
G01X84956Y80157D01*
G01X84953Y80159D01*
G01X84951Y80160D01*
G01X84945Y80162D01*
G01X84942Y80163D01*
G01X84939Y80165D01*
G01X84934Y80170D01*
G01X84930Y80172D01*
G01X84927Y80174D01*
G01X84924D01*
G01X84922Y80175D01*
G01X84917Y80178D01*
G01X84911Y80184D01*
G01X84909Y80185D01*
G01X84903Y80187D01*
G01X84896Y80190D01*
G01X84891Y80195D01*
G01X84888Y80197D01*
G01X84885Y80198D01*
G01X84879Y80200D01*
G01X84877Y80201D01*
G01X84875Y80203D01*
G01X84871Y80207D01*
G01X84869Y80208D01*
G01X84866Y80210D01*
G01X84857Y80213D01*
G01X84854Y80215D01*
G01X84848Y80220D01*
G01X84846Y80221D01*
G01X84843Y80223D01*
G01X84837Y80225D01*
G01X84834Y80226D01*
G01X84832Y80227D01*
G01X84828Y80231D01*
G01X84826Y80233D01*
G01X84823Y80235D01*
G01X84818Y80236D01*
G01X84813Y80239D01*
G01X84807Y80245D01*
G01X84805Y80246D01*
G01X84798Y80248D01*
G01X84792Y80251D01*
G01X84787Y80256D01*
G01X84784Y80258D01*
G01X84781Y80259D01*
G01X84775Y80261D01*
G01X84773Y80262D01*
G01X84770Y80264D01*
G01X84766Y80268D01*
G01X84764Y80269D01*
G01X84762Y80271D01*
G01X84753Y80274D01*
G01X84750Y80276D01*
G01X84744Y80281D01*
G01X84742Y80282D01*
G01X84738Y80284D01*
G01X84732Y80286D01*
G01X84730Y80287D01*
G01X84728Y80288D01*
G01X84724Y80292D01*
G01X84719Y80295D01*
G01X84714Y80297D01*
G01X84711Y80299D01*
G01X84707Y80301D01*
G01X84702Y80305D01*
G01X84699Y80307D01*
G01X84696Y80309D01*
G01X84693Y80310D01*
G01X84688Y80312D01*
G01X84685Y80313D01*
G01X84682Y80317D01*
G01X84679Y80319D01*
G01X84676Y80320D01*
G01X84671Y80322D01*
G01X84668Y80323D01*
G01X84665Y80325D01*
G01X84659Y80330D01*
G01X84656Y80332D01*
G01X84653Y80334D01*
G01X84651Y80335D01*
G01X84648D01*
G01X84645Y80337D01*
G01X84643Y80338D01*
G01X84639Y80342D01*
G01X84637Y80344D01*
G01X84634Y80345D01*
G01X84628Y80347D01*
G01X84625Y80348D01*
G01X84623Y80350D01*
G01X84617Y80355D01*
G01X84614Y80357D01*
G01X84611Y80358D01*
G01X84608Y80359D01*
G01X84605Y80360D01*
G01X84602Y80362D01*
G01X84600Y80363D01*
G01X84596Y80367D01*
G01X84594Y80369D01*
G01X84592Y80370D01*
G01X84586Y80372D01*
G01X84583Y80373D01*
G01X84580Y80375D01*
G01X84574Y80380D01*
G01X84571Y80382D01*
G01X84562Y80385D01*
G01X84560Y80386D01*
G01X84558Y80388D01*
G01X84556Y80389D01*
G01X84554Y80390D01*
G01X84548Y80389D01*
G01X84529Y80384D01*
G01X84453Y80357D01*
G01X84354Y80320D01*
G01X84358Y80310D01*
G01X84361Y80307D01*
G01X84362D01*
G01X84363Y80306D01*
G01X84367D01*
G01X84373Y80308D01*
G01X84379Y80310D01*
G01X84385D01*
G01X84392Y80312D01*
G01X84400Y80315D01*
G01X84408Y80316D01*
G01X84415Y80315D01*
G01X84424D01*
G01X84432Y80317D01*
G01X84438D01*
G01X84441Y80316D01*
G01X84459Y80313D01*
G01X84464Y80312D01*
G01X84469Y80310D01*
G01X84472Y80308D01*
G01X84476Y80306D01*
G01X84479Y80305D01*
G01X84481Y80304D01*
G01X84487D01*
G01X84490Y80303D01*
G01X84493Y80301D01*
G01X84498Y80297D01*
G01X84501Y80294D01*
G01X84504Y80293D01*
G01X84510Y80291D01*
G01X84516Y80289D01*
G01X84521Y80285D01*
G01X84525Y80281D01*
G01X84527Y80279D01*
G01X84528Y80278D01*
G01X84630Y80008D01*
G01X84728Y79740D01*
G01X84729Y79738D01*
G01X84730Y79731D01*
G01X84731Y79718D01*
G01Y79714D01*
G01X84730Y79709D01*
G01X84728Y79701D01*
G01X84726Y79697D01*
G01X84723Y79692D01*
G01X84720Y79688D01*
G01X84709Y79678D01*
G01X84703Y79672D01*
G01X84700Y79670D01*
G01X84697Y79668D01*
G01X84689Y79665D01*
G01X84683Y79662D01*
G01X84681Y79660D01*
G01X84678Y79658D01*
G01X84674Y79656D01*
G01X84663Y79651D01*
G01X84650Y79647D01*
G01X84656Y79631D01*
G01X84906Y79723D01*
G01X84900Y79740D01*
G01X84882Y79733D01*
G01X84869Y79729D01*
G01X84861Y79727D01*
G01X84856Y79726D01*
G01X84848Y79725D01*
G01X84838Y79723D01*
G01X84832D01*
G01X84828D01*
G01X84815Y79727D01*
G01X84811Y79728D01*
G01X84808Y79729D01*
G01X84805Y79732D01*
G01X84798Y79736D01*
G01X84795Y79740D01*
G01X84793Y79742D01*
G01X84789Y79748D01*
G01X84786Y79754D01*
G01X84779Y79766D01*
G01X84776Y79772D01*
G01X84775Y79773D01*
G01X84774Y79774D01*
G01X84751Y79833D01*
G01X84686Y80006D01*
G01X84611Y80214D01*
G01X84607Y80227D01*
G01X84606Y80233D01*
G01Y80235D01*
G01X84609D01*
G01X84612Y80234D01*
G01X84615Y80232D01*
G01X84620Y80227D01*
G01X84623Y80225D01*
G01X84626Y80224D01*
G01X84632Y80222D01*
G01X84635Y80221D01*
G01X84638Y80219D01*
G01X84643Y80214D01*
G01X84650Y80211D01*
G01X84656Y80209D01*
G01X84658Y80208D01*
G01X84664Y80202D01*
G01X84669Y80199D01*
G01X84674Y80197D01*
G01X84678Y80196D01*
G01X84681Y80194D01*
G01X84686Y80189D01*
G01X84689Y80187D01*
G01X84692Y80186D01*
G01X84695Y80185D01*
G01X84700Y80183D01*
G01X84703Y80181D01*
G01X84706Y80177D01*
G01X84712Y80174D01*
G01X84717Y80173D01*
G01X84720Y80171D01*
G01X84723Y80169D01*
G01X84729Y80164D01*
G01X84732Y80162D01*
G01X84734Y80161D01*
G01X84740Y80159D01*
G01X84743Y80158D01*
G01X84745Y80156D01*
G01X84749Y80152D01*
G01X84751Y80151D01*
G01X84754Y80150D01*
G01X84760Y80148D01*
G01X84763Y80146D01*
G01X84765Y80144D01*
G01X84771Y80140D01*
G01X84774Y80138D01*
G01X84777Y80136D01*
G01X84780Y80135D01*
G01X84783Y80134D01*
G01X84786Y80133D01*
G01X84788Y80131D01*
G01X84792Y80127D01*
G01X84794Y80126D01*
G01X84796Y80125D01*
G01X84802Y80123D01*
G01X84805Y80121D01*
G01X84808Y80120D01*
G01X84814Y80115D01*
G01X84817Y80113D01*
G01X84826Y80110D01*
G01X84828Y80108D01*
G01X84830Y80107D01*
G01X84834Y80103D01*
G01X84837Y80101D01*
G01X84839Y80100D01*
G01X84845Y80098D01*
G01X84848Y80097D01*
G01X84851Y80095D01*
G01X84856Y80090D01*
G01X84862Y80087D01*
G01X84865Y80086D01*
G01X84871Y80084D01*
G01X84873Y80082D01*
G01X84877Y80078D01*
G01X84879Y80077D01*
G01X84881Y80075D01*
G01X84887Y80074D01*
G01X84890Y80072D01*
G01X84893Y80070D01*
G01X84899Y80065D01*
G01X84902Y80063D01*
G01X84905Y80062D01*
G01X84911Y80060D01*
G01X84913Y80059D01*
G01X84915Y80057D01*
G01X84919Y80053D01*
G01X84921Y80052D01*
G01X84924Y80050D01*
G01X84930Y80049D01*
G01X84933Y80047D01*
G01X84936Y80045D01*
G01X84942Y80040D01*
G01X84944Y80038D01*
G01X84947Y80037D01*
G01X84953Y80035D01*
G01X84956Y80034D01*
G01X84958Y80032D01*
G01X84961Y80028D01*
G01X84964Y80027D01*
G01X84967Y80026D01*
G01X84972Y80024D01*
G01X84975Y80022D01*
G01X84978Y80020D01*
G01X84984Y80016D01*
G01X84987Y80014D01*
G01X84990Y80012D01*
G01X84993Y80011D01*
G01X84996D01*
G01X85001Y80007D01*
G01X85004Y80003D01*
G01X85007Y80002D01*
G01X85009Y80001D01*
G01X85015Y79999D01*
G01X85021Y79996D01*
G01X85027Y79991D01*
G01X85030Y79989D01*
G01X85033Y79988D01*
G01X85035Y79987D01*
G01X85038Y79986D01*
G01X85041Y79984D01*
G01X85043Y79983D01*
G01X85047Y79979D01*
G01X85049Y79977D01*
G01X85051Y79976D01*
G01X85061Y79973D01*
G01X85063Y79971D01*
G01X85069Y79966D01*
G01X85072Y79964D01*
G01X85075Y79963D01*
G01X85081Y79961D01*
G01X85083Y79960D01*
G01X85085Y79958D01*
G01X85089Y79954D01*
G01X85092Y79953D01*
G01X85094Y79951D01*
G01X85100Y79950D01*
G01X85103Y79948D01*
G01X85106Y79946D01*
G01X85111Y79941D01*
G01X85114Y79939D01*
G01X85117Y79938D01*
G01X85124Y79936D01*
G01X85126Y79935D01*
G01X85128Y79933D01*
G01X85132Y79929D01*
G01X85137Y79926D01*
G01X85142Y79925D01*
G01X85145Y79923D01*
G01X85148Y79921D01*
G01X85154Y79917D01*
G01X85157Y79914D01*
G01X85160Y79913D01*
G01X85163Y79912D01*
G01X85168Y79910D01*
G01X85171Y79908D01*
G01X85174Y79904D01*
G01X85176Y79903D01*
G01X85179Y79902D01*
G01X85185Y79900D01*
G01X85188Y79898D01*
G01X85191Y79896D01*
G01X85197Y79892D01*
G01X85200Y79890D01*
G01X85202Y79888D01*
G01X85205Y79887D01*
G01X85208D01*
G01X85211Y79885D01*
G01X85213Y79884D01*
G01X85217Y79879D01*
G01X85219Y79878D01*
G01X85222Y79877D01*
G01X85228Y79875D01*
G01X85231Y79873D01*
G01X85233Y79872D01*
G01X85239Y79867D01*
G01X85242Y79865D01*
G01X85251Y79862D01*
G01X85254Y79860D01*
G01X85256Y79859D01*
G01X85260Y79855D01*
G01X85262Y79853D01*
G01X85268Y79849D01*
G01X85269D01*
G01X85271Y79848D01*
G01X85278D01*
G01X85283Y79850D01*
G01X85297Y79855D01*
G01X85177Y80176D01*
G01X85058Y80500D01*
G01X85057Y80503D01*
G01X85056Y80509D01*
G01X85055Y80521D01*
G01Y80525D01*
G01Y80528D01*
G01Y80529D01*
G01X85057Y80533D01*
G01X85060Y80541D01*
G01X85061Y80544D01*
G01X85062Y80546D01*
G01X85063Y80548D01*
G01X85067Y80552D01*
G01X85075Y80561D01*
G01X85078Y80564D01*
G01X85082Y80567D01*
G01X85110Y80583D01*
G01X85114Y80585D01*
G01X85125Y80589D01*
G01X85136Y80593D01*
G37*
G36*
G01X84241Y80295D02*
G01X84238Y80295D01*
G01X84235Y80294D01*
G01X84232Y80292D01*
G01X84230Y80289D01*
G01Y80284D01*
G01X84231Y80278D01*
G01X84233Y80272D01*
G01X84234Y80264D01*
G01Y80258D01*
G01X84231Y80252D01*
G01X84228Y80247D01*
G01X84224Y80242D01*
G01X84220Y80239D01*
G01X84218Y80237D01*
G01X84213Y80235D01*
G01X84211D01*
G01X84194D01*
G01X84176Y80234D01*
G01X84156D01*
G01X84110Y80233D01*
G01X84101Y80232D01*
G01X84093Y80230D01*
G01X84077Y80227D01*
G01X84066Y80226D01*
G01X84056Y80224D01*
G01X84049Y80222D01*
G01X84037Y80219D01*
G01X83993Y80204D01*
G01X83958Y80190D01*
G01X83950Y80186D01*
G01X83949Y80185D01*
G01X83946Y80183D01*
G01X83940Y80181D01*
G01X83932Y80177D01*
G01X83924Y80172D01*
G01X83917Y80167D01*
G01X83907Y80161D01*
G01X83902Y80158D01*
G01X83897Y80154D01*
G01X83890Y80147D01*
G01X83879Y80140D01*
G01X83873Y80134D01*
G01X83863Y80124D01*
G01X83853Y80115D01*
G01X83848Y80110D01*
G01X83843Y80103D01*
G01X83834Y80094D01*
G01X83830Y80090D01*
G01X83829Y80088D01*
G01X83825Y80081D01*
G01X83815Y80068D01*
G01X83807Y80057D01*
G01X83796Y80038D01*
G01X83794Y80033D01*
G01X83792Y80029D01*
G01X83790Y80024D01*
G01X83788Y80019D01*
G01X83785Y80014D01*
G01X83781Y80005D01*
G01X83778Y79997D01*
G01X83775Y79991D01*
G01X83772Y79986D01*
G01X83771Y79983D01*
G01X83769Y79979D01*
G01X83767Y79967D01*
G01X83765Y79961D01*
G01X83762Y79952D01*
G01X83757Y79934D01*
G01X83755Y79926D01*
G01X83753Y79916D01*
G01X83750Y79902D01*
G01X83749Y79891D01*
G01X83747Y79881D01*
G01Y79878D01*
G01X83746Y79856D01*
G01X83745Y79846D01*
G01Y79824D01*
G01X83744Y79811D01*
G01Y79807D01*
G01X83745Y79802D01*
G01X83747Y79788D01*
G01X83748Y79775D01*
G01X83749Y79767D01*
G01X83752Y79749D01*
G01X83753Y79743D01*
G01X83756Y79734D01*
G01X83758Y79728D01*
G01X83759Y79722D01*
G01X83761Y79714D01*
G01X83772Y79683D01*
G01X83783Y79654D01*
G01X83786Y79646D01*
G01X83790Y79642D01*
G01X83793Y79636D01*
G01X83797Y79625D01*
G01X83800Y79621D01*
G01X83802Y79617D01*
G01X83807Y79611D01*
G01X83812Y79602D01*
G01X83815Y79598D01*
G01X83817Y79595D01*
G01X83823Y79589D01*
G01X83826Y79586D01*
G01X83829Y79582D01*
G01X83834Y79573D01*
G01X83838Y79568D01*
G01X83840Y79566D01*
G01X83846Y79560D01*
G01X83853Y79552D01*
G01X83857Y79548D01*
G01X83865Y79541D01*
G01X83874Y79532D01*
G01X83878Y79528D01*
G01X83880Y79527D01*
G01X83884Y79525D01*
G01X83889Y79521D01*
G01X83896Y79515D01*
G01X83901Y79511D01*
G01X83917Y79500D01*
G01X83927Y79494D01*
G01X83932Y79491D01*
G01X83942Y79486D01*
G01X83948Y79482D01*
G01X83955Y79478D01*
G01X83961Y79475D01*
G01X83969Y79472D01*
G01X83975Y79469D01*
G01X83980Y79466D01*
G01X83983Y79465D01*
G01X83986Y79464D01*
G01X83991D01*
G01X83993Y79463D01*
G01X83996Y79462D01*
G01X84001Y79459D01*
G01X84004Y79458D01*
G01X84008Y79457D01*
G01X84018Y79455D01*
G01X84026Y79452D01*
G01X84029Y79451D01*
G01X84038Y79450D01*
G01X84058Y79446D01*
G01X84065Y79445D01*
G01X84072Y79444D01*
G01X84084D01*
G01X84091Y79443D01*
G01X84095Y79442D01*
G01X84102Y79441D01*
G01X84113Y79442D01*
G01X84124Y79441D01*
G01X84132Y79442D01*
G01X84145Y79443D01*
G01X84155D01*
G01X84162D01*
G01X84168Y79444D01*
G01X84186Y79448D01*
G01X84197Y79449D01*
G01X84207Y79451D01*
G01X84224Y79455D01*
G01X84229D01*
G01X84230Y79456D01*
G01X84231Y79455D01*
G01X84233D01*
G01X84242Y79458D01*
G01X84295Y79477D01*
G01X84353Y79500D01*
G01X84361Y79503D01*
G01X84364Y79506D01*
G01X84370Y79509D01*
G01X84381Y79513D01*
G01X84385Y79516D01*
G01X84389Y79519D01*
G01X84396Y79523D01*
G01X84410Y79531D01*
G01X84416Y79536D01*
G01X84431Y79546D01*
G01X84449Y79560D01*
G01X84466Y79574D01*
G01X84472Y79579D01*
G01X84478Y79585D01*
G01X84480Y79589D01*
G01X84485Y79593D01*
G01X84494Y79600D01*
G01X84498Y79605D01*
G01X84502Y79610D01*
G01X84511Y79619D01*
G01X84515Y79624D01*
G01X84517Y79627D01*
G01X84518Y79629D01*
G01X84519Y79630D01*
G01X84518Y79633D01*
G01X84516Y79640D01*
G01X84508Y79666D01*
G01X84473Y79764D01*
G01X84427Y79892D01*
G01X84426Y79897D01*
G01X84425Y79900D01*
G01X84424Y79908D01*
G01X84422Y79919D01*
G01Y79924D01*
G01X84423Y79929D01*
G01X84425Y79934D01*
G01X84429Y79944D01*
G01X84431Y79949D01*
G01X84434Y79953D01*
G01X84438Y79956D01*
G01X84441Y79960D01*
G01X84448Y79965D01*
G01X84471Y79979D01*
G01X84474Y79981D01*
G01X84476Y79984D01*
G01X84477Y79986D01*
G01Y79989D01*
G01X84476Y79992D01*
G01X84475Y79993D01*
G01X84474Y79995D01*
G01X84471D01*
G01X84453Y79989D01*
G01X84335Y79947D01*
G01X84198Y79896D01*
G01X84203Y79886D01*
G01X84205Y79883D01*
G01X84206Y79882D01*
G01X84207D01*
G01X84211D01*
G01X84217Y79884D01*
G01X84223Y79886D01*
G01X84229D01*
G01X84237Y79888D01*
G01X84246Y79891D01*
G01X84251Y79892D01*
G01X84255Y79893D01*
G01X84266Y79892D01*
G01X84272D01*
G01X84275D01*
G01X84278Y79891D01*
G01X84280Y79890D01*
G01X84285Y79887D01*
G01X84291Y79884D01*
G01X84297Y79882D01*
G01X84300Y79880D01*
G01X84302Y79878D01*
G01X84305Y79874D01*
G01X84309Y79868D01*
G01X84314Y79860D01*
G01X84320Y79851D01*
G01X84323Y79844D01*
G01X84327Y79836D01*
G01X84373Y79717D01*
G01X84415Y79603D01*
G01X84408Y79597D01*
G01X84403Y79592D01*
G01X84399Y79587D01*
G01X84396Y79583D01*
G01X84393Y79580D01*
G01X84385Y79574D01*
G01X84378Y79567D01*
G01X84369Y79558D01*
G01X84365Y79555D01*
G01X84362Y79553D01*
G01X84349Y79545D01*
G01X84341Y79540D01*
G01X84329Y79532D01*
G01X84311Y79522D01*
G01X84306Y79519D01*
G01X84295Y79514D01*
G01X84280Y79509D01*
G01X84263Y79503D01*
G01X84255Y79500D01*
G01X84249Y79499D01*
G01X84240Y79498D01*
G01X84224Y79495D01*
G01X84217Y79494D01*
G01X84201D01*
G01X84193D01*
G01X84185D01*
G01X84181Y79495D01*
G01X84161D01*
G01X84143Y79500D01*
G01X84131Y79501D01*
G01X84121Y79505D01*
G01X84108Y79509D01*
G01X84101Y79510D01*
G01X84096Y79513D01*
G01X84088Y79518D01*
G01X84079Y79520D01*
G01X84073Y79523D01*
G01X84061Y79531D01*
G01X84045Y79542D01*
G01X84032Y79551D01*
G01X84019Y79560D01*
G01X84013Y79566D01*
G01X84000Y79579D01*
G01X83994Y79583D01*
G01X83988Y79589D01*
G01X83982Y79595D01*
G01X83969Y79609D01*
G01X83958Y79622D01*
G01X83950Y79633D01*
G01X83940Y79647D01*
G01X83935Y79654D01*
G01X83930Y79662D01*
G01X83922Y79676D01*
G01X83916Y79685D01*
G01X83911Y79694D01*
G01X83907Y79700D01*
G01X83900Y79715D01*
G01X83893Y79733D01*
G01X83890Y79739D01*
G01X83889Y79741D01*
G01X83887Y79744D01*
G01X83885Y79748D01*
G01X83880Y79759D01*
G01X83877Y79767D01*
G01X83875Y79774D01*
G01Y79777D01*
G01X83874Y79780D01*
G01X83873Y79785D01*
G01X83865Y79809D01*
G01X83864Y79815D01*
G01X83863Y79820D01*
G01X83862Y79823D01*
G01X83861Y79829D01*
G01X83858Y79838D01*
G01X83857Y79844D01*
G01Y79847D01*
G01X83856Y79855D01*
G01X83854Y79869D01*
G01X83851Y79914D01*
G01Y79922D01*
G01X83852Y79930D01*
G01X83853Y79934D01*
G01X83854Y79941D01*
G01X83853Y79948D01*
G01X83854Y79954D01*
G01X83856Y79964D01*
G01X83857Y79973D01*
G01X83858Y79986D01*
G01X83859Y79989D01*
G01X83861Y79994D01*
G01X83863Y80002D01*
G01X83867Y80014D01*
G01X83875Y80039D01*
G01X83877Y80045D01*
G01X83882Y80054D01*
G01X83888Y80062D01*
G01X83891Y80067D01*
G01X83892Y80070D01*
G01X83893Y80075D01*
G01X83896Y80080D01*
G01X83900Y80083D01*
G01X83905Y80089D01*
G01X83909Y80096D01*
G01X83912Y80099D01*
G01X83916Y80102D01*
G01X83924Y80110D01*
G01X83928Y80116D01*
G01X83931Y80119D01*
G01X83934Y80122D01*
G01X83937Y80124D01*
G01X83944Y80129D01*
G01X83951Y80134D01*
G01X83956Y80140D01*
G01X83961Y80143D01*
G01X83966Y80146D01*
G01X83984Y80156D01*
G01X83990Y80160D01*
G01X83992Y80161D01*
G01X83998Y80164D01*
G01X84031Y80177D01*
G01X84061Y80188D01*
G01X84070Y80190D01*
G01X84075Y80191D01*
G01X84084Y80192D01*
G01X84095Y80194D01*
G01X84100Y80195D01*
G01X84107D01*
G01X84117D01*
G01X84127D01*
G01X84135D01*
G01X84139D01*
G01X84149Y80194D01*
G01X84156Y80192D01*
G01X84176Y80189D01*
G01X84181Y80188D01*
G01X84187Y80186D01*
G01X84190Y80184D01*
G01X84193Y80182D01*
G01X84196Y80181D01*
G01X84199Y80180D01*
G01X84204D01*
G01X84207Y80179D01*
G01X84210Y80178D01*
G01X84217Y80173D01*
G01X84224Y80170D01*
G01X84231Y80165D01*
G01X84239Y80160D01*
G01X84243Y80158D01*
G01X84246Y80156D01*
G01X84253Y80151D01*
G01X84271Y80137D01*
G01X84288Y80122D01*
G01X84300Y80110D01*
G01X84309Y80100D01*
G01X84315Y80094D01*
G01X84320Y80088D01*
G01X84323Y80083D01*
G01X84325Y80081D01*
G01X84326D01*
G01X84329Y80080D01*
G01X84333D01*
G01X84336D01*
G01X84338Y80081D01*
G01X84350Y80085D01*
G01X84345Y80097D01*
G01X84342Y80103D01*
G01X84340Y80106D01*
G01X84338Y80109D01*
G01X84336Y80113D01*
G01X84331Y80125D01*
G01X84327Y80134D01*
G01X84324Y80141D01*
G01X84322Y80144D01*
G01X84320Y80146D01*
G01X84318Y80150D01*
G01X84313Y80162D01*
G01X84310Y80172D01*
G01X84306Y80179D01*
G01X84305Y80181D01*
G01X84303Y80184D01*
G01X84301Y80188D01*
G01X84295Y80200D01*
G01X84292Y80210D01*
G01X84288Y80216D01*
G01X84287Y80219D01*
G01X84285Y80222D01*
G01X84283Y80226D01*
G01X84277Y80240D01*
G01X84273Y80250D01*
G01X84271Y80255D01*
G01X84268Y80259D01*
G01X84266Y80263D01*
G01X84264Y80267D01*
G01X84257Y80284D01*
G01X84254Y80289D01*
G01X84252Y80291D01*
G01X84251Y80292D01*
G01X84250Y80294D01*
G01X84249D01*
G01X84248D01*
G01X84247Y80295D01*
G01X84244D01*
G37*
G04 //text: LED*
G36*
G01X84574Y83183D02*
G01X84570Y83182D01*
G01X84565D01*
G01X84551Y83180D01*
G01X84541Y83179D01*
G01X84532Y83177D01*
G01X84516Y83174D01*
G01X84506Y83173D01*
G01X84498Y83172D01*
G01X84492Y83171D01*
G01X84465Y83164D01*
G01X84448Y83160D01*
G01X84437Y83156D01*
G01X84431D01*
G01X84430Y83155D01*
G01X84410Y83148D01*
G01X84242Y83087D01*
G01X84123Y83042D01*
G01X84289D01*
G01Y83045D01*
G01X84292Y83046D01*
G01X84298Y83049D01*
G01X84305Y83055D01*
G01X84312Y83059D01*
G01X84326Y83068D01*
G01X84336Y83074D01*
G01X84348Y83080D01*
G01X84359Y83085D01*
G01X84395Y83099D01*
G01X84421Y83109D01*
G01X84431Y83111D01*
G01X84436Y83112D01*
G01X84445Y83114D01*
G01X84458Y83116D01*
G01X84464Y83117D01*
G01X84481D01*
G01X84494Y83118D01*
G01X84502Y83119D01*
G01X84516Y83118D01*
G01X84527Y83117D01*
G01X84532D01*
G01X84536Y83116D01*
G01X84546Y83113D01*
G01X84553Y83112D01*
G01X84563Y83110D01*
G01X84567Y83109D01*
G01X84576Y83106D01*
G01X84585Y83104D01*
G01X84592Y83101D01*
G01X84600Y83099D01*
G01X84606Y83097D01*
G01X84614Y83092D01*
G01X84620Y83089D01*
G01X84626Y83087D01*
G01X84628Y83086D01*
G01X84631Y83084D01*
G01X84639Y83077D01*
G01X84643Y83075D01*
G01X84652Y83070D01*
G01X84664Y83061D01*
G01X84677Y83051D01*
G01X84683Y83046D01*
G01X84688Y83042D01*
G01X84696Y83034D01*
G01X84701Y83029D01*
G01X84705Y83025D01*
G01X84707Y83023D01*
G01X84710Y83020D01*
G01X84715Y83013D01*
G01X84720Y83006D01*
G01X84725Y83001D01*
G01X84728Y82998D01*
G01X84731Y82993D01*
G01X84738Y82981D01*
G01X84744Y82973D01*
G01X84749Y82966D01*
G01X84751Y82961D01*
G01X84763Y82939D01*
G01X84767Y82931D01*
G01X84771Y82923D01*
G01X84776Y82910D01*
G01X84779Y82904D01*
G01X84781Y82902D01*
G01X84783Y82899D01*
G01X84785Y82895D01*
G01X84790Y82883D01*
G01X84793Y82873D01*
G01X84795Y82866D01*
G01Y82862D01*
G01X84796Y82859D01*
G01X84797Y82855D01*
G01X84801Y82843D01*
G01X84805Y82833D01*
G01X84807Y82826D01*
G01Y82820D01*
G01X84808Y82814D01*
G01X84811Y82805D01*
G01X84812Y82798D01*
G01Y82795D01*
G01X84813Y82788D01*
G01X84815Y82778D01*
G01X84816Y82773D01*
G01Y82768D01*
G01X84815Y82761D01*
G01Y82753D01*
G01X84817Y82744D01*
G01Y82738D01*
G01X84816Y82735D01*
G01X84815Y82730D01*
G01Y82724D01*
G01X84816Y82714D01*
G01X84815Y82707D01*
G01X84814Y82701D01*
G01X84812Y82688D01*
G01X84810Y82682D01*
G01X84807Y82668D01*
G01X84804Y82655D01*
G01X84802Y82649D01*
G01X84800Y82646D01*
G01X84798Y82641D01*
G01X84796Y82638D01*
G01X84795Y82635D01*
G01X84794Y82628D01*
G01X84793Y82624D01*
G01X84792Y82621D01*
G01X84789Y82616D01*
G01X84786Y82610D01*
G01X84785Y82604D01*
G01X84783Y82602D01*
G01X84782Y82600D01*
G01X84778Y82596D01*
G01X84776Y82594D01*
G01X84775Y82591D01*
G01X84773Y82586D01*
G01X84772Y82583D01*
G01X84770Y82581D01*
G01X84766Y82577D01*
G01X84764Y82575D01*
G01X84763Y82573D01*
G01X84759Y82566D01*
G01X84754Y82559D01*
G01X84749Y82553D01*
G01X84744Y82547D01*
G01X84736Y82540D01*
G01X84731Y82534D01*
G01X84728Y82531D01*
G01X84725Y82528D01*
G01X84718Y82521D01*
G01X84699Y82507D01*
G01X84691Y82501D01*
G01X84684Y82497D01*
G01X84660Y82483D01*
G01X84658Y82481D01*
G01X84651Y82478D01*
G01X84619Y82466D01*
G01X84591Y82456D01*
G01X84584Y82454D01*
G01X84580D01*
G01X84577Y82453D01*
G01X84573Y82452D01*
G01X84558Y82447D01*
G01X84552Y82445D01*
G01X84545D01*
G01X84536Y82443D01*
G01X84525Y82441D01*
G01X84519Y82440D01*
G01X84514Y82441D01*
G01X84513D01*
G01X84512Y82442D01*
G01X84510Y82446D01*
G01X84499Y82471D01*
G01X84395Y82743D01*
G01X84296Y83017D01*
G01X84290Y83035D01*
G01X84289Y83042D01*
G01X84123D01*
G01X84059Y83018D01*
G01X84065Y83002D01*
G01X84083Y83009D01*
G01X84096Y83013D01*
G01X84103Y83015D01*
G01X84109Y83016D01*
G01X84117Y83017D01*
G01X84127Y83018D01*
G01X84133Y83019D01*
G01X84137D01*
G01X84151Y83015D01*
G01X84154Y83014D01*
G01X84161Y83011D01*
G01X84164Y83008D01*
G01X84168Y83005D01*
G01X84172Y83001D01*
G01X84176Y82996D01*
G01X84180Y82991D01*
G01X84183Y82986D01*
G01X84187Y82981D01*
G01X84190Y82975D01*
G01X84195Y82960D01*
G01X84198Y82954D01*
G01X84200Y82951D01*
G01X84201Y82950D01*
G01X84247Y82830D01*
G01X84296Y82700D01*
G01X84387Y82451D01*
G01X84388Y82448D01*
G01Y82445D01*
G01X84389Y82441D01*
G01X84395Y82424D01*
G01X84397Y82417D01*
G01Y82414D01*
G01Y82400D01*
G01Y82395D01*
G01X84396Y82392D01*
G01X84395Y82388D01*
G01X84393Y82385D01*
G01X84388Y82378D01*
G01X84386Y82373D01*
G01X84382Y82368D01*
G01X84379Y82365D01*
G01X84373Y82361D01*
G01X84368Y82356D01*
G01X84364Y82354D01*
G01X84346Y82344D01*
G01X84336Y82338D01*
G01X84323Y82333D01*
G01X84321Y82332D01*
G01X84319Y82330D01*
G01X84318Y82328D01*
G01Y82326D01*
G01Y82324D01*
G01X84319Y82322D01*
G01X84322Y82314D01*
G01X84513Y82386D01*
G01X84705Y82459D01*
G01X84708Y82460D01*
G01X84709Y82461D01*
G01X84712Y82462D01*
G01X84718Y82466D01*
G01X84731Y82471D01*
G01X84736Y82474D01*
G01X84739Y82477D01*
G01X84748Y82481D01*
G01X84764Y82491D01*
G01X84770Y82495D01*
G01X84785Y82505D01*
G01X84803Y82520D01*
G01X84826Y82538D01*
G01X84831Y82544D01*
G01X84837Y82551D01*
G01X84848Y82561D01*
G01X84853Y82567D01*
G01X84858Y82573D01*
G01X84866Y82584D01*
G01X84884Y82609D01*
G01X84888Y82616D01*
G01X84892Y82623D01*
G01X84895Y82629D01*
G01X84898Y82637D01*
G01X84901Y82643D01*
G01X84906Y82651D01*
G01X84908Y82657D01*
G01X84910Y82665D01*
G01X84914Y82675D01*
G01X84916Y82684D01*
G01X84919Y82691D01*
G01X84920Y82694D01*
G01X84924Y82715D01*
G01X84927Y82725D01*
G01X84928Y82729D01*
G01Y82734D01*
G01X84929Y82745D01*
G01X84930Y82752D01*
G01X84932Y82761D01*
G01X84933Y82783D01*
G01Y82790D01*
G01Y82798D01*
G01X84932Y82811D01*
G01Y82821D01*
G01Y82828D01*
G01X84931Y82834D01*
G01X84927Y82852D01*
G01X84925Y82863D01*
G01X84924Y82873D01*
G01X84922Y82880D01*
G01X84914Y82911D01*
G01X84910Y82925D01*
G01X84903Y82947D01*
G01X84896Y82962D01*
G01X84893Y82970D01*
G01X84891Y82972D01*
G01X84889Y82975D01*
G01X84888Y82978D01*
G01X84881Y82996D01*
G01X84878Y83001D01*
G01X84874Y83006D01*
G01X84870Y83014D01*
G01X84861Y83028D01*
G01X84857Y83034D01*
G01X84847Y83046D01*
G01X84838Y83057D01*
G01X84831Y83067D01*
G01X84819Y83079D01*
G01X84815Y83084D01*
G01X84806Y83094D01*
G01X84797Y83101D01*
G01X84787Y83109D01*
G01X84777Y83118D01*
G01X84771Y83122D01*
G01X84756Y83133D01*
G01X84746Y83139D01*
G01X84736Y83144D01*
G01X84732Y83146D01*
G01X84727Y83148D01*
G01X84723Y83150D01*
G01X84717Y83152D01*
G01X84709Y83157D01*
G01X84700Y83160D01*
G01X84695Y83163D01*
G01X84689Y83166D01*
G01X84686Y83167D01*
G01X84683Y83168D01*
G01X84672Y83170D01*
G01X84668Y83171D01*
G01X84665Y83172D01*
G01X84661Y83173D01*
G01X84653Y83175D01*
G01X84630Y83180D01*
G01X84615D01*
G01X84607Y83181D01*
G01X84603Y83182D01*
G01X84596Y83183D01*
G01X84586Y83182D01*
G37*
G36*
G01X83960Y82978D02*
G01X83951Y82976D01*
G01X83949D01*
G01X83676Y82875D01*
G01X83410Y82776D01*
G01X83416Y82760D01*
G01X83432Y82766D01*
G01X83443Y82769D01*
G01X83448Y82771D01*
G01X83453Y82772D01*
G01X83457Y82773D01*
G01X83463Y82774D01*
G01X83469Y82776D01*
G01X83473Y82777D01*
G01X83476D01*
G01X83495Y82775D01*
G01X83499Y82774D01*
G01X83503Y82773D01*
G01X83506Y82772D01*
G01X83508Y82770D01*
G01X83518Y82763D01*
G01X83520Y82762D01*
G01X83522Y82759D01*
G01X83525Y82754D01*
G01X83530Y82745D01*
G01X83545Y82717D01*
G01X83550Y82703D01*
G01X83646Y82450D01*
G01X83740Y82195D01*
G01X83741Y82192D01*
G01Y82189D01*
G01X83743Y82182D01*
G01X83745Y82174D01*
G01X83746Y82170D01*
G01Y82162D01*
G01X83745Y82155D01*
G01X83743Y82146D01*
G01X83741Y82140D01*
G01X83739Y82138D01*
G01X83732Y82127D01*
G01X83730Y82125D01*
G01X83727Y82122D01*
G01X83724Y82120D01*
G01X83714Y82113D01*
G01X83706Y82108D01*
G01X83694Y82100D01*
G01X83684Y82095D01*
G01X83673Y82090D01*
G01X83670Y82088D01*
G01X83669Y82085D01*
G01Y82082D01*
G01X83670Y82080D01*
G01X83673Y82072D01*
G01X84221Y82277D01*
G01X84218Y82292D01*
G01Y82297D01*
G01Y82301D01*
G01Y82313D01*
G01Y82323D01*
G01Y82331D01*
G01Y82339D01*
G01Y82347D01*
G01X84217Y82360D01*
G01Y82371D01*
G01Y82380D01*
G01X84215Y82393D01*
G01X84216Y82404D01*
G01Y82412D01*
G01X84214Y82425D01*
G01X84215Y82433D01*
G01Y82441D01*
G01X84214Y82451D01*
G01Y82459D01*
G01X84215Y82466D01*
G01X84214Y82468D01*
G01X84212Y82470D01*
G01X84210D01*
G01X84204Y82469D01*
G01X84198Y82468D01*
G01X84195Y82466D01*
G01X84193Y82464D01*
G01X84192Y82460D01*
G01X84191Y82456D01*
G01X84190Y82442D01*
G01X84187Y82432D01*
G01X84186Y82426D01*
G01X84184Y82416D01*
G01X84183Y82410D01*
G01X84180Y82398D01*
G01X84176Y82381D01*
G01X84175Y82375D01*
G01X84171Y82366D01*
G01X84170Y82360D01*
G01X84167Y82354D01*
G01X84162Y82347D01*
G01X84159Y82338D01*
G01X84158Y82334D01*
G01X84155Y82331D01*
G01X84145Y82317D01*
G01X84139Y82308D01*
G01X84136Y82305D01*
G01X84132Y82301D01*
G01X84128Y82298D01*
G01X84120Y82291D01*
G01X84097Y82277D01*
G01X84093Y82274D01*
G01X84085Y82271D01*
G01X84066Y82262D01*
G01X84059Y82259D01*
G01X84056Y82257D01*
G01X84054Y82256D01*
G01X84035Y82248D01*
G01X83979Y82227D01*
G01X83908Y82202D01*
G01X83902Y82199D01*
G01X83894D01*
G01X83882Y82197D01*
G01X83877Y82198D01*
G01X83873Y82199D01*
G01X83869Y82200D01*
G01X83865Y82203D01*
G01X83858Y82209D01*
G01X83855Y82212D01*
G01X83850Y82221D01*
G01X83843Y82234D01*
G01X83839Y82243D01*
G01X83790Y82373D01*
G01X83743Y82498D01*
G01X83828Y82529D01*
G01X83910Y82559D01*
G01X83917Y82561D01*
G01X83921D01*
G01X83928Y82563D01*
G01X83941Y82567D01*
G01X83946Y82568D01*
G01X83964Y82569D01*
G01X83969D01*
G01X83975Y82568D01*
G01X83978D01*
G01X83982Y82566D01*
G01X83990Y82564D01*
G01X83993Y82563D01*
G01X83996Y82561D01*
G01X83999Y82560D01*
G01X84002Y82557D01*
G01X84015Y82545D01*
G01X84018Y82542D01*
G01X84020Y82538D01*
G01X84030Y82522D01*
G01X84036Y82513D01*
G01X84048Y82493D01*
G01X84070Y82501D01*
G01X83980Y82745D01*
G01X83957Y82736D01*
G01X83962Y82722D01*
G01X83964Y82715D01*
G01X83965Y82708D01*
G01X83966Y82700D01*
G01X83968Y82691D01*
G01Y82681D01*
G01X83966Y82673D01*
G01Y82667D01*
G01Y82664D01*
G01X83965Y82661D01*
G01X83964Y82657D01*
G01X83961Y82647D01*
G01X83956Y82637D01*
G01X83950Y82629D01*
G01X83946Y82626D01*
G01X83942Y82623D01*
G01X83930Y82615D01*
G01X83924Y82611D01*
G01X83922Y82609D01*
G01X83915Y82606D01*
G01X83902Y82601D01*
G01X83897Y82598D01*
G01X83896Y82597D01*
G01X83894Y82596D01*
G01X83873Y82587D01*
G01X83811Y82563D01*
G01X83730Y82533D01*
G01X83624Y82816D01*
G01X83732Y82855D01*
G01X83838Y82894D01*
G01X83843Y82895D01*
G01X83844D01*
G01X83847Y82896D01*
G01X83851Y82897D01*
G01X83871Y82904D01*
G01X83878Y82905D01*
G01X83881Y82906D01*
G01X83897D01*
G01X83902D01*
G01X83908D01*
G01X83911Y82905D01*
G01X83915Y82904D01*
G01X83923Y82901D01*
G01X83929Y82899D01*
G01X83934Y82896D01*
G01X83947Y82888D01*
G01X83951Y82885D01*
G01X83954Y82882D01*
G01X83958Y82879D01*
G01X83961Y82875D01*
G01X83975Y82857D01*
G01X83980Y82851D01*
G01X83985Y82844D01*
G01X83990Y82833D01*
G01X83993Y82830D01*
G01X83995Y82828D01*
G01X83998Y82826D01*
G01X83999D01*
G01X84006D01*
G01X84009D01*
G01X84014Y82828D01*
G01X84016D01*
G01X84017Y82829D01*
G01X84018Y82831D01*
G01X84019Y82834D01*
G01Y82836D01*
G01Y82838D01*
G01X84016Y82845D01*
G01X84013Y82852D01*
G01X84011Y82854D01*
G01X84009Y82858D01*
G01X84006Y82864D01*
G01X83989Y82908D01*
G01X83985Y82916D01*
G01X83983Y82919D01*
G01X83978Y82928D01*
G01X83970Y82950D01*
G37*
G36*
G01X83076Y82651D02*
G01X82754Y82531D01*
G01X82760Y82515D01*
G01X82779Y82522D01*
G01X82792Y82526D01*
G01X82799Y82528D01*
G01X82805Y82529D01*
G01X82813Y82530D01*
G01X82822Y82532D01*
G01X82827D01*
G01X82832Y82531D01*
G01X82851Y82527D01*
G01X82854Y82526D01*
G01X82857Y82524D01*
G01X82860Y82521D01*
G01X82863Y82518D01*
G01X82868Y82513D01*
G01X82872Y82507D01*
G01X82874Y82504D01*
G01X82884Y82485D01*
G01X82887Y82479D01*
G01X82990Y82207D01*
G01X83089Y81937D01*
G01X83090Y81934D01*
G01X83091D01*
G01Y81921D01*
G01X83092Y81918D01*
G01X83091Y81912D01*
G01X83089Y81906D01*
G01X83088Y81902D01*
G01X83086Y81897D01*
G01X83081Y81888D01*
G01X83078Y81884D01*
G01X83075Y81879D01*
G01X83071Y81875D01*
G01X83067Y81872D01*
G01X83059Y81866D01*
G01X83054Y81863D01*
G01X83046Y81860D01*
G01X83039Y81855D01*
G01X83035Y81853D01*
G01X83024Y81848D01*
G01X83011Y81843D01*
G01X83017Y81827D01*
G01X83569Y82033D01*
G01X83566Y82049D01*
G01X83565Y82053D01*
G01Y82057D01*
G01X83566Y82065D01*
G01X83565Y82073D01*
G01X83564Y82086D01*
G01Y82094D01*
G01X83565Y82098D01*
G01X83564Y82102D01*
G01Y82108D01*
G01X83562Y82117D01*
G01Y82122D01*
G01Y82126D01*
G01Y82134D01*
G01Y82143D01*
G01X83561Y82155D01*
G01Y82163D01*
G01Y82167D01*
G01Y82172D01*
G01Y82176D01*
G01X83559Y82186D01*
G01X83558Y82191D01*
G01Y82195D01*
G01X83559Y82203D01*
G01Y82212D01*
G01X83557Y82224D01*
G01Y82237D01*
G01Y82239D01*
G01X83556Y82241D01*
G01X83555D01*
G01X83554Y82242D01*
G01X83551Y82243D01*
G01X83546D01*
G01X83543Y82242D01*
G01X83540Y82240D01*
G01X83538Y82238D01*
G01X83537Y82235D01*
G01X83538Y82228D01*
G01X83537Y82222D01*
G01X83536Y82212D01*
G01X83535Y82197D01*
G01X83533Y82190D01*
G01X83532Y82181D01*
G01X83531Y82168D01*
G01X83530Y82163D01*
G01Y82160D01*
G01X83527Y82153D01*
G01X83524Y82140D01*
G01X83522Y82134D01*
G01X83521Y82131D01*
G01X83518Y82127D01*
G01X83516Y82121D01*
G01X83513Y82113D01*
G01X83508Y82104D01*
G01X83506Y82099D01*
G01X83504Y82093D01*
G01X83501Y82088D01*
G01X83497Y82085D01*
G01X83493Y82081D01*
G01X83487Y82072D01*
G01X83481Y82067D01*
G01X83473Y82060D01*
G01X83463Y82053D01*
G01X83456Y82048D01*
G01X83452Y82046D01*
G01X83444Y82042D01*
G01X83438Y82039D01*
G01X83433Y82035D01*
G01X83430Y82033D01*
G01X83411Y82025D01*
G01X83404Y82022D01*
G01X83402Y82021D01*
G01X83400Y82020D01*
G01X83390Y82015D01*
G01X83331Y81992D01*
G01X83268Y81969D01*
G01X83260Y81967D01*
G01X83256D01*
G01X83249Y81965D01*
G01X83239Y81962D01*
G01X83235Y81961D01*
G01X83231D01*
G01X83230D01*
G01X83216Y81964D01*
G01X83212Y81965D01*
G01X83209Y81967D01*
G01X83203Y81974D01*
G01X83198Y81981D01*
G01X83190Y81993D01*
G01X83187Y82000D01*
G01X83086Y82266D01*
G01X82990Y82529D01*
G01X82989Y82532D01*
G01X82988Y82538D01*
G01X82987Y82551D01*
G01Y82556D01*
G01X82988Y82560D01*
G01X82989Y82565D01*
G01X82991Y82570D01*
G01X82995Y82577D01*
G01X82997Y82580D01*
G01X83003Y82587D01*
G01X83009Y82595D01*
G01X83012Y82597D01*
G01X83016Y82600D01*
G01X83028Y82607D01*
G01X83033Y82611D01*
G01X83036Y82613D01*
G01X83039Y82615D01*
G01X83056Y82622D01*
G01X83062Y82625D01*
G01X83067Y82628D01*
G01X83072Y82631D01*
G01X83075Y82633D01*
G01X83078Y82634D01*
G01X83079Y82636D01*
G01X83080Y82639D01*
G01X83079Y82643D01*
G37*
G04 //text: HEF*
G36*
G01X82078Y84333D02*
G01X82081Y84324D01*
G01X82386Y84438D01*
G01X82380Y84455D01*
G01X82364Y84449D01*
G01X82353Y84445D01*
G01X82348Y84443D01*
G01X82343Y84442D01*
G01X82339D01*
G01X82331Y84441D01*
G01X82322Y84439D01*
G01X82315D01*
G01X82312D01*
G01X82304Y84441D01*
G01X82294Y84442D01*
G01X82290Y84443D01*
G01X82287Y84445D01*
G01X82283Y84447D01*
G01X82277Y84452D01*
G01X82273Y84456D01*
G01X82269Y84460D01*
G01X82265Y84465D01*
G01X82264Y84467D01*
G01X82261Y84473D01*
G01X82244Y84516D01*
G01X82208Y84608D01*
G01X82158Y84742D01*
G01X82486Y84864D01*
G01X82530Y84745D01*
G01X82573Y84628D01*
G01X82575Y84622D01*
G01Y84618D01*
G01X82576Y84615D01*
G01X82582Y84597D01*
G01X82583Y84591D01*
G01X82584Y84579D01*
G01X82585Y84573D01*
G01Y84570D01*
G01X82584Y84563D01*
G01X82581Y84555D01*
G01X82579Y84550D01*
G01X82576Y84546D01*
G01X82573Y84543D01*
G01X82562Y84532D01*
G01X82557Y84526D01*
G01X82554Y84524D01*
G01X82550Y84522D01*
G01X82542Y84519D01*
G01X82536Y84515D01*
G01X82534Y84514D01*
G01X82531Y84512D01*
G01X82527Y84510D01*
G01X82516Y84505D01*
G01X82504Y84501D01*
G01X82510Y84484D01*
G01X82815Y84598D01*
G01X82809Y84615D01*
G01X82792Y84608D01*
G01X82782Y84605D01*
G01X82776Y84603D01*
G01X82771Y84602D01*
G01X82764D01*
G01X82752Y84600D01*
G01X82744D01*
G01X82740D01*
G01X82733Y84601D01*
G01X82723Y84603D01*
G01X82718Y84606D01*
G01X82710Y84611D01*
G01X82706Y84613D01*
G01X82703Y84615D01*
G01X82701Y84617D01*
G01X82698Y84621D01*
G01X82695Y84626D01*
G01X82684Y84647D01*
G01X82681Y84654D01*
G01X82580Y84921D01*
G01X82482Y85186D01*
G01X82481Y85189D01*
G01Y85192D01*
G01X82480Y85198D01*
G01X82478Y85203D01*
G01X82477Y85207D01*
G01Y85211D01*
G01X82478Y85218D01*
G01X82479Y85224D01*
G01X82481Y85231D01*
G01X82483Y85234D01*
G01X82485Y85237D01*
G01X82490Y85244D01*
G01X82493Y85248D01*
G01X82497Y85252D01*
G01X82501Y85256D01*
G01X82505Y85259D01*
G01X82509Y85262D01*
G01X82513Y85265D01*
G01X82518Y85268D01*
G01X82526Y85271D01*
G01X82531Y85274D01*
G01X82533Y85276D01*
G01X82537Y85278D01*
G01X82546Y85282D01*
G01X82558Y85286D01*
G01X82552Y85302D01*
G01X82247Y85189D01*
G01X82253Y85172D01*
G01X82271Y85179D01*
G01X82284Y85184D01*
G01X82291Y85186D01*
G01X82300D01*
G01X82312Y85188D01*
G01X82318D01*
G01X82321D01*
G01X82329Y85186D01*
G01X82340Y85185D01*
G01X82344Y85184D01*
G01X82347Y85182D01*
G01X82349Y85181D01*
G01X82360Y85173D01*
G01X82361Y85172D01*
G01X82364Y85169D01*
G01X82367Y85165D01*
G01X82372Y85156D01*
G01X82379Y85141D01*
G01X82384Y85127D01*
G01X82388Y85120D01*
G01X82389Y85118D01*
G01X82391Y85115D01*
G01X82415Y85054D01*
G01X82433Y85007D01*
G01X82473Y84900D01*
G01X82145Y84777D01*
G01X82097Y84907D01*
G01X82050Y85037D01*
G01X82048Y85042D01*
G01Y85057D01*
G01Y85061D01*
G01X82049Y85065D01*
G01X82050Y85069D01*
G01X82052Y85071D01*
G01X82059Y85082D01*
G01X82064Y85087D01*
G01X82070Y85093D01*
G01X82075Y85097D01*
G01X82080Y85101D01*
G01X82084Y85104D01*
G01X82102Y85114D01*
G01X82113Y85120D01*
G01X82123Y85124D01*
G01X82125Y85125D01*
G01X82126Y85126D01*
G01X82127Y85128D01*
G01Y85129D01*
G01Y85131D01*
G01Y85132D01*
G01X82123Y85143D01*
G01X81818Y85029D01*
G01X81824Y85012D01*
G01X81841Y85018D01*
G01X81851Y85022D01*
G01X81857Y85024D01*
G01X81862Y85025D01*
G01X81865D01*
G01X81873Y85026D01*
G01X81883Y85028D01*
G01X81889D01*
G01X81893D01*
G01X81913Y85024D01*
G01X81918Y85022D01*
G01X81922Y85020D01*
G01X81925Y85017D01*
G01X81927Y85016D01*
G01X81936Y85004D01*
G01X81938Y85002D01*
G01X81944Y84992D01*
G01X81947Y84986D01*
G01X81953Y84972D01*
G01X82053Y84706D01*
G01X82152Y84438D01*
G01X82153Y84435D01*
G01Y84434D01*
G01Y84431D01*
G01X82154Y84424D01*
G01X82156Y84414D01*
G01Y84410D01*
G01Y84406D01*
G01Y84405D01*
G01X82154Y84402D01*
G01X82152Y84393D01*
G01X82151Y84390D01*
G01X82150Y84388D01*
G01X82148Y84386D01*
G01X82144Y84382D01*
G01X82140Y84378D01*
G01X82136Y84373D01*
G01X82133Y84370D01*
G01X82129Y84367D01*
G01X82101Y84352D01*
G01X82097Y84349D01*
G01X82087Y84345D01*
G01X82075Y84341D01*
G01X82078Y84333D01*
G37*
G36*
G01X82854Y84622D02*
G01X82857Y84614D01*
G01X83408Y84820D01*
G01X83406Y84830D01*
G01Y84835D01*
G01X83405Y84840D01*
G01Y84844D01*
G01Y84852D01*
G01Y84861D01*
G01X83404Y84873D01*
G01Y84885D01*
G01Y84893D01*
G01X83403Y84906D01*
G01Y84914D01*
G01Y84922D01*
G01Y84932D01*
G01Y84940D01*
G01Y84948D01*
G01Y84956D01*
G01X83401Y84969D01*
G01X83402Y84980D01*
G01Y84989D01*
G01X83400Y85001D01*
G01X83401Y85009D01*
G01Y85017D01*
G01X83390Y85013D01*
G01X83387Y85012D01*
G01X83385Y85010D01*
G01X83383Y85009D01*
G01X83381Y85007D01*
G01X83380Y85006D01*
G01X83379Y85004D01*
G01Y85001D01*
G01X83378Y84995D01*
G01X83377Y84989D01*
G01Y84987D01*
G01X83375Y84983D01*
G01X83374Y84977D01*
G01X83372Y84966D01*
G01X83368Y84943D01*
G01X83366Y84936D01*
G01X83363Y84923D01*
G01X83356Y84902D01*
G01X83354Y84897D01*
G01X83352Y84893D01*
G01X83349Y84888D01*
G01X83347Y84884D01*
G01X83344Y84878D01*
G01X83343Y84872D01*
G01X83341Y84870D01*
G01X83340Y84868D01*
G01X83336Y84864D01*
G01X83331Y84858D01*
G01X83326Y84851D01*
G01X83323Y84848D01*
G01X83320Y84844D01*
G01X83316Y84841D01*
G01X83307Y84834D01*
G01X83285Y84820D01*
G01X83280Y84818D01*
G01X83272Y84814D01*
G01X83253Y84806D01*
G01X83246Y84803D01*
G01X83244Y84801D01*
G01X83241Y84800D01*
G01X83222Y84792D01*
G01X83166Y84770D01*
G01X83095Y84745D01*
G01X83089Y84743D01*
G01X83085D01*
G01X83077Y84742D01*
G01X83067Y84740D01*
G01X83063D01*
G01X83061D01*
G01X83059Y84741D01*
G01X83058D01*
G01X83057Y84742D01*
G01X83046Y84750D01*
G01X83044Y84752D01*
G01X83042Y84754D01*
G01X83040Y84757D01*
G01X83038Y84763D01*
G01X83035Y84768D01*
G01X83033Y84770D01*
G01X83032Y84774D01*
G01X82980Y84908D01*
G01X82930Y85041D01*
G01X83015Y85072D01*
G01X83097Y85102D01*
G01X83104Y85104D01*
G01X83108D01*
G01X83115Y85106D01*
G01X83128Y85111D01*
G01X83134Y85112D01*
G01X83151D01*
G01X83156D01*
G01X83163D01*
G01X83166Y85111D01*
G01X83169Y85110D01*
G01X83177Y85107D01*
G01X83180Y85106D01*
G01X83183Y85104D01*
G01X83187Y85102D01*
G01X83194Y85094D01*
G01X83200Y85089D01*
G01X83202Y85087D01*
G01X83205Y85084D01*
G01X83209Y85078D01*
G01X83218Y85062D01*
G01X83226Y85051D01*
G01X83232Y85042D01*
G01X83233Y85041D01*
G01X83235Y85040D01*
G01X83236Y85039D01*
G01X83238D01*
G01X83240D01*
G01X83243D01*
G01X83245Y85040D01*
G01X83255Y85044D01*
G01X83164Y85287D01*
G01X83152Y85282D01*
G01X83150Y85281D01*
G01X83148Y85280D01*
G01X83147Y85279D01*
G01Y85278D01*
G01X83146Y85276D01*
G01Y85275D01*
G01X83148Y85270D01*
G01X83149Y85264D01*
G01X83150Y85256D01*
G01X83153Y85248D01*
G01Y85244D01*
G01X83154Y85241D01*
G01Y85237D01*
G01X83153Y85228D01*
G01X83154Y85217D01*
G01Y85210D01*
G01X83153Y85207D01*
G01X83150Y85195D01*
G01X83149Y85192D01*
G01X83147Y85188D01*
G01X83145Y85185D01*
G01X83142Y85181D01*
G01X83138Y85175D01*
G01X83133Y85170D01*
G01X83129Y85167D01*
G01X83125Y85164D01*
G01X83121Y85161D01*
G01X83117Y85158D01*
G01X83112Y85155D01*
G01X83101Y85150D01*
G01X83089Y85144D01*
G01X83083Y85141D01*
G01X83080Y85139D01*
G01X83078Y85138D01*
G01X83057Y85129D01*
G01X82997Y85106D01*
G01X82917Y85077D01*
G01X82812Y85359D01*
G01X82919Y85399D01*
G01X83025Y85437D01*
G01X83031Y85439D01*
G01X83034D01*
G01X83039Y85440D01*
G01X83058Y85447D01*
G01X83065Y85449D01*
G01X83068D01*
G01X83085Y85450D01*
G01X83090D01*
G01X83096Y85449D01*
G01X83099Y85448D01*
G01X83102Y85447D01*
G01X83111Y85445D01*
G01X83116Y85443D01*
G01X83122Y85439D01*
G01X83132Y85432D01*
G01X83137Y85428D01*
G01X83152Y85412D01*
G01X83159Y85405D01*
G01X83162Y85401D01*
G01X83172Y85384D01*
G01X83176Y85378D01*
G01X83183Y85370D01*
G01X83185Y85368D01*
G01X83188D01*
G01X83192D01*
G01X83198Y85370D01*
G01X83209Y85374D01*
G01X83203Y85385D01*
G01X83200Y85391D01*
G01X83192Y85409D01*
G01X83188Y85420D01*
G01X83180Y85439D01*
G01X83177Y85446D01*
G01X83176Y85448D01*
G01X83173Y85452D01*
G01X83170Y85459D01*
G01X83153Y85502D01*
G01X83149Y85510D01*
G01X83148Y85512D01*
G01X83145Y85516D01*
G01X83142Y85519D01*
G01X83140D01*
G01X83131Y85516D01*
G01X82866Y85420D01*
G01X82594Y85318D01*
G01X82600Y85302D01*
G01X82618Y85309D01*
G01X82631Y85313D01*
G01X82639Y85315D01*
G01X82644Y85316D01*
G01X82650Y85317D01*
G01X82656Y85319D01*
G01X82660Y85320D01*
G01X82663D01*
G01X82683Y85318D01*
G01X82686Y85317D01*
G01X82690D01*
G01X82693Y85315D01*
G01X82695Y85314D01*
G01X82701Y85310D01*
G01X82708Y85303D01*
G01X82712Y85297D01*
G01X82715Y85292D01*
G01X82719Y85285D01*
G01X82726Y85270D01*
G01X82732Y85256D01*
G01X82735Y85252D01*
G01Y85251D01*
G01X82736Y85249D01*
G01X82782Y85130D01*
G01X82831Y85000D01*
G01X82922Y84752D01*
G01X82923Y84748D01*
G01X82924Y84745D01*
G01X82925Y84741D01*
G01X82931Y84721D01*
G01X82933Y84714D01*
G01Y84711D01*
G01Y84705D01*
G01X82932Y84696D01*
G01Y84692D01*
G01X82931Y84689D01*
G01X82929Y84686D01*
G01X82924Y84678D01*
G01X82921Y84673D01*
G01X82919Y84671D01*
G01X82916Y84668D01*
G01X82912Y84664D01*
G01X82904Y84658D01*
G01X82881Y84643D01*
G01X82877Y84641D01*
G01X82872Y84639D01*
G01X82862Y84635D01*
G01X82851Y84630D01*
G01X82854Y84622D01*
G37*
G36*
G01X83506Y84866D02*
G01X83509Y84858D01*
G01X83814Y84971D01*
G01X83808Y84988D01*
G01X83790Y84981D01*
G01X83777Y84976D01*
G01X83769Y84974D01*
G01X83760D01*
G01X83748Y84972D01*
G01X83743D01*
G01X83739D01*
G01X83731Y84974D01*
G01X83720Y84975D01*
G01X83717Y84976D01*
G01X83714Y84978D01*
G01X83711Y84979D01*
G01X83701Y84987D01*
G01X83699Y84989D01*
G01X83696Y84992D01*
G01X83693Y84996D01*
G01X83690Y85001D01*
G01X83685Y85011D01*
G01X83681Y85021D01*
G01X83678Y85027D01*
G01X83676Y85029D01*
G01X83675Y85032D01*
G01X83627Y85155D01*
G01X83582Y85277D01*
G01X83661Y85306D01*
G01X83739Y85334D01*
G01X83745Y85336D01*
G01X83746D01*
G01X83765Y85337D01*
G01X83770Y85336D01*
G01X83774D01*
G01X83776Y85335D01*
G01X83777Y85334D01*
G01X83781Y85332D01*
G01X83787Y85329D01*
G01X83793Y85327D01*
G01X83796Y85326D01*
G01X83799Y85323D01*
G01X83802Y85320D01*
G01X83811Y85311D01*
G01X83817Y85305D01*
G01X83819Y85302D01*
G01X83821Y85299D01*
G01X83823Y85293D01*
G01X83826Y85288D01*
G01X83830Y85283D01*
G01X83833Y85277D01*
G01X83838Y85265D01*
G01X83860Y85273D01*
G01X83773Y85507D01*
G01X83762Y85503D01*
G01X83757Y85501D01*
G01X83755Y85499D01*
G01X83754Y85498D01*
G01X83753Y85497D01*
G01X83752Y85495D01*
G01Y85494D01*
G01X83754Y85489D01*
G01X83755Y85483D01*
G01X83756Y85477D01*
G01X83757Y85469D01*
G01X83758Y85459D01*
G01X83759Y85455D01*
G01Y85450D01*
G01Y85446D01*
G01X83757Y85431D01*
G01X83756Y85427D01*
G01X83755Y85423D01*
G01X83754Y85419D01*
G01X83752Y85414D01*
G01X83749Y85408D01*
G01X83746Y85404D01*
G01X83743Y85401D01*
G01X83732Y85390D01*
G01X83726Y85384D01*
G01X83723Y85382D01*
G01X83716Y85379D01*
G01X83706Y85374D01*
G01X83701Y85372D01*
G01X83700Y85371D01*
G01X83698Y85370D01*
G01X83688Y85365D01*
G01X83631Y85343D01*
G01X83566Y85319D01*
G01X83461Y85601D01*
G01X83548Y85634D01*
G01X83634Y85665D01*
G01X83640Y85667D01*
G01X83641D01*
G01X83644D01*
G01X83649Y85668D01*
G01X83668Y85675D01*
G01X83675Y85676D01*
G01X83684Y85677D01*
G01X83697Y85679D01*
G01X83702D01*
G01X83706D01*
G01X83714Y85677D01*
G01X83725Y85676D01*
G01X83729Y85675D01*
G01X83739Y85672D01*
G01X83744Y85670D01*
G01X83750Y85667D01*
G01X83754Y85664D01*
G01X83761Y85659D01*
G01X83764Y85656D01*
G01X83768Y85654D01*
G01X83773Y85650D01*
G01X83781Y85642D01*
G01X83786Y85637D01*
G01X83790Y85634D01*
G01X83795Y85630D01*
G01X83802Y85619D01*
G01X83808Y85612D01*
G01X83813Y85607D01*
G01X83815Y85606D01*
G01X83816Y85605D01*
G01X83818Y85604D01*
G01X83820D01*
G01X83822D01*
G01X83824D01*
G01X83829Y85605D01*
G01X83831Y85606D01*
G01X83833Y85608D01*
G01X83834Y85609D01*
G01X83835Y85610D01*
G01X83836Y85612D01*
G01Y85613D01*
G01Y85615D01*
G01X83835Y85617D01*
G01X83832Y85624D01*
G01X83830Y85628D01*
G01X83828Y85631D01*
G01X83825Y85637D01*
G01X83816Y85659D01*
G01X83813Y85666D01*
G01X83803Y85693D01*
G01X83799Y85701D01*
G01X83797Y85704D01*
G01X83793Y85713D01*
G01X83785Y85733D01*
G01X83775Y85759D01*
G01X83246Y85562D01*
G01X83252Y85545D01*
G01X83268Y85552D01*
G01X83279Y85555D01*
G01X83284Y85557D01*
G01X83289Y85558D01*
G01X83296D01*
G01X83309Y85560D01*
G01X83317D01*
G01X83321D01*
G01X83328Y85559D01*
G01X83337Y85557D01*
G01X83343Y85554D01*
G01X83346Y85553D01*
G01X83356Y85545D01*
G01X83358Y85543D01*
G01X83361Y85540D01*
G01X83364Y85536D01*
G01X83367Y85531D01*
G01X83380Y85506D01*
G01X83385Y85493D01*
G01X83481Y85239D01*
G01X83575Y84984D01*
G01X83576Y84981D01*
G01Y84978D01*
G01X83578Y84971D01*
G01X83581Y84959D01*
G01X83582Y84955D01*
G01Y84947D01*
G01X83581Y84938D01*
G01Y84935D01*
G01X83580Y84932D01*
G01X83578Y84929D01*
G01X83573Y84920D01*
G01X83570Y84916D01*
G01X83566Y84910D01*
G01X83563Y84907D01*
G01X83557Y84903D01*
G01X83552Y84899D01*
G01X83548Y84896D01*
G01X83530Y84886D01*
G01X83520Y84881D01*
G01X83509Y84876D01*
G01X83508Y84875D01*
G01X83507Y84874D01*
G01X83506Y84873D01*
G01X83505Y84871D01*
G01Y84869D01*
G01Y84868D01*
G01X83506Y84866D01*
G37*
G04 //text: X*
G36*
G01X81362Y86542D02*
G01X81364Y86535D01*
G01X81604Y86624D01*
G01X81601Y86632D01*
G01X81600Y86634D01*
G01X81599Y86635D01*
G01X81597Y86636D01*
G01X81596Y86637D01*
G01X81594D01*
G01X81592Y86638D01*
G01X81589Y86637D01*
G01X81587D01*
G01X81564Y86632D01*
G01X81558Y86631D01*
G01X81553D01*
G01X81548Y86632D01*
G01X81543Y86633D01*
G01X81538Y86635D01*
G01X81534Y86637D01*
G01X81530Y86640D01*
G01X81527Y86643D01*
G01X81524Y86646D01*
G01X81520Y86652D01*
G01X81517Y86660D01*
G01X81515Y86667D01*
G01X81514Y86671D01*
G01Y86675D01*
G01X81517Y86691D01*
G01X81519Y86699D01*
G01X81522Y86711D01*
G01X81529Y86731D01*
G01X81533Y86743D01*
G01X81535Y86752D01*
G01X81538Y86759D01*
G01X81540Y86766D01*
G01X81543Y86777D01*
G01X81558Y86822D01*
G01X81562Y86834D01*
G01X81564Y86843D01*
G01X81566Y86850D01*
G01X81569Y86857D01*
G01X81572Y86868D01*
G01X81587Y86913D01*
G01X81590Y86925D01*
G01X81593Y86934D01*
G01X81598Y86947D01*
G01X81599Y86949D01*
G01X81601Y86950D01*
G01X81603D01*
G01X81606D01*
G01X81609Y86949D01*
G01X81611Y86948D01*
G01X81613Y86946D01*
G01X81617Y86942D01*
G01X81622Y86938D01*
G01X81632Y86931D01*
G01X81649Y86919D01*
G01X81661Y86910D01*
G01X81677Y86898D01*
G01X81689Y86890D01*
G01X81706Y86877D01*
G01X81718Y86869D01*
G01X81735Y86857D01*
G01X81747Y86848D01*
G01X81763Y86836D01*
G01X81776Y86828D01*
G01X81792Y86815D01*
G01X81802Y86808D01*
G01X81807Y86805D01*
G01X81809Y86802D01*
G01X81823Y86790D01*
G01X81825Y86787D01*
G01X81826Y86784D01*
G01X81829Y86778D01*
G01X81830Y86776D01*
G01X81831Y86774D01*
G01X81834Y86771D01*
G01X81835Y86769D01*
G01Y86766D01*
G01Y86763D01*
G01X81834Y86756D01*
G01X81833Y86750D01*
G01X81832Y86747D01*
G01X81830Y86744D01*
G01X81828Y86740D01*
G01X81824Y86735D01*
G01X81820Y86731D01*
G01X81816Y86728D01*
G01X81809Y86724D01*
G01X81790Y86713D01*
G01X81788Y86712D01*
G01X81787Y86710D01*
G01X81786Y86709D01*
G01X81785Y86707D01*
G01X81784Y86706D01*
G01Y86704D01*
G01Y86702D01*
G01X81785Y86700D01*
G01X81787Y86693D01*
G01X82076Y86800D01*
G01X82072Y86810D01*
G01X82071Y86811D01*
G01X82070Y86813D01*
G01X82069D01*
G01X82067Y86814D01*
G01X82065D01*
G01X82064Y86815D01*
G01X82062Y86814D01*
G01X82037Y86810D01*
G01X82032Y86809D01*
G01X82025D01*
G01X82009Y86810D01*
G01X82003Y86811D01*
G01X81998Y86812D01*
G01X81977Y86818D01*
G01X81972Y86820D01*
G01X81960Y86828D01*
G01X81956Y86831D01*
G01X81947Y86836D01*
G01X81941Y86839D01*
G01X81934Y86843D01*
G01X81927Y86848D01*
G01X81918Y86853D01*
G01X81881Y86878D01*
G01X81874Y86883D01*
G01X81857Y86895D01*
G01X81845Y86903D01*
G01X81829Y86916D01*
G01X81816Y86924D01*
G01X81803Y86934D01*
G01X81793Y86941D01*
G01X81784Y86946D01*
G01X81776Y86952D01*
G01X81767Y86959D01*
G01X81755Y86967D01*
G01X81738Y86980D01*
G01X81726Y86988D01*
G01X81710Y87001D01*
G01X81697Y87009D01*
G01X81681Y87021D01*
G01X81669Y87030D01*
G01X81652Y87042D01*
G01X81644Y87048D01*
G01X81640Y87051D01*
G01X81637Y87054D01*
G01X81636Y87055D01*
G01X81635Y87058D01*
G01X81634Y87061D01*
G01X81635Y87063D01*
G01X81638Y87068D01*
G01X81639Y87071D01*
G01X81640Y87074D01*
G01X81641Y87084D01*
G01X81642Y87088D01*
G01X81645Y87097D01*
G01X81648Y87105D01*
G01X81650Y87111D01*
G01X81653Y87119D01*
G01X81656Y87130D01*
G01X81670Y87175D01*
G01X81674Y87187D01*
G01X81677Y87196D01*
G01X81679Y87203D01*
G01X81682Y87210D01*
G01X81684Y87218D01*
G01X81687Y87227D01*
G01X81691Y87241D01*
G01X81699Y87266D01*
G01X81703Y87278D01*
G01X81705Y87287D01*
G01X81708Y87294D01*
G01X81710Y87301D01*
G01X81712Y87307D01*
G01X81715Y87312D01*
G01X81717Y87314D01*
G01X81718Y87317D01*
G01Y87319D01*
G01X81719Y87324D01*
G01Y87327D01*
G01X81720Y87329D01*
G01X81723Y87334D01*
G01X81726Y87340D01*
G01X81728Y87348D01*
G01X81733Y87355D01*
G01X81735Y87361D01*
G01X81737Y87366D01*
G01X81739Y87370D01*
G01X81741Y87373D01*
G01X81750Y87386D01*
G01X81756Y87394D01*
G01X81759Y87398D01*
G01X81762Y87401D01*
G01X81769Y87408D01*
G01X81774Y87413D01*
G01X81777Y87417D01*
G01X81780Y87420D01*
G01X81783Y87423D01*
G01X81788Y87426D01*
G01X81793Y87430D01*
G01X81797Y87433D01*
G01X81802Y87435D01*
G01X81809Y87438D01*
G01X81810Y87439D01*
G01X81812Y87440D01*
G01X81813Y87442D01*
G01X81814Y87443D01*
G01Y87445D01*
G01X81815Y87447D01*
G01X81814Y87449D01*
G01Y87452D01*
G01X81813Y87454D01*
G01X81812Y87455D01*
G01X81811Y87456D01*
G01X81810D01*
G01X81809Y87457D01*
G01X81808D01*
G01X81805Y87456D01*
G01X81688Y87414D01*
G01X81573Y87371D01*
G01X81576Y87361D01*
G01X81577Y87360D01*
G01X81578Y87359D01*
G01X81579Y87358D01*
G01X81581Y87357D01*
G01X81582D01*
G01X81583D01*
G01X81588Y87359D01*
G01X81593Y87360D01*
G01X81599D01*
G01X81603Y87361D01*
G01X81617Y87366D01*
G01X81624Y87367D01*
G01X81628Y87368D01*
G01X81637Y87367D01*
G01X81643Y87365D01*
G01X81646Y87364D01*
G01X81649Y87363D01*
G01X81652Y87360D01*
G01X81655Y87357D01*
G01X81660Y87351D01*
G01X81664Y87345D01*
G01X81666Y87343D01*
G01X81667Y87340D01*
G01X81668Y87337D01*
G01Y87335D01*
G01Y87321D01*
G01Y87316D01*
G01X81667Y87312D01*
G01X81666Y87307D01*
G01X81661Y87289D01*
G01X81657Y87275D01*
G01X81636Y87211D01*
G01X81632Y87198D01*
G01X81630Y87190D01*
G01X81627Y87183D01*
G01X81625Y87175D01*
G01X81622Y87167D01*
G01X81619Y87158D01*
G01X81617Y87150D01*
G01X81614Y87143D01*
G01X81612Y87135D01*
G01X81609Y87128D01*
G01X81606Y87118D01*
G01X81604Y87110D01*
G01X81601Y87103D01*
G01X81599Y87096D01*
G01X81598Y87093D01*
G01X81597Y87090D01*
G01X81595Y87088D01*
G01X81593Y87087D01*
G01X81591Y87085D01*
G01X81589D01*
G01X81588Y87086D01*
G01X81584Y87089D01*
G01X81579Y87094D01*
G01X81569Y87101D01*
G01X81556Y87110D01*
G01X81551Y87113D01*
G01X81548Y87115D01*
G01X81545Y87117D01*
G01X81529Y87129D01*
G01X81517Y87137D01*
G01X81500Y87149D01*
G01X81488Y87158D01*
G01X81472Y87170D01*
G01X81459Y87178D01*
G01X81443Y87191D01*
G01X81431Y87199D01*
G01X81423Y87205D01*
G01X81418Y87209D01*
G01X81413Y87214D01*
G01X81401Y87226D01*
G01X81396Y87231D01*
G01X81394Y87234D01*
G01X81392Y87238D01*
G01X81391Y87241D01*
G01X81389Y87245D01*
G01Y87250D01*
G01X81390Y87254D01*
G01X81391Y87259D01*
G01X81393Y87264D01*
G01X81395Y87268D01*
G01X81398Y87272D01*
G01X81401Y87275D01*
G01X81416Y87288D01*
G01X81422Y87292D01*
G01X81428Y87295D01*
G01X81436Y87298D01*
G01X81438Y87300D01*
G01X81441Y87302D01*
G01X81442Y87304D01*
G01X81443Y87306D01*
G01Y87309D01*
G01Y87312D01*
G01Y87314D01*
G01X81441Y87316D01*
G01X81438D01*
G01X81430Y87314D01*
G01X81378Y87297D01*
G01X81283Y87262D01*
G01X81128Y87205D01*
G01X81131Y87197D01*
G01X81132Y87195D01*
G01X81133Y87194D01*
G01X81135Y87193D01*
G01X81136Y87192D01*
G01X81138Y87191D01*
G01X81140D01*
G01X81143D01*
G01X81145Y87192D01*
G01X81168Y87197D01*
G01X81173Y87198D01*
G01X81178D01*
G01X81185Y87199D01*
G01X81194Y87198D01*
G01X81204Y87199D01*
G01X81210Y87198D01*
G01X81219Y87197D01*
G01X81230Y87195D01*
G01X81234Y87194D01*
G01X81243Y87192D01*
G01X81248Y87190D01*
G01X81252Y87188D01*
G01X81257Y87186D01*
G01X81260Y87183D01*
G01X81266Y87181D01*
G01X81274Y87178D01*
G01X81281Y87174D01*
G01X81287Y87171D01*
G01X81292Y87170D01*
G01X81295Y87168D01*
G01X81298Y87166D01*
G01X81303Y87162D01*
G01X81306Y87160D01*
G01X81309Y87159D01*
G01X81312Y87158D01*
G01X81314Y87157D01*
G01X81317Y87156D01*
G01X81319Y87154D01*
G01X81322Y87151D01*
G01X81324Y87149D01*
G01X81326Y87148D01*
G01X81330Y87145D01*
G01X81337Y87141D01*
G01X81379Y87113D01*
G01X81396Y87100D01*
G01X81408Y87092D01*
G01X81420Y87083D01*
G01X81426Y87079D01*
G01X81429Y87077D01*
G01X81432Y87076D01*
G01X81448Y87064D01*
G01X81460Y87056D01*
G01X81473Y87046D01*
G01X81484Y87039D01*
G01X81492Y87033D01*
G01X81500Y87027D01*
G01X81509Y87021D01*
G01X81522Y87012D01*
G01X81535Y87002D01*
G01X81545Y86995D01*
G01X81552Y86991D01*
G01X81558Y86986D01*
G01X81561Y86984D01*
G01X81562Y86982D01*
G01X81563Y86981D01*
G01Y86980D01*
G01Y86979D01*
G01X81564Y86978D01*
G01X81563Y86977D01*
G01X81562Y86974D01*
G01X81560Y86966D01*
G01X81557Y86958D01*
G01X81554Y86949D01*
G01X81552Y86941D01*
G01X81549Y86934D01*
G01X81547Y86926D01*
G01X81544Y86918D01*
G01X81541Y86909D01*
G01X81539Y86901D01*
G01X81536Y86894D01*
G01X81534Y86886D01*
G01X81531Y86878D01*
G01X81528Y86869D01*
G01X81524Y86855D01*
G01X81483Y86731D01*
G01X81479Y86719D01*
G01X81478Y86713D01*
G01X81475Y86707D01*
G01X81472Y86702D01*
G01X81471Y86700D01*
G01Y86698D01*
G01X81470Y86692D01*
G01Y86690D01*
G01X81469Y86687D01*
G01X81466Y86683D01*
G01X81463Y86677D01*
G01X81461Y86669D01*
G01X81456Y86662D01*
G01X81454Y86656D01*
G01X81452Y86650D01*
G01X81450Y86647D01*
G01X81448Y86644D01*
G01X81442Y86635D01*
G01X81438Y86630D01*
G01X81434Y86622D01*
G01X81425Y86610D01*
G01X81416Y86598D01*
G01X81411Y86592D01*
G01X81407Y86587D01*
G01X81404Y86584D01*
G01X81391Y86574D01*
G01X81381Y86566D01*
G01X81368Y86557D01*
G01X81363Y86553D01*
G01X81361Y86552D01*
G01X81360Y86549D01*
G01X81361Y86546D01*
G01X81362Y86542D01*
G37*
G04 //text: 24V  5V  PCF*
G54D10*
G01X105420Y73327D02*
G01X105420Y73353D01*
G01X105442Y73404D01*
G01X105467Y73427D01*
G01X105518Y73453D01*
G01X105617D01*
G01X105668Y73428D01*
G01X105694Y73406D01*
G01X105719Y73355D01*
G01X105720Y73304D01*
G01X105695Y73256D01*
G01X105645Y73179D01*
G01X105398Y72928D01*
G01X105746Y72931D01*
G01X106214Y73458D02*
G01X105965Y73106D01*
G01X106341Y73109D01*
G01X106214Y73458D02*
G01X106218Y72935D01*
G01X106557Y73461D02*
G01X106762Y72940D01*
G01X106958Y73464D02*
G01X106762Y72940D01*
G01X108596Y73478D02*
G01X108347Y73476D01*
G01X108324Y73252D01*
G01X108349Y73278D01*
G01X108425Y73301D01*
G01X108499Y73302D01*
G01X108575Y73280D01*
G01X108624Y73229D01*
G01X108650Y73153D01*
G01Y73105D01*
G01X108625Y73029D01*
G01X108578Y72977D01*
G01X108502Y72954D01*
G01X108428Y72953D01*
G01X108352Y72976D01*
G01X108326Y73001D01*
G01X108300Y73051D01*
G01X108868Y73480D02*
G01X109073Y72959D01*
G01X109267Y73484D02*
G01X109073Y72959D01*
G01X110608Y73495D02*
G01X110612Y72971D01*
G01X110608Y73495D02*
G01X110831Y73496D01*
G01X110908Y73472D01*
G01X110933Y73449D01*
G01X110959Y73398D01*
G01X110960Y73322D01*
G01X110935Y73274D01*
G01X110910Y73248D01*
G01X110834Y73222D01*
G01X110610Y73220D01*
G01X111554Y73378D02*
G01X111528Y73429D01*
G01X111477Y73476D01*
G01X111428Y73501D01*
G01X111327D01*
G01X111279Y73475D01*
G01X111228Y73426D01*
G01X111203Y73375D01*
G01X111179Y73301D01*
G01X111180Y73174D01*
G01X111206Y73101D01*
G01X111231Y73050D01*
G01X111283Y73000D01*
G01X111331Y72977D01*
G01X111433Y72978D01*
G01X111481Y73001D01*
G01X111531Y73053D01*
G01X111556Y73104D01*
G01X111771Y73504D02*
G01X111776Y72981D01*
G01X111771Y73504D02*
G01X112096Y73507D01*
G01X111773Y73255D02*
G01X111974Y73257D01*
G04 //text: 5V  SIG  GND*
G01X87587Y90059D02*
G01X87336Y90057D01*
G01X87315Y89834D01*
G01X87338Y89859D01*
G01X87414Y89883D01*
G01X87487D01*
G01X87564Y89861D01*
G01X87615Y89811D01*
G01X87638Y89735D01*
G01X87639Y89687D01*
G01X87617Y89610D01*
G01X87566Y89559D01*
G01X87490Y89535D01*
G01X87417D01*
G01X87340Y89557D01*
G01X87317Y89582D01*
G01X87291Y89633D01*
G01X87857Y90062D02*
G01X88062Y89540D01*
G01X88258Y90065D02*
G01X88062Y89540D01*
G01X89948Y90005D02*
G01X89896Y90053D01*
G01X89823Y90078D01*
G01X89721Y90077D01*
G01X89648Y90051D01*
G01X89597Y90002D01*
G01X89598Y89952D01*
G01X89623Y89901D01*
G01X89649Y89878D01*
G01X89700Y89853D01*
G01X89850Y89804D01*
G01X89899Y89779D01*
G01X89924Y89754D01*
G01X89950Y89706D01*
G01X89951Y89629D01*
G01X89900Y89578D01*
G01X89827Y89555D01*
G01X89725Y89554D01*
G01X89651Y89576D01*
G01X89600Y89627D01*
G01X90168Y90081D02*
G01X90172Y89558D01*
G01X90763Y89961D02*
G01X90738Y90012D01*
G01X90686Y90060D01*
G01X90638Y90085D01*
G01X90536Y90084D01*
G01X90488Y90058D01*
G01X90438Y90009D01*
G01X90413Y89958D01*
G01X90388Y89885D01*
G01X90389Y89758D01*
G01X90415Y89684D01*
G01X90441Y89633D01*
G01X90492Y89583D01*
G01X90541Y89561D01*
G01X90642D01*
G01X90690Y89585D01*
G01X90741Y89636D01*
G01X90766Y89687D01*
G01X90765Y89761D01*
G01X90641Y89760D02*
G01X90765Y89761D01*
G01X92478Y89975D02*
G01X92452Y90026D01*
G01X92401Y90074D01*
G01X92352Y90099D01*
G01X92251Y90098D01*
G01X92203Y90072D01*
G01X92152Y90024D01*
G01X92127Y89973D01*
G01X92103Y89899D01*
G01X92104Y89772D01*
G01X92130Y89698D01*
G01X92155Y89648D01*
G01X92207Y89597D01*
G01X92255Y89575D01*
G01X92357Y89576D01*
G01X92405Y89599D01*
G01X92455Y89650D01*
G01X92480Y89701D01*
G01Y89775D01*
G01X92355Y89774D02*
G01X92480Y89775D01*
G01X92698Y90102D02*
G01X92702Y89578D01*
G01X92698Y90102D02*
G01X93050Y89581D01*
G01X93046Y90105D02*
G01X93050Y89581D01*
G01X93267Y90106D02*
G01X93271Y89583D01*
G01X93267Y90106D02*
G01X93442Y90108D01*
G01X93516Y90083D01*
G01X93567Y90035D01*
G01X93593Y89985D01*
G01X93619Y89911D01*
G01X93620Y89784D01*
G01X93595Y89710D01*
G01X93570Y89659D01*
G01X93520Y89608D01*
G01X93446Y89585D01*
G01X93271Y89583D01*
G04 //text: 24V  5V  HEF*
G01X94658Y73478D02*
G01X94658Y73503D01*
G01X94682Y73554D01*
G01X94707Y73576D01*
G01X94758Y73601D01*
G01X94857Y73600D01*
G01X94908Y73574D01*
G01X94933Y73551D01*
G01X94958Y73500D01*
G01Y73449D01*
G01X94932Y73401D01*
G01X94880Y73326D01*
G01X94629Y73079D01*
G01X94977Y73076D01*
G01X95454Y73595D02*
G01X95200Y73247D01*
G01X95576Y73243D01*
G01X95454Y73595D02*
G01X95449Y73072D01*
G01X95797Y73592D02*
G01X95993Y73067D01*
G01X96198Y73588D02*
G01X95993Y73067D01*
G01X97837Y73573D02*
G01X97588Y73575D01*
G01X97560Y73352D01*
G01X97586Y73377D01*
G01X97662Y73399D01*
G01X97736D01*
G01X97812Y73375D01*
G01X97860Y73324D01*
G01X97885Y73247D01*
G01X97884Y73199D01*
G01X97858Y73123D01*
G01X97809Y73073D01*
G01X97733Y73051D01*
G01X97659D01*
G01X97583Y73075D01*
G01X97558Y73100D01*
G01X97533Y73151D01*
G01X98108Y73570D02*
G01X98304Y73045D01*
G01X98507Y73567D02*
G01X98304Y73045D01*
G01X99848Y73554D02*
G01X99843Y73031D01*
G01X100199Y73551D02*
G01X100194Y73028D01*
G01X99846Y73305D02*
G01X100197Y73302D01*
G01X100417Y73549D02*
G01X100412Y73026D01*
G01X100417Y73549D02*
G01X100742Y73546D01*
G01X100415Y73300D02*
G01X100616Y73298D01*
G01X100412Y73026D02*
G01X100738Y73023D01*
G01X100963Y73544D02*
G01X100958Y73021D01*
G01X100963Y73544D02*
G01X101288Y73541D01*
G01X100961Y73295D02*
G01X101162Y73293D01*
G04 //text: Part Fan*
G36*
G01X112657Y77974D02*
G01X112655Y77768D01*
G01X112931D01*
G01X112932Y77873D01*
G01X113725Y77866D01*
G01X113724Y77737D01*
G01X113721Y77606D01*
G01Y77603D01*
G01X113720Y77602D01*
G01Y77598D01*
G01X113719Y77584D01*
G01X113718Y77577D01*
G01X113716Y77568D01*
G01X113713Y77554D01*
G01X113712Y77546D01*
G01X113709Y77537D01*
G01X113707Y77524D01*
G01X113705Y77520D01*
G01X113704Y77516D01*
G01X113701Y77510D01*
G01X113693Y77491D01*
G01X113689Y77485D01*
G01X113685Y77479D01*
G01X113681Y77469D01*
G01X113679Y77465D01*
G01X113677Y77462D01*
G01X113675Y77459D01*
G01X113661Y77441D01*
G01X113653Y77431D01*
G01X113650Y77427D01*
G01X113647Y77424D01*
G01X113643Y77421D01*
G01X113627Y77409D01*
G01X113619Y77403D01*
G01X113616Y77401D01*
G01X113607Y77396D01*
G01X113600Y77392D01*
G01X113593Y77389D01*
G01X113587Y77387D01*
G01X113576Y77383D01*
G01X113567Y77379D01*
G01X113564Y77378D01*
G01X113559Y77377D01*
G01X113550Y77375D01*
G01X113543Y77373D01*
G01X113541Y77372D01*
G01X113535Y77371D01*
G01X113526D01*
G01X113521Y77370D01*
G01X113516Y77369D01*
G01X113509Y77368D01*
G01X113479D01*
G01X113461Y77369D01*
G01X113455Y77370D01*
G01X113432Y77373D01*
G01X113427Y77374D01*
G01X113419Y77377D01*
G01X113410Y77379D01*
G01X113390Y77385D01*
G01X113381Y77388D01*
G01X113378Y77390D01*
G01X113374Y77392D01*
G01X113368Y77396D01*
G01X113359Y77400D01*
G01X113353Y77403D01*
G01X113347Y77406D01*
G01X113340Y77411D01*
G01X113334Y77416D01*
G01X113332Y77417D01*
G01X113330Y77418D01*
G01X113326Y77420D01*
G01X113322Y77423D01*
G01X113320Y77425D01*
G01X113317Y77430D01*
G01X113310Y77435D01*
G01X113306Y77440D01*
G01X113301Y77446D01*
G01X113294Y77451D01*
G01X113290Y77455D01*
G01X113287Y77460D01*
G01X113279Y77471D01*
G01X113272Y77481D01*
G01X113268Y77486D01*
G01X113259Y77500D01*
G01X113256Y77507D01*
G01X113251Y77519D01*
G01X113247Y77526D01*
G01X113245Y77529D01*
G01X113244Y77534D01*
G01X113242Y77542D01*
G01X113240Y77549D01*
G01X113237Y77555D01*
G01X113235Y77563D01*
G01X113233Y77573D01*
G01X113232Y77580D01*
G01X113231Y77582D01*
G01X113230Y77587D01*
G01X113229Y77596D01*
G01X113228Y77602D01*
G01Y77605D01*
G01Y77606D01*
G01X113227Y77612D01*
G01Y77687D01*
G01X113228Y77765D01*
G01X112931Y77768D01*
G01X112655D01*
G01X112649Y77130D01*
G01X112910D01*
G01Y77140D01*
G01X112911Y77151D01*
G01Y77154D01*
G01X112912Y77156D01*
G01X112913Y77157D01*
G01Y77158D01*
G01Y77160D01*
G01X112914Y77169D01*
G01Y77175D01*
G01X112917Y77184D01*
G01X112919Y77199D01*
G01X112923Y77214D01*
G01X112927Y77223D01*
G01X112928Y77226D01*
G01X112931Y77230D01*
G01X112934Y77236D01*
G01X112938Y77245D01*
G01X112941Y77251D01*
G01X112944Y77253D01*
G01X112946Y77256D01*
G01X112951Y77265D01*
G01X112955Y77270D01*
G01X112959Y77273D01*
G01X112963Y77277D01*
G01X112969Y77284D01*
G01X112974Y77287D01*
G01X112988Y77297D01*
G01X112995Y77301D01*
G01X113005Y77305D01*
G01X113017Y77310D01*
G01X113024Y77313D01*
G01X113035Y77315D01*
G01X113042Y77317D01*
G01X113050Y77318D01*
G01X113074D01*
G01X113081D01*
G01X113101Y77317D01*
G01X113106D01*
G01X113107Y77316D01*
G01X113114Y77315D01*
G01X113131Y77312D01*
G01X113136Y77310D01*
G01X113140Y77309D01*
G01X113147Y77306D01*
G01X113162Y77300D01*
G01X113168Y77297D01*
G01X113174Y77293D01*
G01X113181Y77289D01*
G01X113186Y77284D01*
G01X113188Y77283D01*
G01X113191Y77281D01*
G01X113194Y77280D01*
G01X113197Y77278D01*
G01X113200Y77276D01*
G01X113204Y77271D01*
G01X113216Y77255D01*
G01X113222Y77247D01*
G01X113224Y77243D01*
G01X113229Y77234D01*
G01X113233Y77228D01*
G01X113236Y77222D01*
G01X113241Y77210D01*
G01X113246Y77199D01*
G01X113248Y77192D01*
G01X113250Y77183D01*
G01X113256Y77161D01*
G01X113259Y77149D01*
G01Y77145D01*
G01X113262Y77127D01*
G01X113263Y77114D01*
G01X113265Y77100D01*
G01X113267Y77082D01*
G01X113269Y77070D01*
G01X113271Y77055D01*
G01X113273Y77038D01*
G01X113275Y77025D01*
G01X113277Y77011D01*
G01X113279Y76993D01*
G01X113281Y76980D01*
G01X113282Y76971D01*
G01X113283Y76967D01*
G01X113285Y76965D01*
G01X113287Y76963D01*
G01X113289Y76961D01*
G01X113291Y76960D01*
G01X113296D01*
G01X113298Y76961D01*
G01X113303Y76963D01*
G01X113309D01*
G01X113318D01*
G01X113324Y76964D01*
G01X113348Y76969D01*
G01X113357Y76972D01*
G01X113365Y76975D01*
G01X113371Y76978D01*
G01X113384Y76986D01*
G01X113388Y76988D01*
G01X113395Y76995D01*
G01X113399Y76999D01*
G01X113404Y77006D01*
G01X113406Y77009D01*
G01X113412Y77018D01*
G01X113416Y77025D01*
G01X113417Y77028D01*
G01X113419Y77035D01*
G01X113420Y77040D01*
G01X113423Y77062D01*
G01X113424Y77067D01*
G01Y77071D01*
G01Y77075D01*
G01X113423Y77078D01*
G01Y77080D01*
G01X113422Y77087D01*
G01Y77102D01*
G01X113421Y77113D01*
G01X113420Y77118D01*
G01X113418Y77126D01*
G01X113416Y77135D01*
G01X113413Y77153D01*
G01X113412Y77157D01*
G01X113410Y77161D01*
G01X113406Y77169D01*
G01X113403Y77178D01*
G01X113400Y77187D01*
G01X113399Y77190D01*
G01X113397Y77194D01*
G01X113393Y77200D01*
G01X113389Y77209D01*
G01X113388Y77213D01*
G01X113386Y77217D01*
G01X113380Y77225D01*
G01X113369Y77241D01*
G01X113368Y77243D01*
G01X113364Y77247D01*
G01X113361Y77252D01*
G01X113357Y77261D01*
G01X113403D01*
G01X113423Y77260D01*
G01X113439Y77259D01*
G01X113445Y77258D01*
G01X113450Y77257D01*
G01X113453Y77256D01*
G01X113455Y77254D01*
G01X113457Y77253D01*
G01X113461Y77247D01*
G01X113463Y77243D01*
G01X113468Y77232D01*
G01X113471Y77226D01*
G01X113475Y77220D01*
G01X113478Y77212D01*
G01X113494Y77163D01*
G01X113496Y77156D01*
G01X113498Y77140D01*
G01X113499Y77131D01*
G01X113500Y77127D01*
G01X113501Y77122D01*
G01Y77109D01*
G01X113502Y77102D01*
G01X113503Y77099D01*
G01Y77097D01*
G01X113504Y77090D01*
G01Y77075D01*
G01Y77055D01*
G01X113502Y77042D01*
G01X113498Y77010D01*
G01X113497Y77000D01*
G01X113496Y76995D01*
G01X113494Y76989D01*
G01X113488Y76971D01*
G01X113484Y76962D01*
G01X113483Y76959D01*
G01X113480Y76955D01*
G01X113477Y76949D01*
G01X113473Y76940D01*
G01X113470Y76935D01*
G01X113467Y76932D01*
G01X113463Y76927D01*
G01X113457Y76918D01*
G01X113451Y76911D01*
G01X113447Y76907D01*
G01X113444Y76905D01*
G01X113432Y76896D01*
G01X113426Y76891D01*
G01X113423Y76889D01*
G01X113419Y76887D01*
G01X113408Y76882D01*
G01X113401Y76878D01*
G01X113395Y76875D01*
G01X113388Y76873D01*
G01X113373Y76868D01*
G01X113367Y76866D01*
G01X113353Y76864D01*
G01X113344Y76863D01*
G01X113342Y76862D01*
G01X113338D01*
G01X113130D01*
G01X112923Y76864D01*
G01X112924Y76963D01*
G01X112965D01*
G01X112996D01*
G01X113004Y76964D01*
G01X113006Y76966D01*
G01X113005D01*
G01X113004Y76968D01*
G01X113001Y76971D01*
G01X112994Y76976D01*
G01X112989Y76979D01*
G01X112984Y76981D01*
G01X112982Y76982D01*
G01X112980Y76984D01*
G01X112977Y76989D01*
G01X112973Y76992D01*
G01X112967Y76998D01*
G01X112961Y77005D01*
G01X112957Y77009D01*
G01X112954Y77011D01*
G01X112951Y77013D01*
G01X112948Y77018D01*
G01X112941Y77029D01*
G01X112937Y77034D01*
G01X112936Y77036D01*
G01X112933Y77040D01*
G01X112929Y77050D01*
G01X112921Y77068D01*
G01X112919Y77076D01*
G01X112914Y77093D01*
G01X112913Y77098D01*
G01Y77111D01*
G01X112912Y77118D01*
G01X112911Y77124D01*
G01X112910Y77130D01*
G01X112649D01*
G01X112644Y76597D01*
G01X112921D01*
G01X112922Y76699D01*
G01X113205Y76696D01*
G01X113488Y76694D01*
G01X113487Y76592D01*
G01X113438D01*
G01X113394D01*
G01X113386D01*
G01X113384Y76591D01*
G01X113382Y76590D01*
G01Y76589D01*
G01X113383Y76588D01*
G01X113391Y76583D01*
G01X113398Y76579D01*
G01X113403Y76576D01*
G01X113416Y76570D01*
G01X113424Y76566D01*
G01X113429Y76563D01*
G01X113433Y76561D01*
G01X113436Y76560D01*
G01X113437Y76558D01*
G01X113440Y76555D01*
G01X113442Y76552D01*
G01X113447Y76548D01*
G01X113454Y76544D01*
G01X113457Y76541D01*
G01X113459Y76539D01*
G01X113461Y76534D01*
G01X113462Y76532D01*
G01X113464Y76530D01*
G01X113466Y76529D01*
G01X113468Y76527D01*
G01X113470Y76525D01*
G01X113472Y76522D01*
G01X113477Y76513D01*
G01X113480Y76508D01*
G01X113483Y76502D01*
G01X113486Y76493D01*
G01X113488Y76487D01*
G01X113491Y76480D01*
G01X113492Y76477D01*
G01Y76474D01*
G01X113493Y76468D01*
G01Y76462D01*
G01X113495Y76457D01*
G01Y76451D01*
G01Y76444D01*
G01Y76434D01*
G01X113494Y76431D01*
G01X113493Y76426D01*
G01X113492Y76420D01*
G01Y76411D01*
G01X113490Y76403D01*
G01X113489Y76398D01*
G01Y76394D01*
G01X113488D01*
G01Y76393D01*
G01X113487D01*
G01X113486Y76392D01*
G01X113485D01*
G01X113479Y76391D01*
G01X113472Y76389D01*
G01X113462D01*
G01X113387D01*
G01X113393Y76403D01*
G01X113396Y76411D01*
G01X113401Y76426D01*
G01X113402Y76428D01*
G01X113403Y76436D01*
G01Y76449D01*
G01Y76462D01*
G01X113402Y76472D01*
G01Y76476D01*
G01X113400Y76485D01*
G01X113397Y76494D01*
G01X113394Y76502D01*
G01X113391Y76508D01*
G01X113383Y76521D01*
G01X113381Y76525D01*
G01X113378Y76528D01*
G01X113374Y76533D01*
G01X113369Y76536D01*
G01X113364Y76543D01*
G01X113360Y76547D01*
G01X113344Y76559D01*
G01X113339Y76562D01*
G01X113334Y76565D01*
G01X113322Y76571D01*
G01X113319Y76573D01*
G01X113312Y76575D01*
G01X113303Y76578D01*
G01X113295Y76582D01*
G01X113289Y76584D01*
G01X113284Y76585D01*
G01X113274Y76587D01*
G01X113266Y76589D01*
G01X113260Y76590D01*
G01X113255Y76591D01*
G01X113237Y76592D01*
G01X113234D01*
G01X113231Y76593D01*
G01X113227D01*
G01X113074Y76596D01*
G01X112921Y76597D01*
G01X112644D01*
G01X112639Y76045D01*
G01X112904D01*
G01Y76093D01*
G01X112905Y76112D01*
G01X112906Y76115D01*
G01Y76116D01*
G01Y76117D01*
G01X112908Y76121D01*
G01X112910Y76135D01*
G01X112911Y76140D01*
G01X112915Y76149D01*
G01X112922Y76163D01*
G01X112926Y76171D01*
G01X112937Y76186D01*
G01X112944Y76193D01*
G01X112951Y76199D01*
G01X112960Y76206D01*
G01X112970Y76212D01*
G01X112973Y76213D01*
G01X112978Y76215D01*
G01X112987Y76218D01*
G01X112997Y76222D01*
G01X113001Y76224D01*
G01X113005Y76225D01*
G01X113014Y76226D01*
G01X113021Y76228D01*
G01X113024D01*
G01Y76229D01*
G01X113028D01*
G01X113215Y76228D01*
G01X113401Y76227D01*
G01X113402Y76325D01*
G01X113485Y76324D01*
G01X113484Y76226D01*
G01X113551Y76225D01*
G01X113592Y76224D01*
G01X113609Y76222D01*
G01X113615Y76221D01*
G01X113619Y76220D01*
G01X113621Y76218D01*
G01X113624Y76211D01*
G01X113627Y76203D01*
G01X113639Y76163D01*
G01X113642Y76152D01*
G01X113644Y76145D01*
G01X113647Y76139D01*
G01X113648Y76135D01*
G01Y76132D01*
G01Y76128D01*
G01X113647D01*
G01X113646Y76127D01*
G01X113645D01*
G01X113640Y76126D01*
G01X113632Y76125D01*
G01X113618Y76124D01*
G01X113565Y76123D01*
G01X113483Y76124D01*
G01X113482Y75984D01*
G01X113399Y75985D01*
G01X113400Y76125D01*
G01X113232Y76126D01*
G01X113092Y76127D01*
G01X113056D01*
G01X113055Y76126D01*
G01X113039Y76123D01*
G01X113035D01*
G01X113023Y76119D01*
G01X113019Y76117D01*
G01X113014Y76114D01*
G01X113012Y76113D01*
G01X113008Y76110D01*
G01X113002Y76104D01*
G01X113000Y76102D01*
G01X112997Y76100D01*
G01X112996Y76097D01*
G01X112988Y76081D01*
G01X112987Y76078D01*
G01X112986Y76074D01*
G01Y76066D01*
G01X112985Y76060D01*
G01X112984Y76055D01*
G01Y76051D01*
G01X112985Y76048D01*
G01Y76045D01*
G01X112986Y76036D01*
G01X112987Y76031D01*
G01X112989Y76023D01*
G01X112991Y76012D01*
G01X112992Y76009D01*
G01X112993Y76006D01*
G01X112996Y76003D01*
G01X112998Y76000D01*
G01X112999Y75998D01*
G01X113001Y75989D01*
G01X112961D01*
G01X112944Y75990D01*
G01X112931Y75991D01*
G01X112926D01*
G01X112922Y75992D01*
G01X112920Y75993D01*
G01X112919Y75994D01*
G01X112915Y75999D01*
G01X112912Y76005D01*
G01X112911Y76009D01*
G01X112910Y76013D01*
G01X112909Y76017D01*
G01X112907Y76026D01*
G01X112906Y76033D01*
G01X112904Y76037D01*
G01Y76045D01*
G01X112639D01*
G01X112633Y75445D01*
G01X112910D01*
G01X112911Y75550D01*
G01X113704Y75543D01*
G01X113700Y75133D01*
G01X113611D01*
G01X113614Y75439D01*
G01X113346Y75442D01*
G01X113343Y75158D01*
G01X113255Y75159D01*
G01X113257Y75442D01*
G01X112910Y75445D01*
G01X112633D01*
G01X112629Y74908D01*
G01X112889D01*
G01X112890Y74913D01*
G01Y74918D01*
G01Y74921D01*
G01X112892Y74922D01*
G01Y74923D01*
G01Y74924D01*
G01X112893Y74926D01*
G01Y74936D01*
G01Y74942D01*
G01X112894Y74947D01*
G01X112900Y74972D01*
G01X112904Y74983D01*
G01X112910Y74998D01*
G01X112911Y75002D01*
G01X112914Y75008D01*
G01X112918Y75014D01*
G01X112923Y75022D01*
G01X112929Y75030D01*
G01X112932Y75034D01*
G01X112940Y75045D01*
G01X112944Y75049D01*
G01X112949Y75052D01*
G01X112955Y75058D01*
G01X112958Y75060D01*
G01X112967Y75065D01*
G01X112972Y75068D01*
G01X112976Y75071D01*
G01X112978Y75072D01*
G01X112980Y75073D01*
G01X112990Y75076D01*
G01X112997Y75079D01*
G01X113004Y75081D01*
G01X113008Y75082D01*
G01X113019Y75084D01*
G01X113027Y75085D01*
G01X113032Y75087D01*
G01X113039D01*
G01X113064D01*
G01X113073Y75086D01*
G01X113082Y75085D01*
G01X113106Y75081D01*
G01X113112Y75080D01*
G01X113118Y75078D01*
G01X113127Y75075D01*
G01X113136Y75072D01*
G01X113140Y75070D01*
G01X113147Y75066D01*
G01X113154Y75061D01*
G01X113172Y75048D01*
G01X113177Y75045D01*
G01X113182Y75038D01*
G01X113186Y75034D01*
G01X113190Y75032D01*
G01X113192Y75029D01*
G01X113195Y75025D01*
G01X113202Y75013D01*
G01X113209Y75003D01*
G01X113211Y75000D01*
G01X113213Y74996D01*
G01X113217Y74986D01*
G01X113221Y74978D01*
G01X113224Y74971D01*
G01X113227Y74959D01*
G01X113229Y74952D01*
G01X113232Y74946D01*
G01X113233Y74942D01*
G01X113234Y74938D01*
G01X113236Y74929D01*
G01X113238Y74919D01*
G01X113239Y74914D01*
G01X113240Y74905D01*
G01Y74899D01*
G01X113242Y74891D01*
G01Y74882D01*
G01X113243Y74877D01*
G01X113245Y74869D01*
G01Y74860D01*
G01X113246Y74854D01*
G01X113248Y74847D01*
G01Y74838D01*
G01X113249Y74832D01*
G01X113251Y74824D01*
G01Y74816D01*
G01X113252Y74810D01*
G01X113254Y74802D01*
G01X113255Y74796D01*
G01Y74788D01*
G01X113257Y74778D01*
G01X113259Y74760D01*
G01X113260Y74747D01*
G01X113262Y74737D01*
G01Y74735D01*
G01X113264Y74732D01*
G01X113265Y74731D01*
G01X113267Y74730D01*
G01X113271Y74729D01*
G01X113282D01*
G01X113286Y74730D01*
G01X113315Y74734D01*
G01X113323Y74736D01*
G01X113330Y74738D01*
G01X113338Y74742D01*
G01X113342Y74743D01*
G01X113346Y74745D01*
G01X113352Y74749D01*
G01X113361Y74752D01*
G01X113364Y74754D01*
G01X113367Y74756D01*
G01X113370Y74761D01*
G01X113374Y74765D01*
G01X113378Y74767D01*
G01X113380Y74769D01*
G01X113384Y74774D01*
G01X113386Y74778D01*
G01X113389Y74782D01*
G01X113392Y74787D01*
G01X113394Y74793D01*
G01X113399Y74806D01*
G01X113400Y74811D01*
G01X113401Y74817D01*
G01X113402Y74826D01*
G01X113403Y74835D01*
G01Y74842D01*
G01Y74844D01*
G01X113402Y74847D01*
G01X113401Y74853D01*
G01Y74873D01*
G01X113400Y74876D01*
G01X113398Y74887D01*
G01Y74896D01*
G01X113397Y74900D01*
G01X113395Y74908D01*
G01X113389Y74928D01*
G01Y74931D01*
G01X113383Y74946D01*
G01X113377Y74962D01*
G01X113374Y74970D01*
G01X113372Y74972D01*
G01X113367Y74980D01*
G01X113363Y74989D01*
G01X113360Y74994D01*
G01X113349Y75010D01*
G01X113344Y75016D01*
G01X113341Y75020D01*
G01X113339Y75022D01*
G01X113338Y75024D01*
G01Y75026D01*
G01X113337Y75027D01*
G01X113338D01*
G01Y75028D01*
G01X113339D01*
G01X113340D01*
G01X113342Y75029D01*
G01X113348Y75030D01*
G01X113356D01*
G01X113382Y75031D01*
G01X113418Y75030D01*
G01X113427Y75029D01*
G01X113430Y75028D01*
G01X113431Y75027D01*
G01X113438Y75019D01*
G01X113440Y75017D01*
G01X113442Y75013D01*
G01X113447Y75002D01*
G01X113451Y74995D01*
G01X113454Y74988D01*
G01X113457Y74982D01*
G01X113460Y74972D01*
G01X113464Y74963D01*
G01X113466Y74955D01*
G01X113468Y74946D01*
G01X113470Y74938D01*
G01X113473Y74933D01*
G01X113475Y74926D01*
G01X113476Y74921D01*
G01X113478Y74909D01*
G01X113479Y74901D01*
G01X113481Y74889D01*
G01X113482Y74872D01*
G01Y74869D01*
G01X113483Y74866D01*
G01Y74863D01*
G01X113484Y74855D01*
G01Y74836D01*
G01X113483Y74818D01*
G01X113482Y74809D01*
G01X113478Y74776D01*
G01X113476Y74766D01*
G01X113473Y74758D01*
G01X113470Y74747D01*
G01X113467Y74738D01*
G01X113460Y74723D01*
G01X113459Y74719D01*
G01X113455Y74712D01*
G01X113449Y74703D01*
G01X113440Y74691D01*
G01X113438Y74688D01*
G01X113435Y74685D01*
G01X113431Y74682D01*
G01X113427Y74678D01*
G01X113424Y74674D01*
G01X113422Y74672D01*
G01X113418Y74668D01*
G01X113406Y74661D01*
G01X113396Y74654D01*
G01X113389Y74650D01*
G01X113385Y74649D01*
G01X113369Y74642D01*
G01X113356Y74638D01*
G01X113351Y74636D01*
G01X113337Y74634D01*
G01X113330Y74632D01*
G01X113326Y74631D01*
G01X113322D01*
G01X113309Y74630D01*
G01X113302Y74629D01*
G01X113299D01*
G01X113295Y74628D01*
G01X113099Y74629D01*
G01X112903Y74631D01*
G01X112904Y74733D01*
G01X112939Y74732D01*
G01X112971Y74733D01*
G01X112977D01*
G01X112979D01*
G01X112980Y74734D01*
G01X112981Y74736D01*
G01X112980Y74737D01*
G01X112979Y74740D01*
G01X112974Y74744D01*
G01X112972Y74746D01*
G01X112967Y74748D01*
G01X112965Y74749D01*
G01X112963Y74751D01*
G01X112961Y74753D01*
G01X112959Y74755D01*
G01X112957Y74757D01*
G01X112955Y74759D01*
G01X112950Y74762D01*
G01X112947Y74764D01*
G01X112942Y74768D01*
G01X112939Y74772D01*
G01X112926Y74788D01*
G01X112921Y74796D01*
G01X112919Y74799D01*
G01X112914Y74809D01*
G01X112910Y74815D01*
G01X112907Y74821D01*
G01X112905Y74826D01*
G01X112902Y74833D01*
G01X112898Y74846D01*
G01X112893Y74863D01*
G01Y74868D01*
G01X112892Y74880D01*
G01Y74888D01*
G01X112890Y74893D01*
G01Y74900D01*
G01X112889Y74908D01*
G01X112629D01*
G01X112620Y73985D01*
G01X112897D01*
G01X112898Y74087D01*
G01X113073Y74085D01*
G01X113233D01*
G01X113251D01*
G01X113253D01*
G01X113258Y74086D01*
G01X113267Y74087D01*
G01X113272D01*
G01X113281Y74090D01*
G01X113298Y74092D01*
G01X113304Y74093D01*
G01X113308Y74094D01*
G01X113315Y74097D01*
G01X113333Y74105D01*
G01X113352Y74116D01*
G01X113355Y74118D01*
G01X113358Y74121D01*
G01X113363Y74125D01*
G01X113366Y74130D01*
G01X113371Y74133D01*
G01X113373Y74135D01*
G01X113375Y74138D01*
G01X113377Y74141D01*
G01X113382Y74152D01*
G01X113386Y74158D01*
G01X113388Y74161D01*
G01X113389Y74167D01*
G01X113391Y74176D01*
G01X113393Y74183D01*
G01X113394Y74188D01*
G01X113395Y74195D01*
G01Y74203D01*
G01Y74212D01*
G01Y74219D01*
G01X113394Y74224D01*
G01X113391Y74240D01*
G01X113389Y74247D01*
G01X113388Y74252D01*
G01X113383Y74267D01*
G01X113382Y74272D01*
G01X113380Y74276D01*
G01X113377Y74279D01*
G01X113373Y74286D01*
G01X113370Y74291D01*
G01X113368Y74297D01*
G01X113367Y74299D01*
G01X113365Y74301D01*
G01X113361Y74304D01*
G01X113357Y74308D01*
G01X113352Y74314D01*
G01X113347Y74318D01*
G01X113341Y74323D01*
G01X113337Y74326D01*
G01X113333Y74330D01*
G01X113324Y74334D01*
G01X113319Y74338D01*
G01X113317Y74340D01*
G01X113312Y74342D01*
G01X113307Y74344D01*
G01X113297Y74348D01*
G01X113290Y74351D01*
G01X113284Y74353D01*
G01X113279Y74354D01*
G01X113269Y74356D01*
G01X113261Y74358D01*
G01X113258Y74359D01*
G01X113254D01*
G01X113077Y74362D01*
G01X112900Y74364D01*
G01X112901Y74465D01*
G01X113184Y74463D01*
G01X113468Y74460D01*
G01X113467Y74359D01*
G01X113394D01*
G01X113387Y74358D01*
G01X113386Y74357D01*
G01X113384Y74356D01*
G01X113383Y74355D01*
G01X113384Y74353D01*
G01X113386Y74351D01*
G01X113388Y74349D01*
G01X113393Y74345D01*
G01X113395Y74343D01*
G01X113401Y74338D01*
G01X113406Y74334D01*
G01X113413Y74329D01*
G01X113417Y74324D01*
G01X113422Y74318D01*
G01X113429Y74312D01*
G01X113433Y74309D01*
G01X113445Y74292D01*
G01X113448Y74287D01*
G01X113453Y74276D01*
G01X113457Y74270D01*
G01X113463Y74258D01*
G01X113465Y74252D01*
G01X113469Y74239D01*
G01X113473Y74223D01*
G01X113475Y74218D01*
G01Y74209D01*
G01X113476Y74203D01*
G01X113477Y74198D01*
G01X113478Y74191D01*
G01Y74177D01*
G01X113477Y74161D01*
G01Y74156D01*
G01X113476Y74153D01*
G01X113475Y74148D01*
G01X113474Y74139D01*
G01X113473Y74133D01*
G01X113471Y74124D01*
G01X113468Y74107D01*
G01X113466Y74103D01*
G01X113463Y74094D01*
G01X113455Y74076D01*
G01X113450Y74068D01*
G01X113446Y74059D01*
G01X113442Y74055D01*
G01X113438Y74052D01*
G01X113436Y74050D01*
G01X113435Y74048D01*
G01X113433Y74043D01*
G01X113431Y74042D01*
G01X113429Y74040D01*
G01X113425Y74038D01*
G01X113421Y74035D01*
G01X113419Y74033D01*
G01X113416Y74028D01*
G01X113411Y74025D01*
G01X113397Y74015D01*
G01X113390Y74011D01*
G01X113378Y74006D01*
G01X113371Y74002D01*
G01X113364Y73999D01*
G01X113360Y73998D01*
G01X113353Y73996D01*
G01X113344Y73993D01*
G01X113338Y73991D01*
G01X113333Y73990D01*
G01X113323Y73988D01*
G01X113315Y73987D01*
G01X113311Y73986D01*
G01X113306Y73985D01*
G01X113293D01*
G01X113286Y73984D01*
G01X113283Y73983D01*
G01X113279D01*
G01X113088D01*
G01X112897Y73985D01*
G01X112620D01*
G01Y73908D01*
G01X114003Y73895D01*
G01X114041Y77961D01*
G37*
G36*
G01X113321Y77763D02*
G01X113318Y77763D01*
G01Y77761D01*
G01X113317Y77755D01*
G01X113316Y77704D01*
G01Y77653D01*
G01X113317Y77644D01*
G01Y77642D01*
G01X113318Y77637D01*
G01X113319Y77627D01*
G01X113320Y77622D01*
G01X113322Y77613D01*
G01X113324Y77596D01*
G01X113325Y77591D01*
G01X113327Y77585D01*
G01X113331Y77576D01*
G01X113337Y77558D01*
G01X113338Y77555D01*
G01X113341Y77550D01*
G01X113344Y77545D01*
G01X113346Y77541D01*
G01X113347Y77539D01*
G01X113349Y77537D01*
G01X113352Y77534D01*
G01X113355Y77532D01*
G01X113357Y77530D01*
G01X113358Y77527D01*
G01X113361Y77522D01*
G01X113363Y77520D01*
G01X113365Y77518D01*
G01X113371Y77514D01*
G01X113374Y77512D01*
G01X113376Y77510D01*
G01X113378Y77508D01*
G01X113382Y77504D01*
G01X113385Y77501D01*
G01X113396Y77496D01*
G01X113399Y77495D01*
G01X113404Y77491D01*
G01X113410Y77489D01*
G01X113434Y77481D01*
G01X113439D01*
G01X113450Y77480D01*
G01X113456Y77479D01*
G01X113461Y77478D01*
G01X113468Y77477D01*
G01X113478D01*
G01X113485Y77478D01*
G01X113489Y77479D01*
G01X113493D01*
G01X113504Y77480D01*
G01X113511D01*
G01X113519Y77483D01*
G01X113534Y77485D01*
G01X113539Y77486D01*
G01X113542Y77487D01*
G01X113546Y77489D01*
G01X113552Y77493D01*
G01X113561Y77496D01*
G01X113567Y77499D01*
G01X113569Y77502D01*
G01X113573Y77505D01*
G01X113580Y77508D01*
G01X113583Y77511D01*
G01X113588Y77515D01*
G01X113591Y77518D01*
G01X113594Y77522D01*
G01X113601Y77531D01*
G01X113608Y77542D01*
G01X113611Y77548D01*
G01X113616Y77559D01*
G01X113622Y77571D01*
G01X113623Y77575D01*
G01X113624Y77579D01*
G01X113626Y77588D01*
G01X113628Y77595D01*
G01X113630Y77603D01*
G01Y77614D01*
G01X113631Y77620D01*
G01X113632Y77624D01*
G01X113633Y77631D01*
G01X113634Y77695D01*
G01X113635Y77762D01*
G01X113478Y77763D01*
G37*
G36*
G01X113089Y77216D02*
G01X113080Y77215D01*
G01X113071Y77214D01*
G01X113066D01*
G01X113061Y77213D01*
G01X113056Y77211D01*
G01X113052Y77210D01*
G01X113045Y77207D01*
G01X113042Y77205D01*
G01X113034Y77201D01*
G01X113025Y77196D01*
G01X113023Y77194D01*
G01X113020Y77192D01*
G01X113019Y77190D01*
G01X113008Y77175D01*
G01X113005Y77170D01*
G01X113002Y77162D01*
G01X112999Y77155D01*
G01X112997Y77151D01*
G01X112996Y77148D01*
G01Y77145D01*
G01X112995Y77139D01*
G01X112994Y77136D01*
G01Y77135D01*
G01X112993Y77134D01*
G01Y77128D01*
G01X112992Y77113D01*
G01X112993Y77099D01*
G01Y77092D01*
G01X112994Y77084D01*
G01X112995Y77082D01*
G01X113000Y77066D01*
G01X113005Y77053D01*
G01X113006Y77049D01*
G01X113009Y77043D01*
G01X113012Y77037D01*
G01X113017Y77030D01*
G01X113019Y77028D01*
G01X113022Y77024D01*
G01X113025Y77019D01*
G01X113028Y77013D01*
G01X113031Y77011D01*
G01X113033Y77008D01*
G01X113039Y77005D01*
G01X113042Y77003D01*
G01X113044Y77001D01*
G01X113046Y76999D01*
G01X113047Y76996D01*
G01X113049Y76994D01*
G01X113052Y76992D01*
G01X113058Y76989D01*
G01X113063Y76985D01*
G01X113066Y76983D01*
G01X113068Y76982D01*
G01X113072Y76979D01*
G01X113078Y76977D01*
G01X113093Y76971D01*
G01X113107Y76966D01*
G01X113112Y76965D01*
G01X113121Y76964D01*
G01X113127D01*
G01X113130Y76963D01*
G01X113131D01*
G01X113139Y76961D01*
G01X113171D01*
G01X113207Y76960D01*
G01X113206Y76972D01*
G01X113203Y76990D01*
G01X113202Y76995D01*
G01X113200Y77013D01*
G01X113197Y77039D01*
G01X113194Y77061D01*
G01X113191Y77093D01*
G01X113189Y77102D01*
G01X113186Y77112D01*
G01X113184Y77127D01*
G01X113182Y77135D01*
G01X113180Y77144D01*
G01X113174Y77160D01*
G01X113171Y77167D01*
G01X113170Y77170D01*
G01X113165Y77177D01*
G01X113160Y77187D01*
G01X113156Y77192D01*
G01X113154Y77193D01*
G01X113143Y77201D01*
G01X113139Y77204D01*
G01X113136Y77206D01*
G01X113132Y77207D01*
G01X113127Y77209D01*
G01X113113Y77214D01*
G01X113110Y77215D01*
G01X113104D01*
G01X113095Y77216D01*
G37*
G36*
G01X113066Y74985D02*
G01X113060Y74985D01*
G01X113051Y74983D01*
G01X113036Y74980D01*
G01X113032Y74979D01*
G01X113028Y74978D01*
G01X113025Y74977D01*
G01X113013Y74969D01*
G01X113009Y74967D01*
G01X113006Y74964D01*
G01X113003Y74961D01*
G01X113002Y74959D01*
G01X112997Y74955D01*
G01X112993Y74951D01*
G01X112991Y74949D01*
G01X112989Y74947D01*
G01X112987Y74944D01*
G01X112983Y74935D01*
G01X112978Y74924D01*
G01X112977Y74921D01*
G01X112976Y74918D01*
G01Y74915D01*
G01X112975Y74908D01*
G01X112974Y74906D01*
G01Y74905D01*
G01X112973Y74904D01*
G01Y74903D01*
G01X112972Y74897D01*
G01Y74875D01*
G01X112973Y74865D01*
G01X112974Y74861D01*
G01X112978Y74837D01*
G01X112981Y74827D01*
G01X112984Y74819D01*
G01X112987Y74813D01*
G01X112995Y74800D01*
G01X113000Y74793D01*
G01X113001Y74791D01*
G01X113006Y74785D01*
G01X113010Y74780D01*
G01X113014Y74776D01*
G01X113017Y74773D01*
G01X113024Y74767D01*
G01X113033Y74760D01*
G01X113044Y74753D01*
G01X113049Y74750D01*
G01X113061Y74745D01*
G01X113073Y74739D01*
G01X113076Y74738D01*
G01X113081Y74736D01*
G01X113089Y74735D01*
G01X113097Y74733D01*
G01X113101Y74732D01*
G01X113109Y74731D01*
G01X113146Y74730D01*
G01X113164D01*
G01X113176Y74731D01*
G01X113183Y74733D01*
G01X113185Y74735D01*
G01Y74736D01*
G01X113184Y74741D01*
G01Y74751D01*
G01X113183Y74758D01*
G01X113181Y74765D01*
G01Y74775D01*
G01X113180Y74780D01*
G01X113178Y74788D01*
G01Y74794D01*
G01X113177Y74802D01*
G01X113176Y74813D01*
G01X113174Y74830D01*
G01X113172Y74843D01*
G01X113170Y74857D01*
G01X113167Y74882D01*
G01X113165Y74892D01*
G01X113163Y74901D01*
G01X113157Y74921D01*
G01X113154Y74929D01*
G01X113152Y74933D01*
G01X113149Y74938D01*
G01X113147Y74943D01*
G01X113145Y74947D01*
G01X113144Y74950D01*
G01X113142Y74951D01*
G01X113137Y74955D01*
G01X113134Y74959D01*
G01X113130Y74964D01*
G01X113128Y74966D01*
G01X113126Y74968D01*
G01X113116Y74973D01*
G01X113110Y74977D01*
G01X113107Y74978D01*
G01X113102Y74980D01*
G01X113092Y74981D01*
G01X113085Y74983D01*
G01X113080Y74985D01*
G01X113074D01*
G37*
G04 //text: Hotend Fan*
G36*
G01X101884Y78158D02*
G01X101878Y77432D01*
G01X102160D01*
G01X102161Y77539D01*
G01X102524Y77536D01*
G01X102528Y77944D01*
G01X102165Y77948D01*
G01X102166Y78055D01*
G01X102569Y78051D01*
G01X102973Y78047D01*
G01X102972Y77940D01*
G01X102622Y77943D01*
G01X102618Y77535D01*
G01X102969Y77532D01*
G01X102968Y77425D01*
G01X102160Y77432D01*
G01X101878D01*
G01X101874Y76981D01*
G01X102140D01*
G01Y76991D01*
G01X102141Y77004D01*
G01Y77008D01*
G01X102142Y77009D01*
G01X102143Y77010D01*
G01Y77012D01*
G01Y77016D01*
G01X102144Y77030D01*
G01X102145Y77034D01*
G01X102149Y77058D01*
G01X102150Y77063D01*
G01X102151Y77071D01*
G01X102154Y77080D01*
G01X102156Y77091D01*
G01X102159Y77098D01*
G01X102164Y77109D01*
G01X102169Y77123D01*
G01X102170Y77127D01*
G01X102173Y77131D01*
G01X102175Y77135D01*
G01X102185Y77151D01*
G01X102190Y77158D01*
G01X102195Y77165D01*
G01X102196Y77166D01*
G01X102197Y77168D01*
G01X102199Y77173D01*
G01X102202Y77177D01*
G01X102205Y77179D01*
G01X102209Y77182D01*
G01X102215Y77189D01*
G01X102219Y77193D01*
G01X102226Y77199D01*
G01X102231Y77205D01*
G01X102235Y77209D01*
G01X102240Y77213D01*
G01X102251Y77221D01*
G01X102261Y77228D01*
G01X102267Y77232D01*
G01X102281Y77240D01*
G01X102287Y77244D01*
G01X102299Y77249D01*
G01X102308Y77253D01*
G01X102315Y77255D01*
G01X102326Y77258D01*
G01X102334Y77261D01*
G01X102340Y77263D01*
G01X102344Y77265D01*
G01X102348Y77266D01*
G01X102358Y77267D01*
G01X102365Y77269D01*
G01X102369Y77270D01*
G01X102374Y77271D01*
G01X102385D01*
G01X102391Y77272D01*
G01X102394Y77273D01*
G01X102396D01*
G01X102403Y77274D01*
G01X102436D01*
G01X102470Y77273D01*
G01X102476Y77272D01*
G01X102478D01*
G01X102483Y77271D01*
G01X102490Y77270D01*
G01X102498Y77269D01*
G01X102504Y77268D01*
G01X102540Y77261D01*
G01X102556Y77257D01*
G01X102564Y77254D01*
G01X102570Y77252D01*
G01X102580Y77247D01*
G01X102590Y77244D01*
G01X102595Y77241D01*
G01X102603Y77237D01*
G01X102612Y77232D01*
G01X102624Y77225D01*
G01X102630Y77221D01*
G01X102633Y77219D01*
G01X102636Y77216D01*
G01X102639Y77214D01*
G01X102647Y77209D01*
G01X102650Y77207D01*
G01X102652Y77205D01*
G01X102654Y77202D01*
G01X102658Y77198D01*
G01X102664Y77192D01*
G01X102668Y77188D01*
G01X102674Y77181D01*
G01X102681Y77176D01*
G01X102685Y77172D01*
G01X102698Y77153D01*
G01X102704Y77143D01*
G01X102713Y77129D01*
G01X102716Y77123D01*
G01X102721Y77111D01*
G01X102726Y77099D01*
G01X102728Y77092D01*
G01X102731Y77080D01*
G01X102735Y77072D01*
G01X102737Y77066D01*
G01X102738Y77061D01*
G01X102739Y77050D01*
G01X102741Y77042D01*
G01X102742Y77038D01*
G01X102743Y77033D01*
G01X102744Y77020D01*
G01Y77013D01*
G01X102745Y77010D01*
G01X102746Y77008D01*
G01Y77000D01*
G01Y76984D01*
G01Y76963D01*
G01X102744Y76948D01*
G01X102741Y76922D01*
G01X102737Y76903D01*
G01X102735Y76896D01*
G01X102732Y76885D01*
G01X102730Y76874D01*
G01X102727Y76866D01*
G01X102722Y76855D01*
G01X102719Y76847D01*
G01X102716Y76838D01*
G01X102714Y76835D01*
G01X102709Y76827D01*
G01X102705Y76819D01*
G01X102700Y76812D01*
G01X102696Y76807D01*
G01X102680Y76786D01*
G01X102671Y76775D01*
G01X102667Y76772D01*
G01X102662Y76770D01*
G01X102658Y76767D01*
G01X102655Y76762D01*
G01X102651Y76758D01*
G01X102634Y76746D01*
G01X102629Y76743D01*
G01X102621Y76739D01*
G01X102616Y76736D01*
G01X102606Y76729D01*
G01X102601Y76727D01*
G01X102595Y76725D01*
G01X102589Y76723D01*
G01X102585Y76721D01*
G01X102582Y76719D01*
G01X102577Y76718D01*
G01X102569Y76716D01*
G01X102562Y76714D01*
G01X102556Y76711D01*
G01X102551Y76709D01*
G01X102547Y76708D01*
G01X102538Y76706D01*
G01X102531Y76705D01*
G01X102528Y76704D01*
G01X102523Y76703D01*
G01X102513Y76702D01*
G01X102508D01*
G01X102502Y76700D01*
G01X102495D01*
G01X102486Y76699D01*
G01X102474D01*
G01X102469D01*
G01X102466Y76698D01*
G01X102463Y76697D01*
G01X102457D01*
G01X102448D01*
G01X102438D01*
G01X102434Y76698D01*
G01X102431D01*
G01X102428Y76699D01*
G01X102421Y76700D01*
G01X102404D01*
G01X102396Y76701D01*
G01X102372Y76705D01*
G01X102367Y76706D01*
G01X102359Y76708D01*
G01X102350Y76711D01*
G01X102337Y76713D01*
G01X102333Y76715D01*
G01X102329Y76716D01*
G01X102319Y76720D01*
G01X102309Y76723D01*
G01X102304Y76726D01*
G01X102300Y76728D01*
G01X102294Y76731D01*
G01X102281Y76737D01*
G01X102278Y76739D01*
G01X102255Y76754D01*
G01X102248Y76758D01*
G01X102234Y76768D01*
G01X102230Y76773D01*
G01X102225Y76780D01*
G01X102218Y76785D01*
G01X102214Y76789D01*
G01X102209Y76796D01*
G01X102202Y76801D01*
G01X102198Y76806D01*
G01X102186Y76822D01*
G01X102183Y76827D01*
G01X102179Y76835D01*
G01X102176Y76840D01*
G01X102173Y76844D01*
G01X102171Y76846D01*
G01X102168Y76853D01*
G01X102161Y76872D01*
G01X102155Y76887D01*
G01X102150Y76902D01*
G01X102149Y76909D01*
G01X102147Y76923D01*
G01X102145Y76932D01*
G01X102144Y76938D01*
G01X102143Y76944D01*
G01Y76964D01*
G01X102142Y76968D01*
G01X102141Y76971D01*
G01Y76976D01*
G01X102140Y76981D01*
G01X101874D01*
G01X101868Y76335D01*
G01X102137D01*
G01Y76382D01*
G01X102138Y76404D01*
G01X102139Y76412D01*
G01X102141Y76419D01*
G01X102144Y76427D01*
G01X102146Y76433D01*
G01X102149Y76440D01*
G01X102158Y76459D01*
G01X102161Y76464D01*
G01X102167Y76474D01*
G01X102171Y76478D01*
G01X102178Y76483D01*
G01X102182Y76488D01*
G01X102186Y76492D01*
G01X102188Y76495D01*
G01X102191Y76496D01*
G01X102197Y76500D01*
G01X102201Y76503D01*
G01X102208Y76507D01*
G01X102210Y76508D01*
G01X102220Y76511D01*
G01X102229Y76515D01*
G01X102237Y76518D01*
G01X102248Y76520D01*
G01X102255Y76522D01*
G01X102260Y76523D01*
G01X102273D01*
G01X102280Y76524D01*
G01X102283Y76525D01*
G01X102284D01*
G01X102287D01*
G01X102466D01*
G01X102644Y76523D01*
G01X102645Y76620D01*
G01X102730D01*
G01X102729Y76522D01*
G01X102868Y76521D01*
G01X102872Y76504D01*
G01X102875Y76495D01*
G01X102893Y76435D01*
G01X102895Y76427D01*
G01X102896Y76417D01*
G01X102728Y76418D01*
G01X102727Y76273D01*
G01X102642D01*
G01X102643Y76419D01*
G01X102483Y76421D01*
G01X102308D01*
G01X102295Y76419D01*
G01X102285Y76418D01*
G01X102278Y76416D01*
G01X102259Y76410D01*
G01X102256Y76408D01*
G01X102250Y76405D01*
G01X102248Y76404D01*
G01X102244Y76400D01*
G01X102238Y76395D01*
G01X102236Y76393D01*
G01X102233Y76391D01*
G01X102231Y76387D01*
G01X102223Y76371D01*
G01X102222Y76368D01*
G01Y76365D01*
G01X102221Y76358D01*
G01Y76353D01*
G01X102219Y76348D01*
G01Y76343D01*
G01X102220Y76341D01*
G01X102221Y76332D01*
G01Y76323D01*
G01X102222Y76319D01*
G01X102223Y76314D01*
G01X102224Y76310D01*
G01X102227Y76301D01*
G01X102232Y76292D01*
G01X102234Y76287D01*
G01X102237Y76277D01*
G01X102196Y76278D01*
G01X102179D01*
G01X102165Y76279D01*
G01X102160Y76280D01*
G01X102157Y76281D01*
G01X102154Y76282D01*
G01X102153Y76283D01*
G01X102150Y76288D01*
G01X102147Y76294D01*
G01X102145Y76298D01*
G01X102144Y76302D01*
G01X102143Y76306D01*
G01X102141Y76315D01*
G01X102139Y76322D01*
G01X102138Y76325D01*
G01Y76327D01*
G01X102137Y76335D01*
G01X101868D01*
G01X101864Y75926D01*
G01X102130D01*
G01Y75939D01*
G01X102131Y75953D01*
G01Y75957D01*
G01X102132Y75959D01*
G01X102133Y75960D01*
G01Y75961D01*
G01Y75967D01*
G01X102134Y75971D01*
G01Y75982D01*
G01X102135Y75985D01*
G01X102137Y75994D01*
G01X102140Y76010D01*
G01X102142Y76018D01*
G01X102144Y76027D01*
G01X102147Y76037D01*
G01X102151Y76046D01*
G01X102157Y76062D01*
G01X102159Y76066D01*
G01X102162Y76072D01*
G01X102165Y76079D01*
G01X102174Y76091D01*
G01X102180Y76101D01*
G01X102185Y76107D01*
G01X102190Y76113D01*
G01X102195Y76119D01*
G01X102199Y76123D01*
G01X102206Y76129D01*
G01X102212Y76135D01*
G01X102216Y76140D01*
G01X102221Y76143D01*
G01X102231Y76151D01*
G01X102239Y76156D01*
G01X102242Y76158D01*
G01X102249Y76162D01*
G01X102254Y76165D01*
G01X102262Y76171D01*
G01X102266Y76173D01*
G01X102271Y76175D01*
G01X102275Y76176D01*
G01X102286Y76180D01*
G01X102294Y76184D01*
G01X102302Y76186D01*
G01X102314Y76189D01*
G01X102322Y76193D01*
G01X102328Y76195D01*
G01X102333Y76196D01*
G01X102344Y76197D01*
G01X102352Y76199D01*
G01X102356Y76200D01*
G01X102361Y76201D01*
G01X102374Y76202D01*
G01X102381D01*
G01X102385Y76203D01*
G01X102394Y76204D01*
G01X102433D01*
G01X102464Y76203D01*
G01X102471Y76202D01*
G01X102494Y76198D01*
G01X102499Y76197D01*
G01X102507Y76196D01*
G01X102517Y76193D01*
G01X102534Y76190D01*
G01X102539Y76189D01*
G01X102547Y76185D01*
G01X102555Y76183D01*
G01X102563Y76181D01*
G01X102566Y76180D01*
G01X102569Y76178D01*
G01X102573Y76176D01*
G01X102579Y76173D01*
G01X102589Y76169D01*
G01X102595Y76165D01*
G01X102601Y76162D01*
G01X102617Y76152D01*
G01X102624Y76148D01*
G01X102626Y76146D01*
G01X102632Y76141D01*
G01X102641Y76135D01*
G01X102643Y76133D01*
G01X102645Y76131D01*
G01X102649Y76127D01*
G01X102653Y76123D01*
G01X102660Y76117D01*
G01X102665Y76111D01*
G01X102669Y76106D01*
G01X102673Y76103D01*
G01X102677Y76100D01*
G01X102680Y76097D01*
G01X102683Y76093D01*
G01X102690Y76083D01*
G01X102698Y76070D01*
G01X102703Y76064D01*
G01X102704Y76062D01*
G01X102707Y76058D01*
G01X102712Y76047D01*
G01X102716Y76038D01*
G01X102719Y76033D01*
G01X102722Y76023D01*
G01X102726Y76013D01*
G01X102727Y76009D01*
G01X102728Y76005D01*
G01X102730Y75996D01*
G01X102731Y75988D01*
G01X102732Y75986D01*
G01X102733Y75981D01*
G01X102734Y75971D01*
G01Y75965D01*
G01X102736Y75961D01*
G01Y75952D01*
G01Y75937D01*
G01Y75920D01*
G01X102735Y75915D01*
G01Y75911D01*
G01X102733Y75906D01*
G01Y75900D01*
G01X102732Y75891D01*
G01X102731Y75885D01*
G01X102728Y75869D01*
G01X102726Y75862D01*
G01X102723Y75850D01*
G01X102720Y75839D01*
G01X102719Y75836D01*
G01X102718Y75833D01*
G01X102715Y75829D01*
G01X102712Y75823D01*
G01X102706Y75810D01*
G01X102701Y75802D01*
G01X102699Y75797D01*
G01X102697Y75792D01*
G01X102694Y75788D01*
G01X102689Y75785D01*
G01X102687Y75783D01*
G01X102686Y75781D01*
G01X102684Y75776D01*
G01X102683Y75774D01*
G01X102678Y75770D01*
G01X102674Y75767D01*
G01X102668Y75760D01*
G01X102664Y75756D01*
G01X102660Y75753D01*
G01X102653Y75747D01*
G01X102647Y75743D01*
G01X102635Y75735D01*
G01X102624Y75728D01*
G01X102617Y75724D01*
G01X102607Y75720D01*
G01X102598Y75716D01*
G01X102592Y75713D01*
G01X102580Y75710D01*
G01X102572Y75708D01*
G01X102566Y75705D01*
G01X102562Y75704D01*
G01X102558Y75703D01*
G01X102548Y75701D01*
G01X102541Y75700D01*
G01X102538Y75699D01*
G01X102533Y75698D01*
G01X102524Y75697D01*
G01X102518D01*
G01X102514Y75696D01*
G01X102507Y75695D01*
G01X102459D01*
G01X102407D01*
G01X102410Y76097D01*
G01X102399D01*
G01X102388D01*
G01X102384Y76096D01*
G01X102354Y76092D01*
G01X102347Y76090D01*
G01X102339Y76088D01*
G01X102319Y76082D01*
G01X102311Y76079D01*
G01X102308Y76077D01*
G01X102300Y76072D01*
G01X102292Y76068D01*
G01X102285Y76064D01*
G01X102275Y76056D01*
G01X102263Y76048D01*
G01X102259Y76044D01*
G01X102256Y76039D01*
G01X102250Y76033D01*
G01X102246Y76028D01*
G01X102243Y76023D01*
G01X102233Y76007D01*
G01X102230Y76001D01*
G01X102227Y75992D01*
G01X102223Y75982D01*
G01X102222Y75978D01*
G01X102221Y75974D01*
G01X102219Y75965D01*
G01X102217Y75957D01*
G01X102216Y75953D01*
G01X102215Y75945D01*
G01X102214Y75921D01*
G01Y75913D01*
G01X102215Y75894D01*
G01Y75888D01*
G01X102216Y75887D01*
G01X102217Y75881D01*
G01Y75872D01*
G01X102218Y75866D01*
G01X102220Y75858D01*
G01X102223Y75840D01*
G01X102224Y75835D01*
G01X102226Y75832D01*
G01X102233Y75813D01*
G01X102236Y75805D01*
G01X102238Y75802D01*
G01X102240Y75798D01*
G01X102243Y75792D01*
G01X102247Y75782D01*
G01X102253Y75770D01*
G01X102258Y75762D01*
G01X102265Y75751D01*
G01X102269Y75747D01*
G01X102271Y75742D01*
G01X102274Y75735D01*
G01X102229Y75736D01*
G01X102201Y75737D01*
G01X102189Y75738D01*
G01X102185Y75739D01*
G01X102182Y75740D01*
G01X102180Y75741D01*
G01X102170Y75756D01*
G01X102159Y75778D01*
G01X102154Y75792D01*
G01X102149Y75808D01*
G01X102142Y75829D01*
G01X102140Y75841D01*
G01X102138Y75849D01*
G01X102137Y75852D01*
G01X102136Y75857D01*
G01Y75866D01*
G01X102135Y75872D01*
G01X102134Y75875D01*
G01X102133Y75879D01*
G01Y75885D01*
G01Y75895D01*
G01Y75909D01*
G01X102132Y75913D01*
G01X102131Y75917D01*
G01Y75919D01*
G01X102130Y75926D01*
G01X101864D01*
G01X101856Y75072D01*
G01X102138D01*
G01X102139Y75175D01*
G01X102318Y75174D01*
G01X102465Y75173D01*
G01X102503Y75174D01*
G01X102509D01*
G01X102531Y75177D01*
G01X102540Y75179D01*
G01X102546Y75180D01*
G01X102551Y75181D01*
G01X102571Y75188D01*
G01X102579Y75191D01*
G01X102586Y75194D01*
G01X102598Y75202D01*
G01X102602Y75204D01*
G01X102605Y75207D01*
G01X102608Y75209D01*
G01X102611Y75214D01*
G01X102615Y75218D01*
G01X102619Y75221D01*
G01X102626Y75227D01*
G01X102628Y75231D01*
G01X102631Y75237D01*
G01X102636Y75245D01*
G01X102638Y75249D01*
G01X102640Y75256D01*
G01X102643Y75267D01*
G01X102645Y75276D01*
G01X102646Y75282D01*
G01Y75289D01*
G01Y75300D01*
G01X102645Y75315D01*
G01X102644Y75322D01*
G01X102642Y75332D01*
G01X102640Y75341D01*
G01X102639Y75347D01*
G01X102637Y75351D01*
G01X102635Y75355D01*
G01X102633Y75359D01*
G01X102630Y75365D01*
G01X102626Y75375D01*
G01X102624Y75379D01*
G01X102621Y75383D01*
G01X102615Y75391D01*
G01X102607Y75402D01*
G01X102603Y75407D01*
G01X102598Y75410D01*
G01X102588Y75418D01*
G01X102580Y75424D01*
G01X102576Y75426D01*
G01X102567Y75431D01*
G01X102559Y75436D01*
G01X102554Y75439D01*
G01X102544Y75442D01*
G01X102536Y75445D01*
G01X102530Y75447D01*
G01X102525Y75448D01*
G01X102514Y75450D01*
G01X102506Y75452D01*
G01X102503Y75453D01*
G01X102499D01*
G01X102320Y75456D01*
G01X102142Y75458D01*
G01X102143Y75561D01*
G01X102432Y75559D01*
G01X102720Y75556D01*
G01X102719Y75452D01*
G01X102678Y75453D01*
G01X102642Y75452D01*
G01X102635D01*
G01X102633D01*
G01X102631Y75451D01*
G01Y75448D01*
G01X102633Y75446D01*
G01X102640Y75441D01*
G01X102645Y75436D01*
G01X102649Y75433D01*
G01X102657Y75428D01*
G01X102660Y75426D01*
G01X102662Y75424D01*
G01X102665Y75420D01*
G01X102669Y75416D01*
G01X102673Y75413D01*
G01X102677Y75410D01*
G01X102680Y75406D01*
G01X102686Y75398D01*
G01X102693Y75389D01*
G01X102703Y75375D01*
G01X102707Y75367D01*
G01X102711Y75357D01*
G01X102717Y75345D01*
G01X102719Y75338D01*
G01X102721Y75331D01*
G01X102726Y75313D01*
G01X102727Y75309D01*
G01X102728Y75298D01*
G01Y75291D01*
G01X102730Y75286D01*
G01Y75279D01*
G01Y75257D01*
G01X102729Y75243D01*
G01X102725Y75217D01*
G01X102724Y75211D01*
G01X102722Y75204D01*
G01X102719Y75194D01*
G01X102714Y75178D01*
G01X102710Y75171D01*
G01X102705Y75163D01*
G01X102703Y75157D01*
G01X102701Y75151D01*
G01X102699Y75148D01*
G01X102697Y75146D01*
G01X102694Y75144D01*
G01X102692Y75141D01*
G01X102688Y75137D01*
G01X102683Y75130D01*
G01X102681Y75127D01*
G01X102678Y75124D01*
G01X102673Y75121D01*
G01X102666Y75115D01*
G01X102661Y75111D01*
G01X102640Y75098D01*
G01X102636Y75096D01*
G01X102628Y75093D01*
G01X102622Y75089D01*
G01X102615Y75086D01*
G01X102609Y75084D01*
G01X102588Y75077D01*
G01X102575Y75075D01*
G01X102568Y75074D01*
G01X102564Y75072D01*
G01X102559D01*
G01X102548Y75071D01*
G01X102541Y75070D01*
G01X102539D01*
G01X102535Y75069D01*
G01X102336Y75070D01*
G01X102138Y75072D01*
G01X101856D01*
G01X101852Y74689D01*
G01X102119D01*
G01Y74699D01*
G01Y74712D01*
G01X102120Y74715D01*
G01X102121Y74717D01*
G01Y74718D01*
G01X102122Y74720D01*
G01Y74725D01*
G01Y74736D01*
G01X102123Y74744D01*
G01X102124Y74750D01*
G01X102125Y74755D01*
G01X102126Y74757D01*
G01X102136Y74786D01*
G01X102140Y74797D01*
G01X102143Y74802D01*
G01X102150Y74817D01*
G01X102154Y74824D01*
G01X102162Y74834D01*
G01X102169Y74843D01*
G01X102174Y74849D01*
G01X102179Y74855D01*
G01X102183Y74860D01*
G01X102186Y74864D01*
G01X102190Y74867D01*
G01X102193Y74870D01*
G01X102210Y74883D01*
G01X102220Y74890D01*
G01X102226Y74894D01*
G01X102240Y74903D01*
G01X102246Y74906D01*
G01X102258Y74911D01*
G01X102270Y74916D01*
G01X102277Y74919D01*
G01X102285Y74920D01*
G01X102289Y74922D01*
G01X102292Y74923D01*
G01X102295Y74925D01*
G01X102299Y74926D01*
G01X102305Y74928D01*
G01X102330Y74932D01*
G01X102338Y74934D01*
G01X102344Y74936D01*
G01X102352D01*
G01X102400Y74937D01*
G01X102456Y74935D01*
G01X102466Y74934D01*
G01X102473D01*
G01X102483Y74932D01*
G01X102486Y74931D01*
G01X102493Y74929D01*
G01X102512Y74926D01*
G01X102518Y74925D01*
G01X102524Y74924D01*
G01X102528Y74922D01*
G01X102541Y74917D01*
G01X102555Y74912D01*
G01X102564Y74909D01*
G01X102567Y74907D01*
G01X102571Y74905D01*
G01X102577Y74902D01*
G01X102587Y74897D01*
G01X102593Y74894D01*
G01X102599Y74891D01*
G01X102623Y74876D01*
G01X102631Y74870D01*
G01X102635Y74867D01*
G01X102646Y74858D01*
G01X102650Y74854D01*
G01X102656Y74847D01*
G01X102662Y74842D01*
G01X102666Y74838D01*
G01X102670Y74833D01*
G01X102675Y74826D01*
G01X102679Y74821D01*
G01X102687Y74809D01*
G01X102691Y74803D01*
G01X102693Y74801D01*
G01X102695Y74796D01*
G01X102700Y74785D01*
G01X102704Y74778D01*
G01X102707Y74772D01*
G01X102709Y74766D01*
G01X102715Y74754D01*
G01X102716Y74748D01*
G01X102719Y74733D01*
G01X102722Y74722D01*
G01Y74713D01*
G01X102723Y74707D01*
G01X102724Y74702D01*
G01X102725Y74695D01*
G01Y74681D01*
G01X102724Y74660D01*
G01X102723Y74647D01*
G01X102721Y74633D01*
G01X102720Y74624D01*
G01X102718Y74617D01*
G01X102716Y74608D01*
G01X102711Y74593D01*
G01X102708Y74585D01*
G01X102700Y74569D01*
G01X102691Y74556D01*
G01X102690Y74554D01*
G01X102678Y74539D01*
G01X102670Y74528D01*
G01X102668Y74526D01*
G01X102666Y74525D01*
G01X102661Y74523D01*
G01X102659Y74522D01*
G01X102657Y74520D01*
G01X102656Y74518D01*
G01X102652Y74513D01*
G01X102647Y74509D01*
G01X102643Y74506D01*
G01X102642Y74505D01*
G01X102641Y74503D01*
G01Y74502D01*
G01X102642D01*
G01X102653Y74501D01*
G01X102806Y74498D01*
G01X102953Y74496D01*
G01X102979Y74495D01*
G01X102981D01*
G01X102989Y74493D01*
G01Y74448D01*
G01X102987Y74412D01*
G01X102986Y74402D01*
G01Y74398D01*
G01X102985Y74396D01*
G01X102984D01*
G01X102983Y74395D01*
G01X102977D01*
G01X102961Y74394D01*
G01X102560D01*
G01X102150Y74401D01*
G01X102136Y74402D01*
G01X102134D01*
G01X102133Y74403D01*
G01X102132Y74405D01*
G01X102131Y74408D01*
G01X102130Y74416D01*
G01Y74426D01*
G01X102129Y74444D01*
G01X102130Y74469D01*
G01X102131Y74488D01*
G01Y74493D01*
G01X102133Y74504D01*
G01X102177D01*
G01X102196D01*
G01X102209Y74505D01*
G01X102216Y74506D01*
G01X102218Y74508D01*
G01X102216Y74511D01*
G01X102214Y74513D01*
G01X102211Y74515D01*
G01X102205Y74519D01*
G01X102200Y74523D01*
G01X102197Y74526D01*
G01X102195Y74529D01*
G01X102191Y74532D01*
G01X102183Y74537D01*
G01X102180Y74540D01*
G01X102178Y74543D01*
G01X102174Y74549D01*
G01X102172Y74552D01*
G01X102170Y74554D01*
G01X102166Y74557D01*
G01X102164Y74559D01*
G01X102160Y74564D01*
G01X102153Y74575D01*
G01X102146Y74586D01*
G01X102142Y74593D01*
G01X102138Y74603D01*
G01X102134Y74611D01*
G01X102131Y74618D01*
G01X102129Y74630D01*
G01X102126Y74637D01*
G01X102124Y74642D01*
G01X102123Y74647D01*
G01X102122Y74654D01*
G01X102121Y74671D01*
G01Y74675D01*
G01X102120Y74679D01*
G01X102119Y74683D01*
G01Y74689D01*
G01X101852D01*
G01X101844Y73781D01*
G01X102127D01*
G01Y73889D01*
G01X102531Y73885D01*
G01X102935Y73881D01*
G01X102931Y73463D01*
G01X102840D01*
G01X102843Y73775D01*
G01X102571Y73777D01*
G01X102568Y73489D01*
G01X102477D01*
G01X102480Y73778D01*
G01X102127Y73781D01*
G01X101844D01*
G01X101839Y73225D01*
G01X102105D01*
G01Y73239D01*
G01X102106Y73243D01*
G01Y73246D01*
G01X102107Y73248D01*
G01Y73249D01*
G01X102108Y73250D01*
G01X102109Y73253D01*
G01Y73262D01*
G01X102110Y73268D01*
G01X102111Y73274D01*
G01X102116Y73299D01*
G01X102120Y73310D01*
G01X102126Y73326D01*
G01X102127Y73330D01*
G01X102130Y73336D01*
G01X102134Y73342D01*
G01X102139Y73350D01*
G01X102146Y73358D01*
G01X102149Y73362D01*
G01X102157Y73373D01*
G01X102161Y73377D01*
G01X102166Y73381D01*
G01X102173Y73386D01*
G01X102176Y73389D01*
G01X102184Y73393D01*
G01X102189Y73396D01*
G01X102193Y73399D01*
G01X102195Y73401D01*
G01X102198Y73402D01*
G01X102208Y73405D01*
G01X102216Y73409D01*
G01X102222Y73411D01*
G01X102226Y73412D01*
G01X102237Y73413D01*
G01X102245Y73415D01*
G01X102250Y73416D01*
G01X102258Y73417D01*
G01X102283D01*
G01X102292Y73416D01*
G01X102301Y73414D01*
G01X102326Y73411D01*
G01X102332Y73410D01*
G01X102339Y73408D01*
G01X102347Y73403D01*
G01X102356Y73400D01*
G01X102360Y73399D01*
G01X102364Y73397D01*
G01X102368Y73395D01*
G01X102376Y73390D01*
G01X102393Y73377D01*
G01X102398Y73373D01*
G01X102403Y73366D01*
G01X102407Y73362D01*
G01X102411Y73360D01*
G01X102413Y73357D01*
G01X102417Y73353D01*
G01X102424Y73341D01*
G01X102431Y73331D01*
G01X102435Y73324D01*
G01X102439Y73314D01*
G01X102443Y73305D01*
G01X102446Y73298D01*
G01X102449Y73287D01*
G01X102451Y73279D01*
G01X102454Y73272D01*
G01X102455Y73268D01*
G01X102456Y73264D01*
G01X102458Y73255D01*
G01X102460Y73248D01*
G01X102461Y73245D01*
G01X102462Y73239D01*
G01Y73230D01*
G01X102463Y73225D01*
G01X102465Y73217D01*
G01Y73208D01*
G01X102466Y73202D01*
G01X102468Y73194D01*
G01Y73185D01*
G01X102469Y73179D01*
G01X102471Y73171D01*
G01Y73162D01*
G01X102472Y73157D01*
G01X102474Y73149D01*
G01Y73139D01*
G01X102475Y73134D01*
G01X102477Y73126D01*
G01Y73120D01*
G01X102478Y73111D01*
G01X102479Y73101D01*
G01X102482Y73082D01*
G01X102483Y73070D01*
G01X102485Y73060D01*
G01Y73058D01*
G01X102486Y73056D01*
G01X102487Y73055D01*
G01X102490Y73053D01*
G01X102492Y73052D01*
G01X102494D01*
G01X102496Y73051D01*
G01X102505Y73052D01*
G01X102510D01*
G01X102539Y73057D01*
G01X102547Y73059D01*
G01X102555Y73061D01*
G01X102563Y73064D01*
G01X102566Y73066D01*
G01X102570Y73068D01*
G01X102576Y73071D01*
G01X102586Y73075D01*
G01X102589Y73077D01*
G01X102592Y73079D01*
G01X102595Y73084D01*
G01X102599Y73088D01*
G01X102603Y73091D01*
G01X102605Y73093D01*
G01X102609Y73097D01*
G01X102611Y73101D01*
G01X102614Y73105D01*
G01X102620Y73117D01*
G01X102625Y73130D01*
G01X102626Y73135D01*
G01X102627Y73141D01*
G01Y73150D01*
G01X102629Y73160D01*
G01Y73163D01*
G01Y73166D01*
G01X102628Y73169D01*
G01Y73172D01*
G01X102627Y73178D01*
G01Y73198D01*
G01X102626Y73201D01*
G01X102625Y73207D01*
G01X102624Y73212D01*
G01Y73222D01*
G01X102623Y73226D01*
G01X102621Y73234D01*
G01X102614Y73255D01*
G01Y73257D01*
G01X102608Y73273D01*
G01X102602Y73289D01*
G01X102599Y73296D01*
G01X102597Y73299D01*
G01X102593Y73307D01*
G01X102588Y73317D01*
G01X102585Y73322D01*
G01X102573Y73338D01*
G01X102568Y73345D01*
G01X102565Y73348D01*
G01X102564Y73350D01*
G01X102563Y73352D01*
G01X102562Y73354D01*
G01Y73355D01*
G01X102563Y73356D01*
G01X102564D01*
G01X102567Y73357D01*
G01X102573Y73358D01*
G01X102581D01*
G01X102607Y73359D01*
G01X102643Y73358D01*
G01X102653Y73356D01*
G01X102656D01*
G01X102658Y73355D01*
G01X102665Y73348D01*
G01X102666Y73345D01*
G01X102669Y73341D01*
G01X102673Y73330D01*
G01X102677Y73323D01*
G01X102681Y73316D01*
G01X102683Y73309D01*
G01X102687Y73298D01*
G01X102691Y73290D01*
G01X102693Y73282D01*
G01X102695Y73272D01*
G01X102697Y73264D01*
G01X102700Y73259D01*
G01X102702Y73253D01*
G01X102703Y73247D01*
G01X102704Y73235D01*
G01X102706Y73226D01*
G01X102707Y73221D01*
G01X102708Y73214D01*
G01Y73197D01*
G01X102709Y73194D01*
G01Y73191D01*
G01X102710Y73188D01*
G01X102711Y73180D01*
G01Y73160D01*
G01X102710Y73142D01*
G01X102709Y73132D01*
G01X102705Y73099D01*
G01X102703Y73090D01*
G01X102700Y73080D01*
G01X102697Y73070D01*
G01X102694Y73061D01*
G01X102687Y73045D01*
G01X102686Y73041D01*
G01X102684Y73037D01*
G01X102682Y73034D01*
G01X102675Y73026D01*
G01X102667Y73012D01*
G01X102664Y73009D01*
G01X102662Y73007D01*
G01X102657Y73003D01*
G01X102653Y72999D01*
G01X102650Y72996D01*
G01X102648Y72993D01*
G01X102643Y72989D01*
G01X102632Y72982D01*
G01X102622Y72975D01*
G01X102614Y72971D01*
G01X102610Y72970D01*
G01X102594Y72963D01*
G01X102581Y72958D01*
G01X102575Y72957D01*
G01X102562Y72954D01*
G01X102555Y72953D01*
G01X102550Y72952D01*
G01X102546Y72951D01*
G01X102533D01*
G01X102526Y72950D01*
G01X102523Y72949D01*
G01X102518D01*
G01X102318D01*
G01X102119Y72951D01*
G01X102120Y73055D01*
G01X102188D01*
G01X102194D01*
G01X102196Y73056D01*
G01X102198Y73057D01*
G01Y73059D01*
G01Y73060D01*
G01X102196Y73063D01*
G01X102191Y73067D01*
G01X102189Y73068D01*
G01X102184Y73070D01*
G01X102180Y73073D01*
G01X102179Y73076D01*
G01X102177Y73078D01*
G01X102175Y73080D01*
G01X102172Y73082D01*
G01X102167Y73085D01*
G01X102164Y73087D01*
G01X102156Y73095D01*
G01X102143Y73112D01*
G01X102137Y73119D01*
G01X102135Y73123D01*
G01X102130Y73132D01*
G01X102126Y73139D01*
G01X102123Y73145D01*
G01X102118Y73157D01*
G01X102115Y73170D01*
G01X102110Y73188D01*
G01X102109Y73193D01*
G01X102108Y73206D01*
G01X102107Y73213D01*
G01X102106Y73219D01*
G01X102105Y73225D01*
G01X101839D01*
G01X101831Y72293D01*
G01X102113D01*
G01X102114Y72397D01*
G01X102284Y72396D01*
G01X102440Y72395D01*
G01X102458D01*
G01X102459Y72396D01*
G01X102462D01*
G01X102468Y72397D01*
G01X102485D01*
G01X102489Y72398D01*
G01X102492Y72399D01*
G01X102499Y72400D01*
G01X102518Y72402D01*
G01X102524Y72403D01*
G01X102531Y72405D01*
G01X102540Y72409D01*
G01X102553Y72414D01*
G01X102558Y72416D01*
G01X102561Y72418D01*
G01X102570Y72424D01*
G01X102583Y72433D01*
G01X102591Y72439D01*
G01X102594Y72443D01*
G01X102600Y72450D01*
G01X102602Y72454D01*
G01X102607Y72463D01*
G01X102611Y72470D01*
G01X102613Y72473D01*
G01X102614Y72478D01*
G01X102617Y72488D01*
G01X102618Y72495D01*
G01X102620Y72501D01*
G01X102621Y72507D01*
G01Y72529D01*
G01X102620Y72533D01*
G01Y72536D01*
G01X102618Y72542D01*
G01Y72550D01*
G01X102617Y72555D01*
G01X102616Y72560D01*
G01X102614Y72567D01*
G01X102608Y72582D01*
G01X102605Y72589D01*
G01X102604Y72592D01*
G01X102599Y72600D01*
G01X102594Y72609D01*
G01X102590Y72615D01*
G01X102586Y72618D01*
G01X102581Y72622D01*
G01X102579Y72626D01*
G01X102575Y72630D01*
G01X102572Y72633D01*
G01X102565Y72639D01*
G01X102556Y72646D01*
G01X102544Y72653D01*
G01X102538Y72657D01*
G01X102527Y72661D01*
G01X102515Y72667D01*
G01X102511Y72668D01*
G01X102498Y72671D01*
G01X102491Y72673D01*
G01X102487Y72674D01*
G01X102483D01*
G01X102300Y72678D01*
G01X102117Y72679D01*
G01X102118Y72786D01*
G01X102695Y72781D01*
G01X102694Y72673D01*
G01X102650Y72674D01*
G01X102618Y72673D01*
G01X102610Y72672D01*
G01X102608Y72671D01*
G01Y72669D01*
G01X102611Y72666D01*
G01X102614Y72663D01*
G01X102616Y72662D01*
G01X102618Y72661D01*
G01X102623Y72659D01*
G01X102625Y72657D01*
G01X102627Y72656D01*
G01X102630Y72651D01*
G01X102634Y72647D01*
G01X102641Y72641D01*
G01X102646Y72634D01*
G01X102651Y72630D01*
G01X102654Y72628D01*
G01X102661Y72621D01*
G01X102664Y72617D01*
G01X102669Y72609D01*
G01X102672Y72606D01*
G01X102676Y72597D01*
G01X102681Y72592D01*
G01X102682Y72589D01*
G01X102685Y72584D01*
G01X102686Y72579D01*
G01X102690Y72569D01*
G01X102694Y72560D01*
G01X102696Y72553D01*
G01X102699Y72541D01*
G01X102701Y72531D01*
G01X102702Y72521D01*
G01X102703Y72515D01*
G01X102704Y72512D01*
G01Y72508D01*
G01X102705Y72503D01*
G01Y72488D01*
G01X102704Y72474D01*
G01X102703Y72465D01*
G01X102699Y72442D01*
G01Y72436D01*
G01X102697Y72428D01*
G01X102694Y72419D01*
G01X102691Y72409D01*
G01X102688Y72400D01*
G01X102686Y72396D01*
G01X102683Y72389D01*
G01X102680Y72383D01*
G01X102674Y72376D01*
G01X102662Y72358D01*
G01X102658Y72353D01*
G01X102651Y72348D01*
G01X102647Y72344D01*
G01X102644Y72341D01*
G01X102642Y72338D01*
G01X102637Y72335D01*
G01X102634Y72332D01*
G01X102618Y72322D01*
G01X102611Y72319D01*
G01X102603Y72315D01*
G01X102595Y72311D01*
G01X102587Y72308D01*
G01X102565Y72302D01*
G01X102549Y72297D01*
G01X102544Y72296D01*
G01X102535D01*
G01X102529Y72295D01*
G01X102523Y72293D01*
G01X102516D01*
G01X102507D01*
G01X102495Y72292D01*
G01X102491D01*
G01X102487Y72291D01*
G01X102483D01*
G01X102297D01*
G01X102113Y72293D01*
G01X101831D01*
G01X101830Y72215D01*
G01X103240Y72202D01*
G01X103295Y78145D01*
G37*
G36*
G01X102408Y77167D02*
G01X102401Y77166D01*
G01X102399D01*
G01X102392Y77164D01*
G01X102378Y77162D01*
G01X102369Y77161D01*
G01X102364Y77160D01*
G01X102356Y77157D01*
G01X102341Y77151D01*
G01X102320Y77144D01*
G01X102313Y77140D01*
G01X102307Y77135D01*
G01X102301Y77132D01*
G01X102296Y77130D01*
G01X102294Y77129D01*
G01X102292Y77127D01*
G01X102288Y77122D01*
G01X102284Y77118D01*
G01X102278Y77113D01*
G01X102272Y77106D01*
G01X102268Y77102D01*
G01X102264Y77100D01*
G01X102262Y77098D01*
G01X102258Y77093D01*
G01X102256Y77089D01*
G01X102247Y77075D01*
G01X102244Y77069D01*
G01X102240Y77062D01*
G01X102234Y77046D01*
G01X102229Y77031D01*
G01X102228Y77022D01*
G01X102227Y77008D01*
G01Y77003D01*
G01X102226Y77000D01*
G01Y76999D01*
G01X102225Y76998D01*
G01Y76997D01*
G01X102224Y76991D01*
G01Y76983D01*
G01X102225Y76976D01*
G01X102226Y76973D01*
G01X102227Y76968D01*
G01Y76961D01*
G01X102228Y76953D01*
G01Y76947D01*
G01X102230Y76940D01*
G01X102233Y76928D01*
G01X102236Y76917D01*
G01X102237Y76913D01*
G01X102238Y76910D01*
G01X102241Y76907D01*
G01X102244Y76901D01*
G01X102248Y76891D01*
G01X102250Y76887D01*
G01X102253Y76883D01*
G01X102258Y76875D01*
G01X102266Y76864D01*
G01X102270Y76860D01*
G01X102273Y76857D01*
G01X102280Y76851D01*
G01X102289Y76844D01*
G01X102302Y76836D01*
G01X102308Y76832D01*
G01X102317Y76827D01*
G01X102320Y76826D01*
G01X102326Y76824D01*
G01X102336Y76821D01*
G01X102344Y76817D01*
G01X102350Y76815D01*
G01X102355Y76814D01*
G01X102366Y76812D01*
G01X102374Y76810D01*
G01X102378Y76809D01*
G01X102382Y76808D01*
G01X102393D01*
G01X102400Y76807D01*
G01X102404Y76806D01*
G01X102412Y76805D01*
G01X102433Y76804D01*
G01X102445D01*
G01X102464Y76805D01*
G01X102471D01*
G01X102503Y76809D01*
G01X102513Y76811D01*
G01X102522Y76813D01*
G01X102535Y76815D01*
G01X102539Y76816D01*
G01X102543Y76818D01*
G01X102554Y76822D01*
G01X102563Y76825D01*
G01X102570Y76828D01*
G01X102574Y76830D01*
G01X102590Y76840D01*
G01X102595Y76842D01*
G01X102600Y76844D01*
G01X102602Y76845D01*
G01X102604Y76847D01*
G01X102607Y76852D01*
G01X102611Y76856D01*
G01X102615Y76858D01*
G01X102619Y76862D01*
G01X102622Y76865D01*
G01X102625Y76869D01*
G01X102633Y76879D01*
G01X102637Y76885D01*
G01X102640Y76890D01*
G01X102645Y76899D01*
G01X102648Y76907D01*
G01X102652Y76915D01*
G01X102657Y76930D01*
G01X102658Y76935D01*
G01Y76944D01*
G01X102659Y76950D01*
G01X102661Y76955D01*
G01Y76963D01*
G01X102662Y76977D01*
G01Y76992D01*
G01X102661Y77000D01*
G01X102660Y77002D01*
G01X102659Y77009D01*
G01X102657Y77028D01*
G01X102656Y77033D01*
G01X102654Y77040D01*
G01X102650Y77048D01*
G01X102647Y77058D01*
G01X102644Y77064D01*
G01X102635Y77079D01*
G01X102631Y77086D01*
G01X102629Y77088D01*
G01X102626Y77093D01*
G01X102621Y77099D01*
G01X102617Y77103D01*
G01X102610Y77109D01*
G01X102606Y77113D01*
G01X102601Y77119D01*
G01X102597Y77124D01*
G01X102582Y77134D01*
G01X102578Y77136D01*
G01X102575Y77138D01*
G01X102564Y77143D01*
G01X102557Y77147D01*
G01X102549Y77150D01*
G01X102545Y77151D01*
G01X102537Y77154D01*
G01X102529Y77157D01*
G01X102523Y77159D01*
G01X102517Y77161D01*
G01X102505Y77162D01*
G01X102496Y77164D01*
G01X102493Y77165D01*
G01X102492D01*
G01X102483Y77166D01*
G01X102446Y77167D01*
G37*
G36*
G01X102495Y76095D02*
G01X102493Y76095D01*
G01Y76094D01*
G01Y76090D01*
G01X102490Y75945D01*
G01X102489Y75798D01*
G01X102515D01*
G01X102520Y75799D01*
G01X102523Y75800D01*
G01X102529Y75801D01*
G01X102545Y75803D01*
G01X102553Y75805D01*
G01X102563Y75808D01*
G01X102578Y75813D01*
G01X102582Y75815D01*
G01X102586Y75817D01*
G01X102590Y75819D01*
G01X102596Y75824D01*
G01X102602Y75827D01*
G01X102606Y75829D01*
G01X102609Y75830D01*
G01X102610Y75832D01*
G01X102614Y75837D01*
G01X102618Y75841D01*
G01X102622Y75843D01*
G01X102624Y75845D01*
G01X102628Y75850D01*
G01X102630Y75854D01*
G01X102639Y75868D01*
G01X102643Y75874D01*
G01X102645Y75881D01*
G01X102651Y75897D01*
G01X102652Y75902D01*
G01Y75915D01*
G01X102653Y75922D01*
G01X102654Y75926D01*
G01X102655Y75929D01*
G01Y75932D01*
G01X102653Y75942D01*
G01X102650Y75967D01*
G01X102649Y75973D01*
G01X102647Y75978D01*
G01X102644Y75985D01*
G01X102638Y76000D01*
G01X102634Y76007D01*
G01X102630Y76014D01*
G01X102627Y76020D01*
G01X102625Y76025D01*
G01X102623Y76027D01*
G01X102621Y76029D01*
G01X102617Y76032D01*
G01X102613Y76036D01*
G01X102610Y76040D01*
G01X102606Y76044D01*
G01X102603Y76047D01*
G01X102596Y76053D01*
G01X102587Y76060D01*
G01X102572Y76070D01*
G01X102566Y76073D01*
G01X102546Y76083D01*
G01X102537Y76086D01*
G01X102523Y76091D01*
G01X102516Y76093D01*
G01X102506Y76095D01*
G01X102501D01*
G37*
G36*
G01X102414Y74832D02*
G01X102407Y74832D01*
G01X102403Y74831D01*
G01X102399Y74830D01*
G01X102393D01*
G01X102383Y74829D01*
G01X102369D01*
G01X102365D01*
G01X102361Y74828D01*
G01X102355Y74826D01*
G01X102337Y74823D01*
G01X102326Y74820D01*
G01X102318Y74818D01*
G01X102312Y74816D01*
G01X102305Y74813D01*
G01X102289Y74806D01*
G01X102285Y74804D01*
G01X102282Y74802D01*
G01X102275Y74797D01*
G01X102271Y74794D01*
G01X102262Y74790D01*
G01X102257Y74786D01*
G01X102256Y74784D01*
G01X102252Y74779D01*
G01X102245Y74774D01*
G01X102241Y74770D01*
G01X102229Y74753D01*
G01X102226Y74748D01*
G01X102221Y74740D01*
G01X102216Y74729D01*
G01X102211Y74716D01*
G01Y74713D01*
G01X102210Y74707D01*
G01Y74695D01*
G01X102209Y74691D01*
G01Y74688D01*
G01X102208Y74687D01*
G01Y74686D01*
G01X102207Y74685D01*
G01Y74684D01*
G01Y74681D01*
G01X102206Y74672D01*
G01X102207Y74661D01*
G01Y74657D01*
G01X102208Y74655D01*
G01Y74652D01*
G01X102209Y74646D01*
G01Y74633D01*
G01X102210Y74626D01*
G01X102211Y74622D01*
G01X102215Y74614D01*
G01X102218Y74604D01*
G01X102221Y74597D01*
G01X102223Y74593D01*
G01X102233Y74576D01*
G01X102235Y74573D01*
G01X102238Y74569D01*
G01X102240Y74567D01*
G01X102245Y74563D01*
G01X102249Y74559D01*
G01X102251Y74556D01*
G01X102255Y74552D01*
G01X102258Y74548D01*
G01X102262Y74545D01*
G01X102265Y74542D01*
G01X102269Y74540D01*
G01X102272Y74538D01*
G01X102277Y74536D01*
G01X102279Y74535D01*
G01X102281Y74533D01*
G01X102283Y74529D01*
G01X102288Y74525D01*
G01X102292Y74523D01*
G01X102310Y74516D01*
G01X102325Y74510D01*
G01X102331Y74509D01*
G01X102338D01*
G01X102340Y74508D01*
G01X102343Y74507D01*
G01X102346Y74506D01*
G01X102347Y74505D01*
G01X102349Y74504D01*
G01X102352Y74503D01*
G01X102359D01*
G01X102380Y74502D01*
G01X102384Y74501D01*
G01X102388Y74500D01*
G01X102389D01*
G01X102397Y74499D01*
G01X102430Y74498D01*
G01X102464Y74499D01*
G01X102470D01*
G01X102472Y74500D01*
G01X102475D01*
G01X102481Y74501D01*
G01X102488D01*
G01X102499D01*
G01X102503Y74502D01*
G01X102512Y74503D01*
G01X102527Y74507D01*
G01X102535Y74509D01*
G01X102541Y74512D01*
G01X102545Y74513D01*
G01X102558Y74520D01*
G01X102562Y74522D01*
G01X102566Y74525D01*
G01X102571Y74528D01*
G01X102586Y74539D01*
G01X102593Y74545D01*
G01X102597Y74549D01*
G01X102601Y74553D01*
G01X102605Y74559D01*
G01X102611Y74566D01*
G01X102613Y74569D01*
G01X102620Y74580D01*
G01X102625Y74587D01*
G01X102626Y74590D01*
G01X102628Y74595D01*
G01X102630Y74603D01*
G01X102632Y74610D01*
G01X102634Y74614D01*
G01X102635Y74617D01*
G01X102636Y74623D01*
G01Y74632D01*
G01X102637Y74654D01*
G01Y74662D01*
G01Y74682D01*
G01X102636Y74691D01*
G01X102634Y74697D01*
G01X102628Y74717D01*
G01X102626Y74722D01*
G01X102625Y74726D01*
G01X102623Y74731D01*
G01X102620Y74735D01*
G01X102609Y74753D01*
G01X102605Y74761D01*
G01X102603Y74764D01*
G01X102598Y74769D01*
G01X102595Y74773D01*
G01X102588Y74778D01*
G01X102582Y74783D01*
G01X102577Y74787D01*
G01X102558Y74799D01*
G01X102552Y74803D01*
G01X102540Y74808D01*
G01X102528Y74814D01*
G01X102522Y74816D01*
G01X102514Y74819D01*
G01X102506Y74821D01*
G01X102487Y74825D01*
G01X102479Y74828D01*
G01X102471D01*
G01X102441Y74829D01*
G01X102434Y74830D01*
G01X102430Y74831D01*
G01X102423Y74832D01*
G37*
G36*
G01X102285Y73313D02*
G01X102279Y73312D01*
G01X102270Y73310D01*
G01X102255Y73307D01*
G01X102250Y73306D01*
G01X102247Y73305D01*
G01X102244Y73303D01*
G01X102231Y73296D01*
G01X102227Y73293D01*
G01X102224Y73291D01*
G01X102221Y73289D01*
G01X102219Y73286D01*
G01X102216Y73282D01*
G01X102211Y73278D01*
G01X102209Y73276D01*
G01X102207Y73273D01*
G01X102205Y73270D01*
G01X102200Y73261D01*
G01X102195Y73251D01*
G01X102194Y73248D01*
G01X102193Y73244D01*
G01Y73241D01*
G01X102192Y73234D01*
G01X102191Y73231D01*
G01Y73230D01*
G01X102190Y73229D01*
G01Y73223D01*
G01X102189Y73212D01*
G01X102190Y73200D01*
G01Y73191D01*
G01X102191Y73186D01*
G01X102196Y73161D01*
G01X102198Y73151D01*
G01X102202Y73143D01*
G01X102205Y73137D01*
G01X102213Y73124D01*
G01X102217Y73117D01*
G01X102219Y73114D01*
G01X102224Y73109D01*
G01X102228Y73103D01*
G01X102232Y73099D01*
G01X102235Y73096D01*
G01X102243Y73090D01*
G01X102251Y73083D01*
G01X102262Y73076D01*
G01X102269Y73072D01*
G01X102280Y73067D01*
G01X102292Y73062D01*
G01X102296Y73061D01*
G01X102300Y73059D01*
G01X102309Y73058D01*
G01X102317Y73055D01*
G01X102320D01*
G01X102321Y73054D01*
G01X102329D01*
G01X102366Y73053D01*
G01X102385D01*
G01X102398Y73054D01*
G01X102405Y73055D01*
G01X102407Y73058D01*
G01Y73059D01*
G01X102406Y73063D01*
G01X102405Y73074D01*
G01Y73081D01*
G01X102403Y73089D01*
G01X102402Y73098D01*
G01Y73103D01*
G01X102400Y73111D01*
G01X102399Y73117D01*
G01Y73126D01*
G01X102397Y73136D01*
G01X102395Y73155D01*
G01X102393Y73168D01*
G01X102391Y73182D01*
G01X102388Y73207D01*
G01X102386Y73217D01*
G01X102384Y73226D01*
G01X102378Y73248D01*
G01X102375Y73256D01*
G01X102373Y73259D01*
G01X102370Y73264D01*
G01X102368Y73269D01*
G01X102366Y73274D01*
G01X102365Y73276D01*
G01X102363Y73278D01*
G01X102358Y73282D01*
G01X102354Y73286D01*
G01X102350Y73290D01*
G01X102348Y73293D01*
G01X102346Y73294D01*
G01X102337Y73299D01*
G01X102330Y73303D01*
G01X102327Y73305D01*
G01X102321Y73307D01*
G01X102312Y73308D01*
G01X102305Y73310D01*
G01X102300Y73312D01*
G01X102293Y73313D01*
G37*
G04 //text: D1*
G01X80722Y93054D02*
G01X80929Y92499D01*
G01X80722Y93054D02*
G01X80906Y93122D01*
G01X80994Y93125D01*
G01X81068Y93093D01*
G01X81115Y93048D01*
G01X81170Y92980D01*
G01X81219Y92849D01*
G01X81222Y92760D01*
G01X81217Y92696D01*
G01X81181Y92623D01*
G01X81113Y92568D01*
G01X80929Y92499D01*
G01X81350Y93166D02*
G01X81392Y93214D01*
G01X81443Y93323D01*
G01X81650Y92768D01*
G04 //text: P1*
G01X74988Y87461D02*
G01X75195Y86906D01*
G01X74988Y87461D02*
G01X75224Y87549D01*
G01X75314Y87553D01*
G01X75350Y87536D01*
G01X75397Y87491D01*
G01X75426Y87413D01*
G01X75419Y87351D01*
G01X75403Y87315D01*
G01X75332Y87258D01*
G01X75096Y87171D01*
G01X75616Y87573D02*
G01X75657Y87621D01*
G01X75709Y87730D01*
G01X75916Y87176D01*
G04 //text: P4*
G01X86114Y83292D02*
G01X86706Y83297D01*
G01X86114Y83292D02*
G01X86112Y83543D01*
G01X86139Y83630D01*
G01X86167Y83658D01*
G01X86225Y83687D01*
G01X86309D01*
G01X86365Y83660D01*
G01X86393Y83632D01*
G01X86422Y83546D01*
G01X86424Y83295D01*
G01X86106Y84201D02*
G01X86503Y83923D01*
G01X86499Y84344D01*
G01X86106Y84201D02*
G01X86698Y84206D01*
G04 //text: P3*
G01X113079Y79666D02*
G01X112488Y79671D01*
G01X113079Y79666D02*
G01X113077Y79414D01*
G01X113048Y79328D01*
G01X113020Y79300D01*
G01X112961Y79273D01*
G01X112878Y79274D01*
G01X112822Y79302D01*
G01X112794Y79330D01*
G01X112767Y79417D01*
G01X112769Y79668D01*
G01X113073Y78982D02*
G01X113070Y78672D01*
G01X112846Y78842D01*
G01X112845Y78758D01*
G01X112816Y78703D01*
G01X112788Y78675D01*
G01X112704Y78648D01*
G01X112648D01*
G01X112562Y78677D01*
G01X112507Y78733D01*
G01X112480Y78818D01*
G01Y78901D01*
G01X112509Y78987D01*
G01X112537Y79015D01*
G01X112594Y79043D01*
G04 //text: P2*
G01X102345Y79866D02*
G01X101753Y79871D01*
G01X102345Y79866D02*
G01X102343Y79614D01*
G01X102314Y79528D01*
G01X102286Y79501D01*
G01X102227Y79473D01*
G01X102143Y79474D01*
G01X102088Y79502D01*
G01X102060Y79531D01*
G01X102033Y79617D01*
G01X102035Y79869D01*
G01X102197Y79212D02*
G01X102225Y79212D01*
G01X102283Y79183D01*
G01X102311Y79155D01*
G01X102338Y79096D01*
G01X102337Y78984D01*
G01X102309Y78929D01*
G01X102280Y78901D01*
G01X102222Y78874D01*
G01X102166D01*
G01X102110Y78903D01*
G01X102027Y78959D01*
G01X101748Y79244D01*
G01X101744Y78850D01*
G04 Text End*

G04 PolygonModel Start*
G54D11*
G01X94117Y85050D02*
G01X86508Y85068D01*
G01X86529Y90824D01*
G01X93573Y90800D01*
G01X94094Y90156D01*
G01X94117Y85050D01*
G01X94253Y78042D02*
G01X101861Y78024D01*
G01X101841Y72310D01*
G01X94797Y72335D01*
G01X94276Y72978D01*
G01X94253Y78042D01*
G01X105058Y72192D02*
G01X105032Y77876D01*
G01X112640Y77858D01*
G01X112627Y74097D01*
G01X112629Y73145D01*
G01X110696Y72180D01*
G01X110688Y72172D01*
G01X105058Y72192D01*
G54D12*
G01X81925Y89492D02*
G01X80980Y92024D01*
G54D13*
G01X78546Y90772D02*
G01X78434Y91073D01*
G01X79379Y88541D02*
G01X79267Y88842D01*
G54D12*
G01X82801Y89819D02*
G01X79379Y88541D01*
G01X81856Y92351D02*
G01X78434Y91073D01*
G36*
G01X82744Y89724D02*
G01X82997Y89819D01*
G01X82857Y90193D01*
G01X82595Y90096D01*
G01X82744Y89724D01*
G37*
G54D14*
G01X82744Y89724D02*
G01X82997Y89819D01*
G01X82857Y90193D01*
G01X82595Y90096D01*
G01X82744Y89724D01*
G36*
G01X82000Y92489D02*
G01X81738Y92391D01*
G01X81878Y92016D01*
G01X82140Y92114D01*
G01X82000Y92489D01*
G37*
G01X82000Y92489D02*
G01X81738Y92391D01*
G01X81878Y92016D01*
G01X82140Y92114D01*
G01X82000Y92489D01*
G54D11*
G01X77871Y87273D02*
G01X78763Y84884D01*
G01X78763Y84884D02*
G01X76374Y83992D01*
G01X78246Y87412D02*
G01X80260Y88164D01*
G01X80260Y88164D02*
G01X83828Y78609D01*
G01X83828Y78609D02*
G01X79050Y76825D01*
G01X79050Y76825D02*
G01X75482Y86381D01*
G01X75482Y86381D02*
G01X78246Y87412D01*
G01X88315Y83011D02*
G01X88348Y79011D01*
G01X90321Y83028D02*
G01X90354Y79028D01*
G01X92328Y83045D02*
G01X92361Y79045D01*
G01X93326Y83053D02*
G01X87327Y83003D01*
G01X87310Y85003D02*
G01X93310Y85053D01*
G01X87310Y85003D02*
G01X87327Y83003D01*
G01X93310Y85053D02*
G01X93326Y83053D01*
G01X110864Y79864D02*
G01X110901Y83864D01*
G01X108858Y79883D02*
G01X108894Y83883D01*
G01X106851Y79901D02*
G01X106888Y83901D01*
G01X105853Y79910D02*
G01X111853Y79855D01*
G01X111834Y77855D02*
G01X105834Y77910D01*
G01X111834Y77855D02*
G01X111853Y79855D01*
G01X105834Y77910D02*
G01X105853Y79910D01*
G01X100087Y80043D02*
G01X100124Y84043D01*
G01X98080Y80062D02*
G01X98117Y84062D01*
G01X96074Y80080D02*
G01X96111Y84080D01*
G01X95076Y80090D02*
G01X101075Y80034D01*
G01X101057Y78034D02*
G01X95057Y78090D01*
G01X101057Y78034D02*
G01X101075Y80034D01*
G01X95057Y78090D02*
G01X95076Y80090D01*
G04 PolygonModel End*

G04 Circle Start*
G01X75033Y85140D02*
G03X75577Y85140I272J0D01*
G03X75033I-272J0D01*
G04 Circle End*

M02*
