;TYPE=PLATED
;Layer: PTH_Through
;EasyEDA Pro Client v1.9.30.011b94, 2023-06-19 18:55:00
;Gerber Generator version 0.3
M48
METRIC,LZ,000.000
;Hole size 1 = 0.650 METRIC
T01C0.650
;Hole size 2 = 0.850 METRIC
T02C0.850
;Hole size 3 = 1.000 METRIC
T03C1.000
;Hole size 4 = 3.300 METRIC
T04C3.300
%
G05
G90
T01
X113792Y063389
X113792Y065389
T02
X091713Y063881
X094215Y063881
X105302Y063881
X107804Y063881
X118110Y061722
X118110Y064222
X118110Y066722
X118110Y059222
X118110Y056722
X123317Y067691
X123317Y065151
X123317Y062611
X123317Y060071
X123317Y057531
X084074Y058166
X084074Y060706
X084074Y063246
X084074Y065786
X086614Y058166
X086614Y060706
X086614Y063246
X086614Y065786
T03
X116459Y073787
X116459Y071247
X113919Y073787
X113919Y071247
X111379Y073787
X111379Y071247
X108839Y073787
X108839Y071247
X106299Y073787
X106299Y071247
X103759Y073787
X103759Y071247
X101219Y073787
X101219Y071247
X098679Y073787
X098679Y071247
X094766Y059817
X097766Y059817
X107974Y059944
X110974Y059944
T04
X087813Y052896
X099797Y065667
M30