G04 Layer: DrillDrawingLayer*
G04 EasyEDA Pro v1.9.30.011b94, 2023-06-19 18:55:00*
G04 Gerber Generator version 0.3*
G04 Scale: 100 percent, Rotated: No, Reflected: No*
G04 Dimensions in millimeters*
G04 Leading zeros omitted, absolute positions, 3 integers and 3 decimals*
%FSLAX33Y33*%
%MOMM*%
%ADD10C,0.254*%
G75*


G04 Image Start*
G36*
G01X88950Y58366D02*
G01X88950Y58329D01*
G01X88986D01*
G01X89312D01*
G01Y58003D01*
G01X88986D01*
G01Y58329D01*
G01X88950D01*
G01Y57967D01*
G01X89349D01*
G01Y58366D01*
G37*
G36*
G01X83472Y67917D02*
G01X83452Y67915D01*
G01X83432Y67912D01*
G01X83413Y67907D01*
G01X83394Y67901D01*
G01X83377Y67892D01*
G01X83361Y67882D01*
G01X83345Y67871D01*
G01X83331Y67858D01*
G01X83318Y67844D01*
G01X83307Y67828D01*
G01X83297Y67812D01*
G01X83288Y67795D01*
G01X83282Y67776D01*
G01X83276Y67757D01*
G01X83274Y67737D01*
G01X83272Y67717D01*
G01X83306D01*
G01X83307Y67734D01*
G01X83309Y67750D01*
G01X83314Y67766D01*
G01X83319Y67781D01*
G01X83326Y67796D01*
G01X83334Y67810D01*
G01X83344Y67823D01*
G01X83355Y67834D01*
G01X83366Y67845D01*
G01X83379Y67855D01*
G01X83393Y67863D01*
G01X83408Y67870D01*
G01X83423Y67875D01*
G01X83438Y67879D01*
G01X83455Y67882D01*
G01X83472Y67883D01*
G01X83489Y67882D01*
G01X83506Y67879D01*
G01X83521Y67875D01*
G01X83537Y67870D01*
G01X83551Y67863D01*
G01X83565Y67855D01*
G01X83578Y67845D01*
G01X83589Y67834D01*
G01X83600Y67823D01*
G01X83610Y67810D01*
G01X83618Y67796D01*
G01X83625Y67781D01*
G01X83631Y67766D01*
G01X83635Y67750D01*
G01X83637Y67734D01*
G01X83638Y67717D01*
G01X83637Y67700D01*
G01X83635Y67683D01*
G01X83631Y67668D01*
G01X83625Y67652D01*
G01X83618Y67638D01*
G01X83610Y67624D01*
G01X83600Y67611D01*
G01X83589Y67600D01*
G01X83578Y67589D01*
G01X83565Y67579D01*
G01X83551Y67571D01*
G01X83537Y67564D01*
G01X83521Y67558D01*
G01X83506Y67554D01*
G01X83489Y67552D01*
G01X83472Y67551D01*
G01X83455Y67552D01*
G01X83438Y67554D01*
G01X83423Y67558D01*
G01X83408Y67564D01*
G01X83393Y67571D01*
G01X83379Y67579D01*
G01X83366Y67589D01*
G01X83355Y67600D01*
G01X83344Y67611D01*
G01X83334Y67624D01*
G01X83326Y67638D01*
G01X83319Y67652D01*
G01X83314Y67668D01*
G01X83309Y67683D01*
G01X83307Y67700D01*
G01X83306Y67717D01*
G01X83272D01*
G01X83274Y67697D01*
G01X83276Y67677D01*
G01X83282Y67657D01*
G01X83288Y67639D01*
G01X83297Y67622D01*
G01X83307Y67606D01*
G01X83318Y67590D01*
G01X83331Y67576D01*
G01X83345Y67563D01*
G01X83361Y67552D01*
G01X83377Y67542D01*
G01X83394Y67533D01*
G01X83413Y67526D01*
G01X83432Y67521D01*
G01X83452Y67519D01*
G01X83472Y67518D01*
G01X83492Y67519D01*
G01X83512Y67521D01*
G01X83531Y67526D01*
G01X83550Y67533D01*
G01X83567Y67542D01*
G01X83583Y67552D01*
G01X83599Y67563D01*
G01X83613Y67576D01*
G01X83626Y67590D01*
G01X83637Y67606D01*
G01X83647Y67622D01*
G01X83656Y67639D01*
G01X83663Y67657D01*
G01X83668Y67677D01*
G01X83670Y67697D01*
G01X83671Y67717D01*
G01X83670Y67737D01*
G01X83668Y67757D01*
G01X83663Y67776D01*
G01X83656Y67795D01*
G01X83647Y67812D01*
G01X83637Y67828D01*
G01X83626Y67844D01*
G01X83613Y67858D01*
G01X83599Y67871D01*
G01X83583Y67882D01*
G01X83567Y67892D01*
G01X83550Y67901D01*
G01X83531Y67907D01*
G01X83512Y67912D01*
G01X83492Y67915D01*
G37*
G36*
G01X98243Y69458D02*
G01X98223Y69457D01*
G01X98203Y69454D01*
G01X98184Y69449D01*
G01X98165Y69443D01*
G01X98148Y69434D01*
G01X98132Y69424D01*
G01X98116Y69413D01*
G01X98102Y69400D01*
G01X98089Y69386D01*
G01X98078Y69370D01*
G01X98068Y69354D01*
G01X98059Y69336D01*
G01X98053Y69318D01*
G01X98048Y69299D01*
G01X98045Y69279D01*
G01X98043Y69259D01*
G01X98077D01*
G01X98078Y69275D01*
G01X98081Y69292D01*
G01X98085Y69308D01*
G01X98090Y69323D01*
G01X98097Y69338D01*
G01X98105Y69352D01*
G01X98115Y69364D01*
G01X98126Y69376D01*
G01X98137Y69387D01*
G01X98150Y69396D01*
G01X98164Y69405D01*
G01X98179Y69412D01*
G01X98194Y69417D01*
G01X98210Y69421D01*
G01X98226Y69424D01*
G01X98243Y69425D01*
G01X98260Y69424D01*
G01X98277Y69421D01*
G01X98292Y69417D01*
G01X98308Y69412D01*
G01X98322Y69405D01*
G01X98336Y69396D01*
G01X98349Y69387D01*
G01X98360Y69376D01*
G01X98371Y69364D01*
G01X98381Y69352D01*
G01X98389Y69338D01*
G01X98396Y69323D01*
G01X98402Y69308D01*
G01X98406Y69292D01*
G01X98408Y69275D01*
G01X98409Y69259D01*
G01X98408Y69242D01*
G01X98406Y69225D01*
G01X98402Y69209D01*
G01X98396Y69194D01*
G01X98389Y69179D01*
G01X98381Y69166D01*
G01X98371Y69153D01*
G01X98360Y69141D01*
G01X98349Y69131D01*
G01X98336Y69121D01*
G01X98322Y69112D01*
G01X98308Y69106D01*
G01X98292Y69100D01*
G01X98277Y69096D01*
G01X98260Y69094D01*
G01X98243Y69093D01*
G01X98226Y69094D01*
G01X98210Y69096D01*
G01X98194Y69100D01*
G01X98179Y69106D01*
G01X98164Y69112D01*
G01X98150Y69121D01*
G01X98137Y69131D01*
G01X98126Y69141D01*
G01X98115Y69153D01*
G01X98105Y69166D01*
G01X98097Y69179D01*
G01X98090Y69194D01*
G01X98085Y69209D01*
G01X98081Y69225D01*
G01X98078Y69242D01*
G01X98077Y69259D01*
G01X98043D01*
G01X98045Y69238D01*
G01X98048Y69219D01*
G01X98053Y69199D01*
G01X98059Y69181D01*
G01X98068Y69164D01*
G01X98078Y69147D01*
G01X98089Y69132D01*
G01X98102Y69117D01*
G01X98116Y69105D01*
G01X98132Y69094D01*
G01X98148Y69083D01*
G01X98165Y69075D01*
G01X98184Y69068D01*
G01X98203Y69063D01*
G01X98223Y69061D01*
G01X98243Y69060D01*
G01X98263Y69061D01*
G01X98283Y69063D01*
G01X98303Y69068D01*
G01X98321Y69075D01*
G01X98338Y69083D01*
G01X98354Y69094D01*
G01X98370Y69105D01*
G01X98384Y69117D01*
G01X98397Y69132D01*
G01X98408Y69147D01*
G01X98418Y69164D01*
G01X98427Y69181D01*
G01X98434Y69199D01*
G01X98439Y69219D01*
G01X98441Y69238D01*
G01X98442Y69259D01*
G01X98441Y69279D01*
G01X98439Y69299D01*
G01X98434Y69318D01*
G01X98427Y69336D01*
G01X98418Y69354D01*
G01X98408Y69370D01*
G01X98397Y69386D01*
G01X98384Y69400D01*
G01X98370Y69413D01*
G01X98354Y69424D01*
G01X98338Y69434D01*
G01X98321Y69443D01*
G01X98303Y69449D01*
G01X98283Y69454D01*
G01X98263Y69457D01*
G37*
G36*
G01X87613Y53068D02*
G01X87633Y53035D01*
G01X87671D01*
G01X87955D01*
G01X87883Y52912D01*
G01X87813Y52789D01*
G01X87742Y52912D01*
G01X87671Y53035D01*
G01X87633D01*
G01X87713Y52896D01*
G01X87813Y52723D01*
G01X88012Y53068D01*
G37*
G36*
G01X99597Y65840D02*
G01X99617Y65806D01*
G01X99655D01*
G01X99939D01*
G01X99868Y65683D01*
G01X99797Y65561D01*
G01X99726Y65683D01*
G01X99655Y65806D01*
G01X99617D01*
G01X99797Y65494D01*
G01X99897Y65667D01*
G01X99996Y65840D01*
G37*
G36*
G01X113792Y63619D02*
G01X113735Y63489D01*
G01X113593Y63504D01*
G01X113677Y63389D01*
G01X113623Y63316D01*
G01X113666D01*
G01X113705Y63369D01*
G01X113719Y63389D01*
G01X113705Y63409D01*
G01X113666Y63462D01*
G01X113731Y63455D01*
G01X113755Y63452D01*
G01X113792Y63535D01*
G01X113829Y63452D01*
G01X113853Y63455D01*
G01X113918Y63462D01*
G01X113879Y63409D01*
G01X113865Y63389D01*
G01X113879Y63369D01*
G01X113918Y63316D01*
G01X113853Y63323D01*
G01X113829Y63326D01*
G01X113792Y63243D01*
G01X113755Y63326D01*
G01X113731Y63323D01*
G01X113666Y63316D01*
G01X113623D01*
G01X113593Y63274D01*
G01X113735Y63289D01*
G01X113792Y63159D01*
G01X113849Y63289D01*
G01X113992Y63274D01*
G01X113907Y63389D01*
G01X113992Y63504D01*
G01X113849Y63489D01*
G37*
G36*
G01X113792Y65619D02*
G01X113735Y65489D01*
G01X113593Y65504D01*
G01X113677Y65389D01*
G01X113623Y65316D01*
G01X113666D01*
G01X113705Y65369D01*
G01X113719Y65389D01*
G01X113705Y65409D01*
G01X113666Y65462D01*
G01X113731Y65455D01*
G01X113755Y65452D01*
G01X113792Y65535D01*
G01X113829Y65452D01*
G01X113853Y65455D01*
G01X113918Y65462D01*
G01X113879Y65409D01*
G01X113865Y65389D01*
G01X113879Y65369D01*
G01X113918Y65316D01*
G01X113853Y65323D01*
G01X113829Y65326D01*
G01X113792Y65243D01*
G01X113755Y65326D01*
G01X113731Y65323D01*
G01X113666Y65316D01*
G01X113623D01*
G01X113593Y65274D01*
G01X113735Y65289D01*
G01X113792Y65159D01*
G01X113849Y65289D01*
G01X113992Y65274D01*
G01X113907Y65389D01*
G01X113992Y65504D01*
G01X113849Y65489D01*
G37*
G36*
G01X116259Y73987D02*
G01X116291Y73919D01*
G01X116327D01*
G01X116445Y73865D01*
G01X116459Y73858D01*
G01X116473Y73865D01*
G01X116591Y73919D01*
G01X116537Y73801D01*
G01X116530Y73787D01*
G01X116537Y73773D01*
G01X116591Y73655D01*
G01X116473Y73709D01*
G01X116459Y73716D01*
G01X116445Y73709D01*
G01X116327Y73655D01*
G01X116381Y73773D01*
G01X116388Y73787D01*
G01X116381Y73801D01*
G01X116327Y73919D01*
G01X116291D01*
G01X116351Y73787D01*
G01X116259Y73588D01*
G01X116459Y73679D01*
G01X116658Y73588D01*
G01X116567Y73787D01*
G01X116658Y73987D01*
G01X116459Y73895D01*
G37*
G36*
G01X116259Y71447D02*
G01X116291Y71379D01*
G01X116327D01*
G01X116445Y71325D01*
G01X116459Y71318D01*
G01X116473Y71325D01*
G01X116591Y71379D01*
G01X116537Y71261D01*
G01X116530Y71247D01*
G01X116537Y71233D01*
G01X116591Y71115D01*
G01X116473Y71169D01*
G01X116459Y71176D01*
G01X116445Y71169D01*
G01X116327Y71115D01*
G01X116381Y71233D01*
G01X116388Y71247D01*
G01X116381Y71261D01*
G01X116327Y71379D01*
G01X116291D01*
G01X116351Y71247D01*
G01X116259Y71048D01*
G01X116459Y71139D01*
G01X116658Y71048D01*
G01X116567Y71247D01*
G01X116658Y71447D01*
G01X116459Y71355D01*
G37*
G36*
G01X113719Y73987D02*
G01X113751Y73919D01*
G01X113787D01*
G01X113905Y73865D01*
G01X113919Y73858D01*
G01X113933Y73865D01*
G01X114051Y73919D01*
G01X113997Y73801D01*
G01X113990Y73787D01*
G01X113997Y73773D01*
G01X114051Y73655D01*
G01X113933Y73709D01*
G01X113919Y73716D01*
G01X113905Y73709D01*
G01X113787Y73655D01*
G01X113841Y73773D01*
G01X113848Y73787D01*
G01X113841Y73801D01*
G01X113787Y73919D01*
G01X113751D01*
G01X113811Y73787D01*
G01X113719Y73588D01*
G01X113919Y73679D01*
G01X114118Y73588D01*
G01X114027Y73787D01*
G01X114118Y73987D01*
G01X113919Y73895D01*
G37*
G36*
G01X113719Y71447D02*
G01X113751Y71379D01*
G01X113787D01*
G01X113905Y71325D01*
G01X113919Y71318D01*
G01X113933Y71325D01*
G01X114051Y71379D01*
G01X113997Y71261D01*
G01X113990Y71247D01*
G01X113997Y71233D01*
G01X114051Y71115D01*
G01X113933Y71169D01*
G01X113919Y71176D01*
G01X113905Y71169D01*
G01X113787Y71115D01*
G01X113841Y71233D01*
G01X113848Y71247D01*
G01X113841Y71261D01*
G01X113787Y71379D01*
G01X113751D01*
G01X113811Y71247D01*
G01X113719Y71048D01*
G01X113919Y71139D01*
G01X114118Y71048D01*
G01X114027Y71247D01*
G01X114118Y71447D01*
G01X113919Y71355D01*
G37*
G36*
G01X111179Y73987D02*
G01X111211Y73919D01*
G01X111247D01*
G01X111365Y73865D01*
G01X111379Y73858D01*
G01X111393Y73865D01*
G01X111511Y73919D01*
G01X111457Y73801D01*
G01X111450Y73787D01*
G01X111457Y73773D01*
G01X111511Y73655D01*
G01X111393Y73709D01*
G01X111379Y73716D01*
G01X111365Y73709D01*
G01X111247Y73655D01*
G01X111301Y73773D01*
G01X111308Y73787D01*
G01X111301Y73801D01*
G01X111247Y73919D01*
G01X111211D01*
G01X111271Y73787D01*
G01X111179Y73588D01*
G01X111379Y73679D01*
G01X111578Y73588D01*
G01X111487Y73787D01*
G01X111578Y73987D01*
G01X111379Y73895D01*
G37*
G36*
G01X111179Y71447D02*
G01X111211Y71379D01*
G01X111247D01*
G01X111365Y71325D01*
G01X111379Y71318D01*
G01X111393Y71325D01*
G01X111511Y71379D01*
G01X111457Y71261D01*
G01X111450Y71247D01*
G01X111457Y71233D01*
G01X111511Y71115D01*
G01X111393Y71169D01*
G01X111379Y71176D01*
G01X111365Y71169D01*
G01X111247Y71115D01*
G01X111301Y71233D01*
G01X111308Y71247D01*
G01X111301Y71261D01*
G01X111247Y71379D01*
G01X111211D01*
G01X111271Y71247D01*
G01X111179Y71048D01*
G01X111379Y71139D01*
G01X111578Y71048D01*
G01X111487Y71247D01*
G01X111578Y71447D01*
G01X111379Y71355D01*
G37*
G36*
G01X108639Y73987D02*
G01X108671Y73919D01*
G01X108707D01*
G01X108825Y73865D01*
G01X108839Y73858D01*
G01X108853Y73865D01*
G01X108971Y73919D01*
G01X108917Y73801D01*
G01X108910Y73787D01*
G01X108917Y73773D01*
G01X108971Y73655D01*
G01X108853Y73709D01*
G01X108839Y73716D01*
G01X108825Y73709D01*
G01X108707Y73655D01*
G01X108761Y73773D01*
G01X108768Y73787D01*
G01X108761Y73801D01*
G01X108707Y73919D01*
G01X108671D01*
G01X108731Y73787D01*
G01X108639Y73588D01*
G01X108839Y73679D01*
G01X109038Y73588D01*
G01X108947Y73787D01*
G01X109038Y73987D01*
G01X108839Y73895D01*
G37*
G36*
G01X108639Y71447D02*
G01X108671Y71379D01*
G01X108707D01*
G01X108825Y71325D01*
G01X108839Y71318D01*
G01X108853Y71325D01*
G01X108971Y71379D01*
G01X108917Y71261D01*
G01X108910Y71247D01*
G01X108917Y71233D01*
G01X108971Y71115D01*
G01X108853Y71169D01*
G01X108839Y71176D01*
G01X108825Y71169D01*
G01X108707Y71115D01*
G01X108761Y71233D01*
G01X108768Y71247D01*
G01X108761Y71261D01*
G01X108707Y71379D01*
G01X108671D01*
G01X108731Y71247D01*
G01X108639Y71048D01*
G01X108839Y71139D01*
G01X109038Y71048D01*
G01X108947Y71247D01*
G01X109038Y71447D01*
G01X108839Y71355D01*
G37*
G36*
G01X106099Y73987D02*
G01X106131Y73919D01*
G01X106167D01*
G01X106285Y73865D01*
G01X106299Y73858D01*
G01X106313Y73865D01*
G01X106431Y73919D01*
G01X106377Y73801D01*
G01X106370Y73787D01*
G01X106377Y73773D01*
G01X106431Y73655D01*
G01X106313Y73709D01*
G01X106299Y73716D01*
G01X106285Y73709D01*
G01X106167Y73655D01*
G01X106221Y73773D01*
G01X106228Y73787D01*
G01X106221Y73801D01*
G01X106167Y73919D01*
G01X106131D01*
G01X106191Y73787D01*
G01X106099Y73588D01*
G01X106299Y73679D01*
G01X106498Y73588D01*
G01X106407Y73787D01*
G01X106498Y73987D01*
G01X106299Y73895D01*
G37*
G36*
G01X106099Y71447D02*
G01X106131Y71379D01*
G01X106167D01*
G01X106285Y71325D01*
G01X106299Y71318D01*
G01X106313Y71325D01*
G01X106431Y71379D01*
G01X106377Y71261D01*
G01X106370Y71247D01*
G01X106377Y71233D01*
G01X106431Y71115D01*
G01X106313Y71169D01*
G01X106299Y71176D01*
G01X106285Y71169D01*
G01X106167Y71115D01*
G01X106221Y71233D01*
G01X106228Y71247D01*
G01X106221Y71261D01*
G01X106167Y71379D01*
G01X106131D01*
G01X106191Y71247D01*
G01X106099Y71048D01*
G01X106299Y71139D01*
G01X106498Y71048D01*
G01X106407Y71247D01*
G01X106498Y71447D01*
G01X106299Y71355D01*
G37*
G36*
G01X103559Y73987D02*
G01X103591Y73919D01*
G01X103627D01*
G01X103745Y73865D01*
G01X103759Y73858D01*
G01X103773Y73865D01*
G01X103891Y73919D01*
G01X103837Y73801D01*
G01X103830Y73787D01*
G01X103837Y73773D01*
G01X103891Y73655D01*
G01X103773Y73709D01*
G01X103759Y73716D01*
G01X103745Y73709D01*
G01X103627Y73655D01*
G01X103681Y73773D01*
G01X103688Y73787D01*
G01X103681Y73801D01*
G01X103627Y73919D01*
G01X103591D01*
G01X103651Y73787D01*
G01X103559Y73588D01*
G01X103759Y73679D01*
G01X103958Y73588D01*
G01X103867Y73787D01*
G01X103958Y73987D01*
G01X103759Y73895D01*
G37*
G36*
G01X103559Y71447D02*
G01X103591Y71379D01*
G01X103627D01*
G01X103745Y71325D01*
G01X103759Y71318D01*
G01X103773Y71325D01*
G01X103891Y71379D01*
G01X103837Y71261D01*
G01X103830Y71247D01*
G01X103837Y71233D01*
G01X103891Y71115D01*
G01X103773Y71169D01*
G01X103759Y71176D01*
G01X103745Y71169D01*
G01X103627Y71115D01*
G01X103681Y71233D01*
G01X103688Y71247D01*
G01X103681Y71261D01*
G01X103627Y71379D01*
G01X103591D01*
G01X103651Y71247D01*
G01X103559Y71048D01*
G01X103759Y71139D01*
G01X103958Y71048D01*
G01X103867Y71247D01*
G01X103958Y71447D01*
G01X103759Y71355D01*
G37*
G36*
G01X101019Y73987D02*
G01X101051Y73919D01*
G01X101087D01*
G01X101205Y73865D01*
G01X101219Y73858D01*
G01X101233Y73865D01*
G01X101351Y73919D01*
G01X101297Y73801D01*
G01X101290Y73787D01*
G01X101297Y73773D01*
G01X101351Y73655D01*
G01X101233Y73709D01*
G01X101219Y73716D01*
G01X101205Y73709D01*
G01X101087Y73655D01*
G01X101141Y73773D01*
G01X101148Y73787D01*
G01X101141Y73801D01*
G01X101087Y73919D01*
G01X101051D01*
G01X101111Y73787D01*
G01X101019Y73588D01*
G01X101219Y73679D01*
G01X101418Y73588D01*
G01X101327Y73787D01*
G01X101418Y73987D01*
G01X101219Y73895D01*
G37*
G36*
G01X101019Y71447D02*
G01X101051Y71379D01*
G01X101087D01*
G01X101205Y71325D01*
G01X101219Y71318D01*
G01X101233Y71325D01*
G01X101351Y71379D01*
G01X101297Y71261D01*
G01X101290Y71247D01*
G01X101297Y71233D01*
G01X101351Y71115D01*
G01X101233Y71169D01*
G01X101219Y71176D01*
G01X101205Y71169D01*
G01X101087Y71115D01*
G01X101141Y71233D01*
G01X101148Y71247D01*
G01X101141Y71261D01*
G01X101087Y71379D01*
G01X101051D01*
G01X101111Y71247D01*
G01X101019Y71048D01*
G01X101219Y71139D01*
G01X101418Y71048D01*
G01X101327Y71247D01*
G01X101418Y71447D01*
G01X101219Y71355D01*
G37*
G36*
G01X98479Y73987D02*
G01X98511Y73919D01*
G01X98547D01*
G01X98665Y73865D01*
G01X98679Y73858D01*
G01X98693Y73865D01*
G01X98811Y73919D01*
G01X98757Y73801D01*
G01X98750Y73787D01*
G01X98757Y73773D01*
G01X98811Y73655D01*
G01X98693Y73709D01*
G01X98679Y73716D01*
G01X98665Y73709D01*
G01X98547Y73655D01*
G01X98601Y73773D01*
G01X98608Y73787D01*
G01X98601Y73801D01*
G01X98547Y73919D01*
G01X98511D01*
G01X98571Y73787D01*
G01X98479Y73588D01*
G01X98679Y73679D01*
G01X98878Y73588D01*
G01X98787Y73787D01*
G01X98878Y73987D01*
G01X98679Y73895D01*
G37*
G36*
G01X98479Y71447D02*
G01X98511Y71379D01*
G01X98547D01*
G01X98665Y71325D01*
G01X98679Y71318D01*
G01X98693Y71325D01*
G01X98811Y71379D01*
G01X98757Y71261D01*
G01X98750Y71247D01*
G01X98757Y71233D01*
G01X98811Y71115D01*
G01X98693Y71169D01*
G01X98679Y71176D01*
G01X98665Y71169D01*
G01X98547Y71115D01*
G01X98601Y71233D01*
G01X98608Y71247D01*
G01X98601Y71261D01*
G01X98547Y71379D01*
G01X98511D01*
G01X98571Y71247D01*
G01X98479Y71048D01*
G01X98679Y71139D01*
G01X98878Y71048D01*
G01X98787Y71247D01*
G01X98878Y71447D01*
G01X98679Y71355D01*
G37*
G36*
G01X94567Y60017D02*
G01X94598Y59949D01*
G01X94634D01*
G01X94752Y59895D01*
G01X94766Y59888D01*
G01X94780Y59895D01*
G01X94897Y59949D01*
G01X94844Y59831D01*
G01X94837Y59817D01*
G01X94844Y59803D01*
G01X94897Y59685D01*
G01X94780Y59739D01*
G01X94766Y59746D01*
G01X94752Y59739D01*
G01X94634Y59685D01*
G01X94688Y59803D01*
G01X94695Y59817D01*
G01X94688Y59831D01*
G01X94634Y59949D01*
G01X94598D01*
G01X94658Y59817D01*
G01X94567Y59617D01*
G01X94766Y59709D01*
G01X94966Y59617D01*
G01X94874Y59817D01*
G01X94966Y60017D01*
G01X94766Y59925D01*
G37*
G36*
G01X97566Y60017D02*
G01X97597Y59949D01*
G01X97634D01*
G01X97752Y59895D01*
G01X97766Y59888D01*
G01X97780Y59895D01*
G01X97898Y59949D01*
G01X97843Y59831D01*
G01X97837Y59817D01*
G01X97843Y59803D01*
G01X97898Y59685D01*
G01X97780Y59739D01*
G01X97766Y59746D01*
G01X97752Y59739D01*
G01X97634Y59685D01*
G01X97688Y59803D01*
G01X97694Y59817D01*
G01X97688Y59831D01*
G01X97634Y59949D01*
G01X97597D01*
G01X97658Y59817D01*
G01X97566Y59617D01*
G01X97766Y59709D01*
G01X97965Y59617D01*
G01X97874Y59817D01*
G01X97965Y60017D01*
G01X97766Y59925D01*
G37*
G36*
G01X107775Y60144D02*
G01X107806Y60076D01*
G01X107842D01*
G01X107960Y60022D01*
G01X107974Y60015D01*
G01X107988Y60022D01*
G01X108105Y60076D01*
G01X108052Y59958D01*
G01X108045Y59944D01*
G01X108052Y59930D01*
G01X108105Y59812D01*
G01X107988Y59866D01*
G01X107974Y59873D01*
G01X107960Y59866D01*
G01X107842Y59812D01*
G01X107896Y59930D01*
G01X107903Y59944D01*
G01X107896Y59958D01*
G01X107842Y60076D01*
G01X107806D01*
G01X107866Y59944D01*
G01X107775Y59744D01*
G01X107974Y59836D01*
G01X108174Y59744D01*
G01X108082Y59944D01*
G01X108174Y60144D01*
G01X107974Y60052D01*
G37*
G36*
G01X110774Y60144D02*
G01X110805Y60076D01*
G01X110842D01*
G01X110960Y60022D01*
G01X110974Y60015D01*
G01X110988Y60022D01*
G01X111106Y60076D01*
G01X111051Y59958D01*
G01X111045Y59944D01*
G01X111051Y59930D01*
G01X111106Y59812D01*
G01X110988Y59866D01*
G01X110974Y59873D01*
G01X110960Y59866D01*
G01X110842Y59812D01*
G01X110896Y59930D01*
G01X110902Y59944D01*
G01X110896Y59958D01*
G01X110842Y60076D01*
G01X110805D01*
G01X110866Y59944D01*
G01X110774Y59744D01*
G01X110974Y59836D01*
G01X111173Y59744D01*
G01X111082Y59944D01*
G01X111173Y60144D01*
G01X110974Y60052D01*
G37*
G36*
G01X91622Y64081D02*
G01X91622Y63971D01*
G01X91514D01*
G01Y63824D01*
G01X91547D01*
G01Y63938D01*
G01X91656D01*
G01Y64047D01*
G01X91770D01*
G01Y63938D01*
G01X91879D01*
G01Y63824D01*
G01X91770D01*
G01Y63715D01*
G01X91656D01*
G01Y63824D01*
G01X91547D01*
G01X91514D01*
G01Y63791D01*
G01X91622D01*
G01Y63681D01*
G01X91804D01*
G01Y63791D01*
G01X91912D01*
G01Y63971D01*
G01X91804D01*
G01Y64081D01*
G37*
G36*
G01X94124Y64081D02*
G01X94124Y63971D01*
G01X94016D01*
G01Y63824D01*
G01X94049D01*
G01Y63938D01*
G01X94158D01*
G01Y64047D01*
G01X94272D01*
G01Y63938D01*
G01X94381D01*
G01Y63824D01*
G01X94272D01*
G01Y63715D01*
G01X94158D01*
G01Y63824D01*
G01X94049D01*
G01X94016D01*
G01Y63791D01*
G01X94124D01*
G01Y63681D01*
G01X94306D01*
G01Y63791D01*
G01X94414D01*
G01Y63971D01*
G01X94306D01*
G01Y64081D01*
G37*
G36*
G01X105211Y64081D02*
G01X105211Y63971D01*
G01X105103D01*
G01Y63824D01*
G01X105136D01*
G01Y63938D01*
G01X105245D01*
G01Y64047D01*
G01X105359D01*
G01Y63938D01*
G01X105468D01*
G01Y63824D01*
G01X105359D01*
G01Y63715D01*
G01X105245D01*
G01Y63824D01*
G01X105136D01*
G01X105103D01*
G01Y63791D01*
G01X105211D01*
G01Y63681D01*
G01X105393D01*
G01Y63791D01*
G01X105501D01*
G01Y63971D01*
G01X105393D01*
G01Y64081D01*
G37*
G36*
G01X107713Y64081D02*
G01X107713Y63971D01*
G01X107605D01*
G01Y63824D01*
G01X107638D01*
G01Y63938D01*
G01X107747D01*
G01Y64047D01*
G01X107861D01*
G01Y63938D01*
G01X107970D01*
G01Y63824D01*
G01X107861D01*
G01Y63715D01*
G01X107747D01*
G01Y63824D01*
G01X107638D01*
G01X107605D01*
G01Y63791D01*
G01X107713D01*
G01Y63681D01*
G01X107895D01*
G01Y63791D01*
G01X108003D01*
G01Y63971D01*
G01X107895D01*
G01Y64081D01*
G37*
G36*
G01X118020Y61921D02*
G01X118020Y61812D01*
G01X117911D01*
G01Y61665D01*
G01X117944D01*
G01Y61779D01*
G01X118053D01*
G01Y61888D01*
G01X118167D01*
G01Y61779D01*
G01X118276D01*
G01Y61665D01*
G01X118167D01*
G01Y61556D01*
G01X118053D01*
G01Y61665D01*
G01X117944D01*
G01X117911D01*
G01Y61632D01*
G01X118020D01*
G01Y61522D01*
G01X118200D01*
G01Y61632D01*
G01X118309D01*
G01Y61812D01*
G01X118200D01*
G01Y61921D01*
G37*
G36*
G01X118020Y64421D02*
G01X118020Y64312D01*
G01X117911D01*
G01Y64164D01*
G01X117944D01*
G01Y64279D01*
G01X118053D01*
G01Y64388D01*
G01X118167D01*
G01Y64279D01*
G01X118276D01*
G01Y64164D01*
G01X118167D01*
G01Y64056D01*
G01X118053D01*
G01Y64164D01*
G01X117944D01*
G01X117911D01*
G01Y64131D01*
G01X118020D01*
G01Y64022D01*
G01X118201D01*
G01Y64131D01*
G01X118310D01*
G01Y64312D01*
G01X118201D01*
G01Y64421D01*
G37*
G36*
G01X118020Y66921D02*
G01X118020Y66813D01*
G01X117911D01*
G01Y66665D01*
G01X117944D01*
G01Y66779D01*
G01X118053D01*
G01Y66888D01*
G01X118167D01*
G01Y66779D01*
G01X118276D01*
G01Y66664D01*
G01X118167D01*
G01Y66556D01*
G01X118053D01*
G01Y66665D01*
G01X117944D01*
G01X117911D01*
G01Y66631D01*
G01X118020D01*
G01Y66523D01*
G01X118200D01*
G01Y66631D01*
G01X118309D01*
G01Y66813D01*
G01X118200D01*
G01Y66921D01*
G37*
G36*
G01X118020Y59421D02*
G01X118020Y59313D01*
G01X117911D01*
G01Y59165D01*
G01X117944D01*
G01Y59279D01*
G01X118053D01*
G01Y59388D01*
G01X118167D01*
G01Y59279D01*
G01X118276D01*
G01Y59164D01*
G01X118167D01*
G01Y59056D01*
G01X118053D01*
G01Y59165D01*
G01X117944D01*
G01X117911D01*
G01Y59131D01*
G01X118020D01*
G01Y59022D01*
G01X118201D01*
G01Y59131D01*
G01X118310D01*
G01Y59313D01*
G01X118201D01*
G01Y59421D01*
G37*
G36*
G01X118020Y56921D02*
G01X118020Y56813D01*
G01X117910D01*
G01Y56665D01*
G01X117944D01*
G01Y56779D01*
G01X118053D01*
G01Y56888D01*
G01X118167D01*
G01Y56779D01*
G01X118276D01*
G01Y56664D01*
G01X118167D01*
G01Y56556D01*
G01X118053D01*
G01Y56665D01*
G01X117944D01*
G01X117910D01*
G01Y56631D01*
G01X118020D01*
G01Y56523D01*
G01X118200D01*
G01Y56631D01*
G01X118309D01*
G01Y56813D01*
G01X118200D01*
G01Y56921D01*
G37*
G36*
G01X123227Y67890D02*
G01X123227Y67781D01*
G01X123118D01*
G01Y67634D01*
G01X123151D01*
G01Y67748D01*
G01X123260D01*
G01Y67857D01*
G01X123374D01*
G01Y67748D01*
G01X123483D01*
G01Y67634D01*
G01X123374D01*
G01Y67525D01*
G01X123260D01*
G01Y67634D01*
G01X123151D01*
G01X123118D01*
G01Y67601D01*
G01X123227D01*
G01Y67492D01*
G01X123407D01*
G01Y67601D01*
G01X123516D01*
G01Y67781D01*
G01X123407D01*
G01Y67890D01*
G37*
G36*
G01X123227Y65350D02*
G01X123227Y65241D01*
G01X123118D01*
G01Y65094D01*
G01X123151D01*
G01Y65208D01*
G01X123260D01*
G01Y65317D01*
G01X123374D01*
G01Y65208D01*
G01X123483D01*
G01Y65094D01*
G01X123374D01*
G01Y64985D01*
G01X123260D01*
G01Y65094D01*
G01X123151D01*
G01X123118D01*
G01Y65061D01*
G01X123227D01*
G01Y64951D01*
G01X123407D01*
G01Y65061D01*
G01X123516D01*
G01Y65241D01*
G01X123407D01*
G01Y65350D01*
G37*
G36*
G01X123227Y62810D02*
G01X123227Y62701D01*
G01X123118D01*
G01Y62554D01*
G01X123151D01*
G01Y62668D01*
G01X123260D01*
G01Y62777D01*
G01X123374D01*
G01Y62668D01*
G01X123483D01*
G01Y62554D01*
G01X123374D01*
G01Y62445D01*
G01X123260D01*
G01Y62554D01*
G01X123151D01*
G01X123118D01*
G01Y62521D01*
G01X123227D01*
G01Y62411D01*
G01X123407D01*
G01Y62521D01*
G01X123516D01*
G01Y62701D01*
G01X123407D01*
G01Y62810D01*
G37*
G36*
G01X123227Y60270D02*
G01X123227Y60161D01*
G01X123118D01*
G01Y60014D01*
G01X123151D01*
G01Y60128D01*
G01X123260D01*
G01Y60237D01*
G01X123374D01*
G01Y60128D01*
G01X123483D01*
G01Y60014D01*
G01X123374D01*
G01Y59905D01*
G01X123260D01*
G01Y60014D01*
G01X123151D01*
G01X123118D01*
G01Y59981D01*
G01X123227D01*
G01Y59871D01*
G01X123407D01*
G01Y59981D01*
G01X123516D01*
G01Y60161D01*
G01X123407D01*
G01Y60270D01*
G37*
G36*
G01X123227Y57730D02*
G01X123227Y57621D01*
G01X123118D01*
G01Y57474D01*
G01X123151D01*
G01Y57588D01*
G01X123260D01*
G01Y57697D01*
G01X123374D01*
G01Y57588D01*
G01X123483D01*
G01Y57474D01*
G01X123374D01*
G01Y57365D01*
G01X123260D01*
G01Y57474D01*
G01X123151D01*
G01X123118D01*
G01Y57441D01*
G01X123227D01*
G01Y57331D01*
G01X123407D01*
G01Y57441D01*
G01X123516D01*
G01Y57621D01*
G01X123407D01*
G01Y57730D01*
G37*
G36*
G01X83984Y58366D02*
G01X83984Y58256D01*
G01X83875D01*
G01Y58109D01*
G01X83908D01*
G01Y58223D01*
G01X84017D01*
G01Y58332D01*
G01X84131D01*
G01Y58223D01*
G01X84240D01*
G01Y58109D01*
G01X84131D01*
G01Y58000D01*
G01X84017D01*
G01Y58109D01*
G01X83908D01*
G01X83875D01*
G01Y58076D01*
G01X83984D01*
G01Y57966D01*
G01X84164D01*
G01Y58076D01*
G01X84273D01*
G01Y58256D01*
G01X84164D01*
G01Y58366D01*
G37*
G36*
G01X83984Y60906D02*
G01X83984Y60796D01*
G01X83875D01*
G01Y60649D01*
G01X83908D01*
G01Y60763D01*
G01X84017D01*
G01Y60872D01*
G01X84131D01*
G01Y60763D01*
G01X84240D01*
G01Y60649D01*
G01X84131D01*
G01Y60540D01*
G01X84017D01*
G01Y60649D01*
G01X83908D01*
G01X83875D01*
G01Y60616D01*
G01X83984D01*
G01Y60506D01*
G01X84164D01*
G01Y60616D01*
G01X84273D01*
G01Y60796D01*
G01X84164D01*
G01Y60906D01*
G37*
G36*
G01X83984Y63446D02*
G01X83984Y63336D01*
G01X83875D01*
G01Y63189D01*
G01X83908D01*
G01Y63303D01*
G01X84017D01*
G01Y63412D01*
G01X84131D01*
G01Y63303D01*
G01X84240D01*
G01Y63189D01*
G01X84131D01*
G01Y63080D01*
G01X84017D01*
G01Y63189D01*
G01X83908D01*
G01X83875D01*
G01Y63156D01*
G01X83984D01*
G01Y63046D01*
G01X84164D01*
G01Y63156D01*
G01X84273D01*
G01Y63336D01*
G01X84164D01*
G01Y63446D01*
G37*
G36*
G01X83984Y65986D02*
G01X83984Y65876D01*
G01X83875D01*
G01Y65729D01*
G01X83908D01*
G01Y65843D01*
G01X84017D01*
G01Y65952D01*
G01X84131D01*
G01Y65843D01*
G01X84240D01*
G01Y65729D01*
G01X84131D01*
G01Y65620D01*
G01X84017D01*
G01Y65729D01*
G01X83908D01*
G01X83875D01*
G01Y65696D01*
G01X83984D01*
G01Y65587D01*
G01X84164D01*
G01Y65696D01*
G01X84273D01*
G01Y65876D01*
G01X84164D01*
G01Y65986D01*
G37*
G36*
G01X86524Y58366D02*
G01X86524Y58256D01*
G01X86415D01*
G01Y58109D01*
G01X86448D01*
G01Y58223D01*
G01X86557D01*
G01Y58332D01*
G01X86671D01*
G01Y58223D01*
G01X86780D01*
G01Y58109D01*
G01X86671D01*
G01Y58000D01*
G01X86557D01*
G01Y58109D01*
G01X86448D01*
G01X86415D01*
G01Y58076D01*
G01X86524D01*
G01Y57966D01*
G01X86704D01*
G01Y58076D01*
G01X86813D01*
G01Y58256D01*
G01X86704D01*
G01Y58366D01*
G37*
G36*
G01X86524Y60906D02*
G01X86524Y60796D01*
G01X86415D01*
G01Y60649D01*
G01X86448D01*
G01Y60763D01*
G01X86557D01*
G01Y60872D01*
G01X86671D01*
G01Y60763D01*
G01X86780D01*
G01Y60649D01*
G01X86671D01*
G01Y60540D01*
G01X86557D01*
G01Y60649D01*
G01X86448D01*
G01X86415D01*
G01Y60616D01*
G01X86524D01*
G01Y60506D01*
G01X86704D01*
G01Y60616D01*
G01X86813D01*
G01Y60796D01*
G01X86704D01*
G01Y60906D01*
G37*
G36*
G01X86524Y63446D02*
G01X86524Y63336D01*
G01X86415D01*
G01Y63189D01*
G01X86448D01*
G01Y63303D01*
G01X86557D01*
G01Y63412D01*
G01X86671D01*
G01Y63303D01*
G01X86780D01*
G01Y63189D01*
G01X86671D01*
G01Y63080D01*
G01X86557D01*
G01Y63189D01*
G01X86448D01*
G01X86415D01*
G01Y63156D01*
G01X86524D01*
G01Y63046D01*
G01X86704D01*
G01Y63156D01*
G01X86813D01*
G01Y63336D01*
G01X86704D01*
G01Y63446D01*
G37*
G36*
G01X86524Y65986D02*
G01X86524Y65876D01*
G01X86415D01*
G01Y65729D01*
G01X86448D01*
G01Y65843D01*
G01X86557D01*
G01Y65952D01*
G01X86671D01*
G01Y65843D01*
G01X86780D01*
G01Y65729D01*
G01X86671D01*
G01Y65620D01*
G01X86557D01*
G01Y65729D01*
G01X86448D01*
G01X86415D01*
G01Y65696D01*
G01X86524D01*
G01Y65587D01*
G01X86704D01*
G01Y65696D01*
G01X86813D01*
G01Y65876D01*
G01X86704D01*
G01Y65986D01*
G37*
G04 Image End*
G54D10*

M02*
