G04 Layer: BottomLayer*
G04 EasyEDA Pro v1.9.30.011b94, 2023-06-19 18:55:00*
G04 Gerber Generator version 0.3*
G04 Scale: 100 percent, Rotated: No, Reflected: No*
G04 Dimensions in millimeters*
G04 Leading zeros omitted, absolute positions, 3 integers and 3 decimals*
%FSLAX33Y33*%
%MOMM*%
%ADD999C,0.2032*%
%ADD10C,0.83008*%
%ADD11C,2.755075*%
%ADD12C,0.85508*%
%ADD13C,5.499989*%
%ADD14C,1.649999*%
%ADD15C,1.4022*%
%ADD16C,1.4*%
%ADD17R,1.649999X1.649999*%
%ADD18R,1.649999X1.649999*%
%ADD19C,1.699999*%
%ADD20R,1.699999X1.699999*%
%ADD21R,1.699999X1.699999*%
%ADD22C,0.999998*%
%ADD23C,1.599997*%
%ADD24C,0.399999*%
G75*


G04 Copper Start*
G36*
G01X94189Y53559D02*
G01X90431Y48682D01*
G01X83261Y48743D01*
G01X77798Y57769D01*
G01X77877Y70097D01*
G01X80407Y72416D01*
G01X85733Y72540D01*
G03X86016Y72689I-8J358D01*
G01X90735Y79271D01*
G01X119214D01*
G01X124737Y72766D01*
G01Y56111D01*
G01X122047D01*
G03X121689Y55753I0J-358D01*
G01Y54206D01*
G01X115316D01*
G03X115117Y54146I0J-358D01*
G01X114446Y53698D01*
G01X96732D01*
G03X98124Y55497I-466J1799D01*
G03X96266Y57355I-1858J0D01*
G03X94408Y55497I0J-1858D01*
G03X95800Y53698I1858J0D01*
G01X94473D01*
G03X94189Y53559I0J-358D01*
G37*
%LPC*%
G36*
G01X87991Y58166D02*
G03X89149Y57008I1158J0D01*
G03X89968Y57347I0J1158D01*
G01X94215Y61594D01*
G01X94349Y61460D01*
G03X95168Y61121I819J819D01*
G01X96608D01*
G01Y60850D01*
G03X96558Y60667I308J-183D01*
G01Y58967D01*
G03X96916Y58609I358J0D01*
G01X98616D01*
G03X98974Y58967I0J358D01*
G01Y60667D01*
G03X98924Y60850I-358J0D01*
G01Y62279D01*
G03X98841Y62709I-1158J0D01*
G03X99797Y62559I956J2958D01*
G03X102905Y65667I0J3108D01*
G03X101261Y68409I-3108J0D01*
G01X104319D01*
G03X104926Y68660I0J858D01*
G01X106304Y70039D01*
G03X107507Y71247I-5J1208D01*
G03X106299Y72455I-1208J0D01*
G03X105091Y71252I0J-1208D01*
G01X104961Y71122D01*
G03X104967Y71247I-1202J125D01*
G03X104917Y71591I-1208J0D01*
G01Y73443D01*
G03X104967Y73787I-1158J344D01*
G03X104961Y73912I-1208J0D01*
G01X105091Y73782D01*
G03X106299Y72579I1208J5D01*
G03X107507Y73787I0J1208D01*
G03X106304Y74995I-1208J0D01*
G01X103080Y78220D01*
G03X102473Y78471I-607J-607D01*
G01X97043D01*
G03X96436Y78220I0J-858D01*
G01X88261Y70046D01*
G03X88010Y69439I607J-607D01*
G01Y65856D01*
G01X87787Y65633D01*
G03X87797Y65786I-1173J153D01*
G03X86614Y66969I-1183J0D01*
G03X85431Y65786I0J-1183D01*
G03X86614Y64603I1183J0D01*
G03X86767Y64613I0J1183D01*
G01X86583Y64429D01*
G03X85431Y63246I31J-1183D01*
G03X86614Y62063I1183J0D01*
G03X87797Y63215I0J1183D01*
G01X89475Y64893D01*
G03X89726Y65500I-607J607D01*
G01Y69083D01*
G01X90570Y69927D01*
G03X90555Y69743I1143J-184D01*
G01Y64123D01*
G03X90530Y63881I1158J-242D01*
G03X91713Y62698I1183J0D01*
G03X92112Y62767I0J1183D01*
G01X88330Y58985D01*
G03X87991Y58166I819J-819D01*
G37*
G36*
G01X115443Y54717D02*
G03X115838Y54553I395J395D01*
G01X119463D01*
G03X119858Y54717I0J558D01*
G01X120713Y55572D01*
G03X120876Y55966I-395J395D01*
G01Y59182D01*
G01X122185Y57874D01*
G03X122134Y57531I1132J-343D01*
G03X123317Y56348I1183J0D01*
G03X124500Y57531I0J1183D01*
G03X123317Y58714I-1183J0D01*
G03X122974Y58663I0J-1183D01*
G01X121478Y60159D01*
G01Y73113D01*
G03X121314Y73508I-558J0D01*
G01X117877Y76946D01*
G03X117482Y77109I-395J-395D01*
G01X111603D01*
G03X111208Y76946I0J-558D01*
G01X109202Y74939D01*
G03X108839Y74995I-363J-1152D01*
G03X107631Y73787I0J-1208D01*
G03X108839Y72579I1208J0D01*
G03X110047Y73787I0J1208D01*
G03X109991Y74150I-1208J0D01*
G01X111834Y75993D01*
G01X112796D01*
G01X111742Y74939D01*
G03X111379Y74995I-363J-1152D01*
G03X110171Y73787I0J-1208D01*
G03X111379Y72579I1208J0D01*
G03X112587Y73787I0J1208D01*
G03X112531Y74150I-1208J0D01*
G01X113652Y75271D01*
G01X114613D01*
G01X114282Y74939D01*
G03X113919Y74995I-363J-1152D01*
G03X112711Y73787I0J-1208D01*
G03X113919Y72579I1208J0D01*
G03X115127Y73787I0J1208D01*
G03X115071Y74150I-1208J0D01*
G01X115590Y74669D01*
G01X115633D01*
G03X115251Y73787I826J-882D01*
G03X116459Y72579I1208J0D01*
G03X117667Y73787I0J1208D01*
G01Y73805D01*
G01X119072Y72400D01*
G01Y67878D01*
G03X118935Y67905I-137J-331D01*
G01X117285D01*
G03X116927Y67547I0J-358D01*
G01Y65897D01*
G03X117285Y65539I358J0D01*
G01X118935D01*
G03X119072Y65566I0J358D01*
G01Y64910D01*
G03X118110Y65405I-962J-688D01*
G03X116927Y64222I0J-1183D01*
G03X118110Y63039I1183J0D01*
G03X119072Y63534I0J1183D01*
G01Y63474D01*
G01X118453Y62854D01*
G03X118110Y62905I-343J-1132D01*
G03X116927Y61722I0J-1183D01*
G03X118110Y60539I1183J0D01*
G03X119293Y61722I0J1183D01*
G03X119242Y62065I-1183J0D01*
G01X119760Y62583D01*
G01Y56198D01*
G01X119232Y55669D01*
G01X118650D01*
G03X119293Y56722I-540J1053D01*
G03X118110Y57905I-1183J0D01*
G03X116927Y56722I0J-1183D01*
G03X117570Y55669I1183J0D01*
G01X116069D01*
G01X115632Y56106D01*
G01Y64107D01*
G03X115468Y64502I-558J0D01*
G01X114822Y65148D01*
G03X114850Y65389I-1030J241D01*
G03X113792Y66447I-1058J0D01*
G03X112740Y65499I0J-1058D01*
G01X108337Y61096D01*
G03X107974Y61152I-363J-1152D01*
G03X107611Y61096I0J-1208D01*
G01X105866Y62841D01*
G03X106485Y63881I-564J1040D01*
G03X105302Y65064I-1183J0D01*
G03X104119Y63881I0J-1183D01*
G03X104744Y62838I1183J0D01*
G01Y62616D01*
G03X104907Y62221I558J0D01*
G01X106822Y60307D01*
G03X106766Y59944I1152J-363D01*
G03X107974Y58736I1208J0D01*
G03X109182Y59944I0J1208D01*
G03X109126Y60307I-1208J0D01*
G01X113282Y64462D01*
G03X113446Y64389I510J927D01*
G03X112734Y63389I346J-1000D01*
G03X112762Y63148I1058J0D01*
G01X110766Y61152D01*
G01X110124D01*
G03X109766Y60794I0J-358D01*
G01Y59094D01*
G03X110124Y58736I358J0D01*
G01X111824D01*
G03X112182Y59094I0J358D01*
G01Y60794D01*
G03X112145Y60953I-358J0D01*
G01X113551Y62359D01*
G03X113792Y62331I241J1030D01*
G03X114516Y62617I0J1058D01*
G01Y55875D01*
G03X114679Y55481I558J0D01*
G01X115443Y54717D01*
G37*
G36*
G01X87813Y49787D02*
G03X90921Y52896I0J3108D01*
G03X87813Y56004I-3108J0D01*
G03X84705Y52896I0J-3108D01*
G03X87813Y49787I3108J0D01*
G37*
G36*
G01X107616Y55624D02*
G03X109474Y53766I1858J0D01*
G03X111332Y55624I0J1858D01*
G03X109474Y57482I-1858J0D01*
G03X107616Y55624I0J-1858D01*
G37*
G36*
G01X111379Y70039D02*
G03X112587Y71247I0J1208D01*
G03X111379Y72455I-1208J0D01*
G03X110171Y71247I0J-1208D01*
G03X111379Y70039I1208J0D01*
G37*
G36*
G01X113919Y70039D02*
G03X115127Y71247I0J1208D01*
G03X113919Y72455I-1208J0D01*
G03X112711Y71247I0J-1208D01*
G03X113919Y70039I1208J0D01*
G37*
G36*
G01X108839Y70039D02*
G03X110047Y71247I0J1208D01*
G03X108839Y72455I-1208J0D01*
G03X107631Y71247I0J-1208D01*
G03X108839Y70039I1208J0D01*
G37*
G36*
G01X116459Y70039D02*
G03X117667Y71247I0J1208D01*
G03X116459Y72455I-1208J0D01*
G03X115251Y71247I0J-1208D01*
G03X116459Y70039I1208J0D01*
G37*
G36*
G01X93558Y59817D02*
G03X94766Y58609I1208J0D01*
G03X95974Y59817I0J1208D01*
G03X94766Y61025I-1208J0D01*
G03X93558Y59817I0J-1208D01*
G37*
G36*
G01X124142Y66508D02*
G03X124500Y66866I0J358D01*
G01Y68516D01*
G03X124142Y68874I-358J0D01*
G01X122492D01*
G03X122134Y68516I0J-358D01*
G01Y66866D01*
G03X122492Y66508I358J0D01*
G01X124142D01*
G37*
G36*
G01X84899Y56983D02*
G03X85257Y57341I0J358D01*
G01Y58991D01*
G03X84899Y59349I-358J0D01*
G01X83249D01*
G03X82891Y58991I0J-358D01*
G01Y57341D01*
G03X83249Y56983I358J0D01*
G01X84899D01*
G37*
G36*
G01X84074Y64603D02*
G03X85257Y65786I0J1183D01*
G03X84074Y66969I-1183J0D01*
G03X82891Y65786I0J-1183D01*
G03X84074Y64603I1183J0D01*
G37*
G36*
G01X123317Y63968D02*
G03X124500Y65151I0J1183D01*
G03X123317Y66334I-1183J0D01*
G03X122134Y65151I0J-1183D01*
G03X123317Y63968I1183J0D01*
G37*
G36*
G01X118110Y58039D02*
G03X119293Y59222I0J1183D01*
G03X118110Y60405I-1183J0D01*
G03X116927Y59222I0J-1183D01*
G03X118110Y58039I1183J0D01*
G37*
G36*
G01X106621Y63881D02*
G03X107804Y62698I1183J0D01*
G03X108987Y63881I0J1183D01*
G03X107804Y65064I-1183J0D01*
G03X106621Y63881I0J-1183D01*
G37*
G36*
G01X82891Y63246D02*
G03X84074Y62063I1183J0D01*
G03X85257Y63246I0J1183D01*
G03X84074Y64429I-1183J0D01*
G03X82891Y63246I0J-1183D01*
G37*
G36*
G01X123317Y61428D02*
G03X124500Y62611I0J1183D01*
G03X123317Y63794I-1183J0D01*
G03X122134Y62611I0J-1183D01*
G03X123317Y61428I1183J0D01*
G37*
G36*
G01X86614Y59523D02*
G03X87797Y60706I0J1183D01*
G03X86614Y61889I-1183J0D01*
G03X85431Y60706I0J-1183D01*
G03X86614Y59523I1183J0D01*
G37*
G36*
G01X84074Y59523D02*
G03X85257Y60706I0J1183D01*
G03X84074Y61889I-1183J0D01*
G03X82891Y60706I0J-1183D01*
G03X84074Y59523I1183J0D01*
G37*
G36*
G01X123317Y58888D02*
G03X124500Y60071I0J1183D01*
G03X123317Y61254I-1183J0D01*
G03X122134Y60071I0J-1183D01*
G03X123317Y58888I1183J0D01*
G37*
G36*
G01X86614Y56983D02*
G03X87797Y58166I0J1183D01*
G03X86614Y59349I-1183J0D01*
G03X85431Y58166I0J-1183D01*
G03X86614Y56983I1183J0D01*
G37*
%LPD*%
G36*
G01X96689Y65667D02*
G03X97631Y63437I3108J0D01*
G01X95648D01*
G01X95384Y63701D01*
G03X95398Y63881I-1169J180D01*
G03X95373Y64123I-1183J0D01*
G01Y68354D01*
G01X97108Y70089D01*
G01X97646D01*
G03X97829Y70039I183J308D01*
G01X97877D01*
G03X97645Y69874I375J-772D01*
G01X97636Y69865D01*
G03X97385Y69259I607J-607D01*
G03X98243Y68401I858J0D01*
G03X98325Y68404I0J858D01*
G03X96689Y65667I1472J-2738D01*
G37*
G54D999*
G01X94189Y53559D02*
G01X90431Y48682D01*
G01X83261Y48743D01*
G01X77798Y57769D01*
G01X77877Y70097D01*
G01X80407Y72416D01*
G01X85733Y72540D01*
G03X86016Y72689I-8J358D01*
G01X90735Y79271D01*
G01X119214D01*
G01X124737Y72766D01*
G01Y56111D01*
G01X122047D01*
G03X121689Y55753I0J-358D01*
G01Y54206D01*
G01X115316D01*
G03X115117Y54146I0J-358D01*
G01X114446Y53698D01*
G01X96732D01*
G03X98124Y55497I-466J1799D01*
G03X96266Y57355I-1858J0D01*
G03X94408Y55497I0J-1858D01*
G03X95800Y53698I1858J0D01*
G01X94473D01*
G03X94189Y53559I0J-358D01*
G01X87991Y58166D02*
G03X89149Y57008I1158J0D01*
G03X89968Y57347I0J1158D01*
G01X94215Y61594D01*
G01X94349Y61460D01*
G03X95168Y61121I819J819D01*
G01X96608D01*
G01Y60850D01*
G03X96558Y60667I308J-183D01*
G01Y58967D01*
G03X96916Y58609I358J0D01*
G01X98616D01*
G03X98974Y58967I0J358D01*
G01Y60667D01*
G03X98924Y60850I-358J0D01*
G01Y62279D01*
G03X98841Y62709I-1158J0D01*
G03X99797Y62559I956J2958D01*
G03X102905Y65667I0J3108D01*
G03X101261Y68409I-3108J0D01*
G01X104319D01*
G03X104926Y68660I0J858D01*
G01X106304Y70039D01*
G03X107507Y71247I-5J1208D01*
G03X106299Y72455I-1208J0D01*
G03X105091Y71252I0J-1208D01*
G01X104961Y71122D01*
G03X104967Y71247I-1202J125D01*
G03X104917Y71591I-1208J0D01*
G01Y73443D01*
G03X104967Y73787I-1158J344D01*
G03X104961Y73912I-1208J0D01*
G01X105091Y73782D01*
G03X106299Y72579I1208J5D01*
G03X107507Y73787I0J1208D01*
G03X106304Y74995I-1208J0D01*
G01X103080Y78220D01*
G03X102473Y78471I-607J-607D01*
G01X97043D01*
G03X96436Y78220I0J-858D01*
G01X88261Y70046D01*
G03X88010Y69439I607J-607D01*
G01Y65856D01*
G01X87787Y65633D01*
G03X87797Y65786I-1173J153D01*
G03X86614Y66969I-1183J0D01*
G03X85431Y65786I0J-1183D01*
G03X86614Y64603I1183J0D01*
G03X86767Y64613I0J1183D01*
G01X86583Y64429D01*
G03X85431Y63246I31J-1183D01*
G03X86614Y62063I1183J0D01*
G03X87797Y63215I0J1183D01*
G01X89475Y64893D01*
G03X89726Y65500I-607J607D01*
G01Y69083D01*
G01X90570Y69927D01*
G03X90555Y69743I1143J-184D01*
G01Y64123D01*
G03X90530Y63881I1158J-242D01*
G03X91713Y62698I1183J0D01*
G03X92112Y62767I0J1183D01*
G01X88330Y58985D01*
G03X87991Y58166I819J-819D01*
G01X115443Y54717D02*
G03X115838Y54553I395J395D01*
G01X119463D01*
G03X119858Y54717I0J558D01*
G01X120713Y55572D01*
G03X120876Y55966I-395J395D01*
G01Y59182D01*
G01X122185Y57874D01*
G03X122134Y57531I1132J-343D01*
G03X123317Y56348I1183J0D01*
G03X124500Y57531I0J1183D01*
G03X123317Y58714I-1183J0D01*
G03X122974Y58663I0J-1183D01*
G01X121478Y60159D01*
G01Y73113D01*
G03X121314Y73508I-558J0D01*
G01X117877Y76946D01*
G03X117482Y77109I-395J-395D01*
G01X111603D01*
G03X111208Y76946I0J-558D01*
G01X109202Y74939D01*
G03X108839Y74995I-363J-1152D01*
G03X107631Y73787I0J-1208D01*
G03X108839Y72579I1208J0D01*
G03X110047Y73787I0J1208D01*
G03X109991Y74150I-1208J0D01*
G01X111834Y75993D01*
G01X112796D01*
G01X111742Y74939D01*
G03X111379Y74995I-363J-1152D01*
G03X110171Y73787I0J-1208D01*
G03X111379Y72579I1208J0D01*
G03X112587Y73787I0J1208D01*
G03X112531Y74150I-1208J0D01*
G01X113652Y75271D01*
G01X114613D01*
G01X114282Y74939D01*
G03X113919Y74995I-363J-1152D01*
G03X112711Y73787I0J-1208D01*
G03X113919Y72579I1208J0D01*
G03X115127Y73787I0J1208D01*
G03X115071Y74150I-1208J0D01*
G01X115590Y74669D01*
G01X115633D01*
G03X115251Y73787I826J-882D01*
G03X116459Y72579I1208J0D01*
G03X117667Y73787I0J1208D01*
G01Y73805D01*
G01X119072Y72400D01*
G01Y67878D01*
G03X118935Y67905I-137J-331D01*
G01X117285D01*
G03X116927Y67547I0J-358D01*
G01Y65897D01*
G03X117285Y65539I358J0D01*
G01X118935D01*
G03X119072Y65566I0J358D01*
G01Y64910D01*
G03X118110Y65405I-962J-688D01*
G03X116927Y64222I0J-1183D01*
G03X118110Y63039I1183J0D01*
G03X119072Y63534I0J1183D01*
G01Y63474D01*
G01X118453Y62854D01*
G03X118110Y62905I-343J-1132D01*
G03X116927Y61722I0J-1183D01*
G03X118110Y60539I1183J0D01*
G03X119293Y61722I0J1183D01*
G03X119242Y62065I-1183J0D01*
G01X119760Y62583D01*
G01Y56198D01*
G01X119232Y55669D01*
G01X118650D01*
G03X119293Y56722I-540J1053D01*
G03X118110Y57905I-1183J0D01*
G03X116927Y56722I0J-1183D01*
G03X117570Y55669I1183J0D01*
G01X116069D01*
G01X115632Y56106D01*
G01Y64107D01*
G03X115468Y64502I-558J0D01*
G01X114822Y65148D01*
G03X114850Y65389I-1030J241D01*
G03X113792Y66447I-1058J0D01*
G03X112740Y65499I0J-1058D01*
G01X108337Y61096D01*
G03X107974Y61152I-363J-1152D01*
G03X107611Y61096I0J-1208D01*
G01X105866Y62841D01*
G03X106485Y63881I-564J1040D01*
G03X105302Y65064I-1183J0D01*
G03X104119Y63881I0J-1183D01*
G03X104744Y62838I1183J0D01*
G01Y62616D01*
G03X104907Y62221I558J0D01*
G01X106822Y60307D01*
G03X106766Y59944I1152J-363D01*
G03X107974Y58736I1208J0D01*
G03X109182Y59944I0J1208D01*
G03X109126Y60307I-1208J0D01*
G01X113282Y64462D01*
G03X113446Y64389I510J927D01*
G03X112734Y63389I346J-1000D01*
G03X112762Y63148I1058J0D01*
G01X110766Y61152D01*
G01X110124D01*
G03X109766Y60794I0J-358D01*
G01Y59094D01*
G03X110124Y58736I358J0D01*
G01X111824D01*
G03X112182Y59094I0J358D01*
G01Y60794D01*
G03X112145Y60953I-358J0D01*
G01X113551Y62359D01*
G03X113792Y62331I241J1030D01*
G03X114516Y62617I0J1058D01*
G01Y55875D01*
G03X114679Y55481I558J0D01*
G01X115443Y54717D01*
G01X87813Y49787D02*
G03X90921Y52896I0J3108D01*
G03X87813Y56004I-3108J0D01*
G03X84705Y52896I0J-3108D01*
G03X87813Y49787I3108J0D01*
G01X107616Y55624D02*
G03X109474Y53766I1858J0D01*
G03X111332Y55624I0J1858D01*
G03X109474Y57482I-1858J0D01*
G03X107616Y55624I0J-1858D01*
G01X111379Y70039D02*
G03X112587Y71247I0J1208D01*
G03X111379Y72455I-1208J0D01*
G03X110171Y71247I0J-1208D01*
G03X111379Y70039I1208J0D01*
G01X113919Y70039D02*
G03X115127Y71247I0J1208D01*
G03X113919Y72455I-1208J0D01*
G03X112711Y71247I0J-1208D01*
G03X113919Y70039I1208J0D01*
G01X108839Y70039D02*
G03X110047Y71247I0J1208D01*
G03X108839Y72455I-1208J0D01*
G03X107631Y71247I0J-1208D01*
G03X108839Y70039I1208J0D01*
G01X116459Y70039D02*
G03X117667Y71247I0J1208D01*
G03X116459Y72455I-1208J0D01*
G03X115251Y71247I0J-1208D01*
G03X116459Y70039I1208J0D01*
G01X93558Y59817D02*
G03X94766Y58609I1208J0D01*
G03X95974Y59817I0J1208D01*
G03X94766Y61025I-1208J0D01*
G03X93558Y59817I0J-1208D01*
G01X124142Y66508D02*
G03X124500Y66866I0J358D01*
G01Y68516D01*
G03X124142Y68874I-358J0D01*
G01X122492D01*
G03X122134Y68516I0J-358D01*
G01Y66866D01*
G03X122492Y66508I358J0D01*
G01X124142D01*
G01X84899Y56983D02*
G03X85257Y57341I0J358D01*
G01Y58991D01*
G03X84899Y59349I-358J0D01*
G01X83249D01*
G03X82891Y58991I0J-358D01*
G01Y57341D01*
G03X83249Y56983I358J0D01*
G01X84899D01*
G01X84074Y64603D02*
G03X85257Y65786I0J1183D01*
G03X84074Y66969I-1183J0D01*
G03X82891Y65786I0J-1183D01*
G03X84074Y64603I1183J0D01*
G01X123317Y63968D02*
G03X124500Y65151I0J1183D01*
G03X123317Y66334I-1183J0D01*
G03X122134Y65151I0J-1183D01*
G03X123317Y63968I1183J0D01*
G01X118110Y58039D02*
G03X119293Y59222I0J1183D01*
G03X118110Y60405I-1183J0D01*
G03X116927Y59222I0J-1183D01*
G03X118110Y58039I1183J0D01*
G01X106621Y63881D02*
G03X107804Y62698I1183J0D01*
G03X108987Y63881I0J1183D01*
G03X107804Y65064I-1183J0D01*
G03X106621Y63881I0J-1183D01*
G01X82891Y63246D02*
G03X84074Y62063I1183J0D01*
G03X85257Y63246I0J1183D01*
G03X84074Y64429I-1183J0D01*
G03X82891Y63246I0J-1183D01*
G01X123317Y61428D02*
G03X124500Y62611I0J1183D01*
G03X123317Y63794I-1183J0D01*
G03X122134Y62611I0J-1183D01*
G03X123317Y61428I1183J0D01*
G01X86614Y59523D02*
G03X87797Y60706I0J1183D01*
G03X86614Y61889I-1183J0D01*
G03X85431Y60706I0J-1183D01*
G03X86614Y59523I1183J0D01*
G01X84074Y59523D02*
G03X85257Y60706I0J1183D01*
G03X84074Y61889I-1183J0D01*
G03X82891Y60706I0J-1183D01*
G03X84074Y59523I1183J0D01*
G01X123317Y58888D02*
G03X124500Y60071I0J1183D01*
G03X123317Y61254I-1183J0D01*
G03X122134Y60071I0J-1183D01*
G03X123317Y58888I1183J0D01*
G01X86614Y56983D02*
G03X87797Y58166I0J1183D01*
G03X86614Y59349I-1183J0D01*
G03X85431Y58166I0J-1183D01*
G03X86614Y56983I1183J0D01*
G01X96689Y65667D02*
G03X97631Y63437I3108J0D01*
G01X95648D01*
G01X95384Y63701D01*
G03X95398Y63881I-1169J180D01*
G03X95373Y64123I-1183J0D01*
G01Y68354D01*
G01X97108Y70089D01*
G01X97646D01*
G03X97829Y70039I183J308D01*
G01X97877D01*
G03X97645Y69874I375J-772D01*
G01X97636Y69865D01*
G03X97385Y69259I607J-607D01*
G03X98243Y68401I858J0D01*
G03X98325Y68404I0J858D01*
G03X96689Y65667I1472J-2738D01*
G54D10*
G01X123317Y60071D02*
G01X124401Y60071D01*
G01X123317Y60071D02*
G01X122233Y60071D01*
G01X123317Y67691D02*
G01X123317Y68775D01*
G01X123317Y67691D02*
G01X124401Y67691D01*
G01X123317Y67691D02*
G01X122233Y67691D01*
G01X118110Y66722D02*
G01X118110Y67806D01*
G01X118110Y66722D02*
G01X117026Y66722D01*
G01X118110Y59222D02*
G01X119194Y59222D01*
G01X118110Y59222D02*
G01X117026Y59222D01*
G54D11*
G01X99797Y65667D02*
G01X96788Y65667D01*
G01X99797Y65667D02*
G01X102806Y65667D01*
G54D12*
G01X111379Y71247D02*
G01X110270Y71247D01*
G01X111379Y71247D02*
G01X111379Y70138D01*
G01X108839Y71247D02*
G01X109948Y71247D01*
G01X108839Y71247D02*
G01X108839Y70138D01*
G54D10*
G01X84074Y58166D02*
G01X84074Y57082D01*
G01X84074Y58166D02*
G01X82990Y58166D01*
G04 Copper End*

G04 Pad Start*
G54D13*
G01X87813Y52896D03*
G01X99797Y65667D03*
G54D14*
G01X91713Y63881D03*
G01X94215Y63881D03*
G01X105302Y63881D03*
G01X107804Y63881D03*
G54D16*
G01X113792Y63389D03*
G01X113792Y65389D03*
G54D14*
G01X118110Y61722D03*
G01X118110Y64222D03*
G54D17*
G01X118110Y66722D03*
G54D14*
G01X118110Y59222D03*
G01X118110Y56722D03*
G54D17*
G01X123317Y67691D03*
G54D14*
G01X123317Y65151D03*
G01X123317Y62611D03*
G01X123317Y60071D03*
G01X123317Y57531D03*
G54D18*
G01X84074Y58166D03*
G54D14*
G01X84074Y60706D03*
G01X84074Y63246D03*
G01X84074Y65786D03*
G01X86614Y58166D03*
G01X86614Y60706D03*
G01X86614Y63246D03*
G01X86614Y65786D03*
G54D19*
G01X116459Y73787D03*
G01X116459Y71247D03*
G01X113919Y73787D03*
G01X113919Y71247D03*
G01X111379Y73787D03*
G01X111379Y71247D03*
G01X108839Y73787D03*
G01X108839Y71247D03*
G01X106299Y73787D03*
G01X106299Y71247D03*
G01X103759Y73787D03*
G01X103759Y71247D03*
G01X101219Y73787D03*
G01X101219Y71247D03*
G01X98679Y73787D03*
G54D20*
G01X98679Y71247D03*
G54D19*
G01X94766Y59817D03*
G54D21*
G01X97766Y59817D03*
G54D19*
G01X107974Y59944D03*
G54D21*
G01X110974Y59944D03*
G04 Pad End*

G04 Via Start*
G54D22*
G01X83472Y67717D03*
G54D23*
G01X89149Y58166D03*
G54D22*
G01X98243Y69259D03*
G04 Via End*

G04 Track Start*
G01X106299Y71247D02*
G01X104319Y69267D01*
G01X98251D01*
G01X98243Y69259D01*
G54D24*
G01X108839Y73787D02*
G01X111603Y76551D01*
G01X117482D01*
G01X120920Y73113D01*
G01Y59928D01*
G01X123317Y57531D01*
G01X113919Y73787D02*
G01X115359Y75227D01*
G01X117035D01*
G01X119630Y72631D01*
G01Y63242D01*
G01X118110Y61722D01*
G01X110974Y59944D02*
G01X110974Y60571D01*
G54D22*
G01X106299Y73787D02*
G01X102473Y77613D01*
G01X97043D01*
G01X88868Y69439D01*
G01Y65500D01*
G01X86614Y63246D01*
G54D23*
G01X103759Y71247D02*
G01X103759Y73787D01*
G01X101219Y73787D02*
G01X103759Y73787D01*
G01X101219Y73787D02*
G01X101219Y74422D01*
G01X99800Y75841D01*
G01X97811D01*
G01X91713Y69743D01*
G01Y63881D01*
G54D24*
G01X107974Y59944D02*
G01X105302Y62616D01*
G01Y63881D01*
G01X107974Y59944D02*
G01X113419Y65389D01*
G01X113792D01*
G01X111379Y73787D02*
G01X113421Y75829D01*
G01X117316D01*
G01X120318Y72827D01*
G01Y55966D01*
G01X119463Y55111D01*
G01X115838D01*
G01X115074Y55875D01*
G01Y64107D01*
G01X113792Y65389D01*
G54D23*
G01X98679Y71247D02*
G01X98679Y73787D01*
G01X96628Y71247D02*
G01X94215Y68833D01*
G01Y63881D01*
G01X98679Y71247D02*
G01X96628Y71247D01*
G01X97766Y62279D02*
G01X95168Y62279D01*
G01X94215Y63232D01*
G01X94215Y63881D02*
G01X94215Y63232D01*
G01X89149Y58166D01*
G01X97766Y59817D02*
G01X97766Y62279D01*
G54D22*
G01X117307Y59222D02*
G01X116136Y60393D01*
G01Y66722D01*
G01X118110D01*
G01X108839Y71247D02*
G01X103259Y65667D01*
G01X99797D01*
G01X111379Y71247D02*
G01X115904Y66722D01*
G01X116136D01*
G01X84074Y58166D02*
G01X82306Y59934D01*
G01Y66551D01*
G01X83472Y67717D01*
G01X118110Y59222D02*
G01X117307Y59222D01*
G54D24*
G01X110974Y60571D02*
G01X113792Y63389D01*
G04 Track End*

M02*
