G04 Layer: BottomSolderMaskLayer*
G04 EasyEDA Pro v1.9.30.011b94, 2023-06-19 18:55:00*
G04 Gerber Generator version 0.3*
G04 Scale: 100 percent, Rotated: No, Reflected: No*
G04 Dimensions in millimeters*
G04 Leading zeros omitted, absolute positions, 3 integers and 3 decimals*
%FSLAX33Y33*%
%MOMM*%
%ADD10C,5.703189*%
%ADD11C,1.751599*%
%ADD12C,1.5016*%
%ADD13R,1.751599X1.751599*%
%ADD14R,1.751599X1.751599*%
%ADD15C,1.801599*%
%ADD16R,1.801599X1.801599*%
%ADD17R,1.801599X1.801599*%
G75*


G04 Pad Start*
G54D10*
G01X87813Y52896D03*
G01X99797Y65667D03*
G54D11*
G01X91713Y63881D03*
G01X94215Y63881D03*
G01X105302Y63881D03*
G01X107804Y63881D03*
G54D12*
G01X113792Y63389D03*
G01X113792Y65389D03*
G54D11*
G01X118110Y61722D03*
G01X118110Y64222D03*
G54D13*
G01X118110Y66722D03*
G54D11*
G01X118110Y59222D03*
G01X118110Y56722D03*
G54D13*
G01X123317Y67691D03*
G54D11*
G01X123317Y65151D03*
G01X123317Y62611D03*
G01X123317Y60071D03*
G01X123317Y57531D03*
G54D14*
G01X84074Y58166D03*
G54D11*
G01X84074Y60706D03*
G01X84074Y63246D03*
G01X84074Y65786D03*
G01X86614Y58166D03*
G01X86614Y60706D03*
G01X86614Y63246D03*
G01X86614Y65786D03*
G54D15*
G01X116459Y73787D03*
G01X116459Y71247D03*
G01X113919Y73787D03*
G01X113919Y71247D03*
G01X111379Y73787D03*
G01X111379Y71247D03*
G01X108839Y73787D03*
G01X108839Y71247D03*
G01X106299Y73787D03*
G01X106299Y71247D03*
G01X103759Y73787D03*
G01X103759Y71247D03*
G01X101219Y73787D03*
G01X101219Y71247D03*
G01X98679Y73787D03*
G54D16*
G01X98679Y71247D03*
G54D15*
G01X94766Y59817D03*
G54D17*
G01X97766Y59817D03*
G54D15*
G01X107974Y59944D03*
G54D17*
G01X110974Y59944D03*
G04 Pad End*

M02*
