G04 Layer: TopPasteMaskLayer*
G04 EasyEDA Pro v1.9.30.011b94, 2023-06-19 18:55:00*
G04 Gerber Generator version 0.3*
G04 Scale: 100 percent, Rotated: No, Reflected: No*
G04 Dimensions in millimeters*
G04 Leading zeros omitted, absolute positions, 3 integers and 3 decimals*
%FSLAX33Y33*%
%MOMM*%
%ADD10C,0.0254*%
G75*


G04 PolygonModel Start*
G36*
G01X80449Y71934D02*
G01X80449Y71134D01*
G01X80499Y71084D01*
G01X80727D01*
G01Y71454D01*
G01X81057D01*
G01Y71084D01*
G01X81299D01*
G01X81349Y71134D01*
G01Y71934D01*
G01X81299Y71984D01*
G01X80499D01*
G01X80449Y71934D01*
G37*
G54D10*
G01X80449Y71934D02*
G01X80449Y71134D01*
G01X80499Y71084D01*
G01X80727D01*
G01Y71454D01*
G01X81057D01*
G01Y71084D01*
G01X81299D01*
G01X81349Y71134D01*
G01Y71934D01*
G01X81299Y71984D01*
G01X80499D01*
G01X80449Y71934D01*
G36*
G01X80499Y70384D02*
G01X80727Y70384D01*
G01Y70004D01*
G01X81057D01*
G01Y70384D01*
G01X81299D01*
G01X81349Y70334D01*
G01Y69544D01*
G01X81299Y69494D01*
G01X80499D01*
G01X80449Y69544D01*
G01Y70334D01*
G01X80499Y70384D01*
G37*
G01X80499Y70384D02*
G01X80727Y70384D01*
G01Y70004D01*
G01X81057D01*
G01Y70384D01*
G01X81299D01*
G01X81349Y70334D01*
G01Y69544D01*
G01X81299Y69494D01*
G01X80499D01*
G01X80449Y69544D01*
G01Y70334D01*
G01X80499Y70384D01*
G04 PolygonModel End*

G04 Pad Start*
G04 Pad End*

M02*
