G04 Layer: BottomSilkscreenLayer*
G04 EasyEDA Pro v1.9.30.011b94, 2023-06-19 18:55:00*
G04 Gerber Generator version 0.3*
G04 Scale: 100 percent, Rotated: No, Reflected: No*
G04 Dimensions in millimeters*
G04 Leading zeros omitted, absolute positions, 3 integers and 3 decimals*
%FSLAX33Y33*%
%MOMM*%
%ADD10C,0.09*%
%ADD11C,0.1*%
%ADD12C,0.254*%
G75*


G04 Text Start*
G04 //text: LED SERVO T0  Signal  PB1  24V- 24V- 24V+*
G54D10*
G01X117266Y75653D02*
G01X117266Y75188D01*
G01X117266Y75188D02*
G01X116999Y75188D01*
G01X116804Y75653D02*
G01X116804Y75188D01*
G01X116804Y75653D02*
G01X116517Y75653D01*
G01X116804Y75432D02*
G01X116626Y75432D01*
G01X116804Y75188D02*
G01X116517Y75188D01*
G01X116319Y75653D02*
G01X116319Y75188D01*
G01X116319Y75653D02*
G01X116164Y75653D01*
G01X116098Y75633D01*
G01X116052Y75587D01*
G01X116032Y75544D01*
G01X116009Y75475D01*
G01Y75366D01*
G01X116032Y75300D01*
G01X116052Y75254D01*
G01X116098Y75211D01*
G01X116164Y75188D01*
G01X116319D01*
G01X115005Y75587D02*
G01X115049Y75633D01*
G01X115115Y75653D01*
G01X115204D01*
G01X115270Y75633D01*
G01X115315Y75587D01*
G01Y75544D01*
G01X115292Y75498D01*
G01X115270Y75475D01*
G01X115226Y75455D01*
G01X115094Y75409D01*
G01X115049Y75386D01*
G01X115026Y75366D01*
G01X115005Y75320D01*
G01Y75254D01*
G01X115049Y75211D01*
G01X115115Y75188D01*
G01X115204D01*
G01X115270Y75211D01*
G01X115315Y75254D01*
G01X114807Y75653D02*
G01X114807Y75188D01*
G01X114807Y75653D02*
G01X114520Y75653D01*
G01X114807Y75432D02*
G01X114630Y75432D01*
G01X114807Y75188D02*
G01X114520Y75188D01*
G01X114322Y75653D02*
G01X114322Y75188D01*
G01X114322Y75653D02*
G01X114124Y75653D01*
G01X114055Y75633D01*
G01X114035Y75610D01*
G01X114012Y75564D01*
G01Y75521D01*
G01X114035Y75475D01*
G01X114055Y75455D01*
G01X114124Y75432D01*
G01X114322D01*
G01X114167Y75432D02*
G01X114012Y75188D01*
G01X113817Y75653D02*
G01X113639Y75188D01*
G01X113461Y75653D02*
G01X113639Y75188D01*
G01X113131Y75653D02*
G01X113177Y75633D01*
G01X113220Y75587D01*
G01X113243Y75544D01*
G01X113263Y75475D01*
G01Y75366D01*
G01X113243Y75300D01*
G01X113220Y75254D01*
G01X113177Y75211D01*
G01X113131Y75188D01*
G01X113042D01*
G01X112999Y75211D01*
G01X112953Y75254D01*
G01X112930Y75300D01*
G01X112910Y75366D01*
G01Y75475D01*
G01X112930Y75544D01*
G01X112953Y75587D01*
G01X112999Y75633D01*
G01X113042Y75653D01*
G01X113131D01*
G01X112062Y75653D02*
G01X112062Y75188D01*
G01X112217Y75653D02*
G01X111904Y75653D01*
G01X111576Y75653D02*
G01X111642Y75633D01*
G01X111686Y75564D01*
G01X111709Y75455D01*
G01Y75386D01*
G01X111686Y75277D01*
G01X111642Y75211D01*
G01X111576Y75188D01*
G01X111531D01*
G01X111465Y75211D01*
G01X111419Y75277D01*
G01X111399Y75386D01*
G01Y75455D01*
G01X111419Y75564D01*
G01X111465Y75633D01*
G01X111531Y75653D01*
G01X111576D01*
G01X109897Y75587D02*
G01X109941Y75633D01*
G01X110007Y75653D01*
G01X110096D01*
G01X110164Y75633D01*
G01X110207Y75587D01*
G01Y75544D01*
G01X110185Y75498D01*
G01X110164Y75475D01*
G01X110118Y75455D01*
G01X109986Y75409D01*
G01X109941Y75386D01*
G01X109918Y75366D01*
G01X109897Y75320D01*
G01Y75254D01*
G01X109941Y75211D01*
G01X110007Y75188D01*
G01X110096D01*
G01X110164Y75211D01*
G01X110207Y75254D01*
G01X109699Y75653D02*
G01X109679Y75633D01*
G01X109656Y75653D01*
G01X109679Y75676D01*
G01X109699Y75653D01*
G01X109679Y75498D02*
G01X109679Y75188D01*
G01X109194Y75498D02*
G01X109194Y75142D01*
G01X109214Y75076D01*
G01X109237Y75054D01*
G01X109283Y75033D01*
G01X109349D01*
G01X109392Y75054D01*
G01X109194Y75432D02*
G01X109237Y75475D01*
G01X109283Y75498D01*
G01X109349D01*
G01X109392Y75475D01*
G01X109438Y75432D01*
G01X109461Y75366D01*
G01Y75320D01*
G01X109438Y75254D01*
G01X109392Y75211D01*
G01X109349Y75188D01*
G01X109283D01*
G01X109237Y75211D01*
G01X109194Y75254D01*
G01X108996Y75498D02*
G01X108996Y75188D01*
G01X108996Y75409D02*
G01X108930Y75475D01*
G01X108887Y75498D01*
G01X108818D01*
G01X108775Y75475D01*
G01X108752Y75409D01*
G01Y75188D01*
G01X108290Y75498D02*
G01X108290Y75188D01*
G01X108290Y75432D02*
G01X108335Y75475D01*
G01X108379Y75498D01*
G01X108445D01*
G01X108490Y75475D01*
G01X108534Y75432D01*
G01X108556Y75366D01*
G01Y75320D01*
G01X108534Y75254D01*
G01X108490Y75211D01*
G01X108445Y75188D01*
G01X108379D01*
G01X108335Y75211D01*
G01X108290Y75254D01*
G01X108094Y75653D02*
G01X108094Y75188D01*
G01X106903Y75653D02*
G01X106903Y75188D01*
G01X106903Y75653D02*
G01X106702Y75653D01*
G01X106636Y75633D01*
G01X106613Y75610D01*
G01X106593Y75564D01*
G01Y75498D01*
G01X106613Y75455D01*
G01X106636Y75432D01*
G01X106702Y75409D01*
G01X106903D01*
G01X106395Y75653D02*
G01X106395Y75188D01*
G01X106395Y75653D02*
G01X106197Y75653D01*
G01X106131Y75633D01*
G01X106108Y75610D01*
G01X106085Y75564D01*
G01Y75521D01*
G01X106108Y75475D01*
G01X106131Y75455D01*
G01X106197Y75432D01*
G01X106395Y75432D02*
G01X106197Y75432D01*
G01X106131Y75409D01*
G01X106108Y75386D01*
G01X106085Y75343D01*
G01Y75277D01*
G01X106108Y75231D01*
G01X106131Y75211D01*
G01X106197Y75188D01*
G01X106395D01*
G01X105889Y75564D02*
G01X105844Y75587D01*
G01X105778Y75653D01*
G01Y75188D01*
G01X104566Y75544D02*
G01X104566Y75564D01*
G01X104543Y75610D01*
G01X104520Y75633D01*
G01X104477Y75653D01*
G01X104388D01*
G01X104343Y75633D01*
G01X104322Y75610D01*
G01X104299Y75564D01*
G01Y75521D01*
G01X104322Y75475D01*
G01X104365Y75409D01*
G01X104586Y75188D01*
G01X104276D01*
G01X103857Y75653D02*
G01X104081Y75343D01*
G01X103748D01*
G01X103857Y75653D02*
G01X103857Y75188D01*
G01X103550Y75653D02*
G01X103372Y75188D01*
G01X103197Y75653D02*
G01X103372Y75188D01*
G01X102999Y75386D02*
G01X102600Y75386D01*
G01X101884Y75544D02*
G01X101884Y75564D01*
G01X101861Y75610D01*
G01X101841Y75633D01*
G01X101795Y75653D01*
G01X101706D01*
G01X101663Y75633D01*
G01X101640Y75610D01*
G01X101617Y75564D01*
G01Y75521D01*
G01X101640Y75475D01*
G01X101686Y75409D01*
G01X101907Y75188D01*
G01X101597D01*
G01X101178Y75653D02*
G01X101399Y75343D01*
G01X101066D01*
G01X101178Y75653D02*
G01X101178Y75188D01*
G01X100870Y75653D02*
G01X100693Y75188D01*
G01X100515Y75653D02*
G01X100693Y75188D01*
G01X100319Y75386D02*
G01X99920Y75386D01*
G01X99204Y75544D02*
G01X99204Y75564D01*
G01X99181Y75610D01*
G01X99158Y75633D01*
G01X99115Y75653D01*
G01X99026D01*
G01X98981Y75633D01*
G01X98960Y75610D01*
G01X98937Y75564D01*
G01Y75521D01*
G01X98960Y75475D01*
G01X99003Y75409D01*
G01X99224Y75188D01*
G01X98915D01*
G01X98495Y75653D02*
G01X98719Y75343D01*
G01X98386D01*
G01X98495Y75653D02*
G01X98495Y75188D01*
G01X98188Y75653D02*
G01X98013Y75188D01*
G01X97835Y75653D02*
G01X98013Y75188D01*
G01X97439Y75587D02*
G01X97439Y75188D01*
G01X97637Y75386D02*
G01X97238Y75386D01*
G04 //text: 5V  GND  GND  GND  PA0  24V- 24V+ 24V+*
G01X116778Y70099D02*
G01X117002Y70099D01*
G01X117025Y69900D01*
G01X117002Y69921D01*
G01X116936Y69944D01*
G01X116867D01*
G01X116801Y69921D01*
G01X116758Y69878D01*
G01X116735Y69812D01*
G01Y69766D01*
G01X116758Y69700D01*
G01X116801Y69657D01*
G01X116867Y69634D01*
G01X116936D01*
G01X117002Y69657D01*
G01X117025Y69677D01*
G01X117045Y69723D01*
G01X116540Y70099D02*
G01X116362Y69634D01*
G01X116184Y70099D02*
G01X116362Y69634D01*
G01X114660Y69989D02*
G01X114683Y70033D01*
G01X114726Y70078D01*
G01X114772Y70099D01*
G01X114861D01*
G01X114904Y70078D01*
G01X114950Y70033D01*
G01X114970Y69989D01*
G01X114993Y69921D01*
G01Y69812D01*
G01X114970Y69746D01*
G01X114950Y69700D01*
G01X114904Y69657D01*
G01X114861Y69634D01*
G01X114772D01*
G01X114726Y69657D01*
G01X114683Y69700D01*
G01X114660Y69746D01*
G01Y69812D01*
G01X114772Y69812D02*
G01X114660Y69812D01*
G01X114464Y70099D02*
G01X114464Y69634D01*
G01X114464Y70099D02*
G01X114152Y69634D01*
G01X114152Y70099D02*
G01X114152Y69634D01*
G01X113956Y70099D02*
G01X113956Y69634D01*
G01X113956Y70099D02*
G01X113801Y70099D01*
G01X113735Y70078D01*
G01X113690Y70033D01*
G01X113669Y69989D01*
G01X113647Y69921D01*
G01Y69812D01*
G01X113669Y69746D01*
G01X113690Y69700D01*
G01X113735Y69657D01*
G01X113801Y69634D01*
G01X113956D01*
G01X112123Y69989D02*
G01X112145Y70033D01*
G01X112189Y70078D01*
G01X112234Y70099D01*
G01X112323D01*
G01X112366Y70078D01*
G01X112412Y70033D01*
G01X112432Y69989D01*
G01X112455Y69921D01*
G01Y69812D01*
G01X112432Y69746D01*
G01X112412Y69700D01*
G01X112366Y69657D01*
G01X112323Y69634D01*
G01X112234D01*
G01X112189Y69657D01*
G01X112145Y69700D01*
G01X112123Y69746D01*
G01Y69812D01*
G01X112234Y69812D02*
G01X112123Y69812D01*
G01X111927Y70099D02*
G01X111927Y69634D01*
G01X111927Y70099D02*
G01X111615Y69634D01*
G01X111615Y70099D02*
G01X111615Y69634D01*
G01X111419Y70099D02*
G01X111419Y69634D01*
G01X111419Y70099D02*
G01X111264Y70099D01*
G01X111198Y70078D01*
G01X111152Y70033D01*
G01X111132Y69989D01*
G01X111109Y69921D01*
G01Y69812D01*
G01X111132Y69746D01*
G01X111152Y69700D01*
G01X111198Y69657D01*
G01X111264Y69634D01*
G01X111419D01*
G01X109585Y69989D02*
G01X109608Y70033D01*
G01X109651Y70078D01*
G01X109697Y70099D01*
G01X109786D01*
G01X109829Y70078D01*
G01X109875Y70033D01*
G01X109895Y69989D01*
G01X109918Y69921D01*
G01Y69812D01*
G01X109895Y69746D01*
G01X109875Y69700D01*
G01X109829Y69657D01*
G01X109786Y69634D01*
G01X109697D01*
G01X109651Y69657D01*
G01X109608Y69700D01*
G01X109585Y69746D01*
G01Y69812D01*
G01X109697Y69812D02*
G01X109585Y69812D01*
G01X109390Y70099D02*
G01X109390Y69634D01*
G01X109390Y70099D02*
G01X109077Y69634D01*
G01X109077Y70099D02*
G01X109077Y69634D01*
G01X108882Y70099D02*
G01X108882Y69634D01*
G01X108882Y70099D02*
G01X108727Y70099D01*
G01X108661Y70078D01*
G01X108615Y70033D01*
G01X108592Y69989D01*
G01X108572Y69921D01*
G01Y69812D01*
G01X108592Y69746D01*
G01X108615Y69700D01*
G01X108661Y69657D01*
G01X108727Y69634D01*
G01X108882D01*
G01X107380Y70099D02*
G01X107380Y69634D01*
G01X107380Y70099D02*
G01X107180Y70099D01*
G01X107114Y70078D01*
G01X107091Y70055D01*
G01X107070Y70010D01*
G01Y69944D01*
G01X107091Y69900D01*
G01X107114Y69878D01*
G01X107180Y69855D01*
G01X107380D01*
G01X106697Y70099D02*
G01X106872Y69634D01*
G01X106697Y70099D02*
G01X106519Y69634D01*
G01X106806Y69789D02*
G01X106585Y69789D01*
G01X106189Y70099D02*
G01X106255Y70078D01*
G01X106301Y70010D01*
G01X106321Y69900D01*
G01Y69832D01*
G01X106301Y69723D01*
G01X106255Y69657D01*
G01X106189Y69634D01*
G01X106143D01*
G01X106077Y69657D01*
G01X106034Y69723D01*
G01X106011Y69832D01*
G01Y69900D01*
G01X106034Y70010D01*
G01X106077Y70078D01*
G01X106143Y70099D01*
G01X106189D01*
G01X104800Y69989D02*
G01X104800Y70010D01*
G01X104777Y70055D01*
G01X104754Y70078D01*
G01X104711Y70099D01*
G01X104622D01*
G01X104576Y70078D01*
G01X104553Y70055D01*
G01X104533Y70010D01*
G01Y69967D01*
G01X104553Y69921D01*
G01X104599Y69855D01*
G01X104820Y69634D01*
G01X104510D01*
G01X104091Y70099D02*
G01X104315Y69789D01*
G01X103982D01*
G01X104091Y70099D02*
G01X104091Y69634D01*
G01X103784Y70099D02*
G01X103606Y69634D01*
G01X103428Y70099D02*
G01X103606Y69634D01*
G01X103233Y69832D02*
G01X102834Y69832D01*
G01X102117Y69989D02*
G01X102117Y70010D01*
G01X102095Y70055D01*
G01X102074Y70078D01*
G01X102029Y70099D01*
G01X101940D01*
G01X101897Y70078D01*
G01X101874Y70055D01*
G01X101851Y70010D01*
G01Y69967D01*
G01X101874Y69921D01*
G01X101917Y69855D01*
G01X102140Y69634D01*
G01X101830D01*
G01X101411Y70099D02*
G01X101632Y69789D01*
G01X101300D01*
G01X101411Y70099D02*
G01X101411Y69634D01*
G01X101104Y70099D02*
G01X100926Y69634D01*
G01X100748Y70099D02*
G01X100926Y69634D01*
G01X100352Y70033D02*
G01X100352Y69634D01*
G01X100553Y69832D02*
G01X100152Y69832D01*
G01X99438Y69989D02*
G01X99438Y70010D01*
G01X99415Y70055D01*
G01X99392Y70078D01*
G01X99349Y70099D01*
G01X99260D01*
G01X99214Y70078D01*
G01X99194Y70055D01*
G01X99171Y70010D01*
G01Y69967D01*
G01X99194Y69921D01*
G01X99237Y69855D01*
G01X99458Y69634D01*
G01X99148D01*
G01X98729Y70099D02*
G01X98953Y69789D01*
G01X98620D01*
G01X98729Y70099D02*
G01X98729Y69634D01*
G01X98422Y70099D02*
G01X98244Y69634D01*
G01X98069Y70099D02*
G01X98244Y69634D01*
G01X97672Y70033D02*
G01X97672Y69634D01*
G01X97871Y69832D02*
G01X97472Y69832D01*
G04 //text: Signal GND Servo 5V  GND*
G01X116615Y56390D02*
G01X116663Y56341D01*
G01X116688Y56270D01*
G01Y56174D01*
G01X116663Y56103D01*
G01X116615Y56057D01*
G01X116569D01*
G01X116521Y56080D01*
G01X116498Y56103D01*
G01X116473Y56151D01*
G01X116427Y56293D01*
G01X116401Y56341D01*
G01X116379Y56364D01*
G01X116330Y56390D01*
G01X116259D01*
G01X116213Y56341D01*
G01X116188Y56270D01*
G01Y56174D01*
G01X116213Y56103D01*
G01X116259Y56057D01*
G01X116688Y56593D02*
G01X116663Y56616D01*
G01X116688Y56641D01*
G01X116711Y56616D01*
G01X116688Y56593D01*
G01X116521Y56616D02*
G01X116188Y56616D01*
G01X116521Y57129D02*
G01X116140Y57129D01*
G01X116069Y57106D01*
G01X116046Y57081D01*
G01X116023Y57035D01*
G01Y56964D01*
G01X116046Y56915D01*
G01X116450Y57129D02*
G01X116498Y57081D01*
G01X116521Y57035D01*
G01Y56964D01*
G01X116498Y56915D01*
G01X116450Y56867D01*
G01X116379Y56844D01*
G01X116330D01*
G01X116259Y56867D01*
G01X116213Y56915D01*
G01X116188Y56964D01*
G01Y57035D01*
G01X116213Y57081D01*
G01X116259Y57129D01*
G01X116521Y57332D02*
G01X116188Y57332D01*
G01X116427Y57332D02*
G01X116498Y57406D01*
G01X116521Y57451D01*
G01Y57523D01*
G01X116498Y57571D01*
G01X116427Y57594D01*
G01X116188D01*
G01X116521Y58084D02*
G01X116188Y58084D01*
G01X116450Y58084D02*
G01X116498Y58036D01*
G01X116521Y57987D01*
G01Y57916D01*
G01X116498Y57871D01*
G01X116450Y57822D01*
G01X116379Y57799D01*
G01X116330D01*
G01X116259Y57822D01*
G01X116213Y57871D01*
G01X116188Y57916D01*
G01Y57987D01*
G01X116213Y58036D01*
G01X116259Y58084D01*
G01X116688Y58287D02*
G01X116188Y58287D01*
G01X116569Y59379D02*
G01X116615Y59356D01*
G01X116663Y59308D01*
G01X116688Y59260D01*
G01Y59166D01*
G01X116663Y59118D01*
G01X116615Y59072D01*
G01X116569Y59047D01*
G01X116498Y59024D01*
G01X116379D01*
G01X116307Y59047D01*
G01X116259Y59072D01*
G01X116213Y59118D01*
G01X116188Y59166D01*
G01Y59260D01*
G01X116213Y59308D01*
G01X116259Y59356D01*
G01X116307Y59379D01*
G01X116379D01*
G01X116379Y59260D02*
G01X116379Y59379D01*
G01X116688Y59582D02*
G01X116188Y59582D01*
G01X116688Y59582D02*
G01X116188Y59915D01*
G01X116688Y59915D02*
G01X116188Y59915D01*
G01X116688Y60121D02*
G01X116188Y60121D01*
G01X116688Y60121D02*
G01X116688Y60286D01*
G01X116663Y60357D01*
G01X116615Y60405D01*
G01X116569Y60428D01*
G01X116498Y60454D01*
G01X116379D01*
G01X116307Y60428D01*
G01X116259Y60405D01*
G01X116213Y60357D01*
G01X116188Y60286D01*
G01Y60121D01*
G01X116615Y61521D02*
G01X116663Y61475D01*
G01X116688Y61404D01*
G01Y61307D01*
G01X116663Y61236D01*
G01X116615Y61188D01*
G01X116569D01*
G01X116521Y61213D01*
G01X116498Y61236D01*
G01X116473Y61284D01*
G01X116427Y61427D01*
G01X116401Y61475D01*
G01X116379Y61498D01*
G01X116330Y61521D01*
G01X116259D01*
G01X116213Y61475D01*
G01X116188Y61404D01*
G01Y61307D01*
G01X116213Y61236D01*
G01X116259Y61188D01*
G01X116379Y61726D02*
G01X116379Y62011D01*
G01X116427D01*
G01X116473Y61985D01*
G01X116498Y61962D01*
G01X116521Y61914D01*
G01Y61843D01*
G01X116498Y61797D01*
G01X116450Y61749D01*
G01X116379Y61726D01*
G01X116330D01*
G01X116259Y61749D01*
G01X116213Y61797D01*
G01X116188Y61843D01*
G01Y61914D01*
G01X116213Y61962D01*
G01X116259Y62011D01*
G01X116521Y62214D02*
G01X116188Y62214D01*
G01X116379Y62214D02*
G01X116450Y62237D01*
G01X116498Y62285D01*
G01X116521Y62333D01*
G01Y62404D01*
G01X116521Y62608D02*
G01X116188Y62750D01*
G01X116521Y62892D02*
G01X116188Y62750D01*
G01X116521Y63217D02*
G01X116498Y63169D01*
G01X116450Y63121D01*
G01X116379Y63098D01*
G01X116330D01*
G01X116259Y63121D01*
G01X116213Y63169D01*
G01X116188Y63217D01*
G01Y63288D01*
G01X116213Y63334D01*
G01X116259Y63382D01*
G01X116330Y63405D01*
G01X116379D01*
G01X116450Y63382D01*
G01X116498Y63334D01*
G01X116521Y63288D01*
G01Y63217D01*
G01X116688Y64426D02*
G01X116688Y64190D01*
G01X116473Y64165D01*
G01X116498Y64190D01*
G01X116521Y64261D01*
G01Y64332D01*
G01X116498Y64403D01*
G01X116450Y64452D01*
G01X116379Y64475D01*
G01X116330D01*
G01X116259Y64452D01*
G01X116213Y64403D01*
G01X116188Y64332D01*
G01Y64261D01*
G01X116213Y64190D01*
G01X116236Y64165D01*
G01X116285Y64142D01*
G01X116688Y64678D02*
G01X116188Y64868D01*
G01X116688Y65059D02*
G01X116188Y64868D01*
G01X116569Y66682D02*
G01X116615Y66659D01*
G01X116663Y66611D01*
G01X116688Y66565D01*
G01Y66468D01*
G01X116663Y66423D01*
G01X116615Y66374D01*
G01X116569Y66349D01*
G01X116498Y66326D01*
G01X116379D01*
G01X116307Y66349D01*
G01X116259Y66374D01*
G01X116213Y66423D01*
G01X116188Y66468D01*
G01Y66565D01*
G01X116213Y66611D01*
G01X116259Y66659D01*
G01X116307Y66682D01*
G01X116379D01*
G01X116379Y66565D02*
G01X116379Y66682D01*
G01X116688Y66888D02*
G01X116188Y66888D01*
G01X116688Y66888D02*
G01X116188Y67220D01*
G01X116688Y67220D02*
G01X116188Y67220D01*
G01X116688Y67423D02*
G01X116188Y67423D01*
G01X116688Y67423D02*
G01X116688Y67589D01*
G01X116663Y67660D01*
G01X116615Y67708D01*
G01X116569Y67731D01*
G01X116498Y67756D01*
G01X116379D01*
G01X116307Y67731D01*
G01X116259Y67708D01*
G01X116213Y67660D01*
G01X116188Y67589D01*
G01Y67423D01*
G04 //text: 24V   5V  PCF  X*
G01X88056Y57557D02*
G01X88079Y57557D01*
G01X88127Y57580D01*
G01X88150Y57605D01*
G01X88175Y57651D01*
G01Y57748D01*
G01X88150Y57796D01*
G01X88127Y57819D01*
G01X88079Y57842D01*
G01X88031D01*
G01X87985Y57819D01*
G01X87914Y57771D01*
G01X87675Y57534D01*
G01Y57867D01*
G01X88175Y58306D02*
G01X87843Y58070D01*
G01Y58426D01*
G01X88175Y58306D02*
G01X87675Y58306D01*
G01X88175Y58632D02*
G01X87675Y58820D01*
G01X88175Y59010D02*
G01X87675Y58820D01*
G01X88175Y61095D02*
G01X88175Y60857D01*
G01X87960Y60834D01*
G01X87985Y60857D01*
G01X88008Y60930D01*
G01Y61001D01*
G01X87985Y61073D01*
G01X87937Y61118D01*
G01X87866Y61144D01*
G01X87817D01*
G01X87746Y61118D01*
G01X87700Y61073D01*
G01X87675Y61001D01*
G01Y60930D01*
G01X87700Y60857D01*
G01X87723Y60834D01*
G01X87772Y60811D01*
G01X88175Y61347D02*
G01X87675Y61537D01*
G01X88175Y61728D02*
G01X87675Y61537D01*
G01X88175Y62995D02*
G01X87675Y62995D01*
G01X88175Y62995D02*
G01X88175Y63209D01*
G01X88150Y63280D01*
G01X88127Y63303D01*
G01X88079Y63328D01*
G01X88008D01*
G01X87960Y63303D01*
G01X87937Y63280D01*
G01X87914Y63209D01*
G01Y62995D01*
G01X88056Y63887D02*
G01X88102Y63864D01*
G01X88150Y63816D01*
G01X88175Y63770D01*
G01Y63673D01*
G01X88150Y63625D01*
G01X88102Y63579D01*
G01X88056Y63554D01*
G01X87985Y63531D01*
G01X87866D01*
G01X87794Y63554D01*
G01X87746Y63579D01*
G01X87700Y63625D01*
G01X87675Y63673D01*
G01Y63770D01*
G01X87700Y63816D01*
G01X87746Y63864D01*
G01X87794Y63887D01*
G01X88175Y64093D02*
G01X87675Y64093D01*
G01X88175Y64093D02*
G01X88175Y64400D01*
G01X87937Y64093D02*
G01X87937Y64281D01*
G01X88175Y65667D02*
G01X87675Y66000D01*
G01X88175Y66000D02*
G01X87675Y65667D01*
G04 //text: GND  LED  HEF   X*
G01X82725Y57686D02*
G01X82771Y57663D01*
G01X82819Y57615D01*
G01X82844Y57567D01*
G01Y57473D01*
G01X82819Y57424D01*
G01X82771Y57376D01*
G01X82725Y57353D01*
G01X82654Y57330D01*
G01X82534D01*
G01X82463Y57353D01*
G01X82415Y57376D01*
G01X82369Y57424D01*
G01X82344Y57473D01*
G01Y57567D01*
G01X82369Y57615D01*
G01X82415Y57663D01*
G01X82463Y57686D01*
G01X82534D01*
G01X82534Y57567D02*
G01X82534Y57686D01*
G01X82844Y57889D02*
G01X82344Y57889D01*
G01X82844Y57889D02*
G01X82344Y58222D01*
G01X82844Y58222D02*
G01X82344Y58222D01*
G01X82844Y58428D02*
G01X82344Y58428D01*
G01X82844Y58428D02*
G01X82844Y58593D01*
G01X82819Y58664D01*
G01X82771Y58712D01*
G01X82725Y58735D01*
G01X82654Y58758D01*
G01X82534D01*
G01X82463Y58735D01*
G01X82415Y58712D01*
G01X82369Y58664D01*
G01X82344Y58593D01*
G01Y58428D01*
G01X82844Y60028D02*
G01X82344Y60028D01*
G01X82344Y60028D02*
G01X82344Y60312D01*
G01X82844Y60516D02*
G01X82344Y60516D01*
G01X82844Y60516D02*
G01X82844Y60826D01*
G01X82606Y60516D02*
G01X82606Y60706D01*
G01X82344Y60516D02*
G01X82344Y60826D01*
G01X82844Y61029D02*
G01X82344Y61029D01*
G01X82844Y61029D02*
G01X82844Y61194D01*
G01X82819Y61267D01*
G01X82771Y61313D01*
G01X82725Y61339D01*
G01X82654Y61361D01*
G01X82534D01*
G01X82463Y61339D01*
G01X82415Y61313D01*
G01X82369Y61267D01*
G01X82344Y61194D01*
G01Y61029D01*
G01X82844Y62629D02*
G01X82344Y62629D01*
G01X82844Y62962D02*
G01X82344Y62962D01*
G01X82606Y62629D02*
G01X82606Y62962D01*
G01X82844Y63165D02*
G01X82344Y63165D01*
G01X82844Y63165D02*
G01X82844Y63475D01*
G01X82606Y63165D02*
G01X82606Y63355D01*
G01X82344Y63165D02*
G01X82344Y63475D01*
G01X82844Y63678D02*
G01X82344Y63678D01*
G01X82844Y63678D02*
G01X82844Y63988D01*
G01X82606Y63678D02*
G01X82606Y63868D01*
G01X82844Y65786D02*
G01X82344Y66119D01*
G01X82844Y66119D02*
G01X82344Y65786D01*
G04 //text: Vyper Version C*
G04 CW2 Board V1.1*
G54D11*
G01X118986Y78859D02*
G01X118711Y78135D01*
G01X118437Y78859D02*
G01X118711Y78135D01*
G01X118137Y78618D02*
G01X117932Y78135D01*
G01X117726Y78618D02*
G01X117932Y78135D01*
G01X118000Y77998D01*
G01X118069Y77930D01*
G01X118137Y77897D01*
G01X118170D01*
G01X117459Y78618D02*
G01X117459Y77897D01*
G01X117459Y78514D02*
G01X117391Y78582D01*
G01X117322Y78618D01*
G01X117218D01*
G01X117149Y78582D01*
G01X117081Y78514D01*
G01X117048Y78412D01*
G01Y78344D01*
G01X117081Y78239D01*
G01X117149Y78171D01*
G01X117218Y78135D01*
G01X117322D01*
G01X117391Y78171D01*
G01X117459Y78239D01*
G01X116781Y78412D02*
G01X116369Y78412D01*
G01Y78481D01*
G01X116405Y78549D01*
G01X116438Y78582D01*
G01X116507Y78618D01*
G01X116611D01*
G01X116679Y78582D01*
G01X116748Y78514D01*
G01X116781Y78412D01*
G01Y78344D01*
G01X116748Y78239D01*
G01X116679Y78171D01*
G01X116611Y78135D01*
G01X116507D01*
G01X116438Y78171D01*
G01X116369Y78239D01*
G01X116105Y78618D02*
G01X116105Y78135D01*
G01X116105Y78412D02*
G01X116070Y78514D01*
G01X116001Y78582D01*
G01X115933Y78618D01*
G01X115828D01*
G01X114795Y78859D02*
G01X114520Y78135D01*
G01X114243Y78859D02*
G01X114520Y78135D01*
G01X113979Y78412D02*
G01X113568Y78412D01*
G01Y78481D01*
G01X113601Y78549D01*
G01X113636Y78582D01*
G01X113705Y78618D01*
G01X113807D01*
G01X113878Y78582D01*
G01X113946Y78514D01*
G01X113979Y78412D01*
G01Y78344D01*
G01X113946Y78239D01*
G01X113878Y78171D01*
G01X113807Y78135D01*
G01X113705D01*
G01X113636Y78171D01*
G01X113568Y78239D01*
G01X113301Y78618D02*
G01X113301Y78135D01*
G01X113301Y78412D02*
G01X113268Y78514D01*
G01X113200Y78582D01*
G01X113131Y78618D01*
G01X113027D01*
G01X112384Y78514D02*
G01X112417Y78582D01*
G01X112521Y78618D01*
G01X112626D01*
G01X112727Y78582D01*
G01X112763Y78514D01*
G01X112727Y78445D01*
G01X112659Y78412D01*
G01X112488Y78377D01*
G01X112417Y78344D01*
G01X112384Y78275D01*
G01Y78239D01*
G01X112417Y78171D01*
G01X112521Y78135D01*
G01X112626D01*
G01X112727Y78171D01*
G01X112763Y78239D01*
G01X112120Y78859D02*
G01X112084Y78824D01*
G01X112051Y78859D01*
G01X112084Y78892D01*
G01X112120Y78859D01*
G01X112084Y78618D02*
G01X112084Y78135D01*
G01X111615Y78618D02*
G01X111683Y78582D01*
G01X111752Y78514D01*
G01X111785Y78412D01*
G01Y78344D01*
G01X111752Y78239D01*
G01X111683Y78171D01*
G01X111615Y78135D01*
G01X111510D01*
G01X111442Y78171D01*
G01X111373Y78239D01*
G01X111338Y78344D01*
G01Y78412D01*
G01X111373Y78514D01*
G01X111442Y78582D01*
G01X111510Y78618D01*
G01X111615D01*
G01X111074Y78618D02*
G01X111074Y78135D01*
G01X111074Y78481D02*
G01X110969Y78582D01*
G01X110901Y78618D01*
G01X110799D01*
G01X110731Y78582D01*
G01X110695Y78481D01*
G01Y78135D01*
G01X109146Y78686D02*
G01X109179Y78755D01*
G01X109247Y78824D01*
G01X109316Y78859D01*
G01X109453D01*
G01X109522Y78824D01*
G01X109590Y78755D01*
G01X109626Y78686D01*
G01X109661Y78582D01*
G01Y78412D01*
G01X109626Y78308D01*
G01X109590Y78239D01*
G01X109522Y78171D01*
G01X109453Y78135D01*
G01X109316D01*
G01X109247Y78171D01*
G01X109179Y78239D01*
G01X109146Y78308D01*
G01X118470Y77488D02*
G01X118506Y77556D01*
G01X118574Y77625D01*
G01X118643Y77658D01*
G01X118780D01*
G01X118849Y77625D01*
G01X118917Y77556D01*
G01X118953Y77488D01*
G01X118986Y77383D01*
G01Y77211D01*
G01X118953Y77109D01*
G01X118917Y77041D01*
G01X118849Y76972D01*
G01X118780Y76936D01*
G01X118643D01*
G01X118574Y76972D01*
G01X118506Y77041D01*
G01X118470Y77109D01*
G01X118206Y77658D02*
G01X118033Y76936D01*
G01X117863Y77658D02*
G01X118033Y76936D01*
G01X117863Y77658D02*
G01X117690Y76936D01*
G01X117518Y77658D02*
G01X117690Y76936D01*
G01X117218Y77488D02*
G01X117218Y77521D01*
G01X117185Y77589D01*
G01X117149Y77625D01*
G01X117081Y77658D01*
G01X116944D01*
G01X116875Y77625D01*
G01X116842Y77589D01*
G01X116806Y77521D01*
G01Y77452D01*
G01X116842Y77383D01*
G01X116910Y77279D01*
G01X117253Y76936D01*
G01X116773D01*
G01X115737Y77658D02*
G01X115737Y76936D01*
G01X115737Y77658D02*
G01X115427Y77658D01*
G01X115326Y77625D01*
G01X115290Y77589D01*
G01X115257Y77521D01*
G01Y77452D01*
G01X115290Y77383D01*
G01X115326Y77348D01*
G01X115427Y77315D01*
G01X115737Y77315D02*
G01X115427Y77315D01*
G01X115326Y77279D01*
G01X115290Y77246D01*
G01X115257Y77178D01*
G01Y77074D01*
G01X115290Y77005D01*
G01X115326Y76972D01*
G01X115427Y76936D01*
G01X115737D01*
G01X114820Y77416D02*
G01X114889Y77383D01*
G01X114957Y77315D01*
G01X114990Y77211D01*
G01Y77142D01*
G01X114957Y77041D01*
G01X114889Y76972D01*
G01X114820Y76936D01*
G01X114716D01*
G01X114647Y76972D01*
G01X114579Y77041D01*
G01X114543Y77142D01*
G01Y77211D01*
G01X114579Y77315D01*
G01X114647Y77383D01*
G01X114716Y77416D01*
G01X114820D01*
G01X113868Y77416D02*
G01X113868Y76936D01*
G01X113868Y77315D02*
G01X113936Y77383D01*
G01X114005Y77416D01*
G01X114106D01*
G01X114175Y77383D01*
G01X114243Y77315D01*
G01X114279Y77211D01*
G01Y77142D01*
G01X114243Y77041D01*
G01X114175Y76972D01*
G01X114106Y76936D01*
G01X114005D01*
G01X113936Y76972D01*
G01X113868Y77041D01*
G01X113601Y77416D02*
G01X113601Y76936D01*
G01X113601Y77211D02*
G01X113568Y77315D01*
G01X113499Y77383D01*
G01X113431Y77416D01*
G01X113327D01*
G01X112648Y77658D02*
G01X112648Y76936D01*
G01X112648Y77315D02*
G01X112717Y77383D01*
G01X112786Y77416D01*
G01X112890D01*
G01X112958Y77383D01*
G01X113027Y77315D01*
G01X113062Y77211D01*
G01Y77142D01*
G01X113027Y77041D01*
G01X112958Y76972D01*
G01X112890Y76936D01*
G01X112786D01*
G01X112717Y76972D01*
G01X112648Y77041D01*
G01X111615Y77658D02*
G01X111338Y76936D01*
G01X111063Y77658D02*
G01X111338Y76936D01*
G01X110799Y77521D02*
G01X110731Y77556D01*
G01X110627Y77658D01*
G01Y76936D01*
G01X110327Y77109D02*
G01X110362Y77074D01*
G01X110327Y77041D01*
G01X110294Y77074D01*
G01X110327Y77109D01*
G01X110027Y77521D02*
G01X109959Y77556D01*
G01X109857Y77658D01*
G01Y76936D01*
G04 //text: 24V+ 24V-*
G54D10*
G01X98767Y58279D02*
G01X98767Y58304D01*
G01X98742Y58352D01*
G01X98716Y58378D01*
G01X98668Y58401D01*
G01X98569D01*
G01X98521Y58378D01*
G01X98495Y58352D01*
G01X98472Y58304D01*
G01Y58253D01*
G01X98495Y58205D01*
G01X98546Y58132D01*
G01X98790Y57885D01*
G01X98447D01*
G01X97995Y58401D02*
G01X98239Y58058D01*
G01X97870D01*
G01X97995Y58401D02*
G01X97995Y57885D01*
G01X97662Y58401D02*
G01X97466Y57885D01*
G01X97271Y58401D02*
G01X97466Y57885D01*
G01X96842Y58327D02*
G01X96842Y57885D01*
G01X97063Y58106D02*
G01X96621Y58106D01*
G01X95838Y58279D02*
G01X95838Y58304D01*
G01X95813Y58352D01*
G01X95790Y58378D01*
G01X95739Y58401D01*
G01X95643D01*
G01X95594Y58378D01*
G01X95569Y58352D01*
G01X95544Y58304D01*
G01Y58253D01*
G01X95569Y58205D01*
G01X95617Y58132D01*
G01X95864Y57885D01*
G01X95521D01*
G01X95066Y58401D02*
G01X95313Y58058D01*
G01X94944D01*
G01X95066Y58401D02*
G01X95066Y57885D01*
G01X94736Y58401D02*
G01X94540Y57885D01*
G01X94342Y58401D02*
G01X94540Y57885D01*
G01X94136Y58106D02*
G01X93695Y58106D01*
G04 //text: GND  T0*
G01X112474Y62896D02*
G01X112519Y62873D01*
G01X112568Y62825D01*
G01X112593Y62777D01*
G01Y62683D01*
G01X112568Y62634D01*
G01X112519Y62586D01*
G01X112474Y62563D01*
G01X112403Y62540D01*
G01X112283D01*
G01X112212Y62563D01*
G01X112164Y62586D01*
G01X112118Y62634D01*
G01X112093Y62683D01*
G01Y62777D01*
G01X112118Y62825D01*
G01X112164Y62873D01*
G01X112212Y62896D01*
G01X112283D01*
G01X112283Y62777D02*
G01X112283Y62896D01*
G01X112593Y63099D02*
G01X112093Y63099D01*
G01X112593Y63099D02*
G01X112093Y63432D01*
G01X112593Y63432D02*
G01X112093Y63432D01*
G01X112593Y63638D02*
G01X112093Y63638D01*
G01X112593Y63638D02*
G01X112593Y63803D01*
G01X112568Y63874D01*
G01X112519Y63922D01*
G01X112474Y63945D01*
G01X112403Y63968D01*
G01X112283D01*
G01X112212Y63945D01*
G01X112164Y63922D01*
G01X112118Y63874D01*
G01X112093Y63803D01*
G01Y63638D01*
G01X112593Y65403D02*
G01X112093Y65403D01*
G01X112593Y65238D02*
G01X112593Y65571D01*
G01X112593Y65916D02*
G01X112568Y65845D01*
G01X112497Y65797D01*
G01X112377Y65774D01*
G01X112306D01*
G01X112189Y65797D01*
G01X112118Y65845D01*
G01X112093Y65916D01*
G01Y65964D01*
G01X112118Y66035D01*
G01X112189Y66081D01*
G01X112306Y66107D01*
G01X112377D01*
G01X112497Y66081D01*
G01X112568Y66035D01*
G01X112593Y65964D01*
G01Y65916D01*
G04 //text: Signal GND Servo 5V  GND*
G01X121822Y56960D02*
G01X121871Y56912D01*
G01X121896Y56840D01*
G01Y56744D01*
G01X121871Y56673D01*
G01X121822Y56627D01*
G01X121777D01*
G01X121728Y56650D01*
G01X121705Y56673D01*
G01X121680Y56721D01*
G01X121634Y56863D01*
G01X121609Y56912D01*
G01X121586Y56934D01*
G01X121538Y56960D01*
G01X121467D01*
G01X121421Y56912D01*
G01X121396Y56840D01*
G01Y56744D01*
G01X121421Y56673D01*
G01X121467Y56627D01*
G01X121896Y57163D02*
G01X121871Y57186D01*
G01X121896Y57211D01*
G01X121919Y57186D01*
G01X121896Y57163D01*
G01X121728Y57186D02*
G01X121396Y57186D01*
G01X121728Y57699D02*
G01X121347Y57699D01*
G01X121276Y57676D01*
G01X121253Y57651D01*
G01X121230Y57605D01*
G01Y57534D01*
G01X121253Y57486D01*
G01X121657Y57699D02*
G01X121705Y57651D01*
G01X121728Y57605D01*
G01Y57534D01*
G01X121705Y57486D01*
G01X121657Y57437D01*
G01X121586Y57414D01*
G01X121538D01*
G01X121467Y57437D01*
G01X121421Y57486D01*
G01X121396Y57534D01*
G01Y57605D01*
G01X121421Y57651D01*
G01X121467Y57699D01*
G01X121728Y57902D02*
G01X121396Y57902D01*
G01X121634Y57902D02*
G01X121705Y57976D01*
G01X121728Y58021D01*
G01Y58093D01*
G01X121705Y58141D01*
G01X121634Y58164D01*
G01X121396D01*
G01X121728Y58654D02*
G01X121396Y58654D01*
G01X121657Y58654D02*
G01X121705Y58606D01*
G01X121728Y58557D01*
G01Y58486D01*
G01X121705Y58441D01*
G01X121657Y58392D01*
G01X121586Y58369D01*
G01X121538D01*
G01X121467Y58392D01*
G01X121421Y58441D01*
G01X121396Y58486D01*
G01Y58557D01*
G01X121421Y58606D01*
G01X121467Y58654D01*
G01X121896Y58857D02*
G01X121396Y58857D01*
G01X121777Y59949D02*
G01X121822Y59926D01*
G01X121871Y59878D01*
G01X121896Y59830D01*
G01Y59736D01*
G01X121871Y59688D01*
G01X121822Y59642D01*
G01X121777Y59617D01*
G01X121705Y59594D01*
G01X121586D01*
G01X121515Y59617D01*
G01X121467Y59642D01*
G01X121421Y59688D01*
G01X121396Y59736D01*
G01Y59830D01*
G01X121421Y59878D01*
G01X121467Y59926D01*
G01X121515Y59949D01*
G01X121586D01*
G01X121586Y59830D02*
G01X121586Y59949D01*
G01X121896Y60153D02*
G01X121396Y60153D01*
G01X121896Y60153D02*
G01X121396Y60485D01*
G01X121896Y60485D02*
G01X121396Y60485D01*
G01X121896Y60691D02*
G01X121396Y60691D01*
G01X121896Y60691D02*
G01X121896Y60856D01*
G01X121871Y60927D01*
G01X121822Y60976D01*
G01X121777Y60998D01*
G01X121705Y61024D01*
G01X121586D01*
G01X121515Y60998D01*
G01X121467Y60976D01*
G01X121421Y60927D01*
G01X121396Y60856D01*
G01Y60691D01*
G01X121822Y62091D02*
G01X121871Y62045D01*
G01X121896Y61974D01*
G01Y61877D01*
G01X121871Y61806D01*
G01X121822Y61758D01*
G01X121777D01*
G01X121728Y61783D01*
G01X121705Y61806D01*
G01X121680Y61854D01*
G01X121634Y61997D01*
G01X121609Y62045D01*
G01X121586Y62068D01*
G01X121538Y62091D01*
G01X121467D01*
G01X121421Y62045D01*
G01X121396Y61974D01*
G01Y61877D01*
G01X121421Y61806D01*
G01X121467Y61758D01*
G01X121586Y62296D02*
G01X121586Y62581D01*
G01X121634D01*
G01X121680Y62555D01*
G01X121705Y62533D01*
G01X121728Y62484D01*
G01Y62413D01*
G01X121705Y62367D01*
G01X121657Y62319D01*
G01X121586Y62296D01*
G01X121538D01*
G01X121467Y62319D01*
G01X121421Y62367D01*
G01X121396Y62413D01*
G01Y62484D01*
G01X121421Y62533D01*
G01X121467Y62581D01*
G01X121728Y62784D02*
G01X121396Y62784D01*
G01X121586Y62784D02*
G01X121657Y62807D01*
G01X121705Y62855D01*
G01X121728Y62903D01*
G01Y62974D01*
G01X121728Y63178D02*
G01X121396Y63320D01*
G01X121728Y63462D02*
G01X121396Y63320D01*
G01X121728Y63787D02*
G01X121705Y63739D01*
G01X121657Y63691D01*
G01X121586Y63668D01*
G01X121538D01*
G01X121467Y63691D01*
G01X121421Y63739D01*
G01X121396Y63787D01*
G01Y63858D01*
G01X121421Y63904D01*
G01X121467Y63952D01*
G01X121538Y63975D01*
G01X121586D01*
G01X121657Y63952D01*
G01X121705Y63904D01*
G01X121728Y63858D01*
G01Y63787D01*
G01X121896Y64996D02*
G01X121896Y64760D01*
G01X121680Y64735D01*
G01X121705Y64760D01*
G01X121728Y64831D01*
G01Y64902D01*
G01X121705Y64973D01*
G01X121657Y65022D01*
G01X121586Y65045D01*
G01X121538D01*
G01X121467Y65022D01*
G01X121421Y64973D01*
G01X121396Y64902D01*
G01Y64831D01*
G01X121421Y64760D01*
G01X121444Y64735D01*
G01X121492Y64712D01*
G01X121896Y65248D02*
G01X121396Y65438D01*
G01X121896Y65629D02*
G01X121396Y65438D01*
G01X121777Y67252D02*
G01X121822Y67229D01*
G01X121871Y67181D01*
G01X121896Y67135D01*
G01Y67038D01*
G01X121871Y66993D01*
G01X121822Y66945D01*
G01X121777Y66919D01*
G01X121705Y66896D01*
G01X121586D01*
G01X121515Y66919D01*
G01X121467Y66945D01*
G01X121421Y66993D01*
G01X121396Y67038D01*
G01Y67135D01*
G01X121421Y67181D01*
G01X121467Y67229D01*
G01X121515Y67252D01*
G01X121586D01*
G01X121586Y67135D02*
G01X121586Y67252D01*
G01X121896Y67458D02*
G01X121396Y67458D01*
G01X121896Y67458D02*
G01X121396Y67790D01*
G01X121896Y67790D02*
G01X121396Y67790D01*
G01X121896Y67994D02*
G01X121396Y67994D01*
G01X121896Y67994D02*
G01X121896Y68159D01*
G01X121871Y68230D01*
G01X121822Y68278D01*
G01X121777Y68301D01*
G01X121705Y68326D01*
G01X121586D01*
G01X121515Y68301D01*
G01X121467Y68278D01*
G01X121421Y68230D01*
G01X121396Y68159D01*
G01Y67994D01*
G04 //text: GND  T0*
G01X108009Y62437D02*
G01X108032Y62482D01*
G01X108080Y62530D01*
G01X108129Y62556D01*
G01X108223D01*
G01X108271Y62530D01*
G01X108319Y62482D01*
G01X108342Y62437D01*
G01X108365Y62365D01*
G01Y62246D01*
G01X108342Y62175D01*
G01X108319Y62127D01*
G01X108271Y62081D01*
G01X108223Y62056D01*
G01X108129D01*
G01X108080Y62081D01*
G01X108032Y62127D01*
G01X108009Y62175D01*
G01Y62246D01*
G01X108129Y62246D02*
G01X108009Y62246D01*
G01X107806Y62556D02*
G01X107806Y62056D01*
G01X107806Y62556D02*
G01X107473Y62056D01*
G01X107473Y62556D02*
G01X107473Y62056D01*
G01X107268Y62556D02*
G01X107268Y62056D01*
G01X107268Y62556D02*
G01X107103Y62556D01*
G01X107031Y62530D01*
G01X106983Y62482D01*
G01X106960Y62437D01*
G01X106937Y62365D01*
G01Y62246D01*
G01X106960Y62175D01*
G01X106983Y62127D01*
G01X107031Y62081D01*
G01X107103Y62056D01*
G01X107268D01*
G01X105502Y62556D02*
G01X105502Y62056D01*
G01X105667Y62556D02*
G01X105335Y62556D01*
G01X104989Y62556D02*
G01X105060Y62530D01*
G01X105109Y62459D01*
G01X105132Y62340D01*
G01Y62269D01*
G01X105109Y62152D01*
G01X105060Y62081D01*
G01X104989Y62056D01*
G01X104941D01*
G01X104870Y62081D01*
G01X104824Y62152D01*
G01X104799Y62269D01*
G01Y62340D01*
G01X104824Y62459D01*
G01X104870Y62530D01*
G01X104941Y62556D01*
G01X104989D01*
G04 //text: GND  T0*
G01X111071Y58386D02*
G01X111094Y58432D01*
G01X111142Y58480D01*
G01X111191Y58505D01*
G01X111285D01*
G01X111333Y58480D01*
G01X111381Y58432D01*
G01X111404Y58386D01*
G01X111427Y58315D01*
G01Y58195D01*
G01X111404Y58124D01*
G01X111381Y58076D01*
G01X111333Y58030D01*
G01X111285Y58005D01*
G01X111191D01*
G01X111142Y58030D01*
G01X111094Y58076D01*
G01X111071Y58124D01*
G01Y58195D01*
G01X111191Y58195D02*
G01X111071Y58195D01*
G01X110868Y58505D02*
G01X110868Y58005D01*
G01X110868Y58505D02*
G01X110535Y58005D01*
G01X110535Y58505D02*
G01X110535Y58005D01*
G01X110329Y58505D02*
G01X110329Y58005D01*
G01X110329Y58505D02*
G01X110164Y58505D01*
G01X110093Y58480D01*
G01X110045Y58432D01*
G01X110022Y58386D01*
G01X109999Y58315D01*
G01Y58195D01*
G01X110022Y58124D01*
G01X110045Y58076D01*
G01X110093Y58030D01*
G01X110164Y58005D01*
G01X110329D01*
G01X108564Y58505D02*
G01X108564Y58005D01*
G01X108729Y58505D02*
G01X108397Y58505D01*
G01X108051Y58505D02*
G01X108122Y58480D01*
G01X108170Y58409D01*
G01X108193Y58289D01*
G01Y58218D01*
G01X108170Y58101D01*
G01X108122Y58030D01*
G01X108051Y58005D01*
G01X108003D01*
G01X107932Y58030D01*
G01X107886Y58101D01*
G01X107861Y58218D01*
G01Y58289D01*
G01X107886Y58409D01*
G01X107932Y58480D01*
G01X108003Y58505D01*
G01X108051D01*
G04 //text: 24V+ 24V-*
G01X95289Y62545D02*
G01X95289Y62571D01*
G01X95263Y62619D01*
G01X95238Y62644D01*
G01X95190Y62667D01*
G01X95090D01*
G01X95042Y62644D01*
G01X95017Y62619D01*
G01X94994Y62571D01*
G01Y62520D01*
G01X95017Y62472D01*
G01X95068Y62398D01*
G01X95311Y62152D01*
G01X94969D01*
G01X94516Y62667D02*
G01X94760Y62324D01*
G01X94392D01*
G01X94516Y62667D02*
G01X94516Y62152D01*
G01X94184Y62667D02*
G01X93988Y62152D01*
G01X93793Y62667D02*
G01X93988Y62152D01*
G01X93363Y62594D02*
G01X93363Y62152D01*
G01X93584Y62373D02*
G01X93142Y62373D01*
G01X92360Y62545D02*
G01X92360Y62571D01*
G01X92335Y62619D01*
G01X92312Y62644D01*
G01X92261Y62667D01*
G01X92164D01*
G01X92116Y62644D01*
G01X92091Y62619D01*
G01X92065Y62571D01*
G01Y62520D01*
G01X92091Y62472D01*
G01X92139Y62398D01*
G01X92385Y62152D01*
G01X92042D01*
G01X91588Y62667D02*
G01X91834Y62324D01*
G01X91466D01*
G01X91588Y62667D02*
G01X91588Y62152D01*
G01X91258Y62667D02*
G01X91062Y62152D01*
G01X90864Y62667D02*
G01X91062Y62152D01*
G01X90658Y62373D02*
G01X90216Y62373D01*
G04 //text: HOTEND*
G36*
G01X89489Y67208D02*
G01X89489Y66223D01*
G01X89565D01*
G01X89566Y66278D01*
G01X89567Y66289D01*
G01X89568Y66294D01*
G01X89570Y66303D01*
G01Y66318D01*
G01X89571Y66324D01*
G01X89573Y66331D01*
G01X89575Y66342D01*
G01X89579Y66362D01*
G01X89581Y66371D01*
G01X89596Y66418D01*
G01X89604Y66440D01*
G01X89609Y66451D01*
G01X89613Y66459D01*
G01X89619Y66469D01*
G01X89626Y66485D01*
G01X89628Y66490D01*
G01X89632Y66495D01*
G01X89641Y66508D01*
G01X89653Y66528D01*
G01X89664Y66542D01*
G01X89675Y66556D01*
G01X89680Y66563D01*
G01X89685Y66568D01*
G01X89695Y66576D01*
G01X89702Y66585D01*
G01X89708Y66591D01*
G01X89717Y66598D01*
G01X89724Y66608D01*
G01X89730Y66614D01*
G01X89739Y66620D01*
G01X89747Y66627D01*
G01X89755Y66634D01*
G01X89768Y66643D01*
G01X89774Y66647D01*
G01X89785Y66656D01*
G01X89832Y66685D01*
G01X89840Y66690D01*
G01X89849Y66694D01*
G01X89862Y66700D01*
G01X89870Y66704D01*
G01X89876Y66708D01*
G01X89883Y66711D01*
G01X89896Y66715D01*
G01X89904Y66719D01*
G01X89907Y66721D01*
G01X89911Y66723D01*
G01X89916Y66724D01*
G01X89927Y66727D01*
G01X89937Y66730D01*
G01X89950Y66735D01*
G01X89956Y66737D01*
G01X89980Y66741D01*
G01X89997Y66746D01*
G01X90007Y66748D01*
G01X90029Y66753D01*
G01X90042Y66755D01*
G01X90061Y66757D01*
G01X90101Y66761D01*
G01X90114Y66762D01*
G01X90301Y66764D01*
G01X90480D01*
G01X90762D01*
G01X90911D01*
G01Y66338D01*
G01X90909Y65909D01*
G01X90908Y65905D01*
G01Y65903D01*
G01X90907Y65894D01*
G01X90906Y65879D01*
G01Y65863D01*
G01X90907Y65856D01*
G01X90908Y65853D01*
G01Y65852D01*
G01X90909Y65851D01*
G01X90911D01*
G01X90913Y65853D01*
G01X90915Y65855D01*
G01X90917Y65858D01*
G01X90927Y65876D01*
G01X90938Y65890D01*
G01X90944Y65900D01*
G01X90957Y65923D01*
G01X90966Y65936D01*
G01X90976Y65950D01*
G01X90980Y65956D01*
G01X90986Y65968D01*
G01X90990Y65974D01*
G01X91000Y65988D01*
G01X91030Y66035D01*
G01X91038Y66048D01*
G01X91047Y66062D01*
G01X91051Y66068D01*
G01X91057Y66080D01*
G01X91062Y66087D01*
G01X91072Y66100D01*
G01X91101Y66147D01*
G01X91109Y66160D01*
G01X91119Y66174D01*
G01X91124Y66181D01*
G01X91130Y66192D01*
G01X91134Y66198D01*
G01X91144Y66213D01*
G01X91173Y66259D01*
G01X91181Y66272D01*
G01X91191Y66286D01*
G01X91195Y66293D01*
G01X91201Y66304D01*
G01X91205Y66311D01*
G01X91215Y66325D01*
G01X91244Y66371D01*
G01X91253Y66384D01*
G01X91263Y66398D01*
G01X91267Y66405D01*
G01X91273Y66416D01*
G01X91277Y66423D01*
G01X91287Y66437D01*
G01X91317Y66483D01*
G01X91325Y66497D01*
G01X91334Y66510D01*
G01X91338Y66517D01*
G01X91344Y66528D01*
G01X91349Y66535D01*
G01X91359Y66549D01*
G01X91388Y66596D01*
G01X91396Y66608D01*
G01X91409Y66625D01*
G01X91415Y66636D01*
G01X91428Y66658D01*
G01X91437Y66671D01*
G01X91447Y66685D01*
G01X91451Y66692D01*
G01X91457Y66703D01*
G01X91461Y66710D01*
G01X91471Y66724D01*
G01X91489Y66753D01*
G01X91491Y66756D01*
G01X91494Y66758D01*
G01X91497Y66760D01*
G01X91500Y66761D01*
G01X91503Y66762D01*
G01X91517Y66763D01*
G01X91594Y66764D01*
G01X91682D01*
G01Y65647D01*
G01X91888D01*
G01Y65773D01*
G01X92346D01*
G01Y66149D01*
G01X91946D01*
G01Y66275D01*
G01X92346D01*
G01Y66638D01*
G01X91915D01*
G01Y66764D01*
G01X92494D01*
G01X92664D01*
G01X93453D01*
G01Y66638D01*
G01X93135D01*
G01Y66230D01*
G01X93485D01*
G01X93486Y66277D01*
G01X93487Y66288D01*
G01Y66290D01*
G01X93488Y66295D01*
G01X93490Y66308D01*
G01X93496Y66353D01*
G01X93498Y66365D01*
G01X93500Y66376D01*
G01X93506Y66393D01*
G01X93508Y66403D01*
G01X93511Y66416D01*
G01X93512Y66422D01*
G01X93514Y66427D01*
G01X93520Y66441D01*
G01X93524Y66454D01*
G01X93527Y66463D01*
G01X93533Y66477D01*
G01X93537Y66488D01*
G01X93539Y66492D01*
G01X93541Y66497D01*
G01X93549Y66508D01*
G01X93551Y66513D01*
G01X93554Y66519D01*
G01X93560Y66532D01*
G01X93564Y66540D01*
G01X93577Y66560D01*
G01X93585Y66573D01*
G01X93604Y66599D01*
G01X93609Y66604D01*
G01X93616Y66609D01*
G01X93618Y66612D01*
G01X93620Y66615D01*
G01X93623Y66621D01*
G01X93625Y66624D01*
G01X93627Y66627D01*
G01X93634Y66631D01*
G01X93639Y66637D01*
G01X93647Y66647D01*
G01X93653Y66652D01*
G01X93662Y66658D01*
G01X93672Y66667D01*
G01X93688Y66679D01*
G01X93708Y66694D01*
G01X93711Y66696D01*
G01X93729Y66708D01*
G01X93751Y66721D01*
G01X93760Y66726D01*
G01X93769Y66730D01*
G01X93782Y66735D01*
G01X93790Y66740D01*
G01X93796Y66744D01*
G01X93801Y66746D01*
G01X93807Y66748D01*
G01X93825Y66754D01*
G01X93834Y66757D01*
G01X93844Y66761D01*
G01X93849Y66763D01*
G01X93855Y66765D01*
G01X93873Y66768D01*
G01X93885Y66772D01*
G01X93893Y66773D01*
G01X93906D01*
G01X93921Y66777D01*
G01X93931Y66780D01*
G01X93935D01*
G01X93957Y66781D01*
G01X94014Y66782D01*
G01X94067Y66781D01*
G01X94083Y66780D01*
G01X94091Y66778D01*
G01X94094D01*
G01X94099Y66775D01*
G01X94105Y66774D01*
G01X94114Y66773D01*
G01X94129Y66772D01*
G01X94135Y66771D01*
G01X94160Y66764D01*
G01X94763D01*
G01X94911D01*
G01Y66279D01*
G01X95476D01*
G01Y66764D01*
G01X95624D01*
G01Y65647D01*
G01X95476D01*
G01Y66149D01*
G01X94911D01*
G01Y65647D01*
G01X94763D01*
G01Y66764D01*
G01X94160D01*
G01X94181Y66758D01*
G01X94197Y66755D01*
G01X94205Y66753D01*
G01X94222Y66746D01*
G01X94230Y66743D01*
G01X94239Y66738D01*
G01X94244Y66735D01*
G01X94252Y66731D01*
G01X94264Y66727D01*
G01X94272Y66723D01*
G01X94279Y66719D01*
G01X94296Y66710D01*
G01X94317Y66696D01*
G01X94330Y66687D01*
G01X94349Y66672D01*
G01X94356Y66667D01*
G01X94362Y66661D01*
G01X94369Y66652D01*
G01X94375Y66647D01*
G01X94378Y66645D01*
G01X94385Y66639D01*
G01X94400Y66625D01*
G01X94406Y66617D01*
G01X94411Y66610D01*
G01X94417Y66604D01*
G01X94423Y66600D01*
G01X94426Y66597D01*
G01X94428Y66594D01*
G01X94430Y66588D01*
G01X94432Y66585D01*
G01X94434Y66582D01*
G01X94441Y66574D01*
G01X94447Y66564D01*
G01X94469Y66528D01*
G01X94474Y66520D01*
G01X94478Y66511D01*
G01X94484Y66498D01*
G01X94489Y66490D01*
G01X94492Y66484D01*
G01X94494Y66479D01*
G01X94498Y66468D01*
G01X94503Y66456D01*
G01X94509Y66441D01*
G01X94513Y66432D01*
G01X94517Y66415D01*
G01X94521Y66404D01*
G01X94525Y66383D01*
G01X94530Y66368D01*
G01X94532Y66358D01*
G01X94536Y66335D01*
G01X94539Y66325D01*
G01X94542Y66313D01*
G01X94543Y66307D01*
G01Y66288D01*
G01Y66274D01*
G01X94544Y66267D01*
G01X94545Y66260D01*
G01X94546Y66256D01*
G01X94547Y66246D01*
G01X94548Y66185D01*
G01X94547Y66123D01*
G01X94546Y66113D01*
G01X94544Y66107D01*
G01Y66101D01*
G01X94543Y66078D01*
G01X94541Y66067D01*
G01X94540Y66062D01*
G01X94537Y66055D01*
G01X94535Y66050D01*
G01Y66045D01*
G01X94534Y66034D01*
G01X94533Y66025D01*
G01X94525Y66001D01*
G01X94520Y65984D01*
G01X94516Y65970D01*
G01X94510Y65956D01*
G01X94506Y65948D01*
G01X94502Y65934D01*
G01X94498Y65925D01*
G01X94490Y65907D01*
G01X94483Y65895D01*
G01X94478Y65887D01*
G01X94469Y65871D01*
G01X94463Y65860D01*
G01X94459Y65853D01*
G01X94449Y65839D01*
G01X94439Y65824D01*
G01X94434Y65817D01*
G01X94431Y65814D01*
G01X94426Y65810D01*
G01X94423Y65808D01*
G01X94421Y65805D01*
G01X94418Y65799D01*
G01X94416Y65796D01*
G01X94414Y65793D01*
G01X94408Y65788D01*
G01X94402Y65782D01*
G01X94395Y65773D01*
G01X94385Y65766D01*
G01X94380Y65760D01*
G01X94372Y65750D01*
G01X94366Y65746D01*
G01X94357Y65739D01*
G01X94347Y65730D01*
G01X94328Y65716D01*
G01X94318Y65710D01*
G01X94286Y65689D01*
G01X94282Y65687D01*
G01X94264Y65679D01*
G01X94256Y65675D01*
G01X94250Y65672D01*
G01X94246Y65669D01*
G01X94234Y65665D01*
G01X94212Y65657D01*
G01X94188Y65648D01*
G01X94172Y65643D01*
G01X94160Y65640D01*
G01X94135Y65636D01*
G01X94123Y65634D01*
G01X94115Y65631D01*
G01X94111D01*
G01X94104Y65630D01*
G01X94072Y65629D01*
G01X94064Y65628D01*
G01X94063D01*
G01X94062D01*
G01X94061Y65627D01*
G01X94058Y65626D01*
G01X94050Y65625D01*
G01X94021Y65624D01*
G01X93991Y65625D01*
G01X93979Y65626D01*
G01X93976D01*
G01X93971Y65628D01*
G01X93965Y65629D01*
G01X93947D01*
G01X93932Y65630D01*
G01X93925D01*
G01X93919Y65631D01*
G01X93910Y65634D01*
G01X93891Y65638D01*
G01X93875Y65643D01*
G01X93865Y65646D01*
G01X93855Y65648D01*
G01X93842Y65650D01*
G01X93834Y65653D01*
G01X93830Y65655D01*
G01X93824Y65658D01*
G01X93820Y65660D01*
G01X93815Y65662D01*
G01X93805Y65664D01*
G01X93798Y65666D01*
G01X93794Y65668D01*
G01X93784Y65674D01*
G01X93766Y65682D01*
G01X93758Y65686D01*
G01X93720Y65710D01*
G01X93707Y65719D01*
G01X93701Y65724D01*
G01X93693Y65733D01*
G01X93690Y65736D01*
G01X93687Y65738D01*
G01X93681Y65740D01*
G01X93677Y65743D01*
G01X93672Y65746D01*
G01X93667Y65750D01*
G01X93661Y65755D01*
G01X93657Y65759D01*
G01X93652Y65764D01*
G01X93648Y65769D01*
G01X93643Y65775D01*
G01X93636Y65779D01*
G01X93634Y65782D01*
G01X93630Y65787D01*
G01X93624Y65798D01*
G01X93620Y65803D01*
G01X93613Y65812D01*
G01X93608Y65819D01*
G01X93603Y65824D01*
G01X93596Y65829D01*
G01X93593Y65831D01*
G01X93591Y65834D01*
G01X93589Y65841D01*
G01X93586Y65847D01*
G01X93575Y65865D01*
G01X93563Y65883D01*
G01X93558Y65891D01*
G01X93554Y65899D01*
G01X93545Y65921D01*
G01X93538Y65937D01*
G01X93534Y65945D01*
G01X93525Y65968D01*
G01X93522Y65976D01*
G01X93520Y65985D01*
G01X93517Y65995D01*
G01X93514Y66005D01*
G01X93510Y66015D01*
G01X93508Y66024D01*
G01X93507Y66030D01*
G01Y66035D01*
G01X93506Y66039D01*
G01X93504Y66044D01*
G01X93501Y66051D01*
G01X93499Y66056D01*
G01X93498Y66065D01*
G01Y66080D01*
G01X93496Y66087D01*
G01X93495Y66092D01*
G01X93494Y66102D01*
G01X93493Y66121D01*
G01X93492Y66127D01*
G01X93490Y66133D01*
G01X93488Y66147D01*
G01X93487Y66156D01*
G01X93486Y66172D01*
G01X93485Y66230D01*
G01X93135D01*
G01Y65647D01*
G01X92987D01*
G01Y66638D01*
G01X92664D01*
G01Y66764D01*
G01X92494D01*
G01Y65647D01*
G01X91888D01*
G01X91682D01*
G01X91534D01*
G01Y66080D01*
G01X91536Y66515D01*
G01Y66519D01*
G01X91537Y66524D01*
G01X91538Y66530D01*
G01X91539Y66549D01*
G01X91538Y66560D01*
G01X91537Y66565D01*
G01Y66567D01*
G01X91536Y66568D01*
G01Y66569D01*
G01X91534D01*
G01X91531Y66567D01*
G01X91529Y66564D01*
G01X91527Y66560D01*
G01X91523Y66550D01*
G01X91519Y66544D01*
G01X91517Y66541D01*
G01X91514Y66537D01*
G01X91509Y66530D01*
G01X91504Y66519D01*
G01X91499Y66512D01*
G01X91491Y66501D01*
G01X91487Y66495D01*
G01X91481Y66483D01*
G01X91477Y66477D01*
G01X91466Y66463D01*
G01X91452Y66439D01*
G01X91442Y66425D01*
G01X91437Y66418D01*
G01X91431Y66407D01*
G01X91427Y66401D01*
G01X91417Y66386D01*
G01X91402Y66363D01*
G01X91392Y66349D01*
G01X91388Y66342D01*
G01X91382Y66331D01*
G01X91378Y66324D01*
G01X91368Y66310D01*
G01X91353Y66286D01*
G01X91343Y66273D01*
G01X91339Y66266D01*
G01X91333Y66255D01*
G01X91329Y66248D01*
G01X91319Y66234D01*
G01X91303Y66210D01*
G01X91294Y66196D01*
G01X91290Y66190D01*
G01X91284Y66179D01*
G01X91279Y66172D01*
G01X91269Y66158D01*
G01X91240Y66111D01*
G01X91232Y66098D01*
G01X91220Y66082D01*
G01X91191Y66035D01*
G01X91182Y66022D01*
G01X91171Y66005D01*
G01X91141Y65959D01*
G01X91133Y65946D01*
G01X91121Y65929D01*
G01X91092Y65883D01*
G01X91084Y65869D01*
G01X91072Y65853D01*
G01X91043Y65806D01*
G01X91035Y65793D01*
G01X91022Y65776D01*
G01X90993Y65730D01*
G01X90985Y65717D01*
G01X90973Y65700D01*
G01X90967Y65689D01*
G01X90953Y65667D01*
G01X90950Y65662D01*
G01X90945Y65656D01*
G01X90941Y65653D01*
G01X90940Y65651D01*
G01X90937Y65650D01*
G01X90931Y65649D01*
G01X90913Y65648D01*
G01X90848Y65647D01*
G01X90762D01*
G01Y66764D01*
G01X90480D01*
G01Y65647D01*
G01X90283D01*
G01X90086Y65648D01*
G01X90080Y65649D01*
G01X90075Y65650D01*
G01X90066Y65651D01*
G01X90051Y65652D01*
G01X90038Y65655D01*
G01X90026Y65657D01*
G01X90003Y65661D01*
G01X89993Y65663D01*
G01X89971Y65669D01*
G01X89942Y65678D01*
G01X89915Y65687D01*
G01X89906Y65690D01*
G01X89897Y65695D01*
G01X89891Y65699D01*
G01X89883Y65702D01*
G01X89871Y65706D01*
G01X89863Y65710D01*
G01X89856Y65714D01*
G01X89839Y65723D01*
G01X89814Y65739D01*
G01X89801Y65747D01*
G01X89778Y65764D01*
G01X89766Y65773D01*
G01X89755Y65781D01*
G01X89750Y65785D01*
G01X89746Y65791D01*
G01X89742Y65796D01*
G01X89739Y65799D01*
G01X89735Y65802D01*
G01X89727Y65806D01*
G01X89723Y65809D01*
G01X89720Y65812D01*
G01X89713Y65822D01*
G01X89706Y65829D01*
G01X89700Y65838D01*
G01X89695Y65844D01*
G01X89685Y65852D01*
G01X89682Y65855D01*
G01X89680Y65858D01*
G01X89673Y65870D01*
G01X89666Y65878D01*
G01X89663Y65882D01*
G01X89657Y65891D01*
G01X89635Y65927D01*
G01X89630Y65936D01*
G01X89626Y65944D01*
G01X89620Y65958D01*
G01X89615Y65966D01*
G01X89612Y65971D01*
G01X89609Y65979D01*
G01X89605Y65992D01*
G01X89599Y66006D01*
G01X89595Y66016D01*
G01X89592Y66031D01*
G01X89583Y66062D01*
G01X89580Y66074D01*
G01X89578Y66085D01*
G01X89571Y66128D01*
G01X89570Y66140D01*
G01X89569Y66149D01*
G01X89568Y66156D01*
G01X89566Y66158D01*
G01Y66169D01*
G01X89565Y66223D01*
G01X89489D01*
G01Y65257D01*
G01X95763D01*
G01Y67208D01*
G37*
G36*
G01X93998Y66652D02*
G01X93963Y66651D01*
G01X93951Y66650D01*
G01X93945Y66648D01*
G01X93934Y66646D01*
G01X93913Y66642D01*
G01X93893Y66637D01*
G01X93879Y66633D01*
G01X93866Y66627D01*
G01X93857Y66624D01*
G01X93844Y66620D01*
G01X93837Y66616D01*
G01X93801Y66593D01*
G01X93787Y66584D01*
G01X93781Y66579D01*
G01X93774Y66570D01*
G01X93768Y66564D01*
G01X93759Y66557D01*
G01X93751Y66547D01*
G01X93746Y66542D01*
G01X93739Y66537D01*
G01X93736Y66533D01*
G01X93733Y66529D01*
G01X93721Y66510D01*
G01X93711Y66497D01*
G01X93707Y66490D01*
G01X93705Y66486D01*
G01X93686Y66450D01*
G01X93683Y66441D01*
G01X93673Y66416D01*
G01X93670Y66408D01*
G01X93668Y66399D01*
G01X93665Y66385D01*
G01X93662Y66377D01*
G01X93657Y66365D01*
G01X93656Y66358D01*
G01X93654Y66349D01*
G01X93648Y66306D01*
G01X93646Y66295D01*
G01X93644Y66286D01*
G01Y66283D01*
G01X93643Y66270D01*
G01X93642Y66196D01*
G01X93643Y66118D01*
G01X93644Y66108D01*
G01X93645Y66103D01*
G01X93647Y66091D01*
G01X93648Y66084D01*
G01X93653Y66057D01*
G01X93657Y66037D01*
G01X93662Y66022D01*
G01X93664Y66014D01*
G01X93668Y65998D01*
G01X93670Y65991D01*
G01X93672Y65987D01*
G01X93675Y65982D01*
G01X93679Y65974D01*
G01X93683Y65961D01*
G01X93686Y65954D01*
G01X93691Y65947D01*
G01X93698Y65931D01*
G01X93701Y65925D01*
G01X93704Y65922D01*
G01X93707Y65918D01*
G01X93711Y65911D01*
G01X93718Y65899D01*
G01X93721Y65895D01*
G01X93729Y65886D01*
G01X93734Y65879D01*
G01X93739Y65873D01*
G01X93749Y65866D01*
G01X93754Y65860D01*
G01X93756Y65857D01*
G01X93760Y65853D01*
G01X93765Y65848D01*
G01X93775Y65840D01*
G01X93779Y65836D01*
G01X93784Y65830D01*
G01X93788Y65826D01*
G01X93791Y65823D01*
G01X93795Y65821D01*
G01X93803Y65819D01*
G01X93807Y65817D01*
G01X93810Y65815D01*
G01X93815Y65810D01*
G01X93818Y65808D01*
G01X93828Y65802D01*
G01X93836Y65797D01*
G01X93845Y65793D01*
G01X93866Y65784D01*
G01X93875Y65779D01*
G01X93884Y65776D01*
G01X93895Y65773D01*
G01X93910Y65769D01*
G01X93936Y65764D01*
G01X93944Y65761D01*
G01X93947D01*
G01X93958Y65760D01*
G01X94021Y65759D01*
G01X94081Y65760D01*
G01X94090Y65761D01*
G01X94092D01*
G01X94096Y65763D01*
G01X94106Y65764D01*
G01X94111D01*
G01X94115Y65765D01*
G01X94119Y65767D01*
G01X94126Y65770D01*
G01X94130Y65771D01*
G01X94135Y65772D01*
G01X94144Y65773D01*
G01X94148Y65774D01*
G01X94152Y65775D01*
G01X94159Y65779D01*
G01X94164Y65781D01*
G01X94185Y65790D01*
G01X94194Y65794D01*
G01X94222Y65811D01*
G01X94236Y65822D01*
G01X94258Y65840D01*
G01X94264Y65844D01*
G01X94273Y65853D01*
G01X94283Y65866D01*
G01X94290Y65873D01*
G01X94296Y65883D01*
G01X94303Y65891D01*
G01X94308Y65896D01*
G01X94311Y65900D01*
G01X94317Y65909D01*
G01X94333Y65935D01*
G01X94339Y65951D01*
G01X94343Y65957D01*
G01X94345Y65960D01*
G01X94348Y65963D01*
G01X94350Y65966D01*
G01X94351Y65970D01*
G01X94355Y65983D01*
G01X94359Y65990D01*
G01X94362Y65994D01*
G01X94363Y65998D01*
G01X94365Y66003D01*
G01X94368Y66018D01*
G01X94373Y66034D01*
G01X94377Y66053D01*
G01X94382Y66068D01*
G01X94384Y66075D01*
G01X94385Y66081D01*
G01X94386Y66089D01*
G01X94387Y66099D01*
G01X94388Y66107D01*
G01X94389Y66112D01*
G01X94390Y66120D01*
G01X94391Y66168D01*
G01X94392Y66180D01*
G01X94393Y66183D01*
G01X94394Y66187D01*
G01X94395Y66193D01*
G01Y66210D01*
G01Y66223D01*
G01X94394Y66233D01*
G01X94392Y66239D01*
G01X94391Y66249D01*
G01X94390Y66294D01*
G01X94389Y66305D01*
G01X94387Y66312D01*
G01X94385Y66322D01*
G01X94382Y66340D01*
G01X94378Y66352D01*
G01X94374Y66375D01*
G01X94371Y66383D01*
G01X94370Y66387D01*
G01X94366Y66393D01*
G01X94365Y66397D01*
G01X94363Y66402D01*
G01X94360Y66412D01*
G01X94358Y66419D01*
G01X94356Y66424D01*
G01X94351Y66432D01*
G01X94345Y66446D01*
G01X94335Y66466D01*
G01X94330Y66474D01*
G01X94322Y66488D01*
G01X94301Y66517D01*
G01X94294Y66524D01*
G01X94287Y66533D01*
G01X94283Y66539D01*
G01X94273Y66546D01*
G01X94268Y66552D01*
G01X94260Y66561D01*
G01X94254Y66566D01*
G01X94245Y66573D01*
G01X94240Y66578D01*
G01X94237Y66581D01*
G01X94220Y66591D01*
G01X94213Y66597D01*
G01X94209Y66600D01*
G01X94201Y66604D01*
G01X94190Y66609D01*
G01X94185Y66612D01*
G01X94180Y66615D01*
G01X94165Y66624D01*
G01X94159Y66626D01*
G01X94147Y66628D01*
G01X94134Y66632D01*
G01X94129Y66636D01*
G01X94124Y66637D01*
G01X94118Y66639D01*
G01X94097Y66642D01*
G01X94084Y66646D01*
G01X94070Y66648D01*
G01X94061Y66649D01*
G01X94046Y66651D01*
G01X94003Y66652D01*
G37*
G36*
G01X90245Y66638D02*
G01X90161Y66637D01*
G01X90152Y66636D01*
G01X90148Y66635D01*
G01X90138Y66634D01*
G01X90093Y66633D01*
G01X90082Y66632D01*
G01X90075Y66630D01*
G01X90067Y66629D01*
G01X90055D01*
G01X90047Y66627D01*
G01X90044Y66626D01*
G01X90033Y66624D01*
G01X90015Y66620D01*
G01X89960Y66602D01*
G01X89951Y66599D01*
G01X89941Y66594D01*
G01X89932Y66589D01*
G01X89914Y66581D01*
G01X89905Y66576D01*
G01X89886Y66564D01*
G01X89877Y66559D01*
G01X89863Y66549D01*
G01X89849Y66537D01*
G01X89842Y66533D01*
G01X89837Y66527D01*
G01X89829Y66518D01*
G01X89819Y66510D01*
G01X89814Y66504D01*
G01X89807Y66495D01*
G01X89801Y66488D01*
G01X89794Y66479D01*
G01X89779Y66459D01*
G01X89776Y66454D01*
G01X89774Y66448D01*
G01X89768Y66435D01*
G01X89764Y66427D01*
G01X89758Y66417D01*
G01X89753Y66407D01*
G01X89745Y66386D01*
G01X89744Y66382D01*
G01X89736Y66353D01*
G01X89733Y66342D01*
G01X89730Y66330D01*
G01X89724Y66295D01*
G01X89723Y66286D01*
G01X89722Y66278D01*
G01X89721Y66263D01*
G01X89720Y66256D01*
G01X89719Y66252D01*
G01X89718Y66245D01*
G01X89717Y66217D01*
G01Y66208D01*
G01X89718Y66174D01*
G01X89719Y66163D01*
G01X89721Y66157D01*
G01X89722Y66147D01*
G01Y66128D01*
G01X89723Y66122D01*
G01X89726Y66116D01*
G01X89728Y66104D01*
G01X89731Y66080D01*
G01X89733Y66071D01*
G01X89749Y66024D01*
G01X89752Y66015D01*
G01X89757Y66005D01*
G01X89760Y66000D01*
G01X89764Y65992D01*
G01X89766Y65984D01*
G01X89768Y65980D01*
G01X89769Y65977D01*
G01X89774Y65972D01*
G01X89778Y65965D01*
G01X89784Y65954D01*
G01X89788Y65948D01*
G01X89807Y65921D01*
G01X89814Y65914D01*
G01X89820Y65905D01*
G01X89826Y65899D01*
G01X89835Y65891D01*
G01X89841Y65886D01*
G01X89845Y65879D01*
G01X89848Y65877D01*
G01X89851Y65875D01*
G01X89858Y65872D01*
G01X89861Y65870D01*
G01X89863Y65868D01*
G01X89868Y65861D01*
G01X89871Y65859D01*
G01X89873Y65857D01*
G01X89880Y65854D01*
G01X89883Y65853D01*
G01X89886Y65851D01*
G01X89894Y65844D01*
G01X89904Y65838D01*
G01X89912Y65833D01*
G01X89921Y65829D01*
G01X89934Y65823D01*
G01X89942Y65819D01*
G01X89948Y65815D01*
G01X89953Y65813D01*
G01X89964Y65808D01*
G01X89976Y65804D01*
G01X89989Y65798D01*
G01X89994Y65796D01*
G01X90000Y65795D01*
G01X90025Y65791D01*
G01X90041Y65786D01*
G01X90052Y65784D01*
G01X90079Y65779D01*
G01X90115Y65775D01*
G01X90129Y65774D01*
G01X90231Y65773D01*
G01X90319Y65774D01*
G01X90328D01*
G01X90330Y65775D01*
G01Y65777D01*
G01X90332Y66208D01*
G01Y66638D01*
G37*
G04 //text: THERMISTOR*
G36*
G01X105746Y68620D02*
G01X105746Y67059D01*
G01X105760D01*
G01X105764Y67068D01*
G01X105768Y67075D01*
G01X105772Y67081D01*
G01X105780Y67093D01*
G01X105784Y67100D01*
G01X105790Y67111D01*
G01X105795Y67117D01*
G01X105802Y67129D01*
G01X105807Y67135D01*
G01X105812Y67146D01*
G01X105817Y67154D01*
G01X105825Y67165D01*
G01X105829Y67171D01*
G01X105835Y67182D01*
G01X105839Y67189D01*
G01X105847Y67200D01*
G01X105851Y67207D01*
G01X105858Y67219D01*
G01X105862Y67225D01*
G01X105870Y67236D01*
G01X105874Y67243D01*
G01X105880Y67254D01*
G01X105884Y67261D01*
G01X105892Y67272D01*
G01X105896Y67279D01*
G01X105902Y67290D01*
G01X105907Y67297D01*
G01X105914Y67308D01*
G01X105919Y67315D01*
G01X105925Y67326D01*
G01X105929Y67333D01*
G01X105937Y67344D01*
G01X105941Y67351D01*
G01X105947Y67362D01*
G01X105952Y67368D01*
G01X105959Y67380D01*
G01X105964Y67387D01*
G01X105969Y67398D01*
G01X105974Y67404D01*
G01X105982Y67416D01*
G01X105986Y67422D01*
G01X105992Y67433D01*
G01X105996Y67441D01*
G01X106006Y67454D01*
G01X106018Y67473D01*
G01X106023Y67480D01*
G01X106031Y67489D01*
G01X106037Y67498D01*
G01X106044Y67506D01*
G01X106051Y67514D01*
G01X106056Y67520D01*
G01X106062Y67525D01*
G01X106075Y67535D01*
G01X106080Y67539D01*
G01X106091Y67547D01*
G01X106105Y67556D01*
G01X106110Y67560D01*
G01X106114Y67564D01*
G01X106117Y67568D01*
G01X106118Y67571D01*
G01X106120Y67575D01*
G01X106119Y67578D01*
G01X106116Y67580D01*
G01X106112Y67582D01*
G01X106101Y67584D01*
G01X106084Y67592D01*
G01X106069Y67598D01*
G01X106060Y67601D01*
G01X106051Y67605D01*
G01X106041Y67611D01*
G01X106025Y67620D01*
G01X106004Y67633D01*
G01X105991Y67642D01*
G01X105981Y67651D01*
G01X105976Y67655D01*
G01X105971Y67661D01*
G01X105968Y67666D01*
G01X105962Y67671D01*
G01X105953Y67679D01*
G01X105948Y67685D01*
G01X105930Y67710D01*
G01X105923Y67720D01*
G01X105919Y67729D01*
G01X105914Y67737D01*
G01X105912Y67743D01*
G01X105904Y67765D01*
G01X105903Y67768D01*
G01X105894Y67797D01*
G01X105892Y67804D01*
G01X105891Y67811D01*
G01X105890Y67818D01*
G01Y67829D01*
G01X105889Y67838D01*
G01X105888Y67842D01*
G01X105887Y67847D01*
G01X105885Y67856D01*
G01Y67885D01*
G01Y67913D01*
G01X105887Y67925D01*
G01X105889Y67931D01*
G01X105891Y67943D01*
G01X105893Y67960D01*
G01X105895Y67967D01*
G01X105898Y67976D01*
G01X105903Y67988D01*
G01X105907Y68001D01*
G01X105910Y68009D01*
G01X105916Y68020D01*
G01X105923Y68035D01*
G01X105927Y68042D01*
G01X105929Y68045D01*
G01X105937Y68054D01*
G01X105943Y68063D01*
G01X105950Y68070D01*
G01X105957Y68080D01*
G01X105960Y68083D01*
G01X105963Y68086D01*
G01X105966Y68088D01*
G01X105974Y68093D01*
G01X105978Y68096D01*
G01X105982Y68098D01*
G01X105984Y68102D01*
G01X105986Y68105D01*
G01X105989Y68108D01*
G01X105992Y68110D01*
G01X105998Y68112D01*
G01X106001Y68114D01*
G01X106009Y68120D01*
G01X106017Y68124D01*
G01X106030Y68130D01*
G01X106038Y68134D01*
G01X106048Y68140D01*
G01X106058Y68145D01*
G01X106079Y68152D01*
G01X106083Y68153D01*
G01X106112Y68162D01*
G01X106122Y68165D01*
G01X106129Y68166D01*
G01X106141Y68167D01*
G01X106149Y68168D01*
G01X106156Y68170D01*
G01X106164Y68171D01*
G01X106180Y68172D01*
G01X106186Y68173D01*
G01X106189Y68174D01*
G01X106202Y68175D01*
G01X106385Y68176D01*
G01X106576D01*
G01Y67636D01*
G01X106791D01*
G01X106792Y67690D01*
G01X106793Y67701D01*
G01Y67703D01*
G01X106794Y67707D01*
G01X106795Y67716D01*
G01X106796Y67735D01*
G01X106797Y67741D01*
G01X106799Y67747D01*
G01X106801Y67761D01*
G01X106803Y67779D01*
G01X106806Y67791D01*
G01X106808Y67797D01*
G01X106812Y67807D01*
G01X106814Y67813D01*
G01X106817Y67831D01*
G01X106819Y67840D01*
G01X106821Y67844D01*
G01X106825Y67850D01*
G01X106826Y67854D01*
G01X106828Y67859D01*
G01X106830Y67869D01*
G01X106833Y67876D01*
G01X106835Y67880D01*
G01X106838Y67886D01*
G01X106842Y67894D01*
G01X106846Y67906D01*
G01X106849Y67914D01*
G01X106854Y67921D01*
G01X106861Y67937D01*
G01X106864Y67943D01*
G01X106866Y67946D01*
G01X106869Y67950D01*
G01X106874Y67956D01*
G01X106881Y67969D01*
G01X106896Y67994D01*
G01X106900Y67999D01*
G01X106905Y68005D01*
G01X106908Y68009D01*
G01X106913Y68013D01*
G01X106916Y68016D01*
G01X106919Y68019D01*
G01X106923Y68028D01*
G01X106926Y68031D01*
G01X106929Y68034D01*
G01X106936Y68039D01*
G01X106941Y68045D01*
G01X106949Y68054D01*
G01X106958Y68062D01*
G01X106963Y68067D01*
G01X106969Y68074D01*
G01X106971Y68076D01*
G01X106974Y68078D01*
G01X106980Y68081D01*
G01X106983Y68083D01*
G01X106986Y68085D01*
G01X106991Y68091D01*
G01X106993Y68094D01*
G01X106996Y68096D01*
G01X107003Y68098D01*
G01X107006Y68100D01*
G01X107009Y68102D01*
G01X107013Y68107D01*
G01X107020Y68111D01*
G01X107032Y68118D01*
G01X107037Y68121D01*
G01X107040Y68124D01*
G01X107048Y68129D01*
G01X107061Y68134D01*
G01X107070Y68139D01*
G01X107079Y68145D01*
G01X107097Y68152D01*
G01X107106Y68157D01*
G01X107111Y68160D01*
G01X107115Y68162D01*
G01X107120Y68163D01*
G01X107131Y68166D01*
G01X107141Y68169D01*
G01X107150Y68174D01*
G01X107155Y68175D01*
G01X107162Y68177D01*
G01X107179Y68180D01*
G01X107192Y68184D01*
G01X107204Y68186D01*
G01X107228Y68189D01*
G01X107237Y68191D01*
G01X107240Y68192D01*
G01X107252Y68193D01*
G01X107316Y68194D01*
G01X107382Y68193D01*
G01X107392Y68192D01*
G01X107402Y68189D01*
G01X107412Y68187D01*
G01X107453Y68180D01*
G01X107469Y68176D01*
G01X107881D01*
G01X108670D01*
G01Y68050D01*
G01X108352D01*
G01Y67344D01*
G01X108778D01*
G01X108779Y67374D01*
G01X108780Y67386D01*
G01X108781Y67395D01*
G01X108782Y67399D01*
G01X108785Y67405D01*
G01X108786Y67410D01*
G01X108788Y67416D01*
G01X108790Y67429D01*
G01X108793Y67436D01*
G01X108795Y67441D01*
G01X108800Y67449D01*
G01X108804Y67459D01*
G01X108807Y67466D01*
G01X108832Y67506D01*
G01X108841Y67519D01*
G01X108846Y67525D01*
G01X108855Y67533D01*
G01X108861Y67538D01*
G01X108868Y67547D01*
G01X108878Y67555D01*
G01X108883Y67560D01*
G01X108888Y67567D01*
G01X108890Y67569D01*
G01X108893Y67571D01*
G01X108900Y67574D01*
G01X108903Y67576D01*
G01X108906Y67577D01*
G01X108910Y67582D01*
G01X108919Y67588D01*
G01X108944Y67606D01*
G01X108955Y67613D01*
G01X108978Y67626D01*
G01X109003Y67642D01*
G01X109021Y67650D01*
G01X109030Y67654D01*
G01X109039Y67660D01*
G01X109054Y67667D01*
G01X109060Y67670D01*
G01X109064Y67672D01*
G01X109068Y67676D01*
G01X109071Y67677D01*
G01X109074Y67679D01*
G01X109082Y67681D01*
G01X109086Y67683D01*
G01X109089Y67685D01*
G01X109095Y67689D01*
G01X109098Y67691D01*
G01X109101Y67693D01*
G01X109109Y67695D01*
G01X109113Y67697D01*
G01X109116Y67699D01*
G01X109121Y67703D01*
G01X109124Y67704D01*
G01X109127Y67706D01*
G01X109137Y67710D01*
G01X109147Y67716D01*
G01X109151Y67718D01*
G01X109167Y67725D01*
G01X109173Y67729D01*
G01X109176Y67731D01*
G01X109179Y67734D01*
G01X109186Y67739D01*
G01X109199Y67745D01*
G01X109224Y67761D01*
G01X109233Y67766D01*
G01X109246Y67777D01*
G01X109261Y67788D01*
G01X109268Y67793D01*
G01X109271Y67796D01*
G01X109274Y67801D01*
G01X109278Y67806D01*
G01X109294Y67832D01*
G01X109298Y67842D01*
G01X109301Y67850D01*
G01X109304Y67859D01*
G01X109305Y67864D01*
G01X109308Y67885D01*
G01X109309Y67893D01*
G01X109310Y67902D01*
G01Y67911D01*
G01Y67916D01*
G01X109308Y67922D01*
G01X109307Y67932D01*
G01Y67945D01*
G01X109305Y67951D01*
G01X109303Y67957D01*
G01X109296Y67970D01*
G01X109292Y67979D01*
G01X109290Y67984D01*
G01X109289Y67987D01*
G01X109287Y67990D01*
G01X109278Y67998D01*
G01X109258Y68015D01*
G01X109251Y68021D01*
G01X109244Y68026D01*
G01X109240Y68028D01*
G01X109222Y68037D01*
G01X109210Y68043D01*
G01X109202Y68046D01*
G01X109196Y68048D01*
G01X109190Y68050D01*
G01X109183Y68051D01*
G01X109165Y68055D01*
G01X109153Y68058D01*
G01X109142Y68060D01*
G01X109135Y68061D01*
G01X109127Y68062D01*
G01X109097Y68063D01*
G01X109058Y68064D01*
G01X109004Y68063D01*
G01X108992Y68062D01*
G01X108983Y68059D01*
G01X108973Y68057D01*
G01X108951Y68053D01*
G01X108942Y68051D01*
G01X108933Y68048D01*
G01X108907Y68038D01*
G01X108882Y68029D01*
G01X108871Y68025D01*
G01X108862Y68020D01*
G01X108854Y68015D01*
G01X108845Y68010D01*
G01X108837Y68006D01*
G01X108829Y68003D01*
G01X108828Y68004D01*
G01X108826Y68007D01*
G01X108825Y68013D01*
G01X108824Y68031D01*
G01X108823Y68077D01*
G01Y68153D01*
G01X108834Y68158D01*
G01X108865Y68169D01*
G01X108869Y68170D01*
G01X108879Y68173D01*
G01X108892Y68175D01*
G01X108898Y68177D01*
G01X108903Y68178D01*
G01X108913Y68182D01*
G01X108919Y68184D01*
G01X108925Y68185D01*
G01X108943D01*
G01X108951Y68186D01*
G01X108963Y68189D01*
G01X108973Y68191D01*
G01X108977Y68192D01*
G01X109002Y68193D01*
G01X109065Y68194D01*
G01X109128Y68193D01*
G01X109143Y68191D01*
G01X109151Y68190D01*
G01X109153D01*
G01X109157Y68188D01*
G01X109162Y68187D01*
G01X109168Y68185D01*
G01X109183D01*
G01X109194Y68184D01*
G01X109219Y68176D01*
G01X109702D01*
G01X109850D01*
G01X110137D01*
G01X110231D01*
G01X110285Y68175D01*
G01X110304Y68174D01*
G01X110313Y68173D01*
G01X110320Y68171D01*
G01X110324Y68170D01*
G01X110325Y68169D01*
G01X110326D01*
G01X110327Y68168D01*
G01Y68167D01*
G01X110328Y68162D01*
G01X110332Y68155D01*
G01X110338Y68144D01*
G01X110342Y68131D01*
G01X110345Y68123D01*
G01X110352Y68112D01*
G01X110356Y68102D01*
G01X110366Y68080D01*
G01X110372Y68064D01*
G01X110380Y68047D01*
G01X110383Y68039D01*
G01X110390Y68024D01*
G01X110398Y68007D01*
G01X110402Y67999D01*
G01X110408Y67983D01*
G01X110416Y67966D01*
G01X110419Y67958D01*
G01X110429Y67936D01*
G01X110432Y67928D01*
G01X110436Y67919D01*
G01X110443Y67908D01*
G01X110445Y67903D01*
G01X110447Y67898D01*
G01X110451Y67885D01*
G01X110457Y67874D01*
G01X110461Y67866D01*
G01X110465Y67854D01*
G01X110473Y67839D01*
G01X110478Y67826D01*
G01X110486Y67809D01*
G01X110492Y67794D01*
G01X110501Y67774D01*
G01X110505Y67766D01*
G01X110513Y67743D01*
G01X110521Y67726D01*
G01X110528Y67715D01*
G01X110530Y67710D01*
G01X110532Y67705D01*
G01X110537Y67692D01*
G01X110542Y67681D01*
G01X110546Y67673D01*
G01X110550Y67661D01*
G01X110556Y67650D01*
G01X110559Y67642D01*
G01X110563Y67629D01*
G01X110569Y67618D01*
G01X110573Y67611D01*
G01X110577Y67598D01*
G01X110583Y67587D01*
G01X110586Y67582D01*
G01X110593Y67561D01*
G01X110598Y67552D01*
G01X110601Y67546D01*
G01X110603Y67542D01*
G01X110611Y67521D01*
G01X110615Y67512D01*
G01X110619Y67506D01*
G01X110621Y67502D01*
G01X110629Y67481D01*
G01X110633Y67472D01*
G01X110637Y67466D01*
G01X110640Y67458D01*
G01X110644Y67446D01*
G01X110650Y67434D01*
G01X110654Y67427D01*
G01X110658Y67414D01*
G01X110664Y67403D01*
G01X110667Y67395D01*
G01X110671Y67382D01*
G01X110677Y67368D01*
G01X110681Y67360D01*
G01X110685Y67346D01*
G01X110692Y67330D01*
G01X110697Y67315D01*
G01X110706Y67288D01*
G01X110708Y67282D01*
G01X110710Y67280D01*
G01X110712Y67277D01*
G01X110713Y67276D01*
G01X110716D01*
G01X110718Y67279D01*
G01X110719Y67282D01*
G01X110721Y67286D01*
G01X110723Y67299D01*
G01X110726Y67306D01*
G01X110728Y67311D01*
G01X110731Y67316D01*
G01X110733Y67320D01*
G01X110734Y67325D01*
G01X110737Y67336D01*
G01X110739Y67343D01*
G01X110741Y67347D01*
G01X110745Y67352D01*
G01X110748Y67360D01*
G01X110752Y67373D01*
G01X110760Y67390D01*
G01X110765Y67405D01*
G01X110775Y67425D01*
G01X110778Y67433D01*
G01X110787Y67456D01*
G01X110794Y67472D01*
G01X110799Y67484D01*
G01X110805Y67498D01*
G01X110809Y67508D01*
G01X110813Y67517D01*
G01X110816Y67522D01*
G01X110820Y67530D01*
G01X110824Y67543D01*
G01X110829Y67554D01*
G01X110833Y67561D01*
G01X110837Y67574D01*
G01X110841Y67582D01*
G01X110845Y67588D01*
G01X110851Y67603D01*
G01X110858Y67620D01*
G01X110862Y67633D01*
G01X110866Y67641D01*
G01X110873Y67653D01*
G01X110880Y67674D01*
G01X110885Y67683D01*
G01X110888Y67688D01*
G01X110891Y67696D01*
G01X110895Y67709D01*
G01X110901Y67719D01*
G01X110905Y67728D01*
G01X110909Y67740D01*
G01X110915Y67751D01*
G01X110918Y67759D01*
G01X110922Y67772D01*
G01X110928Y67782D01*
G01X110931Y67790D01*
G01X110934Y67799D01*
G01X110936Y67804D01*
G01X110939Y67809D01*
G01X110945Y67821D01*
G01X110947Y67826D01*
G01X110949Y67832D01*
G01X110953Y67845D01*
G01X110954Y67848D01*
G01X110956Y67852D01*
G01X110959Y67856D01*
G01X110961Y67859D01*
G01X110963Y67862D01*
G01X110967Y67875D01*
G01X110973Y67886D01*
G01X110977Y67894D01*
G01X110981Y67906D01*
G01X110986Y67917D01*
G01X110990Y67925D01*
G01X110994Y67938D01*
G01X111004Y67959D01*
G01X111007Y67967D01*
G01X111014Y67983D01*
G01X111021Y67999D01*
G01X111025Y68007D01*
G01X111032Y68023D01*
G01X111038Y68036D01*
G01X111043Y68051D01*
G01X111053Y68071D01*
G01X111056Y68080D01*
G01X111074Y68124D01*
G01X111081Y68140D01*
G01X111089Y68156D01*
G01X111097Y68176D01*
G01X111294D01*
G01Y67617D01*
G01X111291Y67068D01*
G01X111290Y67065D01*
G01X111449D01*
G01Y67066D01*
G01X111452Y67073D01*
G01X111669Y67420D01*
G01X111677Y67433D01*
G01X111688Y67450D01*
G01X111701Y67469D01*
G01X111711Y67483D01*
G01X111722Y67497D01*
G01X111727Y67504D01*
G01X111733Y67510D01*
G01X111742Y67517D01*
G01X111749Y67526D01*
G01X111755Y67532D01*
G01X111774Y67546D01*
G01X111780Y67550D01*
G01X111787Y67554D01*
G01X111796Y67559D01*
G01X111804Y67565D01*
G01X111807Y67568D01*
G01X111810Y67571D01*
G01X111811Y67574D01*
G01X111810Y67576D01*
G01X111807Y67577D01*
G01X111787Y67584D01*
G01X111775Y67588D01*
G01X111753Y67599D01*
G01X111736Y67606D01*
G01X111728Y67610D01*
G01X111707Y67622D01*
G01X111698Y67627D01*
G01X111692Y67630D01*
G01X111682Y67638D01*
G01X111659Y67655D01*
G01X111654Y67660D01*
G01X111650Y67664D01*
G01X111645Y67670D01*
G01X111639Y67677D01*
G01X111632Y67685D01*
G01X111626Y67694D01*
G01X111617Y67707D01*
G01X111606Y67725D01*
G01X111603Y67731D01*
G01X111599Y67737D01*
G01X111597Y67743D01*
G01X111590Y67762D01*
G01X111584Y67775D01*
G01X111582Y67783D01*
G01X111580Y67791D01*
G01X111577Y67814D01*
G01X111574Y67824D01*
G01X111573Y67828D01*
G01Y67833D01*
G01X111572Y67860D01*
G01X111571Y67869D01*
G01X111570Y67873D01*
G01X111569Y67877D01*
G01X111568Y67882D01*
G01X111569Y67888D01*
G01X111572Y67910D01*
G01Y67931D01*
G01X111573Y67941D01*
G01X111577Y67953D01*
G01X111580Y67968D01*
G01X111583Y67979D01*
G01X111589Y67992D01*
G01X111593Y68005D01*
G01X111597Y68013D01*
G01X111604Y68025D01*
G01X111610Y68040D01*
G01X111613Y68044D01*
G01X111616Y68048D01*
G01X111619Y68050D01*
G01X111622Y68053D01*
G01X111625Y68055D01*
G01X111626Y68058D01*
G01X111629Y68065D01*
G01X111631Y68067D01*
G01X111634Y68070D01*
G01X111640Y68075D01*
G01X111646Y68081D01*
G01X111653Y68090D01*
G01X111659Y68095D01*
G01X111672Y68105D01*
G01X111685Y68115D01*
G01X111695Y68121D01*
G01X111706Y68126D01*
G01X111717Y68133D01*
G01X111721Y68136D01*
G01X111731Y68140D01*
G01X111753Y68149D01*
G01X111766Y68153D01*
G01X111780Y68158D01*
G01X111792Y68161D01*
G01X111804Y68163D01*
G01X111826Y68167D01*
G01X111838Y68170D01*
G01X111847Y68171D01*
G01X111862Y68172D01*
G01X111868Y68173D01*
G01X111870Y68174D01*
G01X111872D01*
G01X111885Y68175D01*
G01X112070Y68176D01*
G01X112262D01*
G01Y67059D01*
G01X112469D01*
G01Y67185D01*
G01X112926D01*
G01Y67561D01*
G01X112527D01*
G01Y67687D01*
G01X112926D01*
G01Y68050D01*
G01X112496D01*
G01Y68176D01*
G01X113074D01*
G01X113361D01*
G01X113510D01*
G01Y67692D01*
G01X114070D01*
G01Y68176D01*
G01X114218D01*
G01X114388D01*
G01X115182D01*
G01Y68050D01*
G01X114859D01*
G01Y67059D01*
G01X114711D01*
G01Y68050D01*
G01X114388D01*
G01Y68176D01*
G01X114218D01*
G01Y67059D01*
G01X114070D01*
G01Y67561D01*
G01X113510D01*
G01Y67059D01*
G01X113361D01*
G01Y68176D01*
G01X113074D01*
G01Y67059D01*
G01X112469D01*
G01X112262D01*
G01X112115D01*
G01Y67530D01*
G01X112054D01*
G01X111999Y67529D01*
G01X111989Y67528D01*
G01X111983Y67527D01*
G01X111972Y67524D01*
G01X111957Y67522D01*
G01X111951Y67520D01*
G01X111942Y67518D01*
G01X111922Y67508D01*
G01X111915Y67504D01*
G01X111908Y67499D01*
G01X111885Y67483D01*
G01X111879Y67477D01*
G01X111872Y67468D01*
G01X111866Y67460D01*
G01X111859Y67452D01*
G01X111852Y67443D01*
G01X111843Y67432D01*
G01X111830Y67414D01*
G01X111823Y67404D01*
G01X111794Y67357D01*
G01X111753Y67290D01*
G01X111745Y67274D01*
G01X111738Y67262D01*
G01X111722Y67236D01*
G01X111628Y67079D01*
G01X111623Y67072D01*
G01X111618Y67065D01*
G01X111617Y67064D01*
G01X111614Y67063D01*
G01X111610Y67062D01*
G01X111593Y67060D01*
G01X111529Y67059D01*
G01X111479Y67060D01*
G01X111464Y67061D01*
G01X111452Y67063D01*
G01X111450Y67064D01*
G01X111449Y67065D01*
G01X111290D01*
G01Y67059D01*
G01Y67057D01*
G01X111288D01*
G01X111283Y67056D01*
G01X111262Y67055D01*
G01X111225Y67054D01*
G01X111192Y67055D01*
G01X111178Y67057D01*
G01X111171Y67058D01*
G01X111164Y67059D01*
G01X111162Y67060D01*
G01X111161D01*
G01X111160Y67061D01*
G01Y67062D01*
G01X111159Y67064D01*
G01X111158Y67078D01*
G01X111155Y67492D01*
G01X111156Y67919D01*
G01X111157Y67922D01*
G01Y67923D01*
G01X111158Y67925D01*
G01X111159Y67935D01*
G01X111160Y67961D01*
G01X111159Y67974D01*
G01Y67982D01*
G01X111158Y67987D01*
G01X111157Y67988D01*
G01Y67989D01*
G01X111156Y67990D01*
G01X111155D01*
G01X111153Y67988D01*
G01X111151Y67986D01*
G01X111150Y67983D01*
G01Y67974D01*
G01X111149Y67966D01*
G01X111148Y67963D01*
G01X111141Y67942D01*
G01X111133Y67914D01*
G01X111129Y67903D01*
G01X111126Y67895D01*
G01X111121Y67887D01*
G01X111119Y67883D01*
G01X111111Y67862D01*
G01X111107Y67853D01*
G01X111103Y67847D01*
G01X111101Y67842D01*
G01X111094Y67824D01*
G01X111091Y67817D01*
G01X111088Y67811D01*
G01X111082Y67800D01*
G01X111080Y67795D01*
G01X111078Y67789D01*
G01X111074Y67776D01*
G01X111073Y67772D01*
G01X111071Y67769D01*
G01X111068Y67765D01*
G01X111066Y67762D01*
G01X111064Y67759D01*
G01X111060Y67746D01*
G01X111054Y67735D01*
G01X111051Y67727D01*
G01X111047Y67714D01*
G01X111043Y67707D01*
G01X111039Y67701D01*
G01X111033Y67686D01*
G01X111025Y67670D01*
G01X111020Y67655D01*
G01X111010Y67635D01*
G01X111007Y67626D01*
G01X110998Y67604D01*
G01X110991Y67588D01*
G01X110983Y67572D01*
G01X110980Y67563D01*
G01X110973Y67548D01*
G01X110965Y67531D01*
G01X110962Y67523D01*
G01X110955Y67508D01*
G01X110950Y67496D01*
G01X110944Y67481D01*
G01X110941Y67472D01*
G01X110936Y67462D01*
G01X110933Y67457D01*
G01X110930Y67452D01*
G01X110924Y67434D01*
G01X110921Y67427D01*
G01X110918Y67421D01*
G01X110912Y67410D01*
G01X110909Y67405D01*
G01X110908Y67400D01*
G01X110903Y67387D01*
G01X110897Y67377D01*
G01X110894Y67368D01*
G01X110890Y67356D01*
G01X110884Y67345D01*
G01X110880Y67337D01*
G01X110876Y67324D01*
G01X110873Y67317D01*
G01X110868Y67311D01*
G01X110863Y67296D01*
G01X110853Y67276D01*
G01X110850Y67268D01*
G01X110841Y67245D01*
G01X110834Y67230D01*
G01X110826Y67213D01*
G01X110823Y67205D01*
G01X110814Y67182D01*
G01X110811Y67175D01*
G01X110806Y67166D01*
G01X110803Y67161D01*
G01X110800Y67156D01*
G01X110796Y67144D01*
G01X110792Y67132D01*
G01X110782Y67110D01*
G01X110778Y67102D01*
G01X110769Y67079D01*
G01X110767Y67074D01*
G01X110763Y67069D01*
G01X110760Y67065D01*
G01X110756Y67062D01*
G01X110753Y67060D01*
G01X110750Y67059D01*
G01X110741Y67057D01*
G01X110730Y67055D01*
G01X110716Y67054D01*
G01X110704Y67055D01*
G01X110698D01*
G01X110693Y67057D01*
G01X110686Y67058D01*
G01X110682Y67060D01*
G01X110679Y67062D01*
G01X110678Y67063D01*
G01X110677Y67064D01*
G01X110674Y67068D01*
G01X110671Y67073D01*
G01X110668Y67078D01*
G01X110659Y67099D01*
G01X110652Y67116D01*
G01X110648Y67124D01*
G01X110641Y67140D01*
G01X110633Y67157D01*
G01X110630Y67165D01*
G01X110621Y67187D01*
G01X110614Y67202D01*
G01X110606Y67219D01*
G01X110603Y67227D01*
G01X110597Y67243D01*
G01X110589Y67260D01*
G01X110586Y67268D01*
G01X110576Y67290D01*
G01X110570Y67305D01*
G01X110562Y67322D01*
G01X110559Y67330D01*
G01X110549Y67353D01*
G01X110546Y67361D01*
G01X110541Y67370D01*
G01X110535Y67381D01*
G01X110533Y67387D01*
G01X110531Y67392D01*
G01X110527Y67405D01*
G01X110526Y67409D01*
G01X110524Y67412D01*
G01X110520Y67416D01*
G01X110518Y67419D01*
G01X110517Y67423D01*
G01X110513Y67435D01*
G01X110507Y67446D01*
G01X110504Y67454D01*
G01X110500Y67466D01*
G01X110494Y67478D01*
G01X110490Y67485D01*
G01X110486Y67498D01*
G01X110476Y67520D01*
G01X110473Y67528D01*
G01X110467Y67543D01*
G01X110459Y67560D01*
G01X110455Y67568D01*
G01X110448Y67584D01*
G01X110441Y67601D01*
G01X110437Y67609D01*
G01X110429Y67631D01*
G01X110424Y67639D01*
G01X110420Y67648D01*
G01X110414Y67659D01*
G01X110411Y67665D01*
G01X110410Y67670D01*
G01X110406Y67683D01*
G01X110405Y67687D01*
G01X110403Y67690D01*
G01X110399Y67694D01*
G01X110398Y67697D01*
G01X110396Y67701D01*
G01X110392Y67714D01*
G01X110382Y67735D01*
G01X110379Y67743D01*
G01X110372Y67759D01*
G01X110367Y67771D01*
G01X110361Y67785D01*
G01X110357Y67795D01*
G01X110353Y67804D01*
G01X110348Y67812D01*
G01X110343Y67827D01*
G01X110333Y67847D01*
G01X110329Y67855D01*
G01X110321Y67877D01*
G01X110314Y67893D01*
G01X110308Y67905D01*
G01X110303Y67920D01*
G01X110295Y67942D01*
G01X110291Y67953D01*
G01X110288Y67962D01*
G01X110286Y67972D01*
G01X110284Y67975D01*
G01X110283Y67976D01*
G01X110282D01*
G01X110280D01*
G01X110278Y67973D01*
G01X110277Y67967D01*
G01X110276Y67958D01*
G01Y67945D01*
G01Y67924D01*
G01X110277Y67912D01*
G01X110278Y67909D01*
G01X110279Y67907D01*
G01Y67899D01*
G01X110280Y67871D01*
G01Y67862D01*
G01X110281Y67829D01*
G01X110282Y67817D01*
G01X110283Y67815D01*
G01Y67812D01*
G01X110285Y67438D01*
G01X110281Y67102D01*
G01X110279Y67075D01*
G01X110277Y67066D01*
G01Y67063D01*
G01Y67062D01*
G01X110276D01*
G01X110273Y67060D01*
G01X110268Y67059D01*
G01X110262Y67058D01*
G01X110245Y67055D01*
G01X110207Y67054D01*
G01X110174Y67055D01*
G01X110160Y67057D01*
G01X110153Y67058D01*
G01X110146Y67059D01*
G01X110144Y67060D01*
G01X110143D01*
G01X110142Y67061D01*
G01Y67062D01*
G01X110140Y67064D01*
G01X110139Y67119D01*
G01X110137Y67622D01*
G01Y68176D01*
G01X109850D01*
G01Y67059D01*
G01X109702D01*
G01Y68176D01*
G01X109219D01*
G01X109249Y68168D01*
G01X109258Y68164D01*
G01X109274Y68157D01*
G01X109290Y68150D01*
G01X109299Y68146D01*
G01X109308Y68140D01*
G01X109325Y68131D01*
G01X109350Y68115D01*
G01X109357Y68111D01*
G01X109364Y68105D01*
G01X109373Y68097D01*
G01X109380Y68093D01*
G01X109386Y68087D01*
G01X109393Y68078D01*
G01X109399Y68073D01*
G01X109402Y68070D01*
G01X109404Y68067D01*
G01X109406Y68065D01*
G01X109409Y68058D01*
G01X109411Y68055D01*
G01X109413Y68053D01*
G01X109420Y68044D01*
G01X109426Y68034D01*
G01X109431Y68026D01*
G01X109435Y68018D01*
G01X109440Y68004D01*
G01X109445Y67996D01*
G01X109448Y67990D01*
G01X109450Y67985D01*
G01X109452Y67979D01*
G01X109455Y67958D01*
G01X109460Y67941D01*
G01X109462Y67931D01*
G01X109463Y67924D01*
G01X109464Y67908D01*
G01Y67865D01*
G01X109463Y67855D01*
G01X109461Y67845D01*
G01X109460Y67841D01*
G01X109458Y67835D01*
G01X109456Y67831D01*
G01X109455Y67826D01*
G01Y67820D01*
G01Y67815D01*
G01X109452Y67806D01*
G01X109447Y67796D01*
G01X109441Y67781D01*
G01X109438Y67772D01*
G01X109434Y67763D01*
G01X109417Y67736D01*
G01X109412Y67729D01*
G01X109403Y67719D01*
G01X109399Y67713D01*
G01X109393Y67707D01*
G01X109384Y67700D01*
G01X109379Y67694D01*
G01X109376Y67690D01*
G01X109373Y67687D01*
G01X109368Y67684D01*
G01X109356Y67676D01*
G01X109349Y67670D01*
G01X109339Y67663D01*
G01X109321Y67649D01*
G01X109311Y67642D01*
G01X109300Y67636D01*
G01X109256Y67609D01*
G01X109240Y67600D01*
G01X109217Y67588D01*
G01X109205Y67582D01*
G01X109189Y67573D01*
G01X109180Y67568D01*
G01X109167Y67562D01*
G01X109159Y67558D01*
G01X109149Y67552D01*
G01X109131Y67544D01*
G01X109122Y67540D01*
G01X109108Y67532D01*
G01X109100Y67528D01*
G01X109088Y67523D01*
G01X109083Y67520D01*
G01X109078Y67518D01*
G01X109069Y67511D01*
G01X109065Y67508D01*
G01X109059Y67506D01*
G01X109048Y67501D01*
G01X109043Y67497D01*
G01X109037Y67494D01*
G01X109017Y67479D01*
G01X109007Y67472D01*
G01X109000Y67465D01*
G01X108991Y67458D01*
G01X108985Y67453D01*
G01X108977Y67444D01*
G01X108972Y67438D01*
G01X108965Y67433D01*
G01X108962Y67430D01*
G01X108959Y67427D01*
G01X108953Y67414D01*
G01X108946Y67403D01*
G01X108943Y67395D01*
G01X108938Y67379D01*
G01X108936Y67371D01*
G01X108933Y67360D01*
G01X108932Y67353D01*
G01X108931Y67340D01*
G01X108930Y67322D01*
G01Y67304D01*
G01X108931Y67294D01*
G01X108932Y67290D01*
G01X108946Y67256D01*
G01X108947Y67251D01*
G01X108949Y67248D01*
G01X108955Y67240D01*
G01X108962Y67232D01*
G01X108967Y67226D01*
G01X108973Y67221D01*
G01X108982Y67214D01*
G01X108987Y67209D01*
G01X108990Y67206D01*
G01X109000Y67200D01*
G01X109015Y67192D01*
G01X109025Y67187D01*
G01X109035Y67184D01*
G01X109050Y67180D01*
G01X109062Y67177D01*
G01X109073Y67175D01*
G01X109081Y67173D01*
G01X109116Y67169D01*
G01X109138Y67167D01*
G01X109158Y67166D01*
G01X109161D01*
G01X109166Y67164D01*
G01X109169Y67163D01*
G01X109172Y67164D01*
G01X109179Y67166D01*
G01X109184D01*
G01X109208Y67167D01*
G01X109216Y67168D01*
G01X109224Y67170D01*
G01X109234Y67171D01*
G01X109251Y67172D01*
G01X109258Y67173D01*
G01X109282Y67180D01*
G01X109303Y67186D01*
G01X109315Y67188D01*
G01X109325Y67192D01*
G01X109338Y67198D01*
G01X109352Y67202D01*
G01X109361Y67205D01*
G01X109365Y67207D01*
G01X109383Y67216D01*
G01X109395Y67222D01*
G01X109408Y67227D01*
G01X109415Y67231D01*
G01X109418Y67233D01*
G01X109425Y67239D01*
G01X109448Y67254D01*
G01X109455Y67259D01*
G01X109464Y67265D01*
G01Y67100D01*
G01X109453Y67095D01*
G01X109437Y67089D01*
G01X109421Y67080D01*
G01X109413Y67077D01*
G01X109402Y67073D01*
G01X109380Y67067D01*
G01X109373Y67065D01*
G01X109361Y67063D01*
G01X109341Y67059D01*
G01X109324Y67054D01*
G01X109314Y67052D01*
G01X109289Y67048D01*
G01X109277Y67046D01*
G01X109269Y67043D01*
G01X109265Y67042D01*
G01X109260D01*
G01X109233Y67041D01*
G01X109228Y67040D01*
G01X109226D01*
G01X109224Y67039D01*
G01X109221Y67038D01*
G01X109213Y67037D01*
G01X109186D01*
G01X109158D01*
G01X109145Y67038D01*
G01X109141Y67039D01*
G01X109131Y67041D01*
G01X109086Y67042D01*
G01X109075Y67043D01*
G01X109064Y67046D01*
G01X109054Y67048D01*
G01X109029Y67052D01*
G01X109022Y67053D01*
G01X109017Y67055D01*
G01X109011Y67057D01*
G01X109002Y67061D01*
G01X108992Y67065D01*
G01X108976Y67069D01*
G01X108966Y67073D01*
G01X108954Y67078D01*
G01X108938Y67085D01*
G01X108929Y67090D01*
G01X108924Y67093D01*
G01X108901Y67106D01*
G01X108883Y67117D01*
G01X108875Y67124D01*
G01X108864Y67133D01*
G01X108858Y67138D01*
G01X108852Y67143D01*
G01X108845Y67153D01*
G01X108835Y67160D01*
G01X108833Y67163D01*
G01X108831Y67166D01*
G01X108828Y67172D01*
G01X108824Y67180D01*
G01X108816Y67192D01*
G01X108812Y67198D01*
G01X108809Y67203D01*
G01X108800Y67221D01*
G01X108796Y67230D01*
G01X108790Y67251D01*
G01X108787Y67262D01*
G01X108782Y67282D01*
G01X108780Y67292D01*
G01X108779Y67301D01*
G01X108778Y67344D01*
G01X108352D01*
G01Y67059D01*
G01X108204D01*
G01Y68050D01*
G01X107881D01*
G01Y68176D01*
G01X107469D01*
G01X107488Y68172D01*
G01X107496Y68169D01*
G01X107523Y68159D01*
G01X107536Y68155D01*
G01X107545Y68150D01*
G01X107551Y68147D01*
G01X107555Y68145D01*
G01X107576Y68137D01*
G01X107585Y68132D01*
G01X107627Y68104D01*
G01X107637Y68097D01*
G01X107647Y68088D01*
G01X107662Y68077D01*
G01X107673Y68068D01*
G01X107677Y68064D01*
G01X107682Y68059D01*
G01X107686Y68054D01*
G01X107690Y68050D01*
G01X107694Y68047D01*
G01X107704Y68040D01*
G01X107708Y68037D01*
G01X107711Y68033D01*
G01X107712Y68032D01*
G01X107714Y68027D01*
G01X107716Y68024D01*
G01X107718Y68021D01*
G01X107725Y68017D01*
G01X107727Y68014D01*
G01X107729Y68011D01*
G01X107732Y68004D01*
G01X107734Y68001D01*
G01X107737Y67999D01*
G01X107743Y67994D01*
G01X107745Y67991D01*
G01X107747Y67989D01*
G01X107750Y67982D01*
G01X107753Y67975D01*
G01X107783Y67926D01*
G01X107787Y67916D01*
G01X107794Y67905D01*
G01X107796Y67901D01*
G01X107800Y67891D01*
G01X107808Y67870D01*
G01X107816Y67846D01*
G01X107825Y67823D01*
G01X107827Y67816D01*
G01X107828Y67810D01*
G01X107832Y67792D01*
G01X107836Y67776D01*
G01X107838Y67766D01*
G01X107843Y67741D01*
G01X107845Y67729D01*
G01X107847Y67720D01*
G01X107848Y67716D01*
G01X107849Y67711D01*
G01X107850Y67684D01*
G01X107851Y67675D01*
G01X107852Y67671D01*
G01Y67669D01*
G01X107853Y67658D01*
G01X107854Y67598D01*
G01X107853Y67535D01*
G01X107852Y67525D01*
G01Y67523D01*
G01X107851Y67519D01*
G01X107849Y67510D01*
G01Y67491D01*
G01X107848Y67485D01*
G01X107845Y67475D01*
G01X107843Y67465D01*
G01X107838Y67441D01*
G01X107836Y67428D01*
G01X107827Y67398D01*
G01X107824Y67387D01*
G01X107820Y67378D01*
G01X107815Y67366D01*
G01X107809Y67351D01*
G01X107807Y67344D01*
G01X107804Y67338D01*
G01X107801Y67332D01*
G01X107794Y67318D01*
G01X107789Y67310D01*
G01X107786Y67301D01*
G01X107778Y67287D01*
G01X107769Y67271D01*
G01X107766Y67267D01*
G01X107762Y67263D01*
G01X107757Y67256D01*
G01X107753Y67248D01*
G01X107750Y67242D01*
G01X107742Y67232D01*
G01X107733Y67221D01*
G01X107726Y67213D01*
G01X107719Y67205D01*
G01X107714Y67199D01*
G01X107705Y67191D01*
G01X107700Y67186D01*
G01X107692Y67176D01*
G01X107683Y67169D01*
G01X107677Y67163D01*
G01X107672Y67157D01*
G01X107669Y67154D01*
G01X107666Y67151D01*
G01X107657Y67146D01*
G01X107653Y67144D01*
G01X107650Y67141D01*
G01X107645Y67135D01*
G01X107643Y67132D01*
G01X107640Y67130D01*
G01X107633Y67127D01*
G01X107625Y67123D01*
G01X107614Y67115D01*
G01X107607Y67111D01*
G01X107594Y67104D01*
G01X107584Y67097D01*
G01X107579Y67095D01*
G01X107561Y67087D01*
G01X107553Y67083D01*
G01X107548Y67079D01*
G01X107544Y67078D01*
G01X107539Y67076D01*
G01X107528Y67074D01*
G01X107521Y67071D01*
G01X107517Y67069D01*
G01X107512Y67066D01*
G01X107508Y67064D01*
G01X107503Y67063D01*
G01X107492Y67060D01*
G01X107482Y67057D01*
G01X107472Y67052D01*
G01X107467Y67051D01*
G01X107458Y67050D01*
G01X107443Y67049D01*
G01X107436Y67048D01*
G01X107427Y67046D01*
G01X107417Y67043D01*
G01X107411Y67042D01*
G01X107400Y67041D01*
G01X107376D01*
G01X107371Y67040D01*
G01X107369D01*
G01X107367Y67039D01*
G01X107364Y67038D01*
G01X107356Y67037D01*
G01X107327D01*
G01X107297D01*
G01X107285Y67038D01*
G01X107282Y67039D01*
G01X107278Y67040D01*
G01X107271Y67041D01*
G01X107253D01*
G01X107238D01*
G01X107231Y67042D01*
G01X107225Y67043D01*
G01X107216Y67046D01*
G01X107197Y67050D01*
G01X107181Y67054D01*
G01X107171Y67058D01*
G01X107161Y67060D01*
G01X107148Y67063D01*
G01X107140Y67065D01*
G01X107136Y67067D01*
G01X107131Y67070D01*
G01X107127Y67072D01*
G01X107121Y67074D01*
G01X107111Y67076D01*
G01X107104Y67078D01*
G01X107100Y67080D01*
G01X107091Y67085D01*
G01X107081Y67090D01*
G01X107075Y67093D01*
G01X107064Y67100D01*
G01X107049Y67108D01*
G01X107042Y67112D01*
G01X107031Y67120D01*
G01X107024Y67124D01*
G01X107016Y67129D01*
G01X107012Y67132D01*
G01X107009Y67134D01*
G01X107006Y67138D01*
G01X107004Y67141D01*
G01X107001Y67143D01*
G01X106999Y67145D01*
G01X106992Y67148D01*
G01X106989Y67149D01*
G01X106986Y67151D01*
G01X106982Y67156D01*
G01X106973Y67162D01*
G01X106967Y67167D01*
G01X106959Y67177D01*
G01X106953Y67182D01*
G01X106947Y67188D01*
G01X106944Y67191D01*
G01X106940Y67195D01*
G01X106933Y67205D01*
G01X106928Y67212D01*
G01X106925Y67215D01*
G01X106920Y67219D01*
G01X106917Y67222D01*
G01X106915Y67225D01*
G01X106908Y67237D01*
G01X106905Y67242D01*
G01X106901Y67245D01*
G01X106898Y67249D01*
G01X106892Y67259D01*
G01X106881Y67276D01*
G01X106872Y67290D01*
G01X106867Y67298D01*
G01X106859Y67316D01*
G01X106855Y67324D01*
G01X106849Y67334D01*
G01X106845Y67344D01*
G01X106837Y67365D01*
G01X106829Y67389D01*
G01X106820Y67413D01*
G01X106817Y67425D01*
G01X106814Y67443D01*
G01X106809Y67459D01*
G01X106807Y67470D01*
G01X106803Y67490D01*
G01X106802Y67498D01*
G01X106800Y67514D01*
G01X106797Y67527D01*
G01X106796Y67533D01*
G01X106795Y67556D01*
G01X106794Y67564D01*
G01X106793Y67568D01*
G01Y67571D01*
G01X106792Y67581D01*
G01X106791Y67636D01*
G01X106576D01*
G01Y67059D01*
G01X106428D01*
G01Y67530D01*
G01X106370D01*
G01X106318Y67529D01*
G01X106307Y67528D01*
G01X106301Y67527D01*
G01X106293Y67526D01*
G01X106284Y67525D01*
G01X106280Y67524D01*
G01X106275Y67523D01*
G01X106266Y67519D01*
G01X106257Y67516D01*
G01X106245Y67512D01*
G01X106237Y67508D01*
G01X106219Y67496D01*
G01X106214Y67493D01*
G01X106208Y67488D01*
G01X106205Y67485D01*
G01X106201Y67480D01*
G01X106195Y67474D01*
G01X106186Y67466D01*
G01X106181Y67460D01*
G01X106175Y67452D01*
G01X106165Y67442D01*
G01X106154Y67425D01*
G01X106144Y67412D01*
G01X106137Y67402D01*
G01X106132Y67393D01*
G01X106128Y67387D01*
G01X106120Y67376D01*
G01X106116Y67368D01*
G01X106110Y67356D01*
G01X106094Y67330D01*
G01X105959Y67106D01*
G01X105951Y67091D01*
G01X105943Y67078D01*
G01X105939Y67070D01*
G01X105937Y67067D01*
G01X105934Y67065D01*
G01X105931Y67063D01*
G01X105928Y67062D01*
G01X105925Y67061D01*
G01X105912Y67060D01*
G01X105840Y67059D01*
G01X105760D01*
G01X105746D01*
G01Y66669D01*
G01X115209D01*
G01Y68620D01*
G37*
G36*
G01X107305Y68064D02*
G01X107269Y68063D01*
G01X107258Y68062D01*
G01X107252Y68060D01*
G01X107240Y68058D01*
G01X107219Y68055D01*
G01X107199Y68049D01*
G01X107186Y68045D01*
G01X107172Y68039D01*
G01X107163Y68036D01*
G01X107150Y68032D01*
G01X107143Y68028D01*
G01X107107Y68005D01*
G01X107094Y67996D01*
G01X107087Y67991D01*
G01X107080Y67982D01*
G01X107075Y67976D01*
G01X107065Y67969D01*
G01X107058Y67960D01*
G01X107052Y67954D01*
G01X107046Y67949D01*
G01X107042Y67946D01*
G01X107039Y67941D01*
G01X107031Y67928D01*
G01X107025Y67922D01*
G01X107022Y67918D01*
G01X107019Y67914D01*
G01X107013Y67904D01*
G01X107008Y67896D01*
G01X107004Y67888D01*
G01X106999Y67874D01*
G01X106994Y67866D01*
G01X106991Y67860D01*
G01X106988Y67856D01*
G01X106984Y67844D01*
G01X106977Y67824D01*
G01X106971Y67801D01*
G01X106965Y67780D01*
G01X106959Y67752D01*
G01X106952Y67712D01*
G01X106950Y67703D01*
G01Y67700D01*
G01X106949Y67686D01*
G01X106948Y67609D01*
G01X106949Y67525D01*
G01X106950Y67516D01*
G01X106951Y67511D01*
G01X106954Y67499D01*
G01X106955Y67492D01*
G01X106959Y67465D01*
G01X106961Y67456D01*
G01X106966Y67441D01*
G01X106970Y67427D01*
G01X106974Y67411D01*
G01X106976Y67403D01*
G01X106978Y67399D01*
G01X106982Y67394D01*
G01X106985Y67386D01*
G01X106989Y67374D01*
G01X106995Y67363D01*
G01X106999Y67355D01*
G01X107001Y67347D01*
G01X107003Y67343D01*
G01X107004Y67340D01*
G01X107009Y67334D01*
G01X107011Y67331D01*
G01X107022Y67314D01*
G01X107027Y67307D01*
G01X107036Y67298D01*
G01X107040Y67291D01*
G01X107046Y67286D01*
G01X107052Y67281D01*
G01X107054Y67279D01*
G01X107056Y67275D01*
G01X107059Y67269D01*
G01X107060Y67266D01*
G01X107063Y67265D01*
G01X107067Y67262D01*
G01X107075Y67256D01*
G01X107080Y67252D01*
G01X107092Y67242D01*
G01X107099Y67236D01*
G01X107105Y67232D01*
G01X107116Y67226D01*
G01X107123Y67222D01*
G01X107132Y67215D01*
G01X107137Y67212D01*
G01X107142Y67209D01*
G01X107155Y67204D01*
G01X107164Y67199D01*
G01X107169Y67196D01*
G01X107177Y67193D01*
G01X107194Y67188D01*
G01X107219Y67180D01*
G01X107231Y67177D01*
G01X107243Y67175D01*
G01X107251Y67173D01*
G01X107259D01*
G01X107290Y67172D01*
G01X107331Y67171D01*
G01X107387Y67172D01*
G01X107397Y67173D01*
G01X107398D01*
G01X107399D01*
G01X107403Y67175D01*
G01X107412Y67176D01*
G01X107417D01*
G01X107421Y67177D01*
G01X107426Y67179D01*
G01X107432Y67182D01*
G01X107437Y67184D01*
G01X107441Y67185D01*
G01X107450D01*
G01X107458Y67187D01*
G01X107465Y67192D01*
G01X107469Y67194D01*
G01X107495Y67205D01*
G01X107500Y67207D01*
G01X107512Y67213D01*
G01X107520Y67219D01*
G01X107527Y67223D01*
G01X107534Y67228D01*
G01X107544Y67236D01*
G01X107550Y67241D01*
G01X107557Y67247D01*
G01X107565Y67255D01*
G01X107574Y67261D01*
G01X107577Y67263D01*
G01X107580Y67266D01*
G01X107583Y67270D01*
G01X107587Y67279D01*
G01X107590Y67282D01*
G01X107593Y67285D01*
G01X107596Y67288D01*
G01X107599Y67291D01*
G01X107603Y67294D01*
G01X107606Y67298D01*
G01X107615Y67312D01*
G01X107625Y67326D01*
G01X107629Y67332D01*
G01X107633Y67337D01*
G01X107636Y67343D01*
G01X107642Y67356D01*
G01X107647Y67364D01*
G01X107652Y67374D01*
G01X107657Y67384D01*
G01X107666Y67407D01*
G01X107674Y67428D01*
G01X107679Y67444D01*
G01X107683Y67465D01*
G01X107688Y67481D01*
G01X107690Y67487D01*
G01X107691Y67493D01*
G01X107692Y67501D01*
G01X107693Y67512D01*
G01X107695Y67519D01*
G01X107696Y67524D01*
G01X107697Y67531D01*
G01X107698Y67580D01*
G01X107699Y67592D01*
G01Y67595D01*
G01X107700Y67599D01*
G01X107701Y67605D01*
G01X107702Y67622D01*
G01X107701Y67635D01*
G01X107700Y67645D01*
G01X107699Y67651D01*
G01X107698Y67661D01*
G01X107697Y67706D01*
G01X107695Y67717D01*
G01X107693Y67725D01*
G01X107688Y67752D01*
G01X107684Y67769D01*
G01X107680Y67784D01*
G01X107677Y67795D01*
G01X107671Y67808D01*
G01X107667Y67822D01*
G01X107663Y67831D01*
G01X107657Y67843D01*
G01X107653Y67854D01*
G01X107650Y67861D01*
G01X107643Y67872D01*
G01X107637Y67887D01*
G01X107633Y67894D01*
G01X107631Y67897D01*
G01X107623Y67906D01*
G01X107612Y67922D01*
G01X107585Y67955D01*
G01X107581Y67959D01*
G01X107576Y67964D01*
G01X107571Y67967D01*
G01X107565Y67973D01*
G01X107560Y67980D01*
G01X107556Y67983D01*
G01X107552Y67986D01*
G01X107539Y67995D01*
G01X107524Y68005D01*
G01X107519Y68010D01*
G01X107508Y68017D01*
G01X107496Y68021D01*
G01X107491Y68024D01*
G01X107486Y68027D01*
G01X107471Y68036D01*
G01X107466Y68037D01*
G01X107453Y68041D01*
G01X107445Y68043D01*
G01X107441Y68045D01*
G01X107435Y68048D01*
G01X107430Y68050D01*
G01X107424Y68051D01*
G01X107403Y68055D01*
G01X107390Y68058D01*
G01X107376Y68060D01*
G01X107367Y68061D01*
G01X107353Y68063D01*
G01X107310Y68064D01*
G37*
G36*
G01X106322Y68050D02*
G01X106221Y68049D01*
G01X106212Y68048D01*
G01X106211D01*
G01X106207Y68047D01*
G01X106199Y68046D01*
G01X106186Y68045D01*
G01X106179Y68044D01*
G01X106159Y68037D01*
G01X106137Y68029D01*
G01X106129Y68026D01*
G01X106123Y68022D01*
G01X106120Y68020D01*
G01X106112Y68014D01*
G01X106097Y68004D01*
G01X106091Y67999D01*
G01X106088Y67996D01*
G01X106078Y67982D01*
G01X106069Y67971D01*
G01X106066Y67965D01*
G01X106063Y67959D01*
G01X106053Y67938D01*
G01X106048Y67926D01*
G01X106047Y67920D01*
G01X106044Y67909D01*
G01X106040Y67877D01*
G01X106038Y67863D01*
G01Y67845D01*
G01X106039Y67836D01*
G01X106041Y67829D01*
G01X106043Y67817D01*
G01X106046Y67803D01*
G01X106047Y67796D01*
G01X106050Y67788D01*
G01X106057Y67774D01*
G01X106063Y67760D01*
G01X106066Y67755D01*
G01X106069Y67749D01*
G01X106085Y67729D01*
G01X106089Y67722D01*
G01X106095Y67716D01*
G01X106104Y67709D01*
G01X106112Y67703D01*
G01X106116Y67700D01*
G01X106125Y67694D01*
G01X106151Y67678D01*
G01X106161Y67674D01*
G01X106182Y67666D01*
G01X106193Y67663D01*
G01X106201Y67661D01*
G01X106214Y67658D01*
G01X106219D01*
G01X106234Y67657D01*
G01X106332Y67655D01*
G01X106415Y67656D01*
G01X106424Y67657D01*
G01X106425D01*
G01Y67658D01*
G01X106426Y67662D01*
G01X106428Y67855D01*
G01Y68050D01*
G37*
G36*
G01X112007Y68050D02*
G01X111903Y68049D01*
G01X111894Y68048D01*
G01X111893D01*
G01X111889Y68047D01*
G01X111877Y68045D01*
G01X111863Y68043D01*
G01X111856Y68041D01*
G01X111848Y68038D01*
G01X111837Y68033D01*
G01X111823Y68029D01*
G01X111815Y68025D01*
G01X111794Y68012D01*
G01X111789Y68009D01*
G01X111782Y68004D01*
G01X111779Y68000D01*
G01X111776Y67995D01*
G01X111770Y67990D01*
G01X111764Y67985D01*
G01X111761Y67982D01*
G01X111758Y67978D01*
G01X111751Y67966D01*
G01X111745Y67955D01*
G01X111742Y67951D01*
G01X111738Y67940D01*
G01X111735Y67932D01*
G01X111733Y67924D01*
G01X111731Y67918D01*
G01X111726Y67896D01*
G01X111725Y67889D01*
G01Y67874D01*
G01X111724Y67853D01*
G01X111725Y67830D01*
G01X111726Y67818D01*
G01X111734Y67793D01*
G01X111737Y67782D01*
G01X111740Y67774D01*
G01X111747Y67763D01*
G01X111754Y67749D01*
G01X111757Y67745D01*
G01X111765Y67734D01*
G01X111769Y67729D01*
G01X111773Y67725D01*
G01X111779Y67719D01*
G01X111784Y67716D01*
G01X111789Y67710D01*
G01X111794Y67704D01*
G01X111797Y67701D01*
G01X111801Y67699D01*
G01X111812Y67693D01*
G01X111818Y67688D01*
G01X111828Y67681D01*
G01X111839Y67676D01*
G01X111845Y67674D01*
G01X111872Y67665D01*
G01X111879Y67663D01*
G01X111888Y67661D01*
G01X111901Y67658D01*
G01X111906D01*
G01X111921Y67657D01*
G01X112018Y67655D01*
G01X112102Y67656D01*
G01X112111Y67657D01*
G01X112112D01*
G01Y67658D01*
G01X112113D01*
G01Y67662D01*
G01X112115Y67855D01*
G01Y68050D01*
G37*
G04 //text: BLTOUCH*
G36*
G01X118322Y71042D02*
G01X118322Y70622D01*
G01X118463D01*
G01X118602D01*
G01Y70163D01*
G01X119137D01*
G01Y70622D01*
G01X119277D01*
G01Y69680D01*
G01X119485D01*
G01Y69735D01*
G01X119495Y69733D01*
G01X119500Y69732D01*
G01X119507Y69729D01*
G01X119511Y69728D01*
G01X119520Y69722D01*
G01X119536Y69715D01*
G01X119545Y69710D01*
G01X119550Y69707D01*
G01X119557Y69704D01*
G01X119573Y69700D01*
G01X119614Y69686D01*
G01X119618Y69685D01*
G01X119631Y69683D01*
G01X119640Y69682D01*
G01X119653Y69680D01*
G01X119664Y69678D01*
G01X119681Y69674D01*
G01X119692Y69673D01*
G01X119727Y69672D01*
G01X119758Y69671D01*
G01X119823Y69672D01*
G01X119833Y69673D01*
G01X119835D01*
G01X119838Y69674D01*
G01X119848Y69677D01*
G01X119865Y69680D01*
G01X119873Y69682D01*
G01X119890Y69688D01*
G01X119910Y69696D01*
G01X119922Y69700D01*
G01X119931Y69704D01*
G01X119940Y69709D01*
G01X119954Y69716D01*
G01X119960Y69719D01*
G01X119963Y69721D01*
G01X119972Y69729D01*
G01X120004Y69752D01*
G01X120010Y69757D01*
G01X120017Y69766D01*
G01X120023Y69771D01*
G01X120031Y69778D01*
G01X120036Y69783D01*
G01X120045Y69796D01*
G01X120059Y69814D01*
G01X120070Y69830D01*
G01X120074Y69838D01*
G01X120081Y69852D01*
G01X120084Y69858D01*
G01X120086Y69861D01*
G01X120089Y69865D01*
G01X120091Y69867D01*
G01X120092Y69871D01*
G01X120096Y69883D01*
G01X120102Y69893D01*
G01X120105Y69900D01*
G01X120109Y69916D01*
G01X120113Y69927D01*
G01X120117Y69944D01*
G01X120121Y69960D01*
G01X120123Y69966D01*
G01X120125Y69974D01*
G01X120127Y69987D01*
G01Y69992D01*
G01X120129Y70009D01*
G01X120130Y70034D01*
G01Y70051D01*
G01X120131Y70061D01*
G01X120132Y70064D01*
G01X120133Y70067D01*
G01Y70073D01*
G01X120134Y70087D01*
G01X120133Y70098D01*
G01Y70107D01*
G01X120131Y70112D01*
G01X120130Y70122D01*
G01X120129Y70164D01*
G01X120128Y70175D01*
G01X120127Y70182D01*
G01X120125Y70189D01*
G01Y70197D01*
G01X120124Y70202D01*
G01X120123Y70206D01*
G01X120120Y70212D01*
G01X120119Y70216D01*
G01X120118Y70221D01*
G01X120117Y70225D01*
G01Y70232D01*
G01X120115Y70240D01*
G01X120111Y70248D01*
G01X120107Y70258D01*
G01X120105Y70268D01*
G01X120103Y70275D01*
G01X120101Y70278D01*
G01X120098Y70284D01*
G01X120096Y70288D01*
G01X120088Y70308D01*
G01X120084Y70316D01*
G01X120062Y70352D01*
G01X120053Y70365D01*
G01X120049Y70371D01*
G01X120042Y70375D01*
G01X120037Y70380D01*
G01X120035Y70383D01*
G01X120033Y70389D01*
G01X120031Y70392D01*
G01X120029Y70395D01*
G01X120023Y70399D01*
G01X120017Y70404D01*
G01X120010Y70413D01*
G01X120001Y70420D01*
G01X119996Y70426D01*
G01X119992Y70432D01*
G01X119989Y70434D01*
G01X119986Y70436D01*
G01X119980Y70438D01*
G01X119975Y70441D01*
G01X119967Y70448D01*
G01X119958Y70454D01*
G01X119933Y70469D01*
G01X119916Y70476D01*
G01X119908Y70480D01*
G01X119903Y70483D01*
G01X119899Y70486D01*
G01X119888Y70490D01*
G01X119871Y70495D01*
G01X119855Y70500D01*
G01X119848Y70502D01*
G01X119839Y70504D01*
G01X119821Y70507D01*
G01X119810Y70510D01*
G01X119797Y70512D01*
G01X119788Y70513D01*
G01X119773Y70514D01*
G01X119718Y70515D01*
G01X119673D01*
G01X119663Y70514D01*
G01X119661Y70513D01*
G01X119653Y70511D01*
G01X119644Y70509D01*
G01X119618Y70505D01*
G01X119608Y70503D01*
G01X119601Y70501D01*
G01X119581Y70494D01*
G01X119557Y70487D01*
G01X119549Y70483D01*
G01X119533Y70476D01*
G01X119518Y70470D01*
G01X119510Y70466D01*
G01X119505Y70463D01*
G01X119497Y70460D01*
G01X119485Y70456D01*
G01Y70596D01*
G01X119495Y70600D01*
G01X119503Y70603D01*
G01X119511Y70605D01*
G01X119522Y70608D01*
G01X119528Y70610D01*
G01X119532Y70612D01*
G01X119537Y70615D01*
G01X119544Y70617D01*
G01X119553Y70618D01*
G01X119560Y70619D01*
G01X119563Y70620D01*
G01X119582Y70626D01*
G01X119589Y70628D01*
G01X119596Y70629D01*
G01X119604Y70630D01*
G01X119623D01*
G01X119631Y70631D01*
G01X119639Y70633D01*
G01X119650Y70635D01*
G01X119656Y70636D01*
G01X119664Y70637D01*
G01X119703Y70638D01*
G01X119741D01*
G01X119806Y70637D01*
G01X119816D01*
G01X119817Y70636D01*
G01X119825Y70634D01*
G01X119835Y70632D01*
G01X119873Y70626D01*
G01X119881Y70624D01*
G01X119888Y70622D01*
G01X120469D01*
G01X120609D01*
G01Y70265D01*
G01X120611Y69906D01*
G01Y69903D01*
G01X120612Y69899D01*
G01X120613Y69892D01*
G01X120614Y69879D01*
G01X120615Y69873D01*
G01X120616Y69869D01*
G01X120619Y69860D01*
G01X120621Y69847D01*
G01X120622Y69842D01*
G01X120624Y69837D01*
G01X120628Y69828D01*
G01X120631Y69819D01*
G01X120634Y69808D01*
G01X120636Y69802D01*
G01X120638Y69798D01*
G01X120643Y69789D01*
G01X120649Y69774D01*
G01X120653Y69769D01*
G01X120655Y69766D01*
G01X120662Y69757D01*
G01X120673Y69742D01*
G01X120681Y69732D01*
G01X120686Y69728D01*
G01X120691Y69724D01*
G01X120703Y69715D01*
G01X120709Y69710D01*
G01X120713Y69707D01*
G01X120720Y69703D01*
G01X120731Y69697D01*
G01X120741Y69690D01*
G01X120749Y69687D01*
G01X120765Y69683D01*
G01X120789Y69675D01*
G01X120799Y69673D01*
G01X120805Y69672D01*
G01X120817Y69671D01*
G01X120824Y69670D01*
G01X120829Y69669D01*
G01X120837Y69668D01*
G01X120863Y69667D01*
G01X120872D01*
G01X120903Y69668D01*
G01X120915Y69669D01*
G01X120920Y69670D01*
G01X120931Y69672D01*
G01X120950Y69675D01*
G01X120959Y69678D01*
G01X120976Y69684D01*
G01X120997Y69693D01*
G01X121006Y69697D01*
G01X121010Y69699D01*
G01X121015Y69703D01*
G01X121018Y69706D01*
G01X121032Y69715D01*
G01X121038Y69719D01*
G01X121041Y69722D01*
G01X121044Y69728D01*
G01X121049Y69733D01*
G01X121058Y69740D01*
G01X121063Y69745D01*
G01X121080Y69769D01*
G01X121086Y69779D01*
G01X121091Y69788D01*
G01X121095Y69795D01*
G01X121097Y69801D01*
G01X121105Y69822D01*
G01X121108Y69830D01*
G01X121110Y69838D01*
G01X121114Y69853D01*
G01X121117Y69864D01*
G01X121119Y69874D01*
G01X121122Y69894D01*
G01X121125Y69906D01*
G01X121126Y69911D01*
G01X121127Y69934D01*
G01X121128Y69941D01*
G01X121129Y69947D01*
G01X121131Y70172D01*
G01Y70622D01*
G01X121271D01*
G01Y70288D01*
G01X121270Y70115D01*
G01X121457D01*
G01X121458Y70157D01*
G01X121459Y70168D01*
G01Y70170D01*
G01X121462Y70177D01*
G01X121464Y70187D01*
G01X121465Y70192D01*
G01Y70198D01*
G01X121466Y70212D01*
G01Y70219D01*
G01X121467Y70228D01*
G01X121469Y70233D01*
G01X121472Y70240D01*
G01X121473Y70244D01*
G01X121474Y70248D01*
G01Y70256D01*
G01X121476Y70264D01*
G01X121480Y70278D01*
G01X121484Y70293D01*
G01X121491Y70318D01*
G01X121495Y70329D01*
G01X121498Y70337D01*
G01X121505Y70353D01*
G01X121512Y70369D01*
G01X121516Y70377D01*
G01X121523Y70390D01*
G01X121527Y70398D01*
G01X121532Y70408D01*
G01X121535Y70414D01*
G01X121537Y70417D01*
G01X121540Y70420D01*
G01X121545Y70427D01*
G01X121551Y70438D01*
G01X121554Y70442D01*
G01X121561Y70451D01*
G01X121572Y70466D01*
G01X121576Y70471D01*
G01X121586Y70482D01*
G01X121591Y70488D01*
G01X121604Y70501D01*
G01X121611Y70507D01*
G01X121626Y70520D01*
G01X121630Y70524D01*
G01X121635Y70529D01*
G01X121638Y70533D01*
G01X121641Y70536D01*
G01X121643Y70537D01*
G01X121652Y70542D01*
G01X121655Y70544D01*
G01X121659Y70550D01*
G01X121661Y70553D01*
G01X121664Y70555D01*
G01X121671Y70557D01*
G01X121678Y70561D01*
G01X121689Y70569D01*
G01X121695Y70573D01*
G01X121707Y70579D01*
G01X121718Y70586D01*
G01X121721Y70588D01*
G01X121731Y70592D01*
G01X121752Y70600D01*
G01X121767Y70607D01*
G01X121776Y70611D01*
G01X121784Y70614D01*
G01X121795Y70617D01*
G01X121815Y70623D01*
G01X121830Y70626D01*
G01X121841Y70629D01*
G01X121851Y70631D01*
G01X121871Y70634D01*
G01X121879Y70636D01*
G01X121882Y70637D01*
G01X121893Y70638D01*
G01X121956D01*
G01X122021Y70637D01*
G01X122031D01*
G01X122032Y70636D01*
G01X122040Y70634D01*
G01X122049Y70632D01*
G01X122072Y70628D01*
G01X122084Y70626D01*
G01X122095Y70623D01*
G01X122100Y70622D01*
G01X122488D01*
G01X123239D01*
G01Y70503D01*
G01X122934D01*
G01Y69565D01*
G01X123205D01*
G01Y69684D01*
G01X123629D01*
G01Y70622D01*
G01X123770D01*
G01Y69871D01*
G01X123973D01*
G01Y69879D01*
G01X123974Y69887D01*
G01X123976Y69893D01*
G01X123977Y69903D01*
G01X123978Y69920D01*
G01X123979Y69926D01*
G01X123981Y69935D01*
G01X123985Y69950D01*
G01X123988Y69960D01*
G01X123993Y69971D01*
G01X123999Y69985D01*
G01X124001Y69991D01*
G01X124004Y69998D01*
G01X124006Y70001D01*
G01X124012Y70008D01*
G01X124022Y70024D01*
G01X124027Y70031D01*
G01X124035Y70039D01*
G01X124039Y70046D01*
G01X124044Y70051D01*
G01X124053Y70057D01*
G01X124060Y70064D01*
G01X124069Y70070D01*
G01X124088Y70084D01*
G01X124093Y70087D01*
G01X124097Y70089D01*
G01X124110Y70094D01*
G01X124118Y70099D01*
G01X124123Y70102D01*
G01X124128Y70104D01*
G01X124138Y70108D01*
G01X124166Y70117D01*
G01X124181Y70120D01*
G01X124199Y70124D01*
G01X124201Y70125D01*
G01X124203Y70126D01*
G01X124204D01*
G01Y70127D01*
G01Y70129D01*
G01X124203Y70131D01*
G01X124201Y70133D01*
G01X124198Y70134D01*
G01X124185Y70139D01*
G01X124177Y70142D01*
G01X124165Y70148D01*
G01X124158Y70153D01*
G01X124136Y70165D01*
G01X124129Y70170D01*
G01X124123Y70175D01*
G01X124114Y70182D01*
G01X124108Y70187D01*
G01X124103Y70192D01*
G01X124096Y70201D01*
G01X124090Y70208D01*
G01X124084Y70216D01*
G01X124077Y70225D01*
G01X124073Y70229D01*
G01X124070Y70233D01*
G01X124064Y70242D01*
G01X124060Y70250D01*
G01X124056Y70258D01*
G01X124051Y70271D01*
G01X124046Y70278D01*
G01X124043Y70284D01*
G01X124041Y70288D01*
G01X124040Y70293D01*
G01X124037Y70310D01*
G01X124033Y70325D01*
G01X124030Y70335D01*
G01Y70338D01*
G01X124029Y70347D01*
G01X124028Y70386D01*
G01X124029Y70419D01*
G01X124030Y70431D01*
G01Y70433D01*
G01X124037Y70452D01*
G01X124044Y70472D01*
G01X124049Y70482D01*
G01X124053Y70491D01*
G01X124062Y70505D01*
G01X124071Y70517D01*
G01X124079Y70527D01*
G01X124088Y70536D01*
G01X124093Y70539D01*
G01X124098Y70544D01*
G01X124103Y70551D01*
G01X124106Y70553D01*
G01X124109Y70556D01*
G01X124120Y70561D01*
G01X124126Y70565D01*
G01X124134Y70571D01*
G01X124139Y70574D01*
G01X124144Y70577D01*
G01X124157Y70583D01*
G01X124164Y70587D01*
G01X124173Y70592D01*
G01X124183Y70596D01*
G01X124195Y70600D01*
G01X124209Y70604D01*
G01X124220Y70607D01*
G01X124231Y70610D01*
G01X124251Y70613D01*
G01X124263Y70616D01*
G01X124271Y70617D01*
G01X124282Y70618D01*
G01X124289Y70620D01*
G01X124291D01*
G01X124303D01*
G01X124472Y70622D01*
G01X124648D01*
G01Y69565D01*
G01X124455D01*
G01X124262Y69567D01*
G01X124256D01*
G01X124252Y69569D01*
G01X124240Y69571D01*
G01X124218Y69574D01*
G01X124209Y69576D01*
G01X124190Y69582D01*
G01X124169Y69589D01*
G01X124145Y69599D01*
G01X124135Y69604D01*
G01X124130Y69607D01*
G01X124117Y69616D01*
G01X124099Y69627D01*
G01X124086Y69637D01*
G01X124064Y69654D01*
G01X124060Y69658D01*
G01X124056Y69662D01*
G01X124051Y69668D01*
G01X124041Y69681D01*
G01X124027Y69700D01*
G01X124016Y69716D01*
G01X124011Y69723D01*
G01X124004Y69740D01*
G01X124000Y69748D01*
G01X123997Y69753D01*
G01X123995Y69757D01*
G01X123994Y69762D01*
G01X123991Y69772D01*
G01X123988Y69781D01*
G01X123984Y69790D01*
G01X123983Y69794D01*
G01X123982Y69799D01*
G01X123981Y69807D01*
G01X123980Y69814D01*
G01X123978Y69822D01*
G01Y69826D01*
G01X123977Y69849D01*
G01X123976Y69856D01*
G01X123974Y69863D01*
G01X123973Y69871D01*
G01X123770D01*
G01Y69565D01*
G01X123205D01*
G01X122934D01*
G01X122794D01*
G01Y70503D01*
G01X122488D01*
G01Y70622D01*
G01X122100D01*
G01X122105Y70621D01*
G01X122117Y70618D01*
G01X122124Y70616D01*
G01X122128Y70614D01*
G01X122133Y70611D01*
G01X122137Y70609D01*
G01X122142Y70608D01*
G01X122152Y70605D01*
G01X122158Y70603D01*
G01X122162Y70601D01*
G01X122167Y70598D01*
G01X122175Y70595D01*
G01X122187Y70591D01*
G01X122200Y70584D01*
G01X122210Y70580D01*
G01X122216Y70577D01*
G01X122243Y70560D01*
G01X122250Y70555D01*
G01X122258Y70547D01*
G01X122274Y70536D01*
G01X122283Y70528D01*
G01X122287Y70525D01*
G01X122292Y70519D01*
G01X122295Y70514D01*
G01X122298Y70512D01*
G01X122302Y70509D01*
G01X122310Y70505D01*
G01X122313Y70502D01*
G01X122316Y70499D01*
G01X122321Y70493D01*
G01X122326Y70488D01*
G01X122332Y70483D01*
G01X122335Y70481D01*
G01X122337Y70478D01*
G01X122339Y70472D01*
G01X122341Y70469D01*
G01X122343Y70467D01*
G01X122349Y70462D01*
G01X122352Y70459D01*
G01X122354Y70456D01*
G01X122360Y70445D01*
G01X122365Y70439D01*
G01X122374Y70426D01*
G01X122380Y70416D01*
G01X122388Y70401D01*
G01X122395Y70389D01*
G01X122401Y70379D01*
G01X122405Y70372D01*
G01X122408Y70362D01*
G01X122417Y70343D01*
G01X122420Y70335D01*
G01X122428Y70315D01*
G01X122429Y70312D01*
G01X122438Y70284D01*
G01X122445Y70259D01*
G01X122447Y70248D01*
G01X122450Y70225D01*
G01X122454Y70209D01*
G01X122456Y70200D01*
G01X122458Y70188D01*
G01X122459Y70170D01*
G01X122460Y70160D01*
G01X122462Y70153D01*
G01X122464Y70140D01*
G01X122465Y70131D01*
G01X122466Y70117D01*
G01X122467Y70068D01*
G01Y70030D01*
G01X122466Y70019D01*
G01X122464Y70013D01*
G01X122462Y70003D01*
G01X122461Y69996D01*
G01X122459Y69982D01*
G01X122458Y69968D01*
G01Y69963D01*
G01X122457Y69958D01*
G01X122455Y69954D01*
G01X122452Y69947D01*
G01X122451Y69943D01*
G01X122450Y69938D01*
G01Y69930D01*
G01X122449Y69923D01*
G01X122445Y69909D01*
G01X122441Y69893D01*
G01X122425Y69845D01*
G01X122421Y69837D01*
G01X122417Y69828D01*
G01X122413Y69820D01*
G01X122409Y69810D01*
G01X122406Y69804D01*
G01X122399Y69793D01*
G01X122393Y69779D01*
G01X122390Y69773D01*
G01X122387Y69770D01*
G01X122384Y69767D01*
G01X122380Y69760D01*
G01X122374Y69749D01*
G01X122371Y69744D01*
G01X122363Y69736D01*
G01X122352Y69721D01*
G01X122331Y69695D01*
G01X122327Y69689D01*
G01X122323Y69685D01*
G01X122318Y69681D01*
G01X122313Y69677D01*
G01X122306Y69671D01*
G01X122295Y69661D01*
G01X122290Y69656D01*
G01X122281Y69650D01*
G01X122274Y69644D01*
G01X122265Y69637D01*
G01X122242Y69620D01*
G01X122212Y69602D01*
G01X122205Y69598D01*
G01X122195Y69594D01*
G01X122176Y69585D01*
G01X122168Y69582D01*
G01X122147Y69574D01*
G01X122139Y69571D01*
G01X122121Y69566D01*
G01X122111Y69563D01*
G01X122102Y69559D01*
G01X122097Y69558D01*
G01X122093Y69557D01*
G01X122083Y69556D01*
G01X122074Y69555D01*
G01X122063Y69552D01*
G01X122054Y69550D01*
G01X122048Y69549D01*
G01X122037D01*
G01X122013Y69548D01*
G01X122006Y69547D01*
G01X122004D01*
G01X122003D01*
G01Y69546D01*
G01X122000Y69545D01*
G01X121993D01*
G01X121967Y69544D01*
G01X121939Y69545D01*
G01X121928Y69546D01*
G01X121925Y69547D01*
G01X121915Y69548D01*
G01X121902D01*
G01X121879Y69549D01*
G01X121870Y69550D01*
G01X121860Y69552D01*
G01X121842Y69556D01*
G01X121827Y69561D01*
G01X121817Y69564D01*
G01X121807Y69566D01*
G01X121795Y69569D01*
G01X121787Y69571D01*
G01X121784Y69573D01*
G01X121779Y69576D01*
G01X121775Y69577D01*
G01X121770Y69579D01*
G01X121758Y69582D01*
G01X121754Y69583D01*
G01X121751Y69585D01*
G01X121748Y69588D01*
G01X121745Y69590D01*
G01X121741Y69591D01*
G01X121730Y69595D01*
G01X121722Y69599D01*
G01X121706Y69610D01*
G01X121684Y69622D01*
G01X121677Y69627D01*
G01X121663Y69637D01*
G01X121652Y69646D01*
G01X121646Y69652D01*
G01X121638Y69658D01*
G01X121632Y69663D01*
G01X121627Y69669D01*
G01X121622Y69675D01*
G01X121611Y69685D01*
G01X121604Y69692D01*
G01X121599Y69698D01*
G01X121594Y69703D01*
G01X121588Y69708D01*
G01X121585Y69710D01*
G01X121583Y69714D01*
G01X121576Y69726D01*
G01X121573Y69730D01*
G01X121565Y69738D01*
G01X121553Y69756D01*
G01X121547Y69765D01*
G01X121540Y69775D01*
G01X121536Y69783D01*
G01X121532Y69791D01*
G01X121526Y69804D01*
G01X121522Y69812D01*
G01X121517Y69821D01*
G01X121513Y69830D01*
G01X121496Y69873D01*
G01X121492Y69884D01*
G01X121490Y69890D01*
G01X121488Y69902D01*
G01X121486Y69909D01*
G01X121484Y69914D01*
G01X121481Y69919D01*
G01X121480Y69922D01*
G01X121479Y69926D01*
G01Y69934D01*
G01X121478Y69941D01*
G01X121476Y69949D01*
G01X121473Y69959D01*
G01X121470Y69979D01*
G01X121467Y69991D01*
G01X121466Y69996D01*
G01Y70019D01*
G01X121465Y70026D01*
G01X121463Y70033D01*
G01X121461Y70044D01*
G01X121460Y70051D01*
G01X121459Y70058D01*
G01X121458Y70083D01*
G01X121457Y70115D01*
G01X121270D01*
G01X121269Y69954D01*
G01Y69950D01*
G01Y69949D01*
G01X121268Y69947D01*
G01X121267Y69938D01*
G01X121266Y69899D01*
G01X121265Y69889D01*
G01X121264Y69886D01*
G01X121263Y69878D01*
G01X121262Y69864D01*
G01X121261Y69855D01*
G01X121259Y69848D01*
G01X121257Y69837D01*
G01X121254Y69817D01*
G01X121251Y69809D01*
G01X121237Y69765D01*
G01X121230Y69744D01*
G01X121225Y69734D01*
G01X121221Y69726D01*
G01X121215Y69717D01*
G01X121208Y69703D01*
G01X121204Y69697D01*
G01X121195Y69683D01*
G01X121185Y69669D01*
G01X121180Y69663D01*
G01X121177Y69660D01*
G01X121172Y69656D01*
G01X121167Y69651D01*
G01X121160Y69642D01*
G01X121151Y69635D01*
G01X121146Y69630D01*
G01X121141Y69624D01*
G01X121139Y69621D01*
G01X121136Y69619D01*
G01X121130Y69617D01*
G01X121127Y69616D01*
G01X121124Y69614D01*
G01X121116Y69607D01*
G01X121107Y69601D01*
G01X121100Y69597D01*
G01X121091Y69593D01*
G01X121079Y69587D01*
G01X121071Y69583D01*
G01X121066Y69580D01*
G01X121061Y69578D01*
G01X121050Y69574D01*
G01X121025Y69565D01*
G01X121005Y69560D01*
G01X120984Y69557D01*
G01X120972Y69553D01*
G01X120959Y69551D01*
G01X120950Y69550D01*
G01X120931Y69549D01*
G01X120913Y69548D01*
G01X120907Y69547D01*
G01X120906D01*
G01X120905D01*
G01X120904Y69546D01*
G01X120901Y69545D01*
G01X120896D01*
G01X120879Y69544D01*
G01X120861D01*
G01X120852Y69545D01*
G01X120849Y69546D01*
G01X120845Y69547D01*
G01X120838Y69548D01*
G01X120821D01*
G01X120807Y69549D01*
G01X120800D01*
G01X120794Y69550D01*
G01X120790Y69551D01*
G01X120783Y69552D01*
G01X120771Y69553D01*
G01X120764Y69554D01*
G01X120760Y69556D01*
G01X120751Y69558D01*
G01X120738Y69560D01*
G01X120733Y69561D01*
G01X120728Y69563D01*
G01X120719Y69567D01*
G01X120709Y69571D01*
G01X120694Y69574D01*
G01X120686Y69578D01*
G01X120674Y69583D01*
G01X120659Y69589D01*
G01X120651Y69594D01*
G01X120632Y69606D01*
G01X120624Y69611D01*
G01X120611Y69620D01*
G01X120590Y69637D01*
G01X120585Y69641D01*
G01X120581Y69645D01*
G01X120576Y69650D01*
G01X120566Y69664D01*
G01X120547Y69688D01*
G01X120541Y69697D01*
G01X120535Y69707D01*
G01X120530Y69715D01*
G01X120527Y69723D01*
G01X120521Y69736D01*
G01X120517Y69744D01*
G01X120513Y69749D01*
G01X120511Y69753D01*
G01X120507Y69765D01*
G01X120500Y69785D01*
G01X120497Y69793D01*
G01X120495Y69799D01*
G01X120494Y69805D01*
G01X120490Y69823D01*
G01X120486Y69838D01*
G01X120484Y69847D01*
G01X120480Y69868D01*
G01X120477Y69881D01*
G01X120475Y69898D01*
G01X120473Y69920D01*
G01Y69934D01*
G01X120471Y69940D01*
G01Y69943D01*
G01X120469Y70170D01*
G01Y70622D01*
G01X119888D01*
G01X119924Y70611D01*
G01X119943Y70604D01*
G01X119955Y70600D01*
G01X119975Y70591D01*
G01X119991Y70585D01*
G01X119999Y70580D01*
G01X120017Y70568D01*
G01X120038Y70556D01*
G01X120045Y70552D01*
G01X120052Y70546D01*
G01X120061Y70539D01*
G01X120076Y70528D01*
G01X120086Y70520D01*
G01X120090Y70516D01*
G01X120094Y70511D01*
G01X120098Y70506D01*
G01X120100Y70504D01*
G01X120102Y70502D01*
G01X120106Y70499D01*
G01X120114Y70494D01*
G01X120124Y70486D01*
G01X120133Y70477D01*
G01X120143Y70463D01*
G01X120151Y70454D01*
G01X120160Y70444D01*
G01X120164Y70441D01*
G01X120167Y70439D01*
G01X120168Y70436D01*
G01X120171Y70429D01*
G01X120173Y70426D01*
G01X120177Y70421D01*
G01X120186Y70408D01*
G01X120192Y70399D01*
G01X120199Y70385D01*
G01X120204Y70378D01*
G01X120217Y70356D01*
G01X120222Y70346D01*
G01X120224Y70342D01*
G01X120228Y70329D01*
G01X120236Y70309D01*
G01X120240Y70301D01*
G01X120248Y70280D01*
G01X120252Y70269D01*
G01X120254Y70263D01*
G01X120257Y70246D01*
G01X120261Y70230D01*
G01X120263Y70221D01*
G01X120267Y70200D01*
G01X120270Y70190D01*
G01X120272Y70182D01*
G01X120273Y70179D01*
G01Y70174D01*
G01X120274Y70148D01*
G01X120275Y70140D01*
G01X120276Y70136D01*
G01X120277Y70133D01*
G01Y70123D01*
G01X120278Y70066D01*
G01X120277Y70007D01*
G01X120276Y69997D01*
G01Y69996D01*
G01X120275Y69992D01*
G01Y69987D01*
G01X120274Y69967D01*
G01X120272Y69959D01*
G01X120271Y69954D01*
G01X120267Y69947D01*
G01X120266Y69942D01*
G01X120265Y69933D01*
G01Y69921D01*
G01X120264Y69916D01*
G01X120262Y69911D01*
G01X120259Y69904D01*
G01X120257Y69899D01*
G01X120256Y69894D01*
G01X120254Y69881D01*
G01X120252Y69876D01*
G01X120250Y69871D01*
G01X120245Y69858D01*
G01X120241Y69845D01*
G01X120238Y69838D01*
G01X120232Y69828D01*
G01X120228Y69815D01*
G01X120225Y69808D01*
G01X120219Y69798D01*
G01X120208Y69778D01*
G01X120204Y69771D01*
G01X120193Y69754D01*
G01X120168Y69718D01*
G01X120161Y69711D01*
G01X120155Y69703D01*
G01X120150Y69697D01*
G01X120141Y69690D01*
G01X120136Y69685D01*
G01X120129Y69676D01*
G01X120120Y69669D01*
G01X120115Y69664D01*
G01X120110Y69657D01*
G01X120107Y69655D01*
G01X120104Y69652D01*
G01X120092Y69646D01*
G01X120088Y69643D01*
G01X120080Y69635D01*
G01X120062Y69622D01*
G01X120055Y69618D01*
G01X120049Y69614D01*
G01X120037Y69608D01*
G01X120027Y69602D01*
G01X120020Y69598D01*
G01X120010Y69594D01*
G01X119991Y69585D01*
G01X119983Y69582D01*
G01X119973Y69578D01*
G01X119960Y69575D01*
G01X119952Y69572D01*
G01X119943Y69568D01*
G01X119933Y69565D01*
G01X119918Y69561D01*
G01X119908Y69558D01*
G01X119900Y69557D01*
G01X119889Y69556D01*
G01X119874Y69552D01*
G01X119865Y69550D01*
G01X119859Y69549D01*
G01X119849D01*
G01X119826Y69548D01*
G01X119821Y69547D01*
G01X119820D01*
G01X119818D01*
G01Y69546D01*
G01X119814Y69545D01*
G01X119807D01*
G01X119780Y69544D01*
G01X119751Y69545D01*
G01X119740Y69546D01*
G01X119738D01*
G01X119735Y69547D01*
G01X119726Y69548D01*
G01X119687Y69549D01*
G01X119677Y69550D01*
G01X119666Y69552D01*
G01X119656Y69554D01*
G01X119649Y69556D01*
G01X119638Y69557D01*
G01X119629D01*
G01X119623Y69559D01*
G01X119601Y69565D01*
G01X119582Y69571D01*
G01X119566Y69574D01*
G01X119540Y69582D01*
G01X119533Y69584D01*
G01X119528Y69587D01*
G01X119522Y69590D01*
G01X119512Y69595D01*
G01X119506Y69598D01*
G01X119502Y69600D01*
G01X119497Y69601D01*
G01X119494Y69603D01*
G01X119491Y69606D01*
G01X119488Y69609D01*
G01X119487Y69614D01*
G01X119486Y69617D01*
G01Y69628D01*
G01X119485Y69680D01*
G01X119277D01*
G01Y69565D01*
G01X119137D01*
G01Y70041D01*
G01X118602D01*
G01Y69565D01*
G01X118463D01*
G01Y70622D01*
G01X118322D01*
G01Y69196D01*
G01X124779D01*
G01Y71042D01*
G37*
G36*
G01X121947Y70515D02*
G01X121909Y70515D01*
G01X121899Y70514D01*
G01X121893Y70512D01*
G01X121882Y70510D01*
G01X121863Y70507D01*
G01X121843Y70502D01*
G01X121831Y70498D01*
G01X121814Y70491D01*
G01X121804Y70487D01*
G01X121798Y70483D01*
G01X121787Y70477D01*
G01X121773Y70471D01*
G01X121769Y70468D01*
G01X121766Y70466D01*
G01X121760Y70460D01*
G01X121758Y70457D01*
G01X121755Y70456D01*
G01X121749Y70452D01*
G01X121745Y70450D01*
G01X121740Y70447D01*
G01X121735Y70443D01*
G01X121731Y70439D01*
G01X121726Y70435D01*
G01X121722Y70430D01*
G01X121718Y70426D01*
G01X121713Y70420D01*
G01X121707Y70415D01*
G01X121704Y70412D01*
G01X121701Y70408D01*
G01X121693Y70396D01*
G01X121688Y70389D01*
G01X121684Y70386D01*
G01X121682Y70382D01*
G01X121676Y70373D01*
G01X121661Y70349D01*
G01X121654Y70332D01*
G01X121649Y70324D01*
G01X121646Y70319D01*
G01X121644Y70314D01*
G01X121640Y70303D01*
G01X121631Y70278D01*
G01X121628Y70269D01*
G01X121626Y70259D01*
G01X121623Y70241D01*
G01X121619Y70226D01*
G01X121617Y70216D01*
G01X121615Y70209D01*
G01X121614Y70197D01*
G01Y70189D01*
G01X121612Y70182D01*
G01X121611Y70179D01*
G01X121609Y70166D01*
G01X121608Y70157D01*
G01X121607Y70145D01*
G01X121606Y70077D01*
G01X121607Y70021D01*
G01X121608Y70010D01*
G01Y70008D01*
G01X121609Y70004D01*
G01X121611Y69992D01*
G01X121612Y69983D01*
G01X121614Y69969D01*
G01X121616Y69959D01*
G01X121624Y69929D01*
G01X121627Y69916D01*
G01X121631Y69900D01*
G01X121638Y69881D01*
G01X121641Y69874D01*
G01X121650Y69857D01*
G01X121654Y69849D01*
G01X121657Y69841D01*
G01X121672Y69817D01*
G01X121680Y69805D01*
G01X121697Y69780D01*
G01X121703Y69775D01*
G01X121712Y69768D01*
G01X121718Y69760D01*
G01X121724Y69754D01*
G01X121733Y69747D01*
G01X121738Y69741D01*
G01X121740Y69738D01*
G01X121742Y69736D01*
G01X121745Y69734D01*
G01X121751Y69732D01*
G01X121759Y69727D01*
G01X121769Y69720D01*
G01X121776Y69716D01*
G01X121780Y69714D01*
G01X121814Y69697D01*
G01X121825Y69692D01*
G01X121833Y69688D01*
G01X121838Y69686D01*
G01X121844Y69684D01*
G01X121850Y69683D01*
G01X121867Y69680D01*
G01X121883Y69675D01*
G01X121892Y69673D01*
G01X121896D01*
G01X121916Y69672D01*
G01X121967Y69671D01*
G01X122022Y69672D01*
G01X122030Y69673D01*
G01X122032D01*
G01X122036Y69675D01*
G01X122047Y69676D01*
G01X122055Y69677D01*
G01X122079Y69684D01*
G01X122089Y69687D01*
G01X122098Y69690D01*
G01X122114Y69698D01*
G01X122127Y69703D01*
G01X122136Y69708D01*
G01X122150Y69718D01*
G01X122166Y69729D01*
G01X122173Y69734D01*
G01X122182Y69741D01*
G01X122188Y69746D01*
G01X122193Y69751D01*
G01X122200Y69760D01*
G01X122209Y69767D01*
G01X122215Y69772D01*
G01X122221Y69781D01*
G01X122227Y69789D01*
G01X122230Y69792D01*
G01X122241Y69808D01*
G01X122246Y69814D01*
G01X122249Y69818D01*
G01X122253Y69824D01*
G01X122259Y69836D01*
G01X122265Y69846D01*
G01X122268Y69851D01*
G01X122275Y69867D01*
G01X122280Y69875D01*
G01X122283Y69880D01*
G01X122284Y69885D01*
G01X122286Y69889D01*
G01X122288Y69899D01*
G01X122290Y69905D01*
G01X122292Y69909D01*
G01X122295Y69915D01*
G01X122297Y69920D01*
G01X122298Y69925D01*
G01X122301Y69939D01*
G01X122302Y69946D01*
G01X122305Y69953D01*
G01X122308Y69960D01*
G01X122309Y69965D01*
G01X122310Y69973D01*
G01X122311Y69988D01*
G01X122312Y69994D01*
G01X122313Y70000D01*
G01X122316Y70013D01*
G01X122317Y70021D01*
G01Y70033D01*
G01X122319Y70100D01*
G01X122318Y70153D01*
G01X122317Y70164D01*
G01X122316Y70169D01*
G01X122315Y70176D01*
G01X122314Y70188D01*
G01X122311Y70198D01*
G01X122310Y70206D01*
G01Y70214D01*
G01X122309Y70218D01*
G01X122308Y70223D01*
G01X122305Y70229D01*
G01X122303Y70234D01*
G01X122302Y70240D01*
G01X122298Y70257D01*
G01X122296Y70266D01*
G01X122294Y70270D01*
G01X122291Y70275D01*
G01X122289Y70279D01*
G01X122288Y70283D01*
G01X122286Y70293D01*
G01X122283Y70300D01*
G01X122282Y70304D01*
G01X122276Y70313D01*
G01X122270Y70328D01*
G01X122267Y70333D01*
G01X122264Y70337D01*
G01X122257Y70348D01*
G01X122253Y70354D01*
G01X122248Y70363D01*
G01X122246Y70368D01*
G01X122238Y70378D01*
G01X122228Y70391D01*
G01X122223Y70398D01*
G01X122218Y70403D01*
G01X122209Y70410D01*
G01X122202Y70419D01*
G01X122196Y70424D01*
G01X122188Y70431D01*
G01X122183Y70437D01*
G01X122181Y70440D01*
G01X122177Y70443D01*
G01X122173Y70446D01*
G01X122156Y70458D01*
G01X122145Y70466D01*
G01X122140Y70468D01*
G01X122135Y70471D01*
G01X122121Y70477D01*
G01X122118Y70479D01*
G01X122113Y70483D01*
G01X122108Y70486D01*
G01X122104Y70488D01*
G01X122098Y70490D01*
G01X122072Y70499D01*
G01X122063Y70501D01*
G01X122054Y70504D01*
G01X122036Y70507D01*
G01X122024Y70510D01*
G01X122014Y70512D01*
G01X122007Y70513D01*
G01X121998Y70514D01*
G01X121968Y70515D01*
G37*
G36*
G01X124419Y70503D02*
G01X124334Y70502D01*
G01X124325Y70501D01*
G01X124320Y70500D01*
G01X124313Y70499D01*
G01X124300Y70498D01*
G01X124286Y70494D01*
G01X124272Y70491D01*
G01X124262Y70488D01*
G01X124257Y70486D01*
G01X124241Y70477D01*
G01X124231Y70472D01*
G01X124221Y70465D01*
G01X124217Y70461D01*
G01X124208Y70451D01*
G01X124202Y70444D01*
G01X124198Y70439D01*
G01X124196Y70437D01*
G01X124192Y70429D01*
G01X124183Y70410D01*
G01X124179Y70401D01*
G01X124178Y70397D01*
G01X124177Y70393D01*
G01Y70384D01*
G01X124176Y70377D01*
G01X124174Y70369D01*
G01X124173Y70363D01*
G01X124172Y70349D01*
G01Y70344D01*
G01X124173Y70327D01*
G01X124174Y70317D01*
G01X124177Y70307D01*
G01X124180Y70292D01*
G01X124183Y70282D01*
G01X124185Y70278D01*
G01X124194Y70261D01*
G01X124199Y70252D01*
G01X124207Y70242D01*
G01X124211Y70237D01*
G01X124220Y70228D01*
G01X124224Y70225D01*
G01X124230Y70219D01*
G01X124234Y70214D01*
G01X124237Y70211D01*
G01X124240Y70209D01*
G01X124246Y70207D01*
G01X124252Y70204D01*
G01X124263Y70197D01*
G01X124287Y70187D01*
G01X124296Y70183D01*
G01X124302Y70181D01*
G01X124309Y70179D01*
G01X124331Y70176D01*
G01X124340Y70174D01*
G01X124343D01*
G01X124355Y70173D01*
G01X124425Y70172D01*
G01X124495Y70173D01*
G01X124504Y70174D01*
G01X124505D01*
G01X124506D01*
G01Y70177D01*
G01X124508Y70268D01*
G01Y70503D01*
G37*
G36*
G01X124419Y70053D02*
G01X124334Y70052D01*
G01X124325Y70051D01*
G01X124323D01*
G01X124319Y70050D01*
G01X124315Y70049D01*
G01X124292D01*
G01X124285Y70048D01*
G01X124277Y70046D01*
G01X124267Y70044D01*
G01X124256Y70042D01*
G01X124250Y70040D01*
G01X124245Y70038D01*
G01X124232Y70032D01*
G01X124219Y70028D01*
G01X124212Y70025D01*
G01X124202Y70019D01*
G01X124186Y70011D01*
G01X124182Y70007D01*
G01X124173Y70000D01*
G01X124167Y69995D01*
G01X124164Y69992D01*
G01X124161Y69988D01*
G01X124153Y69976D01*
G01X124148Y69969D01*
G01X124145Y69966D01*
G01X124141Y69958D01*
G01X124138Y69953D01*
G01X124132Y69936D01*
G01X124126Y69915D01*
G01X124125Y69911D01*
G01X124123Y69901D01*
G01X124122Y69889D01*
G01Y69866D01*
G01Y69839D01*
G01X124123Y69828D01*
G01X124126Y69819D01*
G01X124129Y69804D01*
G01X124131Y69798D01*
G01X124133Y69794D01*
G01X124138Y69785D01*
G01X124145Y69770D01*
G01X124148Y69765D01*
G01X124150Y69762D01*
G01X124158Y69753D01*
G01X124162Y69747D01*
G01X124167Y69741D01*
G01X124177Y69735D01*
G01X124184Y69729D01*
G01X124187Y69726D01*
G01X124196Y69720D01*
G01X124211Y69712D01*
G01X124215Y69709D01*
G01X124226Y69704D01*
G01X124234Y69701D01*
G01X124246Y69697D01*
G01X124259Y69693D01*
G01X124272Y69689D01*
G01X124284Y69687D01*
G01X124293Y69686D01*
G01X124308Y69685D01*
G01X124408Y69684D01*
G01X124496Y69685D01*
G01X124504Y69686D01*
G01X124506D01*
G01Y69689D01*
G01X124508Y69871D01*
G01Y70053D01*
G37*
G04 Text End*

G04 PolygonModel Start*
G54D12*
G01X89527Y65228D02*
G01X95682Y65228D01*
G01X99506Y61365D01*
G01X99611Y61246D01*
G01Y57510D01*
G01X92918D01*
G01X89516Y60912D01*
G01X89527Y60922D01*
G01Y65228D01*
G01X103799Y57541D02*
G01X103799Y65644D01*
G01X104887Y66732D01*
G01X104892Y66727D01*
G01X115090D01*
G01Y58542D01*
G01X114073Y57525D01*
G01X103816D01*
G01X103799Y57541D01*
G01X116192Y55217D02*
G01X115586Y55823D01*
G01Y67821D01*
G01X117025Y69260D01*
G01X124650D01*
G01Y56578D01*
G01X124298Y56226D01*
G01X121106D01*
G01Y55226D01*
G01X121096Y55217D01*
G01X116192D01*
G04 PolygonModel End*

M02*
